<?xml version="1.0" encoding="UTF-8"?>
<svg width="1137px" height="315px" viewBox="0 0 1137 315" version="1.1" xmlns="http://www.w3.org/2000/svg" xmlns:xlink="http://www.w3.org/1999/xlink">
    <!-- Generator: Sketch 48.2 (47327) - http://www.bohemiancoding.com/sketch -->
    <title>Group 17</title>
    <desc>Created with Sketch.</desc>
    <defs></defs>
    <g id="COMMODITY/Resource-centre-aluminum/WEB" stroke="none" stroke-width="1" fill="none" fill-rule="evenodd" transform="translate(-135.000000, -2910.000000)">
        <g id="resource-centre" transform="translate(134.000000, 511.000000)">
            <g id="Group-3" transform="translate(0.000000, 2308.000000)">
                <g id="Group-11">
                    <g id="chart">
                        <g id="Group-16">
                            <g id="Group-17" transform="translate(0.000000, 87.000000)">
                                <g id="Group-15" transform="translate(101.000000, 300.000000)" font-size="16">
                                    <g id="Group-7" fill="#525969" font-family="HelveticaNeue, Helvetica Neue" font-weight="normal" line-spacing="24">
                                        <text id="16:16:00">
                                            <tspan x="0" y="15">16:16:00</tspan>
                                        </text>
                                        <text id="16:18:00">
                                            <tspan x="100" y="15">16:18:00</tspan>
                                        </text>
                                        <text id="16:22:00">
                                            <tspan x="200" y="15">16:22:00</tspan>
                                        </text>
                                        <text id="16:24:00">
                                            <tspan x="300" y="15">16:24:00</tspan>
                                        </text>
                                        <text id="16:26:00">
                                            <tspan x="400" y="15">16:26:00</tspan>
                                        </text>
                                        <text id="16:28:00">
                                            <tspan x="500" y="15">16:28:00</tspan>
                                        </text>
                                        <text id="16:30:00">
                                            <tspan x="600" y="15">16:30:00</tspan>
                                        </text>
                                        <text id="16:32:00">
                                            <tspan x="700" y="15">16:32:00</tspan>
                                        </text>
                                        <text id="16:34:00">
                                            <tspan x="800" y="15">16:34:00</tspan>
                                        </text>
                                    </g>
                                    <text id="Time" font-family="HelveticaNeue-Bold, Helvetica Neue" font-weight="bold" fill="#313541">
                                        <tspan x="999" y="17">Time</tspan>
                                    </text>
                                </g>
                                <g id="Group-14" font-size="16">
                                    <g id="Group-6" transform="translate(1.000000, 47.000000)" fill="#525969" font-family="HelveticaNeue, Helvetica Neue" font-weight="normal" line-spacing="24">
                                        <text id="0">
                                            <tspan x="0" y="244">0</tspan>
                                        </text>
                                        <text id="20">
                                            <tspan x="0" y="205.833333">20</tspan>
                                        </text>
                                        <text id="40">
                                            <tspan x="0" y="167.666667">40</tspan>
                                        </text>
                                        <text id="60">
                                            <tspan x="0" y="129.5">60</tspan>
                                        </text>
                                        <text id="80">
                                            <tspan x="0" y="91.3333333">80</tspan>
                                        </text>
                                        <text id="100">
                                            <tspan x="0" y="53.1666667">100</tspan>
                                        </text>
                                        <text id="120">
                                            <tspan x="0" y="15">120</tspan>
                                        </text>
                                    </g>
                                    <text id="Price" font-family="HelveticaNeue-Bold, Helvetica Neue" font-weight="bold" fill="#313541">
                                        <tspan x="0" y="16">Price</tspan>
                                    </text>
                                </g>
                                <g id="Group-9" transform="translate(101.000000, 38.000000)">
                                    <g id="Group-8" transform="translate(2.000000, 0.000000)" fill="#FCFCFC">
                                        <polygon id="Rectangle-16" points="0 240 967 240 967 260 0 260"></polygon>
                                        <polygon id="Rectangle-16" points="0 200 967 200 967 220 0 220"></polygon>
                                        <polygon id="Rectangle-16" points="0 160 967 160 967 180 0 180"></polygon>
                                        <polygon id="Rectangle-16" points="0 120 967 120 967 140 0 140"></polygon>
                                        <polygon id="Rectangle-16" points="0 80 967 80 967 100 0 100"></polygon>
                                        <polygon id="Rectangle-16" points="0 40 967 40 967 60 0 60"></polygon>
                                        <polygon id="Rectangle-16" points="0 0 967 0 967 20 0 20"></polygon>
                                    </g>
                                    <path d="M798,260.577528 C780.439621,230.15737 770.668328,206.899237 768.686121,190.803128 C765.712811,166.658964 767.773398,136.273575 757.240063,133.789132 C746.706728,131.304689 752.582,101.306588 748.77323,101.617225 C744.96446,101.927863 745.671562,111.640343 742.288893,110.639744 C738.906225,109.639146 739.342575,120.678815 734.72853,121.98808 C730.114484,123.297345 724.905143,119.517442 724.57564,115.078593 C724.246138,110.639744 723.621009,99.609099 717.344567,99.609099 C711.068125,99.609099 713.274246,121.98808 707.203826,121.98808 C701.133406,121.98808 701.834703,107.475594 698,107.475594 C694.165297,107.475594 695.03519,110.309918 691.470091,109.43115 C687.904992,108.552382 689.868189,101.617225 686.717783,101.617225 C683.567378,101.617225 684.165932,113.268471 681.115286,115.078593 C678.064639,116.888715 673.391145,118.685369 672.708874,122.879606 C672.026603,127.073844 670.555297,160.009765 663.244712,161.52595 C655.934126,163.042135 654.546987,146.656035 653.949607,141.229937 C653.352227,135.803839 654.772048,124.436152 650.431388,124.436152 C646.090728,124.436152 646.36259,131.467259 642.188703,131.467259 C638.014815,131.467259 638.151889,110.639744 631.537332,110.639744 C624.922775,110.639744 625.710948,130.564098 621.984834,130.564098 C618.25872,130.564098 621.692434,135.631614 612.951704,135.631614 C604.210973,135.631614 602.237877,227.407061 591.53853,234.124632 C580.839184,240.842203 569.938205,225.408282 560.572109,225.408282 C551.206013,225.408282 545.375991,238.894027 537.92013,240.842203 C530.464269,242.790379 527.92261,237.017478 525.229998,232.772935 C522.537385,228.528392 518.102177,229.320968 509.846546,226.300783 C501.590915,223.280597 502.401933,190.803128 495.118763,190.803128 C487.835592,190.803128 487.299482,224.506643 479.964528,224.506643 C472.629574,224.506643 476.102864,212.633034 471.485772,209.96331 C466.868681,207.293585 463.579679,216.375901 459.20475,216.375901 C454.829822,216.375901 449.919545,182.163885 443.690317,182.163885 C437.461089,182.163885 436.786001,194.998531 431.058235,194.998531 C425.330469,194.998531 423.785259,175.713055 418.69573,175.713055 C413.606201,175.713055 412.67592,194.998531 407.572218,195.851304 C402.468515,196.704077 402.89516,184.685275 398,184.685275 C393.10484,184.685275 391.195745,215.235907 386.149918,215.235907 C381.104091,215.235907 379.970856,180.95026 369.224302,182.163885 C358.477748,183.37751 357.237314,194.998531 347.283495,195.851304 C337.329676,196.704077 338.734561,186.610863 331.684873,186.610863 C324.635186,186.610863 323.197077,202.461473 312.695243,202.461473 C302.193408,202.461473 298.391583,238.424391 276.023508,238.424391 C254.377261,238.424391 259.408496,121.096554 246.483154,121.98808 C233.557811,122.879606 239.169961,166.009975 228,166.009975 C216.830039,166.009975 223.355863,142.77628 212.708165,142.77628 C202.060466,142.77628 207.126211,166.009975 198,166.009975 C188.873789,166.009975 185.838004,156.243247 176.674225,169.203566 C167.510446,182.163885 165.543389,218.510822 151.052166,218.510822 C136.560943,218.510822 137.747216,179.974924 134.595325,169.203566 C131.443433,158.432207 121.826714,166.009975 121.826714,182.163885 C121.826714,198.317794 117.001099,209.96331 104.449612,209.96331 C91.8981252,209.96331 91.0368191,184.685275 67.6564573,188.11779 C44.2760954,191.550304 48.318051,216.375901 36.2453869,216.375901 C24.1727228,216.375901 26.1301451,194.998531 16.9001828,194.998531 C10.7468746,194.998531 7.67022054,203.257292 7.67022054,219.774814" id="Path-117" stroke="#5AADAA" transform="translate(402.835110, 180.093314) scale(-1, 1) translate(-402.835110, -180.093314) "></path>
                                    <path d="M796.815175,200.338716 C781.333364,204.293193 772.601354,196.691992 770.619147,177.535113 C767.645837,148.799794 769.706425,112.636442 759.173089,109.679568 C748.639754,106.722694 750.515027,71.0202763 746.706257,71.3899835 C742.897487,71.7596908 743.604589,83.3190558 740.22192,82.1281876 C736.839251,80.9373195 737.275602,94.0762475 732.661556,95.634477 C728.047511,97.1927064 722.838169,92.694032 722.508667,87.4111098 C722.179164,82.1281876 721.554035,69 715.277593,69 C709.001151,69 711.207272,95.634477 705.136852,95.634477 C699.066432,95.634477 699.767729,78.362355 695.933026,78.362355 C692.098323,78.362355 692.968216,81.7356429 689.403117,80.6897719 C685.838018,79.6439009 687.801215,71.3899835 684.650809,71.3899835 C681.500404,71.3899835 682.098958,85.2567823 679.048312,87.4111098 C675.997666,89.5654373 671.324171,91.7037353 670.6419,96.6955318 C669.959629,101.687328 668.488324,140.88621 661.177738,142.690706 C653.867153,144.495203 652.480014,124.993189 651.882633,118.535287 C651.285253,112.077384 652.705074,98.5480636 648.364414,98.5480636 C644.023754,98.5480636 644.295617,106.916178 640.121729,106.916178 C635.947842,106.916178 636.084915,82.1281876 629.470359,82.1281876 C622.855802,82.1281876 623.643974,105.841275 619.91786,105.841275 C616.191746,105.841275 619.62546,111.872409 610.88473,111.872409 C602.144,111.872409 599.037077,204.02098 588.337731,212.015937 C577.638385,220.010894 567.871232,218.720642 558.505135,218.720642 C549.139039,218.720642 543.309017,234.770781 535.853156,237.089414 C528.397295,239.408047 525.855636,232.537395 523.163024,227.485727 C520.470412,222.434059 516.035203,223.377348 507.779572,219.782857 C499.523942,216.188365 500.33496,177.535113 493.051789,177.535113 C485.768618,177.535113 485.232509,217.647551 477.897555,217.647551 C470.562601,217.647551 474.03589,203.516105 469.418799,200.338716 C464.801707,197.161328 461.512705,207.970701 457.137777,207.970701 C452.762848,207.970701 447.852572,167.253067 441.623344,167.253067 C435.394116,167.253067 434.719027,182.528297 428.991261,182.528297 C423.263496,182.528297 421.718286,159.575573 416.628757,159.575573 C411.539228,159.575573 410.608947,182.528297 405.505244,183.54323 C400.401542,184.558163 400.828186,170.253914 395.933026,170.253914 C391.037867,170.253914 389.128771,206.613929 384.082944,206.613929 C379.037117,206.613929 377.903882,165.808664 367.157328,167.253067 C356.410774,168.697469 355.170341,182.528297 345.216522,183.54323 C335.262703,184.558163 336.667587,172.545665 329.6179,172.545665 C322.568212,172.545665 321.130103,191.410361 310.628269,191.410361 C300.126435,191.410361 296.063739,210.511589 273.695663,210.511589 C252.049417,210.511589 257.341523,94.5734222 244.41618,95.634477 C231.490837,96.6955318 237.102987,148.027395 225.933026,148.027395 C214.763066,148.027395 221.28889,120.375675 210.641191,120.375675 C199.993493,120.375675 205.059238,148.027395 195.933026,148.027395 C186.806815,148.027395 183.77103,136.403466 174.607251,151.828266 C165.443472,167.253067 163.476416,210.511589 148.985193,210.511589 C134.49397,210.511589 135.680243,164.647862 132.528351,151.828266 C129.37646,139.00867 117.352484,145.925695 117.352484,165.151366 C117.352484,184.377037 113.062474,197.096465 103.603247,197.096465 C94.1440196,197.096465 83.0523892,163.049666 65.2513621,165.151366 C47.4503349,167.253067 45.675911,199.244081 33.6032469,199.244081 C21.5305828,199.244081 24.0631714,182.528297 14.8332092,182.528297 C8.67990098,182.528297 6.05635238,173.92457 6.96256335,156.717116" id="Path-117" stroke="#9E754F" transform="translate(401.801623, 153.276631) scale(-1, 1) translate(-401.801623, -153.276631) "></path>
                                    <polyline id="Path-38" stroke="#5AADAA" transform="translate(484.255823, 133.100489) scale(-1, 1) translate(-484.255823, -133.100489) " points="0.571404423 260.726113 967.940241 260.726113 967.940241 5.47486507"></polyline>
                                </g>
                            </g>
                        </g>
                    </g>
                </g>
            </g>
        </g>
    </g>
</svg>