<?xml version="1.0" encoding="UTF-8"?>
<svg width="292px" height="266px" viewBox="0 0 292 266" version="1.1" xmlns="http://www.w3.org/2000/svg" xmlns:xlink="http://www.w3.org/1999/xlink">
    <!-- Generator: Sketch 48.2 (47327) - http://www.bohemiancoding.com/sketch -->
    <title>Group 18</title>
    <desc>Created with Sketch.</desc>
    <defs></defs>
    <g id="COMMODITY/Resource-centre-aluminum/MOBILE" stroke="none" stroke-width="1" fill="none" fill-rule="evenodd" transform="translate(-15.000000, -2419.000000)">
        <g id="//body" transform="translate(0.000000, 412.000000)">
            <g id="chart" transform="translate(14.000000, 1948.000000)">
                <g id="Group-18" transform="translate(0.000000, 55.000000)">
                    <g id="Group-7" transform="translate(43.000000, 250.000000)">
                        <text id="16:16:00" font-family="HelveticaNeue, Helvetica Neue" font-size="14" font-weight="normal" line-spacing="24" fill="#525969">
                            <tspan x="0" y="13">16:16:00</tspan>
                        </text>
                        <text id="16:34:00" font-family="HelveticaNeue, Helvetica Neue" font-size="14" font-weight="normal" line-spacing="24" fill="#525969">
                            <tspan x="140" y="13">16:34:00</tspan>
                        </text>
                        <text id="Time" font-family="HelveticaNeue-Bold, Helvetica Neue" font-size="16" font-weight="bold" fill="#313541">
                            <tspan x="211" y="19">Time</tspan>
                        </text>
                    </g>
                    <g id="Group-9" transform="translate(44.000000, 43.000000)">
                        <g id="Group-8" transform="translate(1.000000, 0.000000)" fill="#FCFCFC">
                            <polygon id="Rectangle-16" points="0 176.307692 245.437289 176.307692 245.437289 191 0 191"></polygon>
                            <polygon id="Rectangle-16" points="0 146.923077 245.437289 146.923077 245.437289 161.615385 0 161.615385"></polygon>
                            <polygon id="Rectangle-16" points="0 117.538462 245.437289 117.538462 245.437289 132.230769 0 132.230769"></polygon>
                            <polygon id="Rectangle-16" points="0 88.1538462 245.437289 88.1538462 245.437289 102.846154 0 102.846154"></polygon>
                            <polygon id="Rectangle-16" points="0 58.7692308 245.437289 58.7692308 245.437289 73.4615385 0 73.4615385"></polygon>
                            <polygon id="Rectangle-16" points="0 29.3846154 245.437289 29.3846154 245.437289 44.0769231 0 44.0769231"></polygon>
                            <polygon id="Rectangle-16" points="0 0 245.437289 0 245.437289 14.6923077 0 14.6923077"></polygon>
                        </g>
                        <path d="M248,191 C242.622989,168.700108 239.631007,151.65043 239.024052,139.850968 C238.113621,122.151776 238.744575,99.8773705 235.519255,98.0561175 C232.293934,96.2348645 234.09295,74.2443662 232.9267,74.4720832 C231.760449,74.6998002 231.976965,81.8196596 230.941187,81.0861579 C229.90541,80.3526562 230.039021,88.4454295 228.626194,89.4052032 C227.213367,90.3649769 225.61826,87.5940696 225.517366,84.3401137 C225.416472,81.0861579 225.225057,73 223.303202,73 C221.381347,73 222.056865,89.4052032 220.198094,89.4052032 C218.339324,89.4052032 218.554062,78.7666361 217.379871,78.7666361 C216.20568,78.7666361 216.472042,80.8443744 215.380404,80.2001821 C214.288766,79.5559897 214.8899,74.4720832 213.925241,74.4720832 C212.960583,74.4720832 213.143861,83.0131802 212.209749,84.3401137 C211.275637,85.6670473 209.844607,86.9841076 209.635695,90.0587478 C209.426783,93.1333881 208.976267,117.277493 206.737757,118.388952 C204.499246,119.500412 204.074502,107.488368 203.891584,103.510696 C203.708665,99.5330247 204.143416,91.1997937 202.8143,91.1997937 C201.485185,91.1997937 201.568429,96.3540387 200.290379,96.3540387 C199.01233,96.3540387 199.054302,81.0861579 197.028916,81.0861579 C195.00353,81.0861579 195.24487,95.6919642 194.103929,95.6919642 C192.962988,95.6919642 194.014395,99.4067728 191.337972,99.4067728 C188.66155,99.4067728 188.057385,166.683957 184.781231,171.60836 C181.505077,176.532763 178.167184,165.218727 175.299273,165.218727 C172.431362,165.218727 170.646202,175.104628 168.363208,176.532763 C166.080213,177.960899 165.301954,173.728999 164.477473,170.617481 C163.652991,167.505964 162.294925,168.086972 159.76704,165.872986 C157.239155,163.659 157.48749,139.850968 155.257374,139.850968 C153.027257,139.850968 152.8631,164.557769 150.617127,164.557769 C148.371155,164.557769 149.434681,155.853665 148.020921,153.896589 C146.607162,151.939513 145.600065,158.597423 144.260457,158.597423 C142.920848,158.597423 141.417315,133.517859 139.509917,133.517859 C137.60252,133.517859 137.395806,142.926463 135.641957,142.926463 C133.888108,142.926463 133.414963,128.788994 131.856542,128.788994 C130.298122,128.788994 130.013269,142.926463 128.450508,143.5516 C126.887748,144.176736 127.018387,135.366197 125.519483,135.366197 C124.020579,135.366197 123.436011,157.761735 121.890973,157.761735 C120.345934,157.761735 119.998936,132.628195 116.708327,133.517859 C113.417718,134.407523 113.037896,142.926463 109.990024,143.5516 C106.942151,144.176736 107.372329,136.777775 105.213705,136.777775 C103.055082,136.777775 102.614731,148.39727 99.399056,148.39727 C96.1833808,148.39727 95.019257,174.760355 88.1701233,174.760355 C81.5420147,174.760355 83.0825855,88.7516586 79.1248288,89.4052032 C75.1670722,90.0587478 76.8855196,121.676026 73.4652633,121.676026 C70.0450069,121.676026 72.0432226,104.644263 68.7828835,104.644263 C65.5225445,104.644263 67.0736822,121.676026 64.2792245,121.676026 C61.4847668,121.676026 60.5552054,114.516398 57.7492445,124.017129 C54.9432835,133.517859 54.3409683,160.162454 49.9037371,160.162454 C45.4665059,160.162454 45.8297442,131.913213 44.864631,124.017129 C43.8995178,116.121044 40.9548658,121.676026 40.9548658,133.517859 C40.9548658,145.359692 39.4772564,153.896589 35.6339748,153.896589 C31.7906933,153.896589 31.5269602,135.366197 24.3678632,137.882446 C17.2087662,140.398696 18.4464182,158.597423 14.7497529,158.597423 C11.0530875,158.597423 11.6524527,142.926463 8.82622637,142.926463 C6.94207546,142.926463 6,148.980656 6,161.08904" id="Path-117" stroke="#5AADAA" transform="translate(127.000000, 132.000000) scale(-1, 1) translate(-127.000000, -132.000000) "></path>
                        <path d="M247,147.622282 C242.257633,150.531481 239.582856,144.939487 238.975669,130.846298 C238.064889,109.706514 238.696085,83.1021306 235.469529,80.9268396 C232.242972,78.7515486 232.817403,52.4862617 231.650706,52.7582452 C230.484009,53.0302286 230.700607,61.5341355 229.664433,60.6580466 C228.628259,59.7819577 228.761921,69.4479057 227.348553,70.5942522 C225.935185,71.7405988 224.339467,68.4310477 224.238534,64.5445472 C224.137601,60.6580466 223.946113,51 222.023522,51 C220.100931,51 220.776707,70.5942522 218.917224,70.5942522 C217.057741,70.5942522 217.272562,57.8876271 216.097921,57.8876271 C214.92328,57.8876271 215.189744,60.3692623 214.097688,59.5998437 C213.005632,58.8304252 213.606996,52.7582452 212.641968,52.7582452 C211.67694,52.7582452 211.860288,62.9596676 210.925819,64.5445472 C209.991349,66.1294267 208.559771,67.7025137 208.350778,71.374841 C208.141786,75.0471684 207.691098,103.884708 205.45173,105.212226 C203.212361,106.539744 202.787455,92.1926495 202.604466,87.4417481 C202.421477,82.6908466 202.856395,72.7376977 201.52677,72.7376977 C200.197145,72.7376977 200.280422,78.8938895 199.001882,78.8938895 C197.723343,78.8938895 197.765331,60.6580466 195.739169,60.6580466 C193.713007,60.6580466 193.954439,78.1031126 192.813061,78.1031126 C191.671683,78.1031126 192.723494,82.5400523 190.046045,82.5400523 C187.368597,82.5400523 186.416889,150.331222 183.13948,156.212892 C179.862071,162.094562 176.870211,161.145359 174.001201,161.145359 C171.132192,161.145359 169.346347,172.953005 167.062478,174.658759 C164.778609,176.364514 164.000052,171.309964 163.175255,167.593591 C162.350458,163.877218 160.991871,164.57117 158.463017,161.926801 C155.934164,159.282432 156.182594,130.846298 153.951623,130.846298 C151.720653,130.846298 151.556432,160.355915 149.309599,160.355915 C147.062767,160.355915 148.1267,149.959799 146.712399,147.622282 C145.298098,145.284765 144.290615,153.236922 142.950493,153.236922 C141.610371,153.236922 140.106262,123.282079 138.198134,123.282079 C136.290005,123.282079 136.083213,134.519646 134.328692,134.519646 C132.574171,134.519646 132.100844,117.633958 130.541827,117.633958 C128.982809,117.633958 128.697847,134.519646 127.134488,135.266304 C125.571129,136.012962 125.701818,125.48972 124.20234,125.48972 C122.702861,125.48972 122.11807,152.238783 120.572439,152.238783 C119.026808,152.238783 118.679677,122.219471 115.387808,123.282079 C112.095938,124.344686 111.71597,134.519646 108.666931,135.266304 C105.617891,136.012962 106.048233,127.175698 103.888782,127.175698 C101.729332,127.175698 101.288812,141.053936 98.0719052,141.053936 C94.854998,141.053936 93.6105187,155.106184 86.758761,155.106184 C80.128113,155.106184 81.7491835,69.8136634 77.7899106,70.5942522 C73.8306376,71.374841 75.5497435,109.138281 72.1281767,109.138281 C68.70661,109.138281 70.7055913,88.7956715 67.4440031,88.7956715 C64.1824149,88.7956715 65.7341469,109.138281 62.9386186,109.138281 C60.1430903,109.138281 59.2131728,100.586876 56.4061368,111.934478 C53.5991008,123.282079 52.9965549,155.106184 48.5576237,155.106184 C44.1186924,155.106184 44.4820699,121.365502 43.516587,111.934478 C42.551104,102.503453 38.8679366,107.592118 38.8679366,121.735916 C38.8679366,135.879713 37.5538267,145.237047 34.6562894,145.237047 C31.7587521,145.237047 28.3611793,120.189753 22.9083935,121.735916 C17.4556077,123.282079 16.9120687,146.816989 13.2139871,146.816989 C9.51590544,146.816989 10.2916845,134.519646 7.46437529,134.519646 C5.57950252,134.519646 4.77586077,128.190121 5.05345005,115.53107" id="Path-117" stroke="#9E754F" transform="translate(126.000000, 113.000000) scale(-1, 1) translate(-126.000000, -113.000000) "></path>
                        <polyline id="Path-38" stroke="#5AADAA" transform="translate(122.718784, 98.000000) scale(-1, 1) translate(-122.718784, -98.000000) " points="-2.27373675e-13 192 245.437568 192 245.437568 4"></polyline>
                    </g>
                    <g id="Group-14">
                        <g id="Group-6" transform="translate(1.000000, 36.000000)" fill="#525969" font-family="HelveticaNeue, Helvetica Neue" font-size="14" font-weight="normal" line-spacing="24">
                            <text id="0">
                                <tspan x="0" y="192">0</tspan>
                            </text>
                            <text id="20">
                                <tspan x="0" y="162.166667">20</tspan>
                            </text>
                            <text id="40">
                                <tspan x="0" y="132.333333">40</tspan>
                            </text>
                            <text id="60">
                                <tspan x="0" y="102.5">60</tspan>
                            </text>
                            <text id="80">
                                <tspan x="0" y="72.6666667">80</tspan>
                            </text>
                            <text id="100">
                                <tspan x="0" y="42.8333333">100</tspan>
                            </text>
                            <text id="120">
                                <tspan x="0" y="13">120</tspan>
                            </text>
                        </g>
                        <text id="Price" font-family="HelveticaNeue-Bold, Helvetica Neue" font-size="16" font-weight="bold" fill="#313541">
                            <tspan x="0" y="16">Price</tspan>
                        </text>
                    </g>
                </g>
            </g>
        </g>
    </g>
</svg>