<?xml version="1.0" encoding="UTF-8"?>
<svg width="708px" height="265px" viewBox="0 0 708 265" version="1.1" xmlns="http://www.w3.org/2000/svg" xmlns:xlink="http://www.w3.org/1999/xlink">
    <!-- Generator: Sketch 48.2 (47327) - http://www.bohemiancoding.com/sketch -->
    <title>Group 10</title>
    <desc>Created with Sketch.</desc>
    <defs></defs>
    <g id="COMMODITY/Resource-centre-aluminum/TABLET" stroke="none" stroke-width="1" fill="none" fill-rule="evenodd" transform="translate(-31.000000, -3481.000000)">
        <g id="//body" transform="translate(30.000000, 432.000000)">
            <g id="chart" transform="translate(0.000000, 2958.000000)">
                <g id="Group-11">
                    <g id="chart">
                        <g id="Group-10" transform="translate(0.000000, 87.000000)">
                            <g id="Group-9" transform="translate(64.000000, 43.000000)">
                                <g id="Group-8" transform="translate(1.000000, 0.000000)" fill="#FCFCFC">
                                    <polygon id="Rectangle-16" points="0 176.307692 643 176.307692 643 191 0 191"></polygon>
                                    <polygon id="Rectangle-16" points="0 146.923077 643 146.923077 643 161.615385 0 161.615385"></polygon>
                                    <polygon id="Rectangle-16" points="0 117.538462 643 117.538462 643 132.230769 0 132.230769"></polygon>
                                    <polygon id="Rectangle-16" points="0 88.1538462 643 88.1538462 643 102.846154 0 102.846154"></polygon>
                                    <polygon id="Rectangle-16" points="0 58.7692308 643 58.7692308 643 73.4615385 0 73.4615385"></polygon>
                                    <polygon id="Rectangle-16" points="0 29.3846154 643 29.3846154 643 44.0769231 0 44.0769231"></polygon>
                                    <polygon id="Rectangle-16" points="0 0 643 0 643 14.6923077 0 14.6923077"></polygon>
                                </g>
                                <path d="M587,191 C574.09073,168.700108 566.907499,151.65043 565.450308,139.850968 C563.26452,122.151776 564.779332,99.8773705 557.035896,98.0561175 C549.292461,96.2348645 553.611586,74.2443662 550.811622,74.4720832 C548.011657,74.6998002 548.531473,81.8196596 546.044751,81.0861579 C543.558029,80.3526562 543.878806,88.4454295 540.486854,89.4052032 C537.094903,90.3649769 533.265327,87.5940696 533.023098,84.3401137 C532.780869,81.0861579 532.321314,73 527.707275,73 C523.093235,73 524.715035,89.4052032 520.252449,89.4052032 C515.789864,89.4052032 516.305413,78.7666361 513.486384,78.7666361 C510.667355,78.7666361 511.306845,80.8443744 508.686012,80.2001821 C506.065178,79.5559897 507.508395,74.4720832 505.192418,74.4720832 C502.876441,74.4720832 503.31646,83.0131802 501.07382,84.3401137 C498.831179,85.6670473 495.395525,86.9841076 494.893963,90.0587478 C494.3924,93.1333881 493.31079,117.277493 487.936515,118.388952 C482.562239,119.500412 481.542503,107.488368 481.103347,103.510696 C480.664191,99.5330247 481.707953,91.1997937 478.516977,91.1997937 C475.326001,91.1997937 475.525857,96.3540387 472.457481,96.3540387 C469.389106,96.3540387 469.489873,81.0861579 464.627273,81.0861579 C459.764674,81.0861579 460.344088,95.6919642 457.604887,95.6919642 C454.865685,95.6919642 457.389933,99.4067728 450.964306,99.4067728 C444.538679,99.4067728 443.088184,166.683957 435.222708,171.60836 C427.357231,176.532763 419.343528,165.218727 412.458172,165.218727 C405.572815,165.218727 401.286956,175.104628 395.805883,176.532763 C390.324809,177.960899 388.456344,173.728999 386.476908,170.617481 C384.497471,167.505964 381.236989,168.086972 375.167976,165.872986 C369.098963,163.659 369.695172,139.850968 364.34105,139.850968 C358.986928,139.850968 358.592814,164.557769 353.200624,164.557769 C347.808434,164.557769 350.361775,155.853665 346.967584,153.896589 C343.573393,151.939513 341.155529,158.597423 337.939361,158.597423 C334.723193,158.597423 331.113471,133.517859 326.53414,133.517859 C321.954809,133.517859 321.458527,142.926463 317.247839,142.926463 C313.037152,142.926463 311.901212,128.788994 308.159715,128.788994 C304.418219,128.788994 303.734335,142.926463 299.982419,143.5516 C296.230503,144.176736 296.544144,135.366197 292.945536,135.366197 C289.346927,135.366197 287.943482,157.761735 284.234112,157.761735 C280.524742,157.761735 279.69166,132.628195 271.791479,133.517859 C263.891299,134.407523 262.979411,142.926463 255.661999,143.5516 C248.344587,144.176736 249.377368,136.777775 244.194888,136.777775 C239.012408,136.777775 237.955202,148.39727 230.234924,148.39727 C222.514646,148.39727 219.719786,174.760355 203.276205,174.760355 C187.363267,174.760355 191.06191,88.7516586 181.560023,89.4052032 C172.058136,90.0587478 176.18383,121.676026 167.972388,121.676026 C159.760946,121.676026 164.558315,104.644263 156.730807,104.644263 C148.903299,104.644263 152.627311,121.676026 145.918303,121.676026 C139.209296,121.676026 136.97758,114.516398 130.240955,124.017129 C123.504329,133.517859 122.058275,160.162454 111.405253,160.162454 C100.752231,160.162454 101.624303,131.913213 99.3072339,124.017129 C96.9901646,116.121044 89.9205663,121.676026 89.9205663,133.517859 C89.9205663,145.359692 86.3730824,153.896589 77.1460305,153.896589 C67.9189785,153.896589 67.2858013,135.366197 50.0980518,137.882446 C32.9103023,140.398696 35.88169,158.597423 27.0066381,158.597423 C18.1315861,158.597423 19.570558,142.926463 12.785279,142.926463 C8.26175967,142.926463 6,148.980656 6,161.08904" id="Path-117" stroke="#5AADAA" transform="translate(296.500000, 132.000000) scale(-1, 1) translate(-296.500000, -132.000000) "></path>
                                <path d="M585,147.622282 C573.633997,150.531481 567.223374,144.939487 565.768133,130.846298 C563.585271,109.706514 565.098056,83.1021306 557.364986,80.9268396 C549.631917,78.7515486 551.008652,52.4862617 548.212436,52.7582452 C545.41622,53.0302286 545.93534,61.5341355 543.451947,60.6580466 C540.968554,59.7819577 541.288901,69.4479057 537.90149,70.5942522 C534.51408,71.7405988 530.689631,68.4310477 530.447726,64.5445472 C530.205821,60.6580466 529.746882,51 525.139019,51 C520.531156,51 522.150785,70.5942522 517.694173,70.5942522 C513.237562,70.5942522 513.752421,57.8876271 510.937166,57.8876271 C508.121911,57.8876271 508.760545,60.3692623 506.14322,59.5998437 C503.525895,58.8304252 504.96718,52.7582452 502.654303,52.7582452 C500.341427,52.7582452 500.780857,62.9596676 498.541218,64.5445472 C496.30158,66.1294267 492.870525,67.7025137 492.369634,71.374841 C491.868744,75.0471684 490.788582,103.884708 485.421501,105.212226 C480.054419,106.539744 479.036048,92.1926495 478.597481,87.4417481 C478.158913,82.6908466 479.201277,72.7376977 476.014573,72.7376977 C472.827868,72.7376977 473.027457,78.8938895 469.963189,78.8938895 C466.898921,78.8938895 466.999554,60.6580466 462.143464,60.6580466 C457.287373,60.6580466 457.866012,78.1031126 455.130478,78.1031126 C452.394943,78.1031126 454.915811,82.5400523 448.498787,82.5400523 C442.081762,82.5400523 439.800808,150.331222 431.945862,156.212892 C424.090915,162.094562 416.92034,161.145359 410.044201,161.145359 C403.168062,161.145359 398.88794,172.953005 393.414205,174.658759 C387.940469,176.364514 386.074505,171.309964 384.097718,167.593591 C382.120931,163.877218 378.864814,164.57117 372.803926,161.926801 C366.743038,159.282432 367.338449,130.846298 361.991494,130.846298 C356.644539,130.846298 356.250953,160.355915 350.865982,160.355915 C345.481011,160.355915 348.030933,149.959799 344.641286,147.622282 C341.251639,145.284765 338.837012,153.236922 335.625149,153.236922 C332.413286,153.236922 328.808397,123.282079 324.235197,123.282079 C319.661996,123.282079 319.166378,134.519646 314.961328,134.519646 C310.756277,134.519646 309.621858,117.633958 305.88537,117.633958 C302.148882,117.633958 301.465914,134.519646 297.719021,135.266304 C293.972127,136.012962 294.285349,125.48972 290.691558,125.48972 C287.097766,125.48972 285.6962,152.238783 281.991796,152.238783 C278.287392,152.238783 277.455425,122.219471 269.56582,123.282079 C261.676216,124.344686 260.765549,134.519646 253.457933,135.266304 C246.150316,136.012962 247.181715,127.175698 242.006173,127.175698 C236.83063,127.175698 235.77484,141.053936 228.064897,141.053936 C220.354954,141.053936 217.372318,155.106184 200.95075,155.106184 C185.059114,155.106184 188.944324,69.8136634 179.455158,70.5942522 C169.965991,71.374841 174.086162,109.138281 165.885713,109.138281 C157.685264,109.138281 162.476211,88.7956715 154.659181,88.7956715 C146.842151,88.7956715 150.561178,109.138281 143.861152,109.138281 C137.161126,109.138281 134.932398,100.586876 128.204791,111.934478 C121.477184,123.282079 120.033065,155.106184 109.394305,155.106184 C98.7555439,155.106184 99.6264486,121.365502 97.3124812,111.934478 C94.9985137,102.503453 86.1710877,107.592118 86.1710877,121.735916 C86.1710877,135.879713 83.0215681,145.237047 76.0770572,145.237047 C69.1325463,145.237047 60.9896034,120.189753 47.9209432,121.735916 C34.852283,123.282079 33.5495861,146.816989 24.6864153,146.816989 C15.8232445,146.816989 17.6825495,134.519646 10.906354,134.519646 C6.38889034,134.519646 4.46280681,128.190121 5.12810343,115.53107" id="Path-117" stroke="#9E754F" transform="translate(295.000000, 113.000000) scale(-1, 1) translate(-295.000000, -113.000000) "></path>
                                <polyline id="Path-38" stroke="#5AADAA" transform="translate(322.000000, 98.000000) scale(-1, 1) translate(-322.000000, -98.000000) " points="-2.27373675e-13 192 644 192 644 4"></polyline>
                            </g>
                            <g id="Group-14">
                                <g id="Group-6" transform="translate(1.000000, 36.000000)" fill="#525969" font-family="HelveticaNeue, Helvetica Neue" font-size="14" font-weight="normal" line-spacing="24">
                                    <text id="0">
                                        <tspan x="0" y="192">0</tspan>
                                    </text>
                                    <text id="20">
                                        <tspan x="0" y="162.166667">20</tspan>
                                    </text>
                                    <text id="40">
                                        <tspan x="0" y="132.333333">40</tspan>
                                    </text>
                                    <text id="60">
                                        <tspan x="0" y="102.5">60</tspan>
                                    </text>
                                    <text id="80">
                                        <tspan x="0" y="72.6666667">80</tspan>
                                    </text>
                                    <text id="100">
                                        <tspan x="0" y="42.8333333">100</tspan>
                                    </text>
                                    <text id="120">
                                        <tspan x="0" y="13">120</tspan>
                                    </text>
                                </g>
                                <text id="Price" font-family="HelveticaNeue-Bold, Helvetica Neue" font-size="16" font-weight="bold" fill="#313541">
                                    <tspan x="0" y="16">Price</tspan>
                                </text>
                            </g>
                            <g id="Group-15" transform="translate(63.000000, 250.000000)">
                                <g id="Group-7">
                                    <text id="16:16:00" font-family="HelveticaNeue, Helvetica Neue" font-size="14" font-weight="normal" line-spacing="24" fill="#525969">
                                        <tspan x="0" y="13">16:16:00</tspan>
                                    </text>
                                    <text id="16:22:00" font-family="HelveticaNeue, Helvetica Neue" font-size="14" font-weight="normal" line-spacing="24" fill="#525969">
                                        <tspan x="138" y="13">16:22:00</tspan>
                                    </text>
                                    <text id="16:26:00" font-family="HelveticaNeue, Helvetica Neue" font-size="14" font-weight="normal" line-spacing="24" fill="#525969">
                                        <tspan x="266" y="13">16:26:00</tspan>
                                    </text>
                                    <text id="16:30:00" font-family="HelveticaNeue, Helvetica Neue" font-size="14" font-weight="normal" line-spacing="24" fill="#525969">
                                        <tspan x="384" y="13">16:30:00</tspan>
                                    </text>
                                    <text id="16:34:00" font-family="HelveticaNeue, Helvetica Neue" font-size="14" font-weight="normal" line-spacing="24" fill="#525969">
                                        <tspan x="512" y="13">16:34:00</tspan>
                                    </text>
                                    <text id="Time" font-family="HelveticaNeue-Bold, Helvetica Neue" font-size="16" font-weight="bold" fill="#313541">
                                        <tspan x="608" y="17">Time</tspan>
                                    </text>
                                </g>
                            </g>
                        </g>
                    </g>
                </g>
            </g>
        </g>
    </g>
</svg>