<?xml version="1.0" encoding="UTF-8"?>
<svg width="30px" height="30px" viewBox="0 0 30 30" version="1.1" xmlns="http://www.w3.org/2000/svg" xmlns:xlink="http://www.w3.org/1999/xlink">
    <!-- Generator: Sketch 48.2 (47327) - http://www.bohemiancoding.com/sketch -->
    <title>play-circle - FontAwesome</title>
    <desc>Created with Sketch.</desc>
    <defs></defs>
    <g id="COMMODITY/Resource-centre-aluminum/WEB" stroke="none" stroke-width="1" fill="none" fill-rule="evenodd" transform="translate(-292.000000, -1091.000000)">
        <g id="resource-centre" transform="translate(134.000000, 511.000000)" fill="#525969">
            <g id="WIKIpedia-and-video" transform="translate(1.000000, 559.000000)">
                <g id="video" transform="translate(157.000000, 21.000000)">
                    <path d="M14.5714293,0 C22.6160725,0 29.1428585,6.52678602 29.1428585,14.5714293 C29.1428585,22.6160725 22.6160725,29.1428585 14.5714293,29.1428585 C6.52678602,29.1428585 0,22.6160725 0,14.5714293 C0,6.52678602 6.52678602,0 14.5714293,0 Z M21.8571439,15.6149561 C22.2366082,15.4062507 22.4642868,15.0078132 22.4642868,14.5714293 C22.4642868,14.1350453 22.2366082,13.7366078 21.8571439,13.5279024 L11.5357148,7.45647356 C11.1752237,7.22879498 10.7008934,7.22879498 10.3214291,7.43750035 C9.94196475,7.66517893 9.71428617,8.06361645 9.71428617,8.5000004 L9.71428617,20.6428581 C9.71428617,21.0792421 9.94196475,21.4776796 10.3214291,21.7053582 C10.5111612,21.8002242 10.7198666,21.8571439 10.9285719,21.8571439 C11.1372773,21.8571439 11.3459827,21.8002242 11.5357148,21.6863849 L21.8571439,15.6149561 Z" id="play-circle---FontAwesome"></path>
                </g>
            </g>
        </g>
    </g>
</svg>