<?xml version="1.0" encoding="UTF-8"?>
<svg width="22px" height="22px" viewBox="0 0 22 22" version="1.1" xmlns="http://www.w3.org/2000/svg" xmlns:xlink="http://www.w3.org/1999/xlink">
    <!-- Generator: Sketch 48.2 (47327) - http://www.bohemiancoding.com/sketch -->
    <title>Shape</title>
    <desc>Created with Sketch.</desc>
    <defs></defs>
    <g id="COMMODITY/Resource-centre/WEB" stroke="none" stroke-width="1" fill="none" fill-rule="evenodd" transform="translate(-556.000000, -615.000000)" opacity="0.300000012">
        <g id="SEARCH" transform="translate(435.000000, 501.000000)" fill="#000000" fill-rule="nonzero">
            <g id="SEARCH-BT" transform="translate(100.000000, 100.000000)">
                <g id="@">
                    <g id="Group-2">
                        <g id="search">
                            <path d="M42.7306122,34.437551 L37.4416327,29.1485714 C38.7526531,27.5502041 39.5428571,25.5028571 39.5428571,23.2714286 C39.5428571,18.1530612 35.3897959,14 30.2714286,14 C25.1485714,14 21,18.1530612 21,23.2714286 C21,28.3897959 25.1485714,32.5428571 30.2714286,32.5428571 C32.5028571,32.5428571 34.5457143,31.7571429 36.1440816,30.4461224 L41.4330612,35.7306122 C41.7922449,36.0897959 42.3714286,36.0897959 42.7306122,35.7306122 C43.0897959,35.3759184 43.0897959,34.7922449 42.7306122,34.437551 Z M30.2714286,31.1179592 C25.9402518,31.1179592 22.4202811,27.5979885 22.4202811,23.2715556 C22.4202811,18.9451227 25.9402518,15.4204082 30.2714286,15.4204082 C34.5978615,15.4204082 38.122576,18.9451227 38.122576,23.2715556 C38.122576,27.5979885 34.5978615,31.1179592 30.2714286,31.1179592 Z" id="Shape"></path>
                        </g>
                    </g>
                </g>
            </g>
        </g>
    </g>
</svg>