<?xml version="1.0" encoding="UTF-8"?>
<svg width="38px" height="25px" viewBox="0 0 38 25" version="1.1" xmlns="http://www.w3.org/2000/svg" xmlns:xlink="http://www.w3.org/1999/xlink">
    <!-- Generator: Sketch 48.2 (47327) - http://www.bohemiancoding.com/sketch -->
    <title>wikipedia-w - FontAwesome</title>
    <desc>Created with Sketch.</desc>
    <defs></defs>
    <g id="COMMODITY/Resource-centre-aluminum/WEB" stroke="none" stroke-width="1" fill="none" fill-rule="evenodd" transform="translate(-870.000000, -1093.000000)">
        <g id="resource-centre" transform="translate(134.000000, 511.000000)" fill="#525969">
            <g id="WIKIpedia-and-video" transform="translate(1.000000, 559.000000)">
                <g id="wikipedia" transform="translate(735.000000, 23.000000)">
                    <path d="M24.7901028,24.2425612 L20.0421759,13.0567674 C18.1590998,16.7424462 16.0828877,20.5890717 14.2963797,24.2425612 C14.280285,24.2586558 13.4272676,24.2425612 13.4272676,24.2264665 C10.7072689,17.8690729 7.85851274,11.5599633 5.13851396,5.18647503 C4.4786326,3.64138697 2.27366317,1.13061886 0.760764442,1.14671353 C0.760764442,0.969672191 0.744669774,0.567305507 0.744669774,0.325885497 L10.1278608,0.325885497 L10.1278608,1.13061886 C9.01732879,1.19499753 7.06987404,1.9031629 7.61709273,3.11026295 C8.88857145,5.9912084 13.6204036,17.0321502 14.8918824,19.8326223 C15.7609944,18.1104929 18.2395732,13.507418 19.2535372,11.5599633 C18.4488038,9.91830723 15.8575624,3.80233364 15.0367344,2.28943491 C14.473421,1.2593762 12.9444276,1.1628082 11.8017062,1.14671353 L11.8017062,0.341980164 L20.0582706,0.358074832 L20.0582706,1.1145242 C18.9316439,1.14671353 17.8533012,1.56517488 18.3522358,2.62742293 C19.4466732,4.94505502 20.1226492,6.57061642 21.1366133,8.69511251 C21.4585066,8.06742049 23.1484467,4.67144568 23.9209907,2.85274827 C24.4360201,1.66174289 23.6956654,1.19499753 21.683832,1.14671353 C21.6999266,0.937482856 21.683832,0.55121084 21.6999266,0.358074832 C24.2750734,0.341980164 28.1377936,0.341980164 28.8298643,0.325885497 L28.8298643,1.1145242 C27.5261962,1.1628082 26.1742442,1.85487889 25.4660788,2.94931627 L22.0379147,10.0631592 C22.408092,10.9966499 25.7074988,18.3358182 26.0454868,19.1405516 L33.1432351,2.77227493 C32.6443004,1.43641754 31.0348337,1.14671353 30.4071417,1.13061886 L30.4071417,0.325885497 L37.8106887,0.390264166 L37.8106887,1.13061886 C36.1851273,1.17890287 35.2033525,2.0480149 34.5756605,3.46434563 C33.792576,5.27414089 32.1063591,9.19124522 30.2468305,13.4940953 C28.6666734,17.1504945 26.9613687,21.0854391 25.5787415,24.2425612 L24.7901028,24.2425612 Z" id="wikipedia-w---FontAwesome"></path>
                </g>
            </g>
        </g>
    </g>
</svg>