<?xml version="1.0" encoding="UTF-8"?>
<svg width="332px" height="336px" viewBox="0 0 332 336" version="1.1" xmlns="http://www.w3.org/2000/svg" xmlns:xlink="http://www.w3.org/1999/xlink">
    <!-- Generator: Sketch 48.2 (47327) - http://www.bohemiancoding.com/sketch -->
    <title>letf</title>
    <desc>Created with Sketch.</desc>
    <defs></defs>
    <g id="COMMODITY-WEB-Copy" stroke="none" stroke-width="1" fill="none" fill-rule="evenodd" transform="translate(0.000000, -5998.000000)">
        <g id="//BODY" transform="translate(-4.000000, 840.000000)">
            <g id="CTA" transform="translate(4.000000, 5158.000000)">
                <g id="BG">
                    <g id="letf" transform="translate(-1.000000, -1.000000)">
                        <g id="BG" transform="translate(145.000000, 122.500000) scale(-1, 1) rotate(25.000000) translate(-145.000000, -122.500000) translate(-65.000000, -73.000000)">
                            <g id="Group-18" opacity="0.85546875" transform="translate(251.089538, 54.635386) rotate(-25.000000) translate(-251.089538, -54.635386) translate(202.089538, 18.135386)" fill="#27666D">
                                <polygon id="Fill-1" transform="translate(48.845307, 36.670592) rotate(-30.000000) translate(-48.845307, -36.670592) " points="0.717775897 50.5730568 96.9728378 50.5764957 48.8408756 22.7646875"></polygon>
                            </g>
                            <g id="Page-1-Copy-3" opacity="0.82642663" transform="translate(271.872908, 84.263912) rotate(-115.000000) translate(-271.872908, -84.263912) translate(223.372908, 41.763912)">
                                <polygon id="Fill-1" fill="#266165" opacity="0.91576087" points="0.00452597296 84.2559473 96.2595879 84.2593862 48.1276257 56.4475781"></polygon>
                                <polygon id="Fill-2" fill="#357C7C" points="48.1290788 0.901776741 0.00496474429 84.2562006 48.1276257 56.4475781"></polygon>
                                <polygon id="Fill-3" fill="#35797C" points="48.1290788 0.901776741 48.1276257 56.4475781 96.2614271 84.2562006"></polygon>
                            </g>
                            <g id="Page-1-Copy-3" opacity="0.804800725" transform="translate(312.304732, 171.290703) rotate(-115.000000) translate(-312.304732, -171.290703) translate(263.804732, 128.790703)">
                                <polygon id="Fill-1" fill="#28656B" points="0.00452597296 84.2559473 96.2595879 84.2593862 48.1276257 56.4475781"></polygon>
                                <polygon id="Fill-2" fill="#28676E" points="48.1290788 0.901776741 0.00496474429 84.2562006 48.1276257 56.4475781"></polygon>
                                <polygon id="Fill-3" fill="#347D84" points="48.1290788 0.901776741 48.1276257 56.4475781 96.2614271 84.2562006"></polygon>
                            </g>
                            <g id="Page-1-Copy-2" transform="translate(118.253713, 196.147623) rotate(-55.000000) translate(-118.253713, -196.147623) translate(69.253713, 153.647623)">
                                <polygon id="Fill-2" fill="#64C9B7" opacity="0.624773551" points="49.1517921 0.480068494 0.904388865 84.1828749 49.1276257 56.4475781"></polygon>
                                <polygon id="Fill-3" fill="#388188" opacity="0.589560688" points="49.1290788 0.901776741 49.1276257 56.4475781 97.2614271 84.2562006"></polygon>
                                <polygon id="Fill-1" fill="#5C9896" opacity="0.644927536" points="0.907741953 84.1656056 97.0775722 84.1686152 49.1230997 56"></polygon>
                            </g>
                            <g id="Page-1-Copy-2" transform="translate(45.445534, 203.763967) rotate(-55.000000) translate(-45.445534, -203.763967) translate(-3.054466, 189.263967)" fill="#A3D9C9" opacity="0.412194293">
                                <polygon id="Fill-1" points="0.407741953 28.2995802 96.5775722 28.3025898 48.6230997 0.133974596"></polygon>
                            </g>
                            <g id="Page-1-Copy-2" transform="translate(66.524236, 233.207907) rotate(-115.000000) translate(-66.524236, -233.207907) translate(18.024236, 190.707907)">
                                <polygon id="Fill-1" fill="#AFE4D2" points="0.00452597296 84.2559473 96.2595879 84.2593862 48.1276257 56.4475781"></polygon>
                                <polygon id="Fill-2" fill="#BBEAD6" opacity="0.658344656" points="48.1290788 0.901776741 0.00496474429 84.2562006 48.1276257 56.4475781"></polygon>
                                <polygon id="Fill-3" fill="#B1F5E3" opacity="0.547044837" points="48.1290788 0.901776741 48.1276257 56.4475781 96.2614271 84.2562006"></polygon>
                            </g>
                            <g id="Page-1-Copy" transform="translate(309.912374, 212.554229) rotate(-55.000000) translate(-309.912374, -212.554229) translate(261.412374, 170.054229)">
                                <polygon id="Fill-1" fill="#419091" points="0.00452597296 84.2559473 96.2595879 84.2593862 48.1276257 56.4475781"></polygon>
                                <polygon id="Fill-2" fill="#69B6B3" points="48.1290788 0.901776741 0.00496474429 84.2562006 48.1276257 56.4475781"></polygon>
                                <polygon id="Fill-3" fill="#58A9A4" points="48.1290788 0.901776741 48.1276257 56.4475781 96.2614271 84.2562006"></polygon>
                            </g>
                            <g id="Page-1-Copy-2" transform="translate(214.049724, 204.163505) rotate(-55.000000) translate(-214.049724, -204.163505) translate(165.549724, 161.663505)">
                                <polygon id="Fill-1" fill="#5C9896" points="0.00452597296 84.2559473 96.2595879 84.2593862 48.1276257 56.4475781"></polygon>
                                <polygon id="Fill-2" fill="#3D7A81" points="48.1290788 0.901776741 0.00496474429 84.2562006 48.1276257 56.4475781"></polygon>
                                <polygon id="Fill-3" fill="#699B9E" points="48.1290788 0.901776741 48.1276257 56.4475781 96.2614271 84.2562006"></polygon>
                            </g>
                            <g id="Page-1-Copy-2" transform="translate(257.965435, 249.946401) rotate(-115.000000) translate(-257.965435, -249.946401) translate(209.465435, 207.446401)">
                                <polygon id="Fill-1" fill="#58A8A3" points="0.00452597296 84.2559473 96.2595879 84.2593862 48.1276257 56.4475781"></polygon>
                                <polygon id="Fill-2" fill="#67B0AC" points="48.1290788 0.901776741 0.00496474429 84.2562006 48.1276257 56.4475781"></polygon>
                                <polygon id="Fill-3" fill="#569493" points="48.1290788 0.901776741 48.1276257 56.4475781 96.2614271 84.2562006"></polygon>
                            </g>
                            <g id="Page-1-Copy-3" transform="translate(162.268826, 241.592197) rotate(-115.000000) translate(-162.268826, -241.592197) translate(113.768826, 199.092197)">
                                <polygon id="Fill-1" fill="#4B8F93" points="0.00452597296 84.2559473 96.2595879 84.2593862 48.1276257 56.4475781"></polygon>
                                <polygon id="Fill-2" fill="#99CDC4" points="48.1290788 0.901776741 0.00496474429 84.2562006 48.1276257 56.4475781"></polygon>
                                <polygon id="Fill-3" fill="#7EC6B5" points="48.1290788 0.901776741 48.1276257 56.4475781 96.2614271 84.2562006"></polygon>
                            </g>
                            <g id="Page-1-Copy-2" transform="translate(159.111854, 282.743595) rotate(-55.000000) translate(-159.111854, -282.743595) translate(110.611854, 240.243595)">
                                <polygon id="Fill-1" fill="#B1F5E3" points="0.00452597296 84.2559473 96.2595879 84.2593862 48.1276257 56.4475781"></polygon>
                                <polygon id="Fill-2" fill="#98DDC9" opacity="0.615149457" points="48.1290788 0.901776741 0.00496474429 84.2562006 48.1276257 56.4475781"></polygon>
                                <polygon id="Fill-3" fill="#7FC6B6" points="48.1290788 0.901776741 48.1276257 56.4475781 96.2614271 84.2562006"></polygon>
                            </g>
                            <g id="Page-1-Copy-2" transform="translate(63.477163, 274.376643) rotate(-55.000000) translate(-63.477163, -274.376643) translate(14.977163, 231.876643)">
                                <polygon id="Fill-1" fill="#B1F5E3" opacity="0.428555254" points="0.00452597296 84.2559473 96.2595879 84.2593862 48.1276257 56.4475781"></polygon>
                                <polygon id="Fill-3" fill="#7FC6B6" opacity="0.402060688" points="48.1290788 0.901776741 48.1276257 56.4475781 96.2614271 84.2562006"></polygon>
                            </g>
                            <g id="Page-1-Copy-2" transform="translate(107.095589, 320.213455) rotate(-115.000000) translate(-107.095589, -320.213455) translate(58.595589, 277.713455)">
                                <polygon id="Fill-1" fill="#ACE5D6" opacity="0.60229846" points="0.00452597296 84.2559473 96.2595879 84.2593862 48.1276257 56.4475781"></polygon>
                                <polygon id="Fill-3" fill="#8CCFBC" opacity="0.315443841" points="48.1290788 0.901776741 48.1276257 56.4475781 96.2614271 84.2562006"></polygon>
                            </g>
                            <g id="Page-1-Copy-3" transform="translate(202.840179, 328.597744) rotate(-115.000000) translate(-202.840179, -328.597744) translate(154.340179, 286.097744)">
                                <polygon id="Fill-1" fill="#A4E6D4" points="0.00452597296 84.2559473 96.2595879 84.2593862 48.1276257 56.4475781"></polygon>
                                <polygon id="Fill-2" fill="#9ED7C8" opacity="0.479619565" points="48.1290788 0.901776741 0.00496474429 84.2562006 48.1276257 56.4475781"></polygon>
                                <polygon id="Fill-3" fill="#A3D9C9" opacity="0.770437047" points="48.1290788 0.901776741 48.1276257 56.4475781 96.2614271 84.2562006"></polygon>
                            </g>
                            <g id="Page-1-Copy" opacity="0.83740942" transform="translate(268.255556, 125.654903) rotate(-55.000000) translate(-268.255556, -125.654903) translate(219.755556, 83.154903)">
                                <polygon id="Fill-1" fill="#4B95A3" points="0.00452597296 84.2559473 96.2595879 84.2593862 48.1276257 56.4475781"></polygon>
                                <polygon id="Fill-2" fill="#428895" points="48.1290788 0.901776741 0.00496474429 84.2562006 48.1276257 56.4475781"></polygon>
                                <polygon id="Fill-3" fill="#2D6D76" points="48.1290788 0.901776741 48.1276257 56.4475781 96.2614271 84.2562006"></polygon>
                            </g>
                            <g id="Page-1-Copy-2" transform="translate(216.998529, 162.845334) rotate(-115.000000) translate(-216.998529, -162.845334) translate(168.498529, 120.345334)">
                                <polygon id="Fill-1" fill="#33767F" points="0.00452597296 84.2559473 96.2595879 84.2593862 48.1276257 56.4475781"></polygon>
                                <polygon id="Fill-2" fill="#418089" points="48.1290788 0.901776741 0.00496474429 84.2562006 48.1276257 56.4475781"></polygon>
                                <polygon id="Fill-3" fill="#48898F" points="48.1290788 0.901776741 48.1276257 56.4475781 96.2614271 84.2562006"></polygon>
                            </g>
                            <g id="Page-1-Copy" opacity="0.729619565" transform="translate(254.348082, 291.986242) scale(-1, 1) rotate(55.000000) translate(-254.348082, -291.986242) translate(205.848082, 249.486242)">
                                <polygon id="Fill-1" fill="#66A6A5" points="0.00452597296 84.2559473 96.2595879 84.2593862 48.1276257 56.4475781"></polygon>
                                <polygon id="Fill-2" fill="#699B9E" points="48.1290788 0.901776741 0.00496474429 84.2562006 48.1276257 56.4475781"></polygon>
                                <polygon id="Fill-3" fill="#3D7A81" points="48.1290788 0.901776741 48.1276257 56.4475781 96.2614271 84.2562006"></polygon>
                            </g>
                            <g id="Page-1-Copy-2" transform="translate(350.101120, 300.105760) scale(-1, 1) rotate(55.000000) translate(-350.101120, -300.105760) translate(301.601120, 257.605760)">
                                <polygon id="Fill-1" fill="#5C9896" points="0.00452597296 84.2559473 96.2595879 84.2593862 48.1276257 56.4475781"></polygon>
                                <polygon id="Fill-2" fill="#699B9E" points="48.1290788 0.901776741 0.00496474429 84.2562006 48.1276257 56.4475781"></polygon>
                                <polygon id="Fill-3" fill="#4B8F93" points="48.1290788 0.901776741 48.1276257 56.4475781 96.2614271 84.2562006"></polygon>
                            </g>
                            <g id="Page-1-Copy-2" transform="translate(367.503950, 238.860847) scale(-1, 1) rotate(-5.000000) translate(-367.503950, -238.860847) translate(319.003950, 196.360847)">
                                <polygon id="Fill-1" fill="#33767F" points="0.00452597296 84.2559473 96.2595879 84.2593862 48.1276257 56.4475781"></polygon>
                                <polygon id="Fill-2" fill="#428895" points="48.1290788 0.901776741 0.00496474429 84.2562006 48.1276257 56.4475781"></polygon>
                                <polygon id="Fill-3" fill="#2D6D76" points="48.1290788 0.901776741 48.1276257 56.4475781 96.2614271 84.2562006"></polygon>
                            </g>
                            <g id="Page-1-Copy-3" opacity="0.699388587" transform="translate(312.304732, 317.646304) scale(-1, 1) rotate(-5.000000) translate(-312.304732, -317.646304) translate(263.804732, 275.146304)">
                                <polygon id="Fill-1" fill="#67B0AC" points="0.00452597296 84.2559473 96.2595879 84.2593862 48.1276257 56.4475781"></polygon>
                                <polygon id="Fill-2" fill="#58A8A3" points="48.1290788 0.901776741 0.00496474429 84.2562006 48.1276257 56.4475781"></polygon>
                                <polygon id="Fill-3" fill="#569493" points="48.1290788 0.901776741 48.1276257 56.4475781 96.2614271 84.2562006"></polygon>
                            </g>
                        </g>
                    </g>
                </g>
            </g>
        </g>
    </g>
</svg>