<?xml version="1.0" encoding="UTF-8"?>
<svg width="100px" height="80px" viewBox="0 0 100 80" version="1.1" xmlns="http://www.w3.org/2000/svg" xmlns:xlink="http://www.w3.org/1999/xlink">
    <!-- Generator: Sketch 48.2 (47327) - http://www.bohemiancoding.com/sketch -->
    <title>Accountability</title>
    <desc>Created with Sketch.</desc>
    <defs></defs>
    <g id="COMMODITY-WEB-Copy" stroke="none" stroke-width="1" fill="none" fill-rule="evenodd" transform="translate(-335.000000, -1990.000000)">
        <g id="//BODY" transform="translate(-4.000000, 840.000000)">
            <g id="SECTION-2" transform="translate(139.000000, 691.000000)">
                <g id="box4" transform="translate(200.000000, 459.000000)">
                    <g id="Accountability">
                        <rect id="Rectangle" fill="#FFFFFF" x="0" y="0" width="100" height="80"></rect>
                        <g id="Group" stroke-width="1">
                            <g id="placeholder-filled-point" transform="translate(62.000000, 14.759662)" fill="#5AADAA" fill-rule="nonzero">
                                <path d="M4.99979151,0 C2.24304002,0 0,2.14706484 0,4.78612658 C0,5.47449648 0.147191683,6.13173408 0.437266321,6.73974537 C1.68735319,9.35818528 4.08411748,12.1227075 4.78908085,12.9075344 C4.84189751,12.9662068 4.91889863,13 4.9999305,13 C5.08096238,13 5.1579635,12.9662068 5.21078016,12.9075344 C5.91546555,12.1228406 8.31222984,9.35845137 9.56273368,6.73974537 C9.85294731,6.13173408 10,5.47449648 10,4.78612658 C9.99972202,2.14706484 7.756682,0 4.99979151,0 Z M4.99979151,7.27205461 C3.56776516,7.27205461 2.40260192,6.15674636 2.40260192,4.78599353 C2.40260192,3.41510766 3.56776516,2.29979941 4.99979151,2.29979941 C6.43181787,2.29979941 7.59698111,3.41510766 7.59698111,4.78599353 C7.5971201,6.15674636 6.43195686,7.27205461 4.99979151,7.27205461 Z" id="Shape"></path>
                            </g>
                            <g id="placeholder-filled-point-copy" transform="translate(21.000000, 16.759662)" fill="#5AADAA" fill-rule="nonzero">
                                <path d="M4.99979151,7 C2.24304002,7 0,9.14706484 0,11.7861266 C0,12.4744965 0.147191683,13.1317341 0.437266321,13.7397454 C1.68735319,16.3581853 4.08411748,19.1227075 4.78908085,19.9075344 C4.84189751,19.9662068 4.91889863,20 4.9999305,20 C5.08096238,20 5.1579635,19.9662068 5.21078016,19.9075344 C5.91546555,19.1228406 8.31222984,16.3584514 9.56273368,13.7397454 C9.85294731,13.1317341 10,12.4744965 10,11.7861266 C9.99972202,9.14706484 7.756682,7 4.99979151,7 Z M4.99979151,14.2720546 C3.56776516,14.2720546 2.40260192,13.1567464 2.40260192,11.7859935 C2.40260192,10.4151077 3.56776516,9.29979941 4.99979151,9.29979941 C6.43181787,9.29979941 7.59698111,10.4151077 7.59698111,11.7859935 C7.5971201,13.1567464 6.43195686,14.2720546 4.99979151,14.2720546 Z" id="Shape"></path>
                                <g id="internet" opacity="0.400000006" transform="translate(4.000000, 0.240338)">
                                    <path d="M45.4444138,43.2335172 C49.5183448,38.6422759 52,32.6066897 52,26 C52,19.1261379 49.313931,12.8717931 44.9423448,8.2177931 C44.9423448,8.2177931 44.9423448,8.21689655 44.9423448,8.21689655 C44.9387586,8.21151724 44.9333793,8.20972414 44.9306897,8.20524138 C40.3771034,3.36475862 33.9972414,0.266275862 26.9010345,0.0233103448 L26.9001379,0.0224137931 L26.3935862,0.00896551724 C26.2626897,0.00448275862 26.1317931,0 26,0 C25.8682069,0 25.7373103,0.00448275862 25.6064138,0.00896551724 L25.1016552,0.0224137931 L25.1007586,0.0233103448 C18.0045517,0.266275862 11.6246897,3.36475862 7.07110345,8.20524138 C7.06751724,8.20972414 7.06213793,8.21151724 7.05944828,8.21689655 C7.05944828,8.21689655 7.05944828,8.2177931 7.05855172,8.21868966 C2.68606897,12.8717931 0,19.1261379 0,26 C0,32.6066897 2.48165517,38.6422759 6.55558621,43.2335172 C6.56096552,43.2415862 6.56096552,43.2505517 6.56724138,43.2586207 C6.58337931,43.2810345 6.60668966,43.2917931 6.62372414,43.3124138 C11.2015172,48.429931 17.7696552,51.7265517 25.0998621,51.9775862 L25.1007586,51.9784828 L25.6055172,51.991931 C25.7373103,51.9955172 25.8682069,52 26,52 C26.1317931,52 26.2626897,51.9955172 26.3935862,51.9910345 L26.8983448,51.9775862 L26.8992414,51.9766897 C34.2375172,51.7247586 40.8128276,48.4218621 45.3906207,43.2935862 C45.4022759,43.2783448 45.4211034,43.2738621 45.4318621,43.2577241 C45.4390345,43.2505517 45.4390345,43.2415862 45.4444138,43.2335172 Z M1.81551724,26.8965517 L12.5768276,26.8965517 C12.6781379,30.6970345 13.4204828,34.389931 14.742,37.8497241 C12.1922069,38.7722759 9.75448276,40.0095172 7.47006897,41.5533793 C4.11068966,37.5574483 2.01993103,32.4641379 1.81551724,26.8965517 Z M7.95958621,9.88268966 C10.1902069,11.3333103 12.5651724,12.4952414 15.0423448,13.3631034 C13.5253793,17.0452414 12.6862069,21.0151724 12.5768276,25.1034483 L1.81551724,25.1034483 C2.0297931,19.2695862 4.3142069,13.9575172 7.95958621,9.88268966 Z M50.1844828,25.1034483 L39.4231724,25.1034483 C39.3137931,21.0151724 38.4746207,17.0452414 36.9576552,13.3631034 C39.4348276,12.4952414 41.8097931,11.3333103 44.0404138,9.88268966 C47.6857931,13.9575172 49.9702069,19.2695862 50.1844828,25.1034483 Z M25.1034483,13.4151034 C22.5115172,13.3415862 19.9671034,12.9551724 17.5087586,12.2648276 C19.326069,8.53696552 21.892,5.1722069 25.1034483,2.37048276 L25.1034483,13.4151034 Z M25.1034483,15.2082069 L25.1034483,25.1034483 L14.369931,25.1034483 C14.4802069,21.2052414 15.2978621,17.4244828 16.7601379,13.9189655 C19.4551724,14.6998621 22.2533103,15.132 25.1034483,15.2082069 Z M26.8965517,15.2082069 C29.7466897,15.132 32.5448276,14.7007586 35.2407586,13.9189655 C36.7030345,17.4244828 37.5206897,21.2052414 37.6309655,25.1034483 L26.8965517,25.1034483 L26.8965517,15.2082069 Z M26.8965517,13.4151034 L26.8965517,2.37048276 C30.108,5.1722069 32.673931,8.53696552 34.4912414,12.2648276 C32.0328966,12.9551724 29.4884828,13.3415862 26.8965517,13.4151034 Z M36.2287586,11.7197241 C34.5064828,8.11110345 32.1162759,4.82344828 29.1567586,2.00558621 C34.4069655,2.69234483 39.1308966,5.06641379 42.7691034,8.56655172 C40.7034483,9.87731034 38.5122759,10.9316552 36.2287586,11.7197241 Z M15.7712414,11.7197241 C13.4877241,10.9316552 11.2965517,9.87731034 9.2317931,8.56655172 C12.8691034,5.06641379 17.593931,2.69234483 22.8441379,2.00558621 C19.8837241,4.82344828 17.4935172,8.11110345 15.7712414,11.7197241 Z M14.369931,26.8965517 L25.1034483,26.8965517 L25.1034483,35.8961379 C22.1385517,35.9750345 19.2337241,36.4376552 16.4418621,37.2777241 C15.1804138,34.0008276 14.4712414,30.4997931 14.369931,26.8965517 Z M25.1034483,37.6892414 L25.1034483,49.6295172 C21.666069,46.6305517 18.9710345,42.9869655 17.1384828,38.9453103 C19.7088966,38.1877241 22.3788276,37.7663448 25.1034483,37.6892414 Z M26.8965517,49.6295172 L26.8965517,37.6892414 C29.6211724,37.7654483 32.2911034,38.1877241 34.8615172,38.9444138 C33.0289655,42.9869655 30.333931,46.6305517 26.8965517,49.6295172 Z M26.8965517,35.8961379 L26.8965517,26.8965517 L37.630069,26.8965517 C37.5287586,30.4997931 36.8195862,34.0008276 35.5572414,37.2786207 C32.7662759,36.4376552 29.8614483,35.9750345 26.8965517,35.8961379 Z M39.4231724,26.8965517 L50.1844828,26.8965517 C49.980069,32.4641379 47.8902069,37.5574483 44.529931,41.5533793 C42.2455172,40.0095172 39.8077931,38.7722759 37.258,37.8497241 C38.5804138,34.389931 39.3218621,30.6970345 39.4231724,26.8965517 Z M8.68848276,42.8964138 C10.8097241,41.4870345 13.0681379,40.3537931 15.4278621,39.5065517 C17.1716552,43.4155172 19.6748276,46.9775172 22.8432414,49.9944138 C17.3285517,49.2726897 12.3930345,46.6906207 8.68848276,42.8964138 Z M29.1567586,49.9944138 C32.3251724,46.9784138 34.8283448,43.4164138 36.5721379,39.5065517 C38.9318621,40.3537931 41.1893793,41.4870345 43.3115172,42.8964138 C39.6069655,46.6906207 34.6714483,49.2726897 29.1567586,49.9944138 Z" id="Shape"></path>
                                </g>
                            </g>
                            <g id="placeholder-filled-point-copy-2" transform="translate(45.000000, 21.759662)" stroke="#5AADAA" stroke-dasharray="4,4">
                                <path d="M0.757946935,23.8376257 C0.774526112,18.044823 2.29393522,13.2188 5.31617427,9.35955683 C8.33841332,5.50031365 13.5548366,2.61536827 20.9654441,0.704720698" id="Path-10"></path>
                            </g>
                            <path d="M46.2579449,45.5987185 L45.257949,45.5958565 C45.2619771,44.1884296 45.3534143,42.8359609 45.5324224,41.5385217 L46.5230383,41.6751973 C46.3502655,42.9274428 46.2618471,44.2352595 46.2579449,45.5987185 Z M47.3728967,37.8278371 L46.4184128,37.5295748 C46.8339881,36.199672 47.3612056,34.9404352 48.000049,33.7522971 L48.8808056,34.2258663 C48.2723093,35.3575641 47.7696784,36.5580769 47.3728967,37.8278371 Z M51.0780464,30.9755113 L50.3149276,30.3292531 C51.1661014,29.3241645 52.1661808,28.3876684 53.3144596,27.5196518 L53.917482,28.3173761 C52.826681,29.1419435 51.8804379,30.0280262 51.0780464,30.9755113 Z M57.2379006,26.2283422 L56.7718154,25.3436024 C57.909569,24.7442283 59.1432292,24.1887849 60.4727762,23.6770834 L60.8319615,24.6103497 C59.5380623,25.1083315 58.3400486,25.6477253 57.2379006,26.2283422 Z M64.6307023,23.3457835 L64.3547569,22.3846102 C64.835995,22.2464505 65.3270718,22.112739 65.8279889,21.9834723 L66.077863,22.9517506 C65.5855969,23.0787849 65.1032095,23.2101304 64.6307023,23.3457835 Z" id="Path-10" fill="#5AADAA" fill-rule="nonzero"></path>
                            <path d="M29.9461667,24.1479416 L29.1581921,23.5322339 C30.0130178,22.4382392 30.9117735,21.4246457 31.8544678,20.4915866 L32.5579331,21.2023162 C31.6457578,22.1051683 30.7751662,23.086999 29.9461667,24.1479416 Z M35.5523434,18.6315392 L34.9581537,17.8272143 C36.0597496,17.0134175 37.2108609,16.2913256 38.4113165,15.6610817 L38.8761531,16.5464782 C37.7209362,17.1529716 36.6130567,17.8479442 35.5523434,18.6315392 Z M42.5016704,14.9862184 L42.1772776,14.040296 C43.3159942,13.6497867 44.4921799,13.3300272 45.7063547,13.0808573 C45.8797458,13.0455137 46.0161551,13.0186426 46.1569627,12.9920151 L46.3427751,13.9746004 C46.2067906,14.0003158 46.0749964,14.0262778 45.9067341,14.0605755 C44.7347019,14.3010973 43.5997237,14.6096541 42.5016704,14.9862184 Z M50.2445536,13.5224832 L50.2028981,12.5233511 C51.5695616,12.4663727 52.9278069,12.5136666 54.2774083,12.6652469 L54.1657952,13.6589987 C52.8671648,13.5131432 51.5601595,13.4676334 50.2445536,13.5224832 Z M58.0353794,14.3972068 L58.296248,13.4318325 C59.5861813,13.7804052 60.8674394,14.2266803 62.1399108,14.7705258 L61.7469072,15.6900626 C60.5169771,15.1643991 59.2798383,14.7334912 58.0353794,14.3972068 Z" id="Path-42" fill="#5AADAA" fill-rule="nonzero"></path>
                            <path d="M45.9997915,45 C43.24304,45 41,47.1470648 41,49.7861266 C41,50.4744965 41.1471917,51.1317341 41.4372663,51.7397454 C42.6873532,54.3581853 45.0841175,57.1227075 45.7890809,57.9075344 C45.8418975,57.9662068 45.9188986,58 45.9999305,58 C46.0809624,58 46.1579635,57.9662068 46.2107802,57.9075344 C46.9154656,57.1228406 49.3122298,54.3584514 50.5627337,51.7397454 C50.8529473,51.1317341 51,50.4744965 51,49.7861266 C50.999722,47.1470648 48.756682,45 45.9997915,45 Z M45.9997915,52.2720546 C44.5677652,52.2720546 43.4026019,51.1567464 43.4026019,49.7859935 C43.4026019,48.4151077 44.5677652,47.2997994 45.9997915,47.2997994 C47.4318179,47.2997994 48.5969811,48.4151077 48.5969811,49.7859935 C48.5971201,51.1567464 47.4319569,52.2720546 45.9997915,52.2720546 Z" id="Shape" fill="#5AADAA" fill-rule="nonzero"></path>
                            <path d="M75.9997915,40 C73.24304,40 71,42.1470648 71,44.7861266 C71,45.4744965 71.1471917,46.1317341 71.4372663,46.7397454 C72.6873532,49.3581853 75.0841175,52.1227075 75.7890809,52.9075344 C75.8418975,52.9662068 75.9188986,53 75.9999305,53 C76.0809624,53 76.1579635,52.9662068 76.2107802,52.9075344 C76.9154656,52.1228406 79.3122298,49.3584514 80.5627337,46.7397454 C80.8529473,46.1317341 81,45.4744965 81,44.7861266 C80.999722,42.1470648 78.756682,40 75.9997915,40 Z M75.9997915,47.2720546 C74.5677652,47.2720546 73.4026019,46.1567464 73.4026019,44.7859935 C73.4026019,43.4151077 74.5677652,42.2997994 75.9997915,42.2997994 C77.4318179,42.2997994 78.5969811,43.4151077 78.5969811,44.7859935 C78.5971201,46.1567464 77.4319569,47.2720546 75.9997915,47.2720546 Z" id="Shape-Copy" fill="#5AADAA" fill-rule="nonzero"></path>
                            <path d="M46.7793808,54.586334 L46.2732263,53.7238912 C47.4842086,53.0131841 48.672647,52.3784022 49.8386083,51.8195929 L50.2708036,52.7213729 C49.1305833,53.2678454 47.9667534,53.8894832 46.7793808,54.586334 Z M53.9209599,51.2001971 L53.5895364,50.256715 C54.929624,49.7859731 56.237742,49.4245925 57.5139158,49.1728059 L57.7074824,50.1538931 C56.4792046,50.3962299 55.2170219,50.7449204 53.9209599,51.2001971 Z M61.6168192,49.7400642 L61.6081821,48.7401015 C61.6928858,48.7394902 61.6928858,48.7394902 61.7775019,48.7393614 C63.0771576,48.7393613 64.3683775,48.7936728 65.6529727,48.9023594 L65.5686662,49.8987993 C64.312166,49.7924897 63.0490731,49.7393613 61.7775501,49.7393614 C61.6972602,49.7394837 61.6972602,49.7394837 61.6168192,49.7400642 Z M69.4985054,50.4085157 L69.671187,49.423538 C70.9949936,49.6556215 72.3112231,49.9467385 73.6198365,50.2968725 L73.3613673,51.262892 C72.0810016,50.920316 70.793394,50.6355295 69.4985054,50.4085157 Z" id="Path-11" fill="#5AADAA" fill-rule="nonzero"></path>
                        </g>
                    </g>
                </g>
            </g>
        </g>
    </g>
</svg>