<?xml version="1.0" encoding="UTF-8"?>
<svg width="100px" height="80px" viewBox="0 0 100 80" version="1.1" xmlns="http://www.w3.org/2000/svg" xmlns:xlink="http://www.w3.org/1999/xlink">
    <!-- Generator: Sketch 48.2 (47327) - http://www.bohemiancoding.com/sketch -->
    <title>Converting Digital</title>
    <desc>Created with Sketch.</desc>
    <defs></defs>
    <g id="COMMODITY-WEB-Copy" stroke="none" stroke-width="1" fill="none" fill-rule="evenodd" transform="translate(-136.000000, -1720.000000)">
        <g id="//BODY" transform="translate(-4.000000, 840.000000)">
            <g id="SECTION-2" transform="translate(139.000000, 691.000000)">
                <g id="box1" transform="translate(1.000000, 189.000000)">
                    <g id="Converting-Digital">
                        <rect id="Rectangle" fill="#FFFFFF" x="0" y="0" width="100" height="80"></rect>
                        <g id="Group" stroke-width="1">
                            <g id="open-cardboard-box" opacity="0.400000006" transform="translate(22.000000, 11.000000)" fill="#5AADAA" fill-rule="nonzero" stroke="#5AADAA" stroke-width="0.2">
                                <path d="M7.68819287,22.1704354 C7.85012127,22.225719 7.95895419,22.3778763 7.95895419,22.5489818 L7.95895419,38.039797 C7.95895419,38.519642 8.24615938,38.9515322 8.68592823,39.1342909 C26.7616295,46.6485633 36.0968698,50.5290728 36.1241006,50.540071 C36.2305727,50.5808463 36.3427944,50.6 36.5000009,50.6 C36.6079592,50.6 36.714882,50.5846736 36.8197347,50.5552832 C36.8565283,50.5449699 46.0213873,46.737961 64.3143116,39.1342567 C64.7538695,38.9515857 65.0410477,38.5196252 65.0410477,38.039797 L65.0410477,22.5486683 C65.0410477,22.3775628 65.1498806,22.2254056 65.311809,22.1701219 L70.8021042,20.2956925 C71.1581166,20.1741422 71.4353859,19.8877052 71.5471552,19.5254231 C71.6588978,19.1628649 71.5911628,18.7680055 71.3652809,18.4638299 C71.0829422,18.0844052 71.0829422,18.0844052 70.8519337,17.7739618 C70.1588942,16.8426149 70.1588942,16.8426149 68.079731,14.0485262 C65.3886112,10.432073 64.7954578,9.63501476 64.7599557,9.58170689 C64.7413424,9.54823944 64.6509926,9.45846494 64.526781,9.37733727 C64.4279671,9.31279784 64.3144066,9.25931339 64.1989358,9.2221283 L36.8188346,1.44440065 C36.6101585,1.385212 36.3898747,1.38520309 36.1814798,1.44431194 L8.81721039,9.21728578 C8.69461728,9.2528681 8.55379213,9.32250186 8.41934789,9.42317557 C8.32966919,9.49032822 8.25449626,9.56495224 8.19371324,9.64748537 C8.15610076,9.69856925 7.01701808,11.2298648 4.9148184,14.0554281 C4.09144646,15.1621074 4.09144646,15.1621074 3.63401569,15.7769247 C3.25281455,16.2892788 3.25281455,16.2892788 2.65985734,17.0862364 C1.93827065,18.0560663 1.93827065,18.0560663 1.74147171,18.3205662 L1.63501537,18.4636435 C1.40887244,18.7679518 1.34108967,19.1628049 1.45275759,19.5254477 C1.56457327,19.8880433 1.84175631,20.1744116 2.19788783,20.2960026 L7.68819287,22.1704354 Z M7.15895419,22.8350882 L1.9394058,21.0530938 C1.34049073,20.8486112 0.875457476,20.3681678 0.688233242,19.7610374 C0.501557003,19.1548044 0.614770412,18.4953055 0.993046445,17.9862801 L1.0996433,17.8430138 C1.29643743,17.5785204 1.29643743,17.5785204 2.01802285,16.6086922 C2.61097843,15.8117368 2.61097843,15.8117368 2.99216333,15.2994045 C3.44960376,14.6845742 3.44960376,14.6845742 4.27297393,13.5778973 C6.36323996,10.768374 7.513241,9.22240064 7.54952592,9.17311979 C7.65807778,9.02572462 7.7890021,8.89575628 7.93983416,8.78281116 C8.15213648,8.62383625 8.37997963,8.51117472 8.59641464,8.44836185 L35.9630316,0.674714402 C36.3143041,0.575079933 36.6857508,0.575094948 37.0372861,0.674804041 L64.4301661,8.45638774 C64.625648,8.51895232 64.8043972,8.60313918 64.9642496,8.70754534 C65.1899518,8.85496071 65.3714941,9.03534691 65.4254493,9.14194298 C65.4331802,9.15189771 65.4619882,9.19060892 68.7215345,13.5709404 C70.8006982,16.3650298 70.8006982,16.3650298 71.4937421,17.2963824 C71.7247481,17.6068225 71.7247481,17.6068225 72.0073203,17.9865613 C72.3853117,18.4955692 72.4984406,19.1550509 72.3116348,19.7611581 C72.1244537,20.3678751 71.6593562,20.8483507 71.0605862,21.0527836 L65.8410477,22.8347747 L65.8410477,38.039797 C65.8410477,38.8423081 65.3598673,39.5660782 64.6213504,39.8729902 L37.2885543,51.2342258 C37.2182345,51.2671464 37.1316453,51.2986875 37.035654,51.3255941 C36.8619394,51.3742865 36.6825529,51.4 36.5000009,51.4 C36.2484366,51.4 36.0395394,51.364346 35.8319187,51.2847771 C35.7934589,51.2693246 26.8295908,47.5431886 8.37887908,39.87302 C7.64019634,39.5660391 7.15895419,38.8423622 7.15895419,38.039797 L7.15895419,22.8350882 Z M8.04645431,22.1952182 L2.224617,20.2075977 C1.89485155,20.0950086 1.63890312,19.8305667 1.53593256,19.496654 C1.4333727,19.1635896 1.4956665,18.8010561 1.7037006,18.5211159 L1.81016322,18.3780301 C2.00686916,18.1136553 2.00686916,18.1136553 2.7285271,17.1437296 C3.32140646,16.3468767 3.32140646,16.3468767 3.70258276,15.8345559 C4.16014872,15.2195569 4.16014872,15.2195569 4.98385355,14.1124302 C7.09757031,11.2713868 8.2250453,9.75569121 8.26265492,9.7046112 C8.31889387,9.62824817 8.38878935,9.55966391 8.46974311,9.49904462 C8.58889032,9.40982554 8.72788802,9.33946691 8.84002215,9.30692128 L36.2040262,1.53402366 C36.3976575,1.47910235 36.6024112,1.4791213 36.7962884,1.53411241 L64.1762219,9.31181261 C64.2837765,9.34659824 64.3897275,9.39682147 64.4809794,9.45642185 C64.6066224,9.53848438 64.6978888,9.62989739 64.7224827,9.68677484 C64.7296468,9.69636591 66.7973117,12.4749258 68.0111262,14.1061067 C70.475182,17.4174344 70.475182,17.4174344 71.2967926,18.5215676 C71.5044,18.801318 71.5665817,19.1637303 71.4639857,19.4966119 C71.3610636,19.8302167 71.1050308,20.094736 70.775375,20.2072876 L64.9535476,22.1949047 L64.9535476,38.039797 C64.9535476,38.4808841 64.688955,38.8788585 64.2824737,39.0477835 L36.9247852,50.4201161 C36.8525588,50.4522294 36.7934682,50.4648255 36.5000009,50.5071428 C36.3435971,50.5071428 36.2408787,50.4868558 36.0843836,50.4240559 L8.71776202,39.0478159 C8.31110268,38.8788169 8.04645431,38.4809315 8.04645431,38.039797 L8.04645431,22.1952182 Z M64.0483437,10.1130102 C64.0243711,10.1082595 54.8675366,7.50515937 36.5778402,2.30370995 C36.5438168,2.29405958 27.3714822,4.88476953 9.06083654,10.0758398 C8.92840466,10.1550234 8.91426523,10.1688976 8.90684224,10.1789768 C8.86790547,10.2318593 7.75113339,11.7331666 5.62569802,14.589961 C4.80199143,15.6970901 4.80199143,15.6970901 4.34443513,16.3120761 C3.96324258,16.8244187 3.96324258,16.8244187 3.37036159,17.6212738 C2.64870239,18.5912012 2.64870239,18.5912012 2.4519915,18.8555827 L2.3456695,18.9984794 C2.28974041,19.0737402 2.2729192,19.1716352 2.30045693,19.2610644 C2.32802085,19.3504486 2.3961235,19.4208112 2.48309903,19.4505065 L8.57569299,21.5305655 C8.7376214,21.5858491 8.84645431,21.7380064 8.84645431,21.9091118 L8.84645431,38.039797 C8.84645431,38.1581805 8.91703706,38.2642981 9.02480688,38.309085 L36.3868245,49.6834451 C36.5852082,49.6881307 36.6174272,49.6812626 36.6087363,49.6852571 L63.9754295,38.3090522 C64.0829619,38.264364 64.1535476,38.158196 64.1535476,38.039797 L64.1535476,21.9087984 C64.1535476,21.7376929 64.2623805,21.5855356 64.4243089,21.530252 L70.516893,19.4501964 C70.6037801,19.4205313 70.6719924,19.350058 70.6995061,19.2608768 C70.7270483,19.1715139 70.7102521,19.0736214 70.6546783,18.9987352 C69.8333776,17.8950191 69.8333776,17.8950191 67.3693226,14.5836925 C66.1669597,12.9679007 64.0882073,10.1744413 64.0483437,10.1130102 Z" id="Path"></path>
                                <path d="M37.062016,19.4137599 C37.2253138,19.1882639 37.5632955,19.1944145 37.7182808,19.4257026 L44.0557285,28.8847989 C44.5334834,29.5046691 45.3326207,29.7515563 46.0451899,29.5117314 L64.8180933,22.3564749 L64.7830251,22.2465619 L46.0367939,29.3913322 C45.3403165,29.6260562 44.5755963,29.3898019 44.1088704,28.7830555 L37.3701563,18.857947 L30.5207655,28.2715318 C29.8330639,29.1753324 28.6616841,29.5366568 27.5995086,29.1700813 L8.53855379,22.5918101 L8.50241093,22.7024324 L27.5758665,29.2850178 C28.6677665,29.6618517 29.8723326,29.2912158 30.5856798,28.3568516 L37.062016,19.4137599 Z M31.2307539,28.8300359 C30.3039581,30.0482472 28.7363023,30.5318072 27.3148779,30.0412486 L7.86950572,23.3303082 C7.66311491,23.2590791 7.55197132,23.0355058 7.61977944,22.8279659 L7.90441008,21.9567986 C7.97382196,21.7443501 8.20385265,21.6299964 8.41512492,21.7029101 L27.8604971,28.4138505 C28.5945657,28.6671905 29.404566,28.4173374 29.8789939,27.7939801 L37.0580315,17.9271832 C37.2210037,17.7031958 37.5568098,17.7086606 37.7124074,17.9378324 L44.7566208,28.3141844 C45.0017835,28.6322743 45.4099564,28.7583761 45.7665851,28.638509 L64.8931389,21.3484592 C65.1076866,21.2666848 65.3468853,21.381907 65.4166751,21.6006469 L65.6952798,22.4738694 C65.7598171,22.6761467 65.6550682,22.8936032 65.4566676,22.9692232 L46.3153986,30.2645546 C45.2629808,30.6192364 44.1072962,30.2621966 43.406616,29.3516507 L37.373257,20.3479301 L31.2307539,28.8300359 Z" id="Path-4"></path>
                                <path d="M37.6,20.4 L37.4,20.4 L37.4,49.6 L37.6,49.6 L37.6,20.4 Z M38,50.4 L37,50.4 C36.7790861,50.4 36.6,50.2209139 36.6,50 L36.6,20 C36.6,19.7790861 36.7790861,19.6 37,19.6 L38,19.6 C38.2209139,19.6 38.4,19.7790861 38.4,20 L38.4,50 C38.4,50.2209139 38.2209139,50.4 38,50.4 Z" id="Path-5"></path>
                                <path d="M37.5157994,18.4834962 C37.4366378,18.5083476 37.3517072,18.5079674 37.2727713,18.4824082 L9.53323321,9.50044523 L9.51431484,9.55384567 L37.3908446,18.580166 L64.8756182,9.95345782 L64.8576119,9.90000933 L37.5157994,18.4834962 Z M64.9917904,9.01939102 C65.1994748,8.95419211 65.4211692,9.06703658 65.4906652,9.27332281 L65.7641421,10.0850895 C65.8357115,10.2975303 65.7187467,10.527304 65.5048624,10.5944364 L37.5087406,19.3816426 C37.4295848,19.4064874 37.3446623,19.4061049 37.2657335,19.380548 L8.87677991,10.1883067 C8.66253524,10.118935 8.54776061,9.88645262 8.6229618,9.67418395 L8.90912936,8.86642532 C8.98147876,8.66220631 9.20326757,8.55271102 9.40938765,8.61945196 L37.3978709,17.6820225 L64.9917904,9.01939102 Z" id="Path-6"></path>
                            </g>
                            <g id="laptop" transform="translate(7.000000, 37.000000)">
                                <path d="M45.8608077,24.1659751 C47.0650865,24.1659751 48.0343254,25.1538936 47.9995024,26.332543 L47.9995024,28.5328986 C47.9995024,31.549363 45.5678807,34 42.5670627,34 L5.43243978,34 C2.43162176,34 0,31.549363 0,28.5328986 L0,26.332543 C0,25.1370626 0.963552535,24.1659751 2.15751612,24.1659751 L3.33138786,24.1659751 L3.33138786,4.04445762 C3.33138786,1.81518945 5.13249271,0 7.35222262,0 L40.5531728,0 C42.6691306,0 44.4258319,1.63438543 44.658036,3.78115012 C44.6651395,3.82327508 44.6697033,3.86637857 44.6744315,3.92565573 C44.6776846,4.00565157 44.6776846,4.00565157 44.6775253,4.04445762 L44.6775253,24.1659751 L45.8608077,24.1659751 Z M42.6975307,4.17140933 L42.6797882,4.06764493 C42.6830135,4.10253267 42.68773,4.13190017 42.6975307,4.17140933 Z M42.6775253,4.05441081 C42.561354,2.86452784 41.6414297,2 40.5531728,2 L7.35222262,2 C6.24056466,2 5.33138786,2.91628654 5.33138786,4.04445762 L5.33138786,26.1659751 L2.15751612,26.1659751 C2.07162448,26.1659751 2,26.2381597 2,26.332543 L2,28.5328986 C2,30.4482659 3.53969371,32 5.43243978,32 L42.5670627,32 C44.4598087,32 45.9995024,30.4482659 45.9995024,28.5328986 L45.999928,26.3033718 C46.0021543,26.2270852 45.9421997,26.1659751 45.8608077,26.1659751 L42.6775253,26.1659751 L42.6775253,4.05441081 Z" id="Path" stroke="#5AADAA" fill="#5AADAA" fill-rule="nonzero"></path>
                                <path d="M45.8608077,25.1659751 L43.6775253,25.1659751 L43.6775253,4.04445762 C43.6775253,4.00652045 43.6775253,3.96858328 43.6681146,3.93064612 C43.5081327,2.26141079 42.1624026,1 40.5531728,1 L7.35222262,1 C5.68652869,1 4.33138786,2.365738 4.33138786,4.04445762 L4.33138786,25.1659751 L2.15751612,25.1659751 C1.51758851,25.1659751 1,25.6876111 1,26.332543 L1,28.5328986 C1,30.9988145 2.98565774,33 5.43243978,33 L42.5670627,33 C45.0138447,33 46.9995024,30.9988145 46.9995024,28.5328986 L46.9995024,26.332543 C47.0183238,25.6876111 46.5007353,25.1659751 45.8608077,25.1659751 Z" id="Path" fill="#FFFFFF"></path>
                                <rect id="Rectangle-4" stroke="#5AADAA" x="9.5" y="5.5" width="30" height="18" rx="2"></rect>
                                <g id="Group-13" transform="translate(20.000000, 7.000000)" fill="#5AADAA">
                                    <polygon id="Path" stroke="#5AADAA" stroke-width="0.2" points="1.12270782 7.40817908 4.86928126 9.73656062 8.85943296 7.40817908 5.02255816 0.800977287"></polygon>
                                    <polygon id="Path-12" fill-rule="nonzero" points="4.88885327 13.8666881 4.92882182 13.8309937 4.95338033 10.7863337 1.19060798 8.56228443"></polygon>
                                    <polygon id="Path" points="0.854091984 8.06323465 5.02882182 10.7432903 4.92882182 13.9837283"></polygon>
                                    <polygon id="Path-12" stroke="#5AADAA" stroke-width="0.2" fill-rule="nonzero" transform="translate(6.929707, 11.051905) scale(-1, 1) translate(-6.929707, -11.051905) " points="4.94220138 8.24892058 8.91721199 10.7633072 8.82696084 13.8548899"></polygon>
                                </g>
                                <path d="M38.8479156,26 L28.1120478,26 C27.469973,26 26.9506479,26.4219949 26.9506479,26.943734 L26.9412056,27.1202046 L21.0397831,27.112532 L21.0397831,26.943734 C21.0397831,26.4219949 20.5204579,26 19.8783832,26 L9.16139994,26 C8.51932518,26 8,26.4219949 8,26.943734 C8,27.4654731 8.51932518,27.887468 9.16139994,27.887468 L18.9341556,27.887468 C19.3024043,28.5396419 20.1144401,29 21.0492254,29 L26.9412056,29 C27.8854332,29 28.6974689,28.5396419 29.0562754,27.887468 L38.8384733,27.887468 C39.4805481,27.887468 39.9998733,27.4654731 39.9998733,26.943734 C40.0093155,26.4219949 39.4899903,26 38.8479156,26 Z" id="Shape" fill="#5AADAA" fill-rule="nonzero"></path>
                            </g>
                        </g>
                    </g>
                </g>
            </g>
        </g>
    </g>
</svg>