<?xml version="1.0" encoding="UTF-8"?>
<svg width="100px" height="80px" viewBox="0 0 100 80" version="1.1" xmlns="http://www.w3.org/2000/svg" xmlns:xlink="http://www.w3.org/1999/xlink">
    <!-- Generator: Sketch 48.2 (47327) - http://www.bohemiancoding.com/sketch -->
    <title>Commodity Scalability</title>
    <desc>Created with Sketch.</desc>
    <defs></defs>
    <g id="COMMODITY-WEB-Copy" stroke="none" stroke-width="1" fill="none" fill-rule="evenodd" transform="translate(-536.000000, -1720.000000)">
        <g id="//BODY" transform="translate(-4.000000, 840.000000)">
            <g id="SECTION-2" transform="translate(139.000000, 691.000000)">
                <g id="box2" transform="translate(401.000000, 189.000000)">
                    <g id="Commodity-Scalability">
                        <rect id="Rectangle-2" fill="#FFFFFF" x="0" y="0" width="100" height="80"></rect>
                        <g id="Group" stroke-width="1">
                            <g id="Group-14" opacity="0.400000006" transform="translate(16.000000, 14.000000)">
                                <path d="M2,1.7 C1.83431458,1.7 1.7,1.83431458 1.7,2 L1.7,43 C1.7,43.1656854 1.83431458,43.3 2,43.3 L49,43.3 C49.1656854,43.3 49.3,43.1656854 49.3,43 L49.3,2 C49.3,1.83431458 49.1656854,1.7 49,1.7 L2,1.7 Z M2,0 L49,0 C50.1045695,-2.02906125e-16 51,0.8954305 51,2 L51,43 C51,44.1045695 50.1045695,45 49,45 L2,45 C0.8954305,45 1.3527075e-16,44.1045695 0,43 L0,2 C-1.3527075e-16,0.8954305 0.8954305,2.02906125e-16 2,0 Z" id="Rectangle-4" fill="#5AADAA" fill-rule="nonzero"></path>
                                <circle id="Oval-2" fill="#D0021B" cx="4" cy="4" r="1"></circle>
                                <circle id="Oval-2" fill="#F5A623" cx="7" cy="4" r="1"></circle>
                                <circle id="Oval-2" fill="#7ED321" cx="10" cy="4" r="1"></circle>
                                <g id="Group-12" transform="translate(45.000000, 3.000000)" stroke="#5AADAA" stroke-linecap="round" stroke-linejoin="round">
                                    <path d="M0.319105646,0.423867359 L1.57137929,1.72914203" id="Path-4"></path>
                                    <path d="M1.60343619,0.398703468 L0.329445156,1.7393048" id="Path-5"></path>
                                </g>
                                <path d="M4.7,10.7 L4.7,19.3 L25.3,19.3 L25.3,10.7 L4.7,10.7 Z M4,9 L26,9 C26.5522847,9 27,9.44771525 27,10 L27,20 C27,20.5522847 26.5522847,21 26,21 L4,21 C3.44771525,21 3,20.5522847 3,20 L3,10 C3,9.44771525 3.44771525,9 4,9 Z" id="Rectangle" fill="#5AADAA" fill-rule="nonzero"></path>
                                <path d="M4.7,24.7 L4.7,37.3 L25.3,37.3 L25.3,24.7 L4.7,24.7 Z M4,23 L26,23 C26.5522847,23 27,23.4477153 27,24 L27,38 C27,38.5522847 26.5522847,39 26,39 L4,39 C3.44771525,39 3,38.5522847 3,38 L3,24 C3,23.4477153 3.44771525,23 4,23 Z" id="Rectangle-Copy" fill="#5AADAA" fill-rule="nonzero"></path>
                                <path d="M30.7,37.3 L46.3,37.3 L46.3,10.7 L30.7,10.7 L30.7,37.3 Z M30,9 L47,9 C47.5522847,9 48,9.44771525 48,10 L48,38 C48,38.5522847 47.5522847,39 47,39 L30,39 C29.4477153,39 29,38.5522847 29,38 L29,10 C29,9.44771525 29.4477153,9 30,9 Z" id="Rectangle-Copy-2" fill="#5AADAA" fill-rule="nonzero"></path>
                            </g>
                            <path d="M82.6540202,40.2239993 C77.5794098,39.9034338 73.3435944,38.3460954 69.9431982,36.0321334 C68.7327538,35.208453 67.6961935,34.336403 66.8269653,33.4620875 C65.9577374,34.3364029 64.9211779,35.2084523 63.7107372,36.0321303 C60.3104313,38.3459909 56.0745338,39.9033528 50.9999821,40.2239861 L50.9997467,52.7550841 C51.1142166,57.8397798 51.5841162,60.3194804 53.2920296,63.0410248 C55.5254417,66.6002158 59.8306502,69.8682703 66.8269625,73.2535967 C73.8233695,69.8681827 78.1284986,66.6002101 80.3619921,63.0410224 C82.0685568,60.3214382 82.538996,57.8435366 82.6540202,52.7662951 L82.6540202,40.2239993 Z M84.6540202,52.777591 C84.5316907,58.2173461 84.0045803,60.9989349 82.0560678,64.1040875 C79.5374398,68.1176519 74.8195908,71.6577435 67.2575662,75.2655671 L66.8269683,75.4710043 L66.3963693,75.2655694 C58.8344316,71.657837 54.1164846,68.117649 51.5979616,64.1041021 C49.64935,60.9990075 49.1222072,58.2172297 49,52.777591 L49,38.3011864 L49.9685518,38.2707121 C55.0772523,38.109973 59.2727158,36.6330004 62.5855723,34.3786478 C64.0209904,33.4018778 65.1809014,32.3558704 66.0765564,31.3390261 L66.8269653,30.4870809 L67.5773742,31.3390261 C68.4730292,32.3558704 69.6329402,33.4018778 71.0683696,34.3786555 C74.3813236,36.6331133 78.5766799,38.1100481 83.6854533,38.2707117 L84.6540202,38.3011717 L84.6540202,52.777591 Z" id="Path" stroke="#5AADAA" stroke-width="2" fill="#5AADAA" fill-rule="nonzero"></path>
                            <path d="M83.6540202,52.777591 C83.562639,56.8327212 83.3232559,60.2033212 81.2090337,63.572549 C78.810992,67.3939528 74.2357467,70.828313 66.8269653,74.3630246 C59.4182735,70.8284045 54.8429386,67.3939528 52.4449866,63.572549 C50.3306748,60.2034127 50.0912917,56.8327212 50,52.777591 L50,39.2702175 C56.1869601,39.0755522 60.5428903,36.9782351 63.1481524,35.2053906 C64.9094816,34.0068453 66.1182229,32.8046409 66.8269653,32 C67.5357077,32.8046409 68.744449,34.0068453 70.5057782,35.2053906 C73.11113,36.9783266 77.4669706,39.0756437 83.6540202,39.2702175 L83.6540202,52.777591 Z" id="Path" fill="#FFFFFF"></path>
                            <g id="lock-icon" transform="translate(58.000000, 39.000000)" fill="#5AADAA" fill-rule="nonzero">
                                <path d="M14.8752115,9.78212108 L14.8752115,6.5217602 C14.8752115,2.9195443 12.0206402,0 8.50003384,0 C4.97888611,0 2.12492387,2.9195443 2.12492387,6.5217602 L2.12492387,9.78212108 C0.951478649,9.78212108 0,10.7554871 0,11.9559258 L0,22.8260569 C0,24.0267724 0.951478649,25 2.12492387,25 L14.8752115,25 C16.0487244,25 17,24.0267032 17,22.8260569 L17,11.9559258 C17.0000677,10.7554871 16.0487244,9.78212108 14.8752115,9.78212108 Z M4.24998308,6.5217602 C4.24998308,4.12019063 6.15294038,2.17394314 8.50003384,2.17394314 C10.8472626,2.17394314 12.7502199,4.1201214 12.7502199,6.5217602 L12.7502199,9.78212108 L4.24998308,9.78212108 L4.24998308,6.5217602 Z M14.8752115,22.8259876 L2.12492387,22.8259876 L2.12492387,11.9564796 L14.8752115,11.9564796 L14.8752115,22.8259876 Z M7.43750423,18.1767456 L7.43750423,19.5650729 C7.43750423,20.1648769 7.91358192,20.6520445 8.50003384,20.6520445 C9.08635041,20.6520445 9.56256344,20.1648769 9.56256344,19.5650729 L9.56256344,18.1767456 C10.1944238,17.8000681 10.6250931,17.1067352 10.6250931,16.3043659 C10.6250931,15.1033734 9.67347906,14.1298689 8.50003384,14.1298689 C7.32658862,14.1298689 6.37510997,15.1033734 6.37510997,16.3043659 C6.37510997,17.1067352 6.80537322,17.8000681 7.43750423,18.1767456 Z" id="Shape"></path>
                            </g>
                        </g>
                    </g>
                </g>
            </g>
        </g>
    </g>
</svg>