<?xml version="1.0" encoding="UTF-8"?>
<svg width="100px" height="80px" viewBox="0 0 100 80" version="1.1" xmlns="http://www.w3.org/2000/svg" xmlns:xlink="http://www.w3.org/1999/xlink">
    <!-- Generator: Sketch 48.2 (47327) - http://www.bohemiancoding.com/sketch -->
    <title>Marketplace Stability</title>
    <desc>Created with Sketch.</desc>
    <defs></defs>
    <g id="COMMODITY-WEB-Copy" stroke="none" stroke-width="1" fill="none" fill-rule="evenodd" transform="translate(-935.000000, -1720.000000)">
        <g id="//BODY" transform="translate(-4.000000, 840.000000)">
            <g id="SECTION-2" transform="translate(139.000000, 691.000000)">
                <g id="box3" transform="translate(800.000000, 189.000000)">
                    <g id="Marketplace-Stability">
                        <rect id="Rectangle" fill="#FFFFFF" x="0" y="0" width="100" height="80"></rect>
                        <g id="Group" stroke-width="1">
                            <g id="open-cardboard-box" opacity="0.400000006" transform="translate(3.000000, 18.000000)">
                                <g id="Group-8" transform="translate(1.000000, 1.000000)" fill="#FFFFFF">
                                    <path d="M3.67934852,12.0674298 L0.599475551,11.0177474 C0.331609284,10.9264495 0.123423979,10.7117485 0.0395590161,10.4402596 C-0.044139611,10.1689154 0.00664093165,9.87369925 0.176121334,9.6460313 C0.291116679,9.49174371 0.291116679,9.49174371 0.751099862,8.87457954 C1.32607886,8.10311576 1.32607886,8.10311576 2.01605298,7.17733057 C3.14259159,5.6657585 3.83321355,4.73895973 3.85473534,4.70977995 C3.90346123,4.64373228 3.9618758,4.58673537 4.02750451,4.53767628 C4.13546055,4.45697647 4.24149166,4.41007094 4.32264091,4.38655814 L19.6742918,0.0333391818 C19.8312988,-0.0111174047 19.997269,-0.0111174047 20.154368,0.0333652524 L35.5137516,4.38891686 C35.6061051,4.41842401 35.6878195,4.45732401 35.7590495,4.50376713 C35.8710735,4.57680864 35.9393302,4.65394909 35.9632486,4.69688134 C35.9660457,4.70047691 36.2148149,5.03420078 37.809445,7.17345047 C39.1917676,9.0278903 39.1917676,9.0278903 39.6525267,9.64602161 C39.821949,9.87377503 39.872707,10.1689856 39.7889691,10.4402125 C39.7051174,10.7115363 39.496914,10.9262892 39.2290894,11.0175729 L36.1492193,12.0672543 L36.1492193,20.7422863 C36.1492193,21.1013246 35.9337232,21.4249395 35.6032693,21.5620328 L20.2614972,27.9282973 C20.2368727,27.9398056 20.2005868,27.9536672 20.1542052,27.9666456 C20.0796449,27.987509 19.999181,28 19.9142839,28 C19.7960337,28 19.7066704,27.9835482 19.6231676,27.9516244 C19.6030396,27.9435513 14.4704533,25.8136905 4.22540862,21.5620422 C3.89489472,21.4249241 3.67934852,21.1013719 3.67934852,20.7422863 L3.67934852,12.0674298 Z" id="Path"></path>
                                    <path d="M37.4109349,7.47314393 C36.7033192,6.52385392 35.5700514,5.00357506 35.5663614,4.99864355 C35.555231,4.97761335 35.5330391,4.95253316 35.4879556,4.92313798 C35.453959,4.9009716 35.4126456,4.88130442 35.3706494,4.86774527 L20.0191807,0.514578453 C19.9505168,0.495136249 19.8780556,0.495136249 19.8094838,0.514552383 L4.45929684,4.86735144 C4.43199888,4.8752624 4.37741986,4.8994068 4.32476578,4.93876702 C4.29640559,4.95996696 4.27276073,4.98303799 4.25477676,5.00741515 C4.23242215,5.03772408 3.54991765,5.95362931 2.41483236,7.47666899 C1.72465018,8.40273326 1.72465018,8.40273326 1.14966853,9.17420049 C0.6896832,9.79136748 0.6896832,9.79136748 0.574773995,9.94553941 C0.500766545,10.0449558 0.478590411,10.1738782 0.515089356,10.2922049 C0.551690756,10.4106915 0.642586419,10.504432 0.759469349,10.5442696 L4.17720616,11.7091026 L4.17720616,20.7422863 C4.17720616,20.8989411 4.27122327,21.0400683 4.41551085,21.0999279 L19.7672705,27.470631 C19.8271338,27.4945992 19.8564696,27.4999999 19.9142862,27.4999999 C20.0390165,27.4798337 20.0502061,27.4755592 20.061414,27.4705845 L35.4131722,21.0999183 C35.5573635,21.0400986 35.6513663,20.8989327 35.6513663,20.7422863 L35.6513663,11.7089271 L39.0691002,10.5440951 C39.185938,10.5042728 39.2768791,10.4104709 39.3134716,10.2920666 C39.3499605,10.1738791 39.3278186,10.0449921 39.2539075,9.94556858" id="Path"></path>
                                    <path d="" id="Path"></path>
                                </g>
                                <path d="M4.77612804,12.783469 C4.89765112,12.8248865 4.97934852,12.9390426 4.97934852,13.0674298 L4.97934852,21.7422863 C4.97934852,21.9802168 5.12198812,22.1943445 5.34039858,22.284955 C15.444938,26.4782943 20.716651,28.6658882 20.7302979,28.6714047 C20.7810851,28.6908211 20.8349573,28.7 20.9142839,28.7 C20.9678413,28.7 21.0210162,28.692391 21.0733647,28.6777429 C21.0914462,28.6726833 26.2297615,26.5417466 36.4883106,22.2849326 C36.7065916,22.1943758 36.8492193,21.9802109 36.8492193,21.7422863 L36.8492193,13.0672543 C36.8492193,12.9388671 36.9309167,12.824711 37.0524398,12.7832935 L40.1323063,11.7336133 C40.30909,11.6733594 40.4468093,11.5313315 40.5023197,11.3517132 C40.5578228,11.1719387 40.5241719,10.9761096 40.4119973,10.8253137 L40.1240272,10.4389876 C39.7352559,9.91743354 39.7352559,9.91743354 38.5689167,8.35274398 C37.1133439,6.40004428 36.7269401,5.88170267 36.7011756,5.84288736 C36.6972985,5.83592824 36.6552636,5.79423291 36.5951969,5.7550684 C36.5455241,5.7226809 36.4879628,5.6956175 36.431906,5.6775365 L21.0726361,1.3220171 C20.9689824,1.29266752 20.859601,1.2926631 20.756135,1.32195952 L5.40613116,5.67470633 C5.34598785,5.69213271 5.27519136,5.72707916 5.20712363,5.77796147 C5.16260882,5.8112374 5.12572644,5.84778743 5.0961695,5.8878517 C5.07494127,5.91663346 4.43699354,6.77276512 3.25659624,8.35660393 C2.79471277,8.9763444 2.79471277,8.9763444 2.53810944,9.32064253 C2.32426838,9.60756123 2.32426838,9.60756123 1.99163943,10.0538579 C1.58685403,10.5969626 1.58685403,10.5969626 1.47645624,10.745083 L1.41676442,10.8251706 C1.30441009,10.9760995 1.27073593,11.1719229 1.32619464,11.3517157 C1.38173914,11.5315252 1.51940794,11.6735112 1.69625507,11.7337866 L4.77612804,12.783469 Z M4.37934852,13.282129 L1.50269253,12.301707 C1.14379214,12.1793816 0.865103024,11.891953 0.752887182,11.5286861 C0.640994244,11.1659383 0.708852737,10.7713246 0.935583349,10.4667509 L0.995380454,10.3865219 C1.10577489,10.238406 1.10577489,10.238406 1.51055934,9.69530249 C1.84318707,9.24900751 1.84318707,9.24900751 2.05701845,8.96210179 C2.31362651,8.61779731 2.31362651,8.61779731 2.77550866,7.99805862 C3.94694121,6.42624856 4.593091,5.55910968 4.61332194,5.53168006 C4.6787508,5.44299161 4.75748191,5.36496993 4.84788539,5.29739109 C4.9743306,5.20287018 5.1103444,5.13573126 5.24079775,5.09793781 L20.5925599,0.744687321 C20.8030202,0.68509539 21.0255793,0.685104371 21.2362136,0.744745607 L36.6050552,5.10314834 C36.7210575,5.1402113 36.8274719,5.19024383 36.9229021,5.25246587 C37.059125,5.34128546 37.1696122,5.45088012 37.2000352,5.51267474 C37.2049313,5.51896831 37.1674266,5.46865759 39.0499736,7.99415744 C40.2163131,9.55884751 40.2163131,9.55884751 40.6050871,10.0804051 L40.8932313,10.466965 C41.1197646,10.7714923 41.1875721,11.1660941 41.0755935,11.5287929 C40.9634093,11.8917934 40.6846863,12.1792366 40.3258689,12.3015336 L37.4492193,13.2819534 L37.4492193,21.7422863 C37.4492193,22.2224717 37.1608242,22.655516 36.7182515,22.8391232 L21.3885153,29.2000811 C21.3451712,29.2203379 21.2927314,29.2394069 21.2350457,29.2555484 C21.1311276,29.2846267 21.0236928,29.3 20.9142839,29.3 C20.7643041,29.3 20.6380395,29.2784866 20.5114885,29.2300625 C20.4894282,29.2212144 15.4959685,27.1490867 5.11044989,22.8391423 C4.66778154,22.6554954 4.37934852,22.2225056 4.37934852,21.7422863 L4.37934852,13.282129 Z M4.87720616,12.9238018 L1.66268634,11.8282292 C1.45476905,11.757364 1.29336975,11.5908958 1.22841751,11.3806315 C1.16370964,11.1708537 1.203008,10.9425413 1.33423606,10.7662589 L1.39395787,10.686131 C1.50430285,10.5380815 1.50430285,10.5380815 1.90912802,9.99492344 C2.24171303,9.54868583 2.24171303,9.54868583 2.45553962,9.26178658 C2.71221812,8.91738761 2.71221812,8.91738761 3.17428805,8.29739703 C4.35889626,6.70790827 4.99238928,5.85775244 5.01336338,5.82931523 C5.04954604,5.78026986 5.09404188,5.73668392 5.14514668,5.69848182 C5.21914524,5.64316607 5.30527574,5.59964312 5.37745376,5.57873108 L20.727752,1.2259005 C20.8497823,1.19134758 20.9788323,1.1913595 21.1010239,1.22595812 L36.4628241,5.58225652 C36.5294448,5.60376609 36.5949466,5.634762 36.6518082,5.6718367 C36.73227,5.72429911 36.7924197,5.78444169 36.8065642,5.81891423 C37.3772651,6.58448998 37.3772651,6.58448998 38.6514631,8.29385041 C39.8177683,9.85849424 39.8177683,9.85849424 40.2065371,10.3800449 L40.4946685,10.7665877 C40.6256078,10.9427243 40.664835,11.1709574 40.600096,11.380647 C40.5351786,11.5907037 40.3737344,11.757212 40.1658797,11.8280558 L36.9513663,12.9236263 L36.9513663,21.7422863 C36.9513663,22.0200748 36.7844691,22.2706731 36.5281584,22.377007 L21.1831201,28.7447881 C21.1341453,28.7665257 21.0984777,28.7741158 20.9142862,28.7999999 C20.816857,28.7999999 20.7497519,28.7867694 20.6522837,28.7477195 L5.30055213,22.3770281 C5.04414023,22.2706521 4.87720616,22.0201073 4.87720616,21.7422863 L4.87720616,12.9238018 Z M36.2982135,21.8228181 C36.33024,21.8095315 36.3513663,21.7778101 36.3513663,21.7422863 L36.3513663,12.7089271 C36.3513663,12.5805399 36.4330637,12.4663838 36.5545868,12.4249663 L39.9723172,11.2601355 C40.0350927,11.1767793 40.030016,11.1472418 40.0133782,11.1248607 L39.7254773,10.7386274 C39.3367111,10.2170803 39.3367111,10.2170803 38.1704063,8.65243698 C36.8961055,6.942939 36.8961055,6.942939 36.3012083,6.13897817 C36.3086126,6.15749479 31.1873595,4.71224551 20.9374488,1.80323032 C20.9272996,1.80035657 15.7957504,3.25111165 5.54280111,6.15549556 C5.47423984,6.21527583 4.84878702,7.05464161 3.65537562,8.65594236 C3.19330436,9.27593472 3.19330436,9.27593472 2.93663058,9.62032734 C2.72279432,9.90723958 2.72279432,9.90723958 2.39020809,10.3534788 C1.98538196,10.8966381 1.98538196,10.8966381 1.87503355,11.0446922 L1.8154171,11.1246787 C1.79854421,11.1473446 1.79346175,11.1768722 1.80172497,11.203661 C1.80724653,11.2215355 2.96466677,11.6286958 5.27398567,12.4251418 C5.39550876,12.4665593 5.47720616,12.5807154 5.47720616,12.7091026 L5.47720616,21.7422863 C5.47720616,21.7777954 5.49832528,21.8094923 5.53049758,21.8228394 L20.8787796,28.1921247 C20.9225208,28.1914765 26.0623321,26.0683743 36.2982135,21.8228181 Z" id="Path" fill="#5AADAA" fill-rule="nonzero"></path>
                                <path d="M5.29816286,13.0193517 L5.06765999,13.0274313 L5.18459361,13.0713825 L5.29816286,13.0193517 Z M21.1832754,11.278391 L21.1757868,11.267313 L21.1670717,11.2790376 C21.1724675,11.2786779 21.1778709,11.2784625 21.1832754,11.278391 Z M36.7183577,13.0733965 L36.7584342,12.988542 L36.7007468,12.9612963 L36.5148,13.0313638 L36.5506057,13.1366006 L36.7183577,13.0733965 Z M17.2275769,16.4096745 L17.2355095,16.3994557 C17.234215,16.401051 17.2329175,16.4026431 17.2316168,16.4042319 L17.2275769,16.4096745 Z M17.7093552,16.7672912 C17.1607506,17.4438328 16.2468864,17.7081708 15.4047169,17.435242 L4.47845149,13.296777 C4.22935539,13.2024286 4.21759942,12.8544315 4.45976037,12.7434876 L5.0482566,12.4738732 C5.12094447,12.4405718 5.2039183,12.4376634 5.27875947,12.4657935 L15.7643139,16.407284 C16.1550036,16.5337219 16.5857448,16.4091287 16.8293706,16.1093148 L20.9466234,10.5698489 C21.069939,10.4039366 21.3201717,10.4095365 21.4359419,10.5807991 L25.3533845,16.3783424 C25.4724032,16.5231493 25.6762796,16.5822132 25.8467219,16.5288114 L36.6290217,12.4658815 C36.78763,12.4061156 36.9642208,12.489519 37.0188163,12.6499805 L37.1763721,13.1130531 C37.2285215,13.2663256 37.1496469,13.4333276 36.9981446,13.4904159 L26.2004633,17.5586698 C25.5811253,17.7543994 24.9006133,17.557252 24.475839,17.0381383 L21.1745516,12.0990077 L17.7093552,16.7672912 Z" id="Path-4" fill="#5AADAA" fill-rule="nonzero"></path>
                                <polygon id="Path-5" stroke="#5AADAA" stroke-width="0.6" fill="#5AADAA" fill-rule="nonzero" stroke-linecap="round" stroke-linejoin="round" points="21.5 29 20.9142857 29 20.9142857 11.5 21.5 11.5"></polygon>
                                <path d="M36.4070598,6.00855671 L36.589336,5.94690027 L36.6254374,5.8753544 L36.5670418,5.8458933 L36.3756681,5.91059917 L36.4070598,6.00855671 Z M21.1069941,11.0731309 L21.2926323,11.0710024 L21.1994669,11.0418647 L21.1069941,11.0731309 Z M4.71466124,5.88619729 L4.64071046,5.92389548 L4.66917795,5.97975513 L4.86366241,6.04053031 L4.89650635,5.94306984 L4.71466124,5.88619729 Z M36.5035873,5.34250927 C36.6623215,5.28881608 36.8342652,5.37556327 36.8854032,5.53513898 L37.0371521,6.00866957 C37.0871468,6.16467756 37.0027453,6.33194463 36.8475531,6.38441707 L21.2991738,11.6415207 L21.1135355,11.6436492 L4.4247373,6.42418259 C4.26414757,6.37395771 4.17626059,6.20150365 4.22999478,6.04205386 L4.3887855,5.57086132 C4.44086991,5.41630704 4.60688659,5.33167604 4.7625573,5.38032216 L21.2033143,10.5179559 L36.5035873,5.34250927 Z" id="Path-6" fill="#5AADAA" fill-rule="nonzero"></path>
                            </g>
                            <g id="open-cardboard-box-copy" opacity="0.400000006" transform="translate(55.000000, 18.000000)">
                                <g id="Group-8" transform="translate(1.000000, 1.000000)" fill="#FFFFFF">
                                    <path d="M3.67934852,12.0674298 L0.599475551,11.0177474 C0.331609284,10.9264495 0.123423979,10.7117485 0.0395590161,10.4402596 C-0.044139611,10.1689154 0.00664093165,9.87369925 0.176121334,9.6460313 C0.291116679,9.49174371 0.291116679,9.49174371 0.751099862,8.87457954 C1.32607886,8.10311576 1.32607886,8.10311576 2.01605298,7.17733057 C3.14259159,5.6657585 3.83321355,4.73895973 3.85473534,4.70977995 C3.90346123,4.64373228 3.9618758,4.58673537 4.02750451,4.53767628 C4.13546055,4.45697647 4.24149166,4.41007094 4.32264091,4.38655814 L19.6742918,0.0333391818 C19.8312988,-0.0111174047 19.997269,-0.0111174047 20.154368,0.0333652524 L35.5137516,4.38891686 C35.6061051,4.41842401 35.6878195,4.45732401 35.7590495,4.50376713 C35.8710735,4.57680864 35.9393302,4.65394909 35.9632486,4.69688134 C35.9660457,4.70047691 36.2148149,5.03420078 37.809445,7.17345047 C39.1917676,9.0278903 39.1917676,9.0278903 39.6525267,9.64602161 C39.821949,9.87377503 39.872707,10.1689856 39.7889691,10.4402125 C39.7051174,10.7115363 39.496914,10.9262892 39.2290894,11.0175729 L36.1492193,12.0672543 L36.1492193,20.7422863 C36.1492193,21.1013246 35.9337232,21.4249395 35.6032693,21.5620328 L20.2614972,27.9282973 C20.2368727,27.9398056 20.2005868,27.9536672 20.1542052,27.9666456 C20.0796449,27.987509 19.999181,28 19.9142839,28 C19.7960337,28 19.7066704,27.9835482 19.6231676,27.9516244 C19.6030396,27.9435513 14.4704533,25.8136905 4.22540862,21.5620422 C3.89489472,21.4249241 3.67934852,21.1013719 3.67934852,20.7422863 L3.67934852,12.0674298 Z" id="Path"></path>
                                    <path d="M37.4109349,7.47314393 C36.7033192,6.52385392 35.5700514,5.00357506 35.5663614,4.99864355 C35.555231,4.97761335 35.5330391,4.95253316 35.4879556,4.92313798 C35.453959,4.9009716 35.4126456,4.88130442 35.3706494,4.86774527 L20.0191807,0.514578453 C19.9505168,0.495136249 19.8780556,0.495136249 19.8094838,0.514552383 L4.45929684,4.86735144 C4.43199888,4.8752624 4.37741986,4.8994068 4.32476578,4.93876702 C4.29640559,4.95996696 4.27276073,4.98303799 4.25477676,5.00741515 C4.23242215,5.03772408 3.54991765,5.95362931 2.41483236,7.47666899 C1.72465018,8.40273326 1.72465018,8.40273326 1.14966853,9.17420049 C0.6896832,9.79136748 0.6896832,9.79136748 0.574773995,9.94553941 C0.500766545,10.0449558 0.478590411,10.1738782 0.515089356,10.2922049 C0.551690756,10.4106915 0.642586419,10.504432 0.759469349,10.5442696 L4.17720616,11.7091026 L4.17720616,20.7422863 C4.17720616,20.8989411 4.27122327,21.0400683 4.41551085,21.0999279 L19.7672705,27.470631 C19.8271338,27.4945992 19.8564696,27.4999999 19.9142862,27.4999999 C20.0390165,27.4798337 20.0502061,27.4755592 20.061414,27.4705845 L35.4131722,21.0999183 C35.5573635,21.0400986 35.6513663,20.8989327 35.6513663,20.7422863 L35.6513663,11.7089271 L39.0691002,10.5440951 C39.185938,10.5042728 39.2768791,10.4104709 39.3134716,10.2920666 C39.3499605,10.1738791 39.3278186,10.0449921 39.2539075,9.94556858 C38.7932221,9.32753602 38.793149,9.32743791 37.4109349,7.47314393 Z" id="Path"></path>
                                    <path d="" id="Path"></path>
                                </g>
                                <path d="M4.77612804,12.783469 C4.89765112,12.8248865 4.97934852,12.9390426 4.97934852,13.0674298 L4.97934852,21.7422863 C4.97934852,21.9802168 5.12198812,22.1943445 5.34039858,22.284955 C15.444938,26.4782943 20.716651,28.6658882 20.7302979,28.6714047 C20.7810851,28.6908211 20.8349573,28.7 20.9142839,28.7 C20.9678413,28.7 21.0210162,28.692391 21.0733647,28.6777429 C21.0914462,28.6726833 26.2297615,26.5417466 36.4883106,22.2849326 C36.7065916,22.1943758 36.8492193,21.9802109 36.8492193,21.7422863 L36.8492193,13.0672543 C36.8492193,12.9388671 36.9309167,12.824711 37.0524398,12.7832935 L40.1323063,11.7336133 C40.30909,11.6733594 40.4468093,11.5313315 40.5023197,11.3517132 C40.5578228,11.1719387 40.5241719,10.9761096 40.4119973,10.8253137 L40.1240272,10.4389876 C39.7352559,9.91743354 39.7352559,9.91743354 38.5689167,8.35274398 C37.1133439,6.40004428 36.7269401,5.88170267 36.7011756,5.84288736 C36.6972985,5.83592824 36.6552636,5.79423291 36.5951969,5.7550684 C36.5455241,5.7226809 36.4879628,5.6956175 36.431906,5.6775365 L21.0726361,1.3220171 C20.9689824,1.29266752 20.859601,1.2926631 20.756135,1.32195952 L5.40613116,5.67470633 C5.34598785,5.69213271 5.27519136,5.72707916 5.20712363,5.77796147 C5.16260882,5.8112374 5.12572644,5.84778743 5.0961695,5.8878517 C5.07494127,5.91663346 4.43699354,6.77276512 3.25659624,8.35660393 C2.79471277,8.9763444 2.79471277,8.9763444 2.53810944,9.32064253 C2.32426838,9.60756123 2.32426838,9.60756123 1.99163943,10.0538579 C1.58685403,10.5969626 1.58685403,10.5969626 1.47645624,10.745083 L1.41676442,10.8251706 C1.30441009,10.9760995 1.27073593,11.1719229 1.32619464,11.3517157 C1.38173914,11.5315252 1.51940794,11.6735112 1.69625507,11.7337866 L4.77612804,12.783469 Z M4.37934852,13.282129 L1.50269253,12.301707 C1.14379214,12.1793816 0.865103024,11.891953 0.752887182,11.5286861 C0.640994244,11.1659383 0.708852737,10.7713246 0.935583349,10.4667509 L0.995380454,10.3865219 C1.10577489,10.238406 1.10577489,10.238406 1.51055934,9.69530249 C1.84318707,9.24900751 1.84318707,9.24900751 2.05701845,8.96210179 C2.31362651,8.61779731 2.31362651,8.61779731 2.77550866,7.99805862 C3.94694121,6.42624856 4.593091,5.55910968 4.61332194,5.53168006 C4.6787508,5.44299161 4.75748191,5.36496993 4.84788539,5.29739109 C4.9743306,5.20287018 5.1103444,5.13573126 5.24079775,5.09793781 L20.5925599,0.744687321 C20.8030202,0.68509539 21.0255793,0.685104371 21.2362136,0.744745607 L36.6050552,5.10314834 C36.7210575,5.1402113 36.8274719,5.19024383 36.9229021,5.25246587 C37.059125,5.34128546 37.1696122,5.45088012 37.2000352,5.51267474 C37.2049313,5.51896831 37.1674266,5.46865759 39.0499736,7.99415744 C40.2163131,9.55884751 40.2163131,9.55884751 40.6050871,10.0804051 L40.8932313,10.466965 C41.1197646,10.7714923 41.1875721,11.1660941 41.0755935,11.5287929 C40.9634093,11.8917934 40.6846863,12.1792366 40.3258689,12.3015336 L37.4492193,13.2819534 L37.4492193,21.7422863 C37.4492193,22.2224717 37.1608242,22.655516 36.7182515,22.8391232 L21.3885153,29.2000811 C21.3451712,29.2203379 21.2927314,29.2394069 21.2350457,29.2555484 C21.1311276,29.2846267 21.0236928,29.3 20.9142839,29.3 C20.7643041,29.3 20.6380395,29.2784866 20.5114885,29.2300625 C20.4894282,29.2212144 15.4959685,27.1490867 5.11044989,22.8391423 C4.66778154,22.6554954 4.37934852,22.2225056 4.37934852,21.7422863 L4.37934852,13.282129 Z M4.87720616,12.9238018 L1.66268634,11.8282292 C1.45476905,11.757364 1.29336975,11.5908958 1.22841751,11.3806315 C1.16370964,11.1708537 1.203008,10.9425413 1.33423606,10.7662589 L1.39395787,10.686131 C1.50430285,10.5380815 1.50430285,10.5380815 1.90912802,9.99492344 C2.24171303,9.54868583 2.24171303,9.54868583 2.45553962,9.26178658 C2.71221812,8.91738761 2.71221812,8.91738761 3.17428805,8.29739703 C4.35889626,6.70790827 4.99238928,5.85775244 5.01336338,5.82931523 C5.04954604,5.78026986 5.09404188,5.73668392 5.14514668,5.69848182 C5.21914524,5.64316607 5.30527574,5.59964312 5.37745376,5.57873108 L20.727752,1.2259005 C20.8497823,1.19134758 20.9788323,1.1913595 21.1010239,1.22595812 L36.4628241,5.58225652 C36.5294448,5.60376609 36.5949466,5.634762 36.6518082,5.6718367 C36.73227,5.72429911 36.7924197,5.78444169 36.8065642,5.81891423 C37.3772651,6.58448998 37.3772651,6.58448998 38.6514631,8.29385041 C39.8177683,9.85849424 39.8177683,9.85849424 40.2065371,10.3800449 L40.4946685,10.7665877 C40.6256078,10.9427243 40.664835,11.1709574 40.600096,11.380647 C40.5351786,11.5907037 40.3737344,11.757212 40.1658797,11.8280558 L36.9513663,12.9236263 L36.9513663,21.7422863 C36.9513663,22.0200748 36.7844691,22.2706731 36.5281584,22.377007 L21.1831201,28.7447881 C21.1341453,28.7665257 21.0984777,28.7741158 20.9142862,28.7999999 C20.816857,28.7999999 20.7497519,28.7867694 20.6522837,28.7477195 L5.30055213,22.3770281 C5.04414023,22.2706521 4.87720616,22.0201073 4.87720616,21.7422863 L4.87720616,12.9238018 Z M36.2982135,21.8228181 C36.33024,21.8095315 36.3513663,21.7778101 36.3513663,21.7422863 L36.3513663,12.7089271 C36.3513663,12.5805399 36.4330637,12.4663838 36.5545868,12.4249663 L39.9723172,11.2601355 C40.0350927,11.1767793 40.030016,11.1472418 40.0133782,11.1248607 L39.7254773,10.7386274 C39.3367111,10.2170803 39.3367111,10.2170803 38.1704063,8.65243698 C36.8961055,6.942939 36.8961055,6.942939 36.3012083,6.13897817 C36.3086126,6.15749479 31.1873595,4.71224551 20.9374488,1.80323032 C20.9272996,1.80035657 15.7957504,3.25111165 5.54280111,6.15549556 C5.47423984,6.21527583 4.84878702,7.05464161 3.65537562,8.65594236 C3.19330436,9.27593472 3.19330436,9.27593472 2.93663058,9.62032734 C2.72279432,9.90723958 2.72279432,9.90723958 2.39020809,10.3534788 C1.98538196,10.8966381 1.98538196,10.8966381 1.87503355,11.0446922 L1.8154171,11.1246787 C1.79854421,11.1473446 1.79346175,11.1768722 1.80172497,11.203661 C1.80724653,11.2215355 2.96466677,11.6286958 5.27398567,12.4251418 C5.39550876,12.4665593 5.47720616,12.5807154 5.47720616,12.7091026 L5.47720616,21.7422863 C5.47720616,21.7777954 5.49832528,21.8094923 5.53049758,21.8228394 L20.8787796,28.1921247 C20.9225208,28.1914765 26.0623321,26.0683743 36.2982135,21.8228181 Z" id="Path" fill="#5AADAA" fill-rule="nonzero"></path>
                                <path d="M5.29816286,13.0193517 L5.06765999,13.0274313 L5.18459361,13.0713825 L5.29816286,13.0193517 Z M21.1832754,11.278391 L21.1757868,11.267313 L21.1670717,11.2790376 C21.1724675,11.2786779 21.1778709,11.2784625 21.1832754,11.278391 Z M36.7183577,13.0733965 L36.7584342,12.988542 L36.7007468,12.9612963 L36.5148,13.0313638 L36.5506057,13.1366006 L36.7183577,13.0733965 Z M17.2275769,16.4096745 L17.2355095,16.3994557 C17.234215,16.401051 17.2329175,16.4026431 17.2316168,16.4042319 L17.2275769,16.4096745 Z M17.7093552,16.7672912 C17.1607506,17.4438328 16.2468864,17.7081708 15.4047169,17.435242 L4.47845149,13.296777 C4.22935539,13.2024286 4.21759942,12.8544315 4.45976037,12.7434876 L5.0482566,12.4738732 C5.12094447,12.4405718 5.2039183,12.4376634 5.27875947,12.4657935 L15.7643139,16.407284 C16.1550036,16.5337219 16.5857448,16.4091287 16.8293706,16.1093148 L20.9466234,10.5698489 C21.069939,10.4039366 21.3201717,10.4095365 21.4359419,10.5807991 L25.3533845,16.3783424 C25.4724032,16.5231493 25.6762796,16.5822132 25.8467219,16.5288114 L36.6290217,12.4658815 C36.78763,12.4061156 36.9642208,12.489519 37.0188163,12.6499805 L37.1763721,13.1130531 C37.2285215,13.2663256 37.1496469,13.4333276 36.9981446,13.4904159 L26.2004633,17.5586698 C25.5811253,17.7543994 24.9006133,17.557252 24.475839,17.0381383 L21.1745516,12.0990077 L17.7093552,16.7672912 Z" id="Path-4" fill="#5AADAA" fill-rule="nonzero"></path>
                                <path d="M21.2,28.7 L21.2,28.9857143 L21.2071429,28.9928571 L21.2142857,28.9857143 L21.2142857,28.7 L21.2,28.7 Z M21.5,29.3 L20.9142857,29.3 C20.7486003,29.3 20.6142857,29.1656854 20.6142857,29 L20.6142857,11.5 C20.6142857,11.3343146 20.7486003,11.2 20.9142857,11.2 L21.5,11.2 C21.6656854,11.2 21.8,11.3343146 21.8,11.5 L21.8,29 C21.8,29.1656854 21.6656854,29.3 21.5,29.3 Z" id="Path-5" fill="#5AADAA" fill-rule="nonzero"></path>
                                <path d="M36.4070598,6.00855671 L36.589336,5.94690027 L36.6254374,5.8753544 L36.5670418,5.8458933 L36.3756681,5.91059917 L36.4070598,6.00855671 Z M21.1069941,11.0731309 L21.2926323,11.0710024 L21.1994669,11.0418647 L21.1069941,11.0731309 Z M4.71466124,5.88619729 L4.64071046,5.92389548 L4.66917795,5.97975513 L4.86366241,6.04053031 L4.89650635,5.94306984 L4.71466124,5.88619729 Z M36.5035873,5.34250927 C36.6623215,5.28881608 36.8342652,5.37556327 36.8854032,5.53513898 L37.0371521,6.00866957 C37.0871468,6.16467756 37.0027453,6.33194463 36.8475531,6.38441707 L21.2991738,11.6415207 L21.1135355,11.6436492 L4.4247373,6.42418259 C4.26414757,6.37395771 4.17626059,6.20150365 4.22999478,6.04205386 L4.3887855,5.57086132 C4.44086991,5.41630704 4.60688659,5.33167604 4.7625573,5.38032216 L21.2033143,10.5179559 L36.5035873,5.34250927 Z" id="Path-6" fill="#5AADAA" fill-rule="nonzero"></path>
                            </g>
                            <path d="M76.5218387,11.9989226 L73.8574567,11.1753876 L72.0141943,11.1753876 L72.0141943,22.7832761 C73.9145434,24.9435571 75.0958626,26.0518968 75.5581517,26.1082955 C76.0204408,26.1646941 76.9764376,26.0880617 78.4261421,25.8783983 L78.4261421,14.0357647 L76.5218387,11.9989226 Z" id="Path-7" fill="#FFFFFF"></path>
                            <path d="M75.9197017,14.6030058 L77.8761592,14.6030058 L77.8761592,15.9867027 L75.9197017,15.9867027 L75.9197017,21.9089255 C75.9197017,22.0934193 75.9355305,22.2410122 75.9671885,22.3517085 C75.9988466,22.4624048 76.0589959,22.5485006 76.1476385,22.6099986 C76.236281,22.6714965 76.3597455,22.7114696 76.5180358,22.729919 C76.676326,22.7483684 76.8821002,22.7575929 77.1353646,22.7575929 L77.8761592,22.7575929 L77.8761592,24.1412898 L76.6415015,24.1412898 C76.2236153,24.1412898 75.8658848,24.1136162 75.5682991,24.058268 C75.2707135,24.0029199 75.0301159,23.9014498 74.8464993,23.7538547 C74.6628826,23.6062596 74.526755,23.3971697 74.4381125,23.1265788 C74.34947,22.8559878 74.3051494,22.499305 74.3051494,22.0565198 L74.3051494,15.9867027 L72.6336128,15.9867027 L72.6336128,14.6030058 L74.3051494,14.6030058 L74.3051494,11.7433655 L75.9197017,11.7433655 L75.9197017,14.6030058 Z" id="t" stroke="#5AADAA" fill="#5AADAA"></path>
                            <g id="open-cardboard-box" opacity="0.400000006" transform="translate(31.000000, 42.000000)">
                                <g id="Group-8" fill="#FFFFFF">
                                    <path d="M3.67934852,12.0674298 L0.599475551,11.0177474 C0.331609284,10.9264495 0.123423979,10.7117485 0.0395590161,10.4402596 C-0.044139611,10.1689154 0.00664093165,9.87369925 0.176121334,9.6460313 C0.291116679,9.49174371 0.291116679,9.49174371 0.751099862,8.87457954 C1.32607886,8.10311576 1.32607886,8.10311576 2.01605298,7.17733057 C3.14259159,5.6657585 3.83321355,4.73895973 3.85473534,4.70977995 C3.90346123,4.64373228 3.9618758,4.58673537 4.02750451,4.53767628 C4.13546055,4.45697647 4.24149166,4.41007094 4.32264091,4.38655814 L19.6742918,0.0333391818 C19.8312988,-0.0111174047 19.997269,-0.0111174047 20.154368,0.0333652524 L35.5137516,4.38891686 C35.6061051,4.41842401 35.6878195,4.45732401 35.7590495,4.50376713 C35.8710735,4.57680864 35.9393302,4.65394909 35.9632486,4.69688134 C35.9660457,4.70047691 36.2148149,5.03420078 37.809445,7.17345047 C39.1917676,9.0278903 39.1917676,9.0278903 39.6525267,9.64602161 C39.821949,9.87377503 39.872707,10.1689856 39.7889691,10.4402125 C39.7051174,10.7115363 39.496914,10.9262892 39.2290894,11.0175729 L36.1492193,12.0672543 L36.1492193,20.7422863 C36.1492193,21.1013246 35.9337232,21.4249395 35.6032693,21.5620328 L20.2614972,27.9282973 C20.2368727,27.9398056 20.2005868,27.9536672 20.1542052,27.9666456 C20.0796449,27.987509 19.999181,28 19.9142839,28 C19.7960337,28 19.7066704,27.9835482 19.6231676,27.9516244 C19.6030396,27.9435513 14.4704533,25.8136905 4.22540862,21.5620422 C3.89489472,21.4249241 3.67934852,21.1013719 3.67934852,20.7422863 L3.67934852,12.0674298 Z" id="Path"></path>
                                    <path d="M37.4109349,7.47314393 C36.7033192,6.52385392 35.5700514,5.00357506 35.5663614,4.99864355 C35.555231,4.97761335 35.5330391,4.95253316 35.4879556,4.92313798 C35.453959,4.9009716 35.4126456,4.88130442 35.3706494,4.86774527 L20.0191807,0.514578453 C19.9505168,0.495136249 19.8780556,0.495136249 19.8094838,0.514552383 L4.45929684,4.86735144 C4.43199888,4.8752624 4.37741986,4.8994068 4.32476578,4.93876702 C4.29640559,4.95996696 4.27276073,4.98303799 4.25477676,5.00741515 C4.23242215,5.03772408 3.54991765,5.95362931 2.41483236,7.47666899 C1.72465018,8.40273326 1.72465018,8.40273326 1.14966853,9.17420049 C0.6896832,9.79136748 0.6896832,9.79136748 0.574773995,9.94553941 C0.500766545,10.0449558 0.478590411,10.1738782 0.515089356,10.2922049 C0.551690756,10.4106915 0.642586419,10.504432 0.759469349,10.5442696 L4.17720616,11.7091026 L4.17720616,20.7422863 C4.17720616,20.8989411 4.27122327,21.0400683 4.41551085,21.0999279 L19.7672705,27.470631 C19.8271338,27.4945992 19.8564696,27.4999999 19.9142862,27.4999999 C20.0390165,27.4798337 20.0502061,27.4755592 20.061414,27.4705845 L35.4131722,21.0999183 C35.5573635,21.0400986 35.6513663,20.8989327 35.6513663,20.7422863 L35.6513663,11.7089271 L39.0691002,10.5440951 C39.185938,10.5042728 39.2768791,10.4104709 39.3134716,10.2920666 C39.3499605,10.1738791 39.3278186,10.0449921 39.2539075,9.94556858 C38.7932221,9.32753602 38.793149,9.32743791 37.4109349,7.47314393 Z" id="Path"></path>
                                    <path d="" id="Path"></path>
                                </g>
                                <path d="M3.77612804,11.783469 C3.89765112,11.8248865 3.97934852,11.9390426 3.97934852,12.0674298 L3.97934852,20.7422863 C3.97934852,20.9802168 4.12198812,21.1943445 4.34039858,21.284955 C14.444938,25.4782943 19.716651,27.6658882 19.7302979,27.6714047 C19.7810851,27.6908211 19.8349573,27.7 19.9142839,27.7 C19.9678413,27.7 20.0210162,27.692391 20.0733647,27.6777429 C20.0914462,27.6726833 25.2297615,25.5417466 35.4883106,21.2849326 C35.7065916,21.1943758 35.8492193,20.9802109 35.8492193,20.7422863 L35.8492193,12.0672543 C35.8492193,11.9388671 35.9309167,11.824711 36.0524398,11.7832935 L39.1323063,10.7336133 C39.30909,10.6733594 39.4468093,10.5313315 39.5023197,10.3517132 C39.5578228,10.1719387 39.5241719,9.97610957 39.4119973,9.82531369 L39.1240272,9.43898759 C38.7352559,8.91743354 38.7352559,8.91743354 37.5689167,7.35274398 C36.1133439,5.40004428 35.7269401,4.88170267 35.7011756,4.84288736 C35.6972985,4.83592824 35.6552636,4.79423291 35.5951969,4.7550684 C35.5455241,4.7226809 35.4879628,4.6956175 35.431906,4.6775365 L20.0726361,0.322017103 C19.9689824,0.292667518 19.859601,0.292663104 19.756135,0.321959518 L4.40613116,4.67470633 C4.34598785,4.69213271 4.27519136,4.72707916 4.20712363,4.77796147 C4.16260882,4.8112374 4.12572644,4.84778743 4.0961695,4.8878517 C4.07494127,4.91663346 3.43699354,5.77276512 2.25659624,7.35660393 C1.79471277,7.9763444 1.79471277,7.9763444 1.53810944,8.32064253 C1.32426838,8.60756123 1.32426838,8.60756123 0.991639431,9.05385786 C0.586854028,9.5969626 0.586854028,9.5969626 0.476456242,9.74508299 L0.416764419,9.82517065 C0.304410094,9.97609948 0.270735932,10.1719229 0.326194637,10.3517157 C0.381739144,10.5315252 0.519407936,10.6735112 0.696255071,10.7337866 L3.77612804,11.783469 Z M3.37934852,12.282129 L0.502692527,11.301707 C0.143792139,11.1793816 -0.134896976,10.891953 -0.247112818,10.5286861 C-0.359005756,10.1659383 -0.291147263,9.77132458 -0.0644166508,9.46675086 L-0.00461954629,9.38652185 C0.105774891,9.23840596 0.105774891,9.23840596 0.510559344,8.69530249 C0.843187071,8.24900751 0.843187071,8.24900751 1.05701845,7.96210179 C1.31362651,7.61779731 1.31362651,7.61779731 1.77550866,6.99805862 C2.94694121,5.42624856 3.593091,4.55910968 3.61332194,4.53168006 C3.6787508,4.44299161 3.75748191,4.36496993 3.84788539,4.29739109 C3.9743306,4.20287018 4.1103444,4.13573126 4.24079775,4.09793781 L19.5925599,-0.255312679 C19.8030202,-0.31490461 20.0255793,-0.314895629 20.2362136,-0.255254393 L35.6050552,4.10314834 C35.7210575,4.1402113 35.8274719,4.19024383 35.9229021,4.25246587 C36.059125,4.34128546 36.1696122,4.45088012 36.2000352,4.51267474 C36.2049313,4.51896831 36.1674266,4.46865759 38.0499736,6.99415744 C39.2163131,8.55884751 39.2163131,8.55884751 39.6050871,9.08040511 L39.8932313,9.46696503 C40.1197646,9.77149231 40.1875721,10.1660941 40.0755935,10.5287929 C39.9634093,10.8917934 39.6846863,11.1792366 39.3258689,11.3015336 L36.4492193,12.2819534 L36.4492193,20.7422863 C36.4492193,21.2224717 36.1608242,21.655516 35.7182515,21.8391232 L20.3885153,28.2000811 C20.3451712,28.2203379 20.2927314,28.2394069 20.2350457,28.2555484 C20.1311276,28.2846267 20.0236928,28.3 19.9142839,28.3 C19.7643041,28.3 19.6380395,28.2784866 19.5114885,28.2300625 C19.4894282,28.2212144 14.4959685,26.1490867 4.11044989,21.8391423 C3.66778154,21.6554954 3.37934852,21.2225056 3.37934852,20.7422863 L3.37934852,12.282129 Z M3.87720616,11.9238018 L0.662686335,10.8282292 C0.45476905,10.757364 0.293369752,10.5908958 0.228417509,10.3806315 C0.163709641,10.1708537 0.203007999,9.94254131 0.334236061,9.76625889 L0.393957869,9.68613096 C0.504302845,9.53808148 0.504302845,9.53808148 0.909128023,8.99492344 C1.24171303,8.54868583 1.24171303,8.54868583 1.45553962,8.26178658 C1.71221812,7.91738761 1.71221812,7.91738761 2.17428805,7.29739703 C3.35889626,5.70790827 3.99238928,4.85775244 4.01336338,4.82931523 C4.04954604,4.78026986 4.09404188,4.73668392 4.14514668,4.69848182 C4.21914524,4.64316607 4.30527574,4.59964312 4.37745376,4.57873108 L19.727752,0.225900499 C19.8497823,0.191347578 19.9788323,0.191359502 20.1010239,0.225958115 L35.4628241,4.58225652 C35.5294448,4.60376609 35.5949466,4.634762 35.6518082,4.6718367 C35.73227,4.72429911 35.7924197,4.78444169 35.8065642,4.81891423 C36.3772651,5.58448998 36.3772651,5.58448998 37.6514631,7.29385041 C38.8177683,8.85849424 38.8177683,8.85849424 39.2065371,9.38004488 L39.4946685,9.76658775 C39.6256078,9.94272428 39.664835,10.1709574 39.600096,10.380647 C39.5351786,10.5907037 39.3737344,10.757212 39.1658797,10.8280558 L35.9513663,11.9236263 L35.9513663,20.7422863 C35.9513663,21.0200748 35.7844691,21.2706731 35.5281584,21.377007 L20.1831201,27.7447881 C20.1341453,27.7665257 20.0984777,27.7741158 19.9142862,27.7999999 C19.816857,27.7999999 19.7497519,27.7867694 19.6522837,27.7477195 L4.30055213,21.3770281 C4.04414023,21.2706521 3.87720616,21.0201073 3.87720616,20.7422863 L3.87720616,11.9238018 Z M35.2982135,20.8228181 C35.33024,20.8095315 35.3513663,20.7778101 35.3513663,20.7422863 L35.3513663,11.7089271 C35.3513663,11.5805399 35.4330637,11.4663838 35.5545868,11.4249663 L38.9723172,10.2601355 C39.0350927,10.1767793 39.030016,10.1472418 39.0133782,10.1248607 L38.7254773,9.73862736 C38.3367111,9.2170803 38.3367111,9.2170803 37.1704063,7.65243698 C35.8961055,5.942939 35.8961055,5.942939 35.3012083,5.13897817 C35.3086126,5.15749479 30.1873595,3.71224551 19.9374488,0.803230316 C19.9272996,0.800356567 14.7957504,2.25111165 4.54280111,5.15549556 C4.47423984,5.21527583 3.84878702,6.05464161 2.65537562,7.65594236 C2.19330436,8.27593472 2.19330436,8.27593472 1.93663058,8.62032734 C1.72279432,8.90723958 1.72279432,8.90723958 1.39020809,9.35347883 C0.985381961,9.89663815 0.985381961,9.89663815 0.875033553,10.0446922 L0.815417097,10.1246787 C0.798544206,10.1473446 0.79346175,10.1768722 0.801724967,10.203661 C0.807246533,10.2215355 1.96466677,10.6286958 4.27398567,11.4251418 C4.39550876,11.4665593 4.47720616,11.5807154 4.47720616,11.7091026 L4.47720616,20.7422863 C4.47720616,20.7777954 4.49832528,20.8094923 4.53049758,20.8228394 L19.8787796,27.1921247 C19.9225208,27.1914765 25.0623321,25.0683743 35.2982135,20.8228181 Z" id="Path" fill="#5AADAA" fill-rule="nonzero"></path>
                                <path d="M4.29816286,12.0193517 L4.06765999,12.0274313 L4.18459361,12.0713825 L4.29816286,12.0193517 Z M20.1832754,10.278391 L20.1757868,10.267313 L20.1670717,10.2790376 C20.1724675,10.2786779 20.1778709,10.2784625 20.1832754,10.278391 Z M35.7183577,12.0733965 L35.7584342,11.988542 L35.7007468,11.9612963 L35.5148,12.0313638 L35.5506057,12.1366006 L35.7183577,12.0733965 Z M16.2275769,15.4096745 L16.2355095,15.3994557 C16.234215,15.401051 16.2329175,15.4026431 16.2316168,15.4042319 L16.2275769,15.4096745 Z M16.7093552,15.7672912 C16.1607506,16.4438328 15.2468864,16.7081708 14.4047169,16.435242 L3.47845149,12.296777 C3.22935539,12.2024286 3.21759942,11.8544315 3.45976037,11.7434876 L4.0482566,11.4738732 C4.12094447,11.4405718 4.2039183,11.4376634 4.27875947,11.4657935 L14.7643139,15.407284 C15.1550036,15.5337219 15.5857448,15.4091287 15.8293706,15.1093148 L19.9466234,9.56984891 C20.069939,9.40393663 20.3201717,9.40953645 20.4359419,9.5807991 L24.3533845,15.3783424 C24.4724032,15.5231493 24.6762796,15.5822132 24.8467219,15.5288114 L35.6290217,11.4658815 C35.78763,11.4061156 35.9642208,11.489519 36.0188163,11.6499805 L36.1763721,12.1130531 C36.2285215,12.2663256 36.1496469,12.4333276 35.9981446,12.4904159 L25.2004633,16.5586698 C24.5811253,16.7543994 23.9006133,16.557252 23.475839,16.0381383 L20.1745516,11.0990077 L16.7093552,15.7672912 Z" id="Path-4" fill="#5AADAA" fill-rule="nonzero"></path>
                                <path d="M20.2,27.7 L20.2,27.9857143 L20.2071429,27.9928571 L20.2142857,27.9857143 L20.2142857,27.7 L20.2,27.7 Z M20.5,28.3 L19.9142857,28.3 C19.7486003,28.3 19.6142857,28.1656854 19.6142857,28 L19.6142857,10.5 C19.6142857,10.3343146 19.7486003,10.2 19.9142857,10.2 L20.5,10.2 C20.6656854,10.2 20.8,10.3343146 20.8,10.5 L20.8,28 C20.8,28.1656854 20.6656854,28.3 20.5,28.3 Z" id="Path-5" fill="#5AADAA" fill-rule="nonzero"></path>
                                <polygon id="Path-6" stroke="#5AADAA" stroke-width="0.6" fill="#5AADAA" fill-rule="nonzero" stroke-linecap="round" stroke-linejoin="round" points="35.5997144 4.62669158 35.7514633 5.10022218 20.2030839 10.3573258 3.51428571 5.1378592 3.67307643 4.66666667 20.2069891 9.83341092"></polygon>
                            </g>
                            <path d="M24.2863225,11.9989226 L20.024739,11.1440266 C17.7847936,8.72250983 16.4658441,7.5361087 16.0678903,7.58482321 C15.4709596,7.65789496 11.1041408,8.41818917 10.9315101,8.96622733 C10.8164229,9.3315861 11.7165024,9.57386978 13.6317484,9.69307837 L13.8089519,19.5311493 L13.8089519,23.8870011 C16.5674352,24.2844013 18.2341709,24.5251466 18.8091589,24.6092371 C19.6716409,24.7353729 22.6292017,26.0236975 23.3226355,26.1082955 C24.0160692,26.1928934 26.7712199,26.8068267 27.3175481,26.7307102 C27.8638762,26.6545938 30.1801732,26.3481709 30.3252636,26.1082955 C30.470354,25.86842 30.8113613,24.3969811 31.0169061,23.8870011 C31.2224509,23.3770212 31.4125462,19.173438 31.2681275,18.9979353 C31.1237088,18.8224326 32.6299176,13.8768232 32.0533622,13.271589 C31.668992,12.8680995 29.0799788,12.4438774 24.2863225,11.9989226 Z" id="Path-7" fill="#FFFFFF"></path>
                            <path d="M15.4784607,11.4574015 L16.9373303,11.4574015 L16.9373303,18.5089488 L20.9878388,14.7414555 L22.9444404,14.7414555 L19.4259902,17.8754765 L23.201888,23.3600133 L21.3482654,23.3600133 L18.310384,18.8590256 L16.9373303,20.0926297 L16.9373303,23.3600133 L15.4784607,23.3600133 L15.4784607,11.4574015 Z M31.9551055,22.626519 C31.9551055,24.0379469 31.6232875,25.0937235 30.9596416,25.7938807 C30.2959956,26.4940378 29.2547736,26.8441111 27.8359443,26.8441111 C27.4240261,26.8441111 27.0035326,26.7996574 26.5744512,26.7107485 C26.1453698,26.6218397 25.7563418,26.477365 25.4073555,26.2773201 C25.0583693,26.0772752 24.7694588,25.8161094 24.5406153,25.4938148 C24.3117719,25.1715203 24.1859099,24.7769932 24.1630256,24.3102218 L25.6218952,24.3102218 C25.6333373,24.5658347 25.7162918,24.7825468 25.8707612,24.9603644 C26.0252305,25.1381821 26.2140235,25.2826568 26.4371458,25.3937929 C26.6602682,25.5049289 26.9034107,25.5855014 27.1665806,25.6355126 C27.4297506,25.6855238 27.6814746,25.710529 27.9217602,25.710529 C28.4023314,25.710529 28.8085224,25.6299566 29.1403454,25.4688093 C29.4721683,25.3076621 29.7467763,25.0853933 29.9641776,24.8019964 C30.1815789,24.5185994 30.3389064,24.1768612 30.4361648,23.7767714 C30.5334233,23.3766816 30.5820518,22.9377008 30.5820518,22.4598157 L30.5820518,21.8930247 L30.5477254,21.8930247 C30.2959977,22.4264778 29.9155512,22.8182265 29.4063745,23.0682826 C28.8971979,23.3183387 28.3565634,23.4433649 27.7844548,23.4433649 C27.1208088,23.4433649 26.5429878,23.3266738 26.0509745,23.0932881 C25.5589611,22.8599024 25.1470491,22.5459477 24.8152261,22.1514147 C24.4834031,21.7568818 24.2345396,21.2956741 24.0686281,20.7677778 C23.9027166,20.2398815 23.8197621,19.6814313 23.8197621,19.0924102 C23.8197621,18.5811843 23.8884141,18.0560744 24.0257202,17.5170645 C24.1630263,16.9780546 24.3918663,16.4890634 24.7122471,16.0500759 C25.0326279,15.6110885 25.4559819,15.2499018 25.9823218,14.9665048 C26.5086617,14.6831079 27.1551347,14.5414116 27.9217602,14.5414116 C28.4824266,14.5414116 28.9973166,14.660881 29.4664456,14.8998235 C29.9355747,15.1387661 30.3017187,15.4971745 30.5648886,15.9750595 L30.5820518,15.9750595 L30.5820518,14.7414555 L31.9551055,14.7414555 L31.9551055,22.626519 Z M27.8702707,22.2097609 C28.3508419,22.2097609 28.7598934,22.1125183 29.0974374,21.9180302 C29.4349815,21.7235421 29.706729,21.467933 29.9126881,21.1511953 C30.1186472,20.8344575 30.2702537,20.4760491 30.3675121,20.0759593 C30.4647706,19.6758695 30.5133991,19.2757858 30.5133991,18.875696 C30.5133991,18.4978334 30.4676311,18.1255332 30.3760937,17.7587842 C30.2845564,17.3920352 30.1386709,17.0614104 29.9384328,16.7668999 C29.7381948,16.4723894 29.4778893,16.2362288 29.1575085,16.0584111 C28.8371277,15.8805934 28.4480997,15.7916859 27.9904129,15.7916859 C27.5212838,15.7916859 27.1208138,15.8778151 26.7889908,16.0500759 C26.4571679,16.2223368 26.1854204,16.4529407 25.9737402,16.7418944 C25.76206,17.0308481 25.607593,17.3642513 25.5103346,17.7421139 C25.4130761,18.1199765 25.3644476,18.5145035 25.3644476,18.9257069 C25.3644476,19.3146831 25.4044946,19.7036535 25.4845898,20.0926297 C25.564685,20.4816058 25.701989,20.8344575 25.8965059,21.1511953 C26.0910228,21.467933 26.3484678,21.7235421 26.6688486,21.9180302 C26.9892294,22.1125183 27.3896994,22.2097609 27.8702707,22.2097609 Z" id="kg" stroke="#5AADAA" fill="#5AADAA"></path>
                            <path d="M43.5918386,31.4022263 L43.5918386,35.4280668 L39.0795892,35.0283313 C37.9867302,35.4362633 37.3845428,35.7396708 37.273027,35.9385538 C37.1615112,36.1374368 36.6418017,37.1004298 35.7138987,38.8275328 C35.8943031,40.5368916 36.0132407,41.4726213 36.0707113,41.6347221 C36.1569172,41.8778732 37.7585776,44.0188229 38.024617,44.0437757 C38.2906565,44.0687285 40.9414886,44.5220376 40.9414886,44.5331277 C40.9414886,44.5442178 43.6291438,44.555308 43.8763435,44.5442178 C44.0411434,44.5368244 45.4170127,44.7178708 48.0039516,45.087357 C50.3275152,45.087357 51.5951989,45.087357 51.8070029,45.087357 C52.1247088,45.087357 56.2400425,45.087357 56.5420487,45.087357 C56.7433861,45.087357 57.3667139,45.5866901 58.4120321,46.5853564 C60.2200729,47.9135843 61.4103997,48.5315818 61.9830125,48.4393489 C62.8419318,48.3009995 64.709917,47.9383523 65.1997494,47.6131342 C65.5263042,47.3963221 66.1154732,46.8502256 66.9672562,45.9748447 C66.9672562,45.0135152 66.9672562,44.2363743 66.9672562,43.643422 C66.9672562,43.0504697 66.9672562,40.4821803 66.9672562,35.9385538 C67.2863894,35.3317388 67.2863894,34.9862812 66.9672562,34.9021811 C66.4885564,34.7760309 61.0344619,35.1544816 60.4470057,35.0283313 C59.8595494,34.9021811 50.811353,34.9021811 50.3437858,34.9021811 C50.0320743,34.9021811 48.6405052,33.7355295 46.1690785,31.4022263 L43.5918386,31.4022263 Z" id="Path-9" fill="#FFFFFF"></path>
                            <path d="M38.0537011,40.2106232 C38.0537011,40.6534085 38.1138505,41.0869625 38.234151,41.5112983 C38.3544516,41.9356342 38.5380655,42.3138409 38.7849983,42.6459298 C39.0319311,42.9780187 39.3485068,43.2424559 39.734735,43.4392493 C40.1209631,43.6360428 40.5736664,43.734438 41.0928584,43.734438 C41.6373768,43.734438 42.0995774,43.6298931 42.4794739,43.4208001 C42.8593705,43.211707 43.1696147,42.9380453 43.4102158,42.5998066 C43.650817,42.2615678 43.8249336,41.8772114 43.932571,41.4467258 C44.0402084,41.0162402 44.0940262,40.5796113 44.0940262,40.1368261 C44.0940262,39.6694417 44.0370426,39.2174385 43.9230736,38.7808031 C43.8091047,38.3441677 43.6286565,37.9598113 43.3817237,37.6277223 C43.134791,37.2956334 42.8150495,37.0281214 42.4224897,36.8251781 C42.0299299,36.6222349 41.5550664,36.5207648 40.9978847,36.5207648 C40.4533663,36.5207648 39.9911658,36.6253098 39.6112692,36.8344028 C39.2313726,37.0434958 38.9274599,37.3202324 38.699522,37.6646209 C38.4715841,38.0090094 38.3069647,38.4025904 38.2056589,38.8453756 C38.1043532,39.2881608 38.0537011,39.7432388 38.0537011,40.2106232 Z M45.6515944,44.8967434 L44.037042,44.8967434 L44.037042,43.605293 L43.9990526,43.605293 C43.733125,44.1341753 43.315245,44.5154569 42.7454002,44.7491491 C42.1755553,44.9828413 41.5487354,45.0996856 40.8649216,45.0996856 C40.1051285,45.0996856 39.4434852,44.9643922 38.879972,44.6938012 C38.3164587,44.4232102 37.8479267,44.0603778 37.4743617,43.605293 C37.1007968,43.1502082 36.8190444,42.6213337 36.6290961,42.0186539 C36.4391478,41.415974 36.3441751,40.7764049 36.3441751,40.0999275 C36.3441751,39.4234501 36.4359821,38.783881 36.6195987,38.1812011 C36.8032154,37.5785212 37.081802,37.0527216 37.455367,36.6037866 C37.8289319,36.1548516 38.297464,35.7981689 38.8609772,35.5337277 C39.4244905,35.2692865 40.0798022,35.1370679 40.8269321,35.1370679 C41.0801965,35.1370679 41.3524516,35.1616667 41.6437057,35.2108651 C41.9349597,35.2600634 42.2262093,35.3430844 42.5174634,35.4599305 C42.8087174,35.5767766 43.0841383,35.7305192 43.3437343,35.9211628 C43.6033303,36.1118065 43.8217675,36.34857 43.9990526,36.6314606 L44.037042,36.6314606 L44.037042,31.7239489 L45.6515944,31.7239489 L45.6515944,44.8967434 Z M56.8394922,44.8598448 C56.5609014,45.0197395 56.174679,45.0996856 55.6808135,45.0996856 C55.2629273,45.0996856 54.9305227,44.9859161 54.68359,44.7583737 C54.4366572,44.5308313 54.3131927,44.1587743 54.3131927,43.6421916 C53.86998,44.1587743 53.3539616,44.5308313 52.7651219,44.7583737 C52.1762823,44.9859161 51.5399651,45.0996856 50.8561512,45.0996856 C50.4129386,45.0996856 49.9918929,45.050488 49.5930015,44.9520913 C49.1941101,44.8536946 48.8490426,44.699952 48.5577885,44.490859 C48.2665345,44.281766 48.0354342,44.0081042 47.8644808,43.6698655 C47.6935273,43.3316268 47.6080519,42.9226716 47.6080519,42.4429876 C47.6080519,41.9018056 47.7030246,41.4590271 47.8929729,41.1146385 C48.0829212,40.77025 48.333016,40.4904386 48.6432648,40.2751958 C48.9535137,40.0599529 49.3080785,39.8969858 49.7069699,39.7862895 C50.1058613,39.6755932 50.514244,39.5833477 50.9321302,39.5095501 C51.3753428,39.423453 51.7963885,39.3588811 52.1952799,39.3158326 C52.5941713,39.272784 52.9455704,39.211287 53.2494876,39.1313396 C53.5534049,39.0513923 53.7940024,38.934548 53.9712875,38.7808031 C54.1485726,38.6270582 54.2372138,38.4025941 54.2372138,38.1074039 C54.2372138,37.7630154 54.1707329,37.4862788 54.0377691,37.2771858 C53.9048053,37.0680928 53.7338544,36.9082005 53.5249113,36.7975042 C53.3159681,36.6868079 53.0817021,36.6130115 52.8221061,36.5761127 C52.5625101,36.5392139 52.3060838,36.5207648 52.0528194,36.5207648 C51.3690056,36.5207648 50.7991693,36.6468337 50.3432935,36.8989753 C49.8874176,37.1511169 49.6404885,37.6277188 49.6024989,38.3287954 L47.9879465,38.3287954 C48.013273,37.7384151 48.1399033,37.2402892 48.3678412,36.8344028 C48.5957791,36.4285163 48.8996918,36.0995072 49.2795884,35.8473657 C49.659485,35.5952241 50.0931937,35.4138078 50.5807276,35.3031115 C51.0682615,35.1924152 51.5906115,35.1370679 52.1477931,35.1370679 C52.5910058,35.1370679 53.031046,35.1678164 53.4679271,35.2293144 C53.9048081,35.2908123 54.3005278,35.4168812 54.6550979,35.6075249 C55.009668,35.7981685 55.2945862,36.0656806 55.5098609,36.4100691 C55.7251356,36.7544576 55.8327713,37.2033859 55.8327713,37.7568674 L55.8327713,42.6643791 C55.8327713,43.0333668 55.8549316,43.3039537 55.8992529,43.4761479 C55.9435742,43.6483422 56.0923648,43.734438 56.3456291,43.734438 C56.4849245,43.734438 56.6495439,43.7036895 56.8394922,43.6421916 L56.8394922,44.8598448 Z M54.218219,39.9707824 C54.0156075,40.1183775 53.7496839,40.2259973 53.4204402,40.293645 C53.0911965,40.3612928 52.746129,40.4166401 52.3852273,40.4596887 C52.0243255,40.5027372 51.6602635,40.5519349 51.2930301,40.607283 C50.9257968,40.6626312 50.596558,40.7518019 50.305304,40.8747977 C50.01405,40.9977936 49.7766182,41.1730602 49.5930015,41.4006026 C49.4093848,41.628145 49.3175779,41.938705 49.3175779,42.3322918 C49.3175779,42.5905832 49.3713957,42.8088976 49.4790331,42.9872417 C49.5866705,43.1655857 49.7259638,43.3101038 49.8969172,43.4208001 C50.0678707,43.5314964 50.2673134,43.6114425 50.4952513,43.6606409 C50.7231893,43.7098392 50.9637868,43.734438 51.2170512,43.734438 C51.7489064,43.734438 52.2047754,43.6637164 52.584672,43.5222712 C52.9645685,43.3808259 53.2748127,43.2024845 53.5154139,42.9872417 C53.756015,42.7719989 53.9332975,42.5383102 54.0472664,42.2861686 C54.1612354,42.034027 54.218219,41.7972635 54.218219,41.5758708 L54.218219,39.9707824 Z M66.8117271,44.0849746 C66.8117271,45.6470224 66.4444993,46.8154659 65.7100326,47.5903401 C64.9755659,48.3652142 63.8232303,48.7526455 62.2529912,48.7526455 C61.7971153,48.7526455 61.331749,48.7034478 60.8568783,48.6050511 C60.3820076,48.5066544 59.9514646,48.3467622 59.5652364,48.1253695 C59.1790082,47.9039769 58.8592668,47.6149409 58.6060024,47.2582528 C58.352738,46.9015647 58.2134447,46.4649358 58.1881183,45.9483531 L59.8026706,45.9483531 C59.8153338,46.2312436 59.9071408,46.471082 60.0780942,46.6678755 C60.2490477,46.8646689 60.4579876,47.0245612 60.7049204,47.1475571 C60.9518532,47.270553 61.2209425,47.3597236 61.5121966,47.4150718 C61.8034506,47.4704199 62.0820372,47.4980936 62.3479648,47.4980936 C62.87982,47.4980936 63.3293575,47.4089229 63.6965909,47.2305789 C64.0638242,47.0522348 64.3677369,46.8062467 64.6083381,46.4926072 C64.8489392,46.1789677 65.0230559,45.8007609 65.1306932,45.3579757 C65.2383306,44.9151905 65.2921485,44.429364 65.2921485,43.9004817 L65.2921485,43.2732057 L65.254159,43.2732057 C64.9755682,43.863586 64.5545225,44.29714 63.9910092,44.5738808 C63.427496,44.8506216 62.8291679,44.9889899 62.196007,44.9889899 C61.4615403,44.9889899 60.8220573,44.8598461 60.2775389,44.6015547 C59.7330205,44.3432634 59.2771515,43.9958052 58.9099181,43.5591697 C58.5426848,43.1225343 58.2672639,42.612109 58.0836472,42.0278785 C57.9000306,41.443648 57.8082236,40.8256029 57.8082236,40.1737246 C57.8082236,39.6079435 57.8842018,39.0267966 58.0361604,38.4302665 C58.188119,37.8337365 58.4413796,37.2925626 58.7959497,36.8067288 C59.1505198,36.3208951 59.6190519,35.9211644 60.20156,35.6075249 C60.784068,35.2938853 61.4995292,35.1370679 62.3479648,35.1370679 C62.9684625,35.1370679 63.5382988,35.2692865 64.0574908,35.5337277 C64.5766828,35.7981689 64.9818997,36.1948247 65.2731537,36.723707 L65.2921485,36.723707 L65.2921485,35.3584594 L66.8117271,35.3584594 L66.8117271,44.0849746 Z M62.2909806,43.6237423 C62.8228358,43.6237423 63.2755391,43.5161225 63.649104,43.3008797 C64.022669,43.0856368 64.3234159,42.8027505 64.5513539,42.4522122 C64.7792918,42.1016739 64.9470769,41.7050181 65.0547143,41.2622329 C65.1623517,40.8194477 65.2161695,40.3766691 65.2161695,39.9338839 C65.2161695,39.5156978 65.1655174,39.1036677 65.0642117,38.6977813 C64.9629059,38.2918948 64.8014523,37.9259875 64.579846,37.6000484 C64.3582396,37.2741093 64.0701557,37.0127469 63.7155856,36.8159535 C63.3610155,36.6191601 62.9304725,36.5207648 62.4239438,36.5207648 C61.9047518,36.5207648 61.4615458,36.6160852 61.0943124,36.8067288 C60.7270791,36.9973725 60.4263322,37.2525851 60.1920626,37.5723745 C59.9577931,37.8921638 59.7868422,38.2611459 59.6792048,38.679332 C59.5715675,39.097518 59.5177496,39.5341469 59.5177496,39.9892317 C59.5177496,40.4197174 59.5620702,40.8501965 59.6507127,41.2806822 C59.7393552,41.7111678 59.8913116,42.1016739 60.1065863,42.4522122 C60.321861,42.8027505 60.6067792,43.0856368 60.9613493,43.3008797 C61.3159194,43.5161225 61.7591254,43.6237423 62.2909806,43.6237423 Z" id="dag" stroke="#5AADAA" fill="#5AADAA"></path>
                        </g>
                    </g>
                </g>
            </g>
        </g>
    </g>
</svg>