<?xml version="1.0" encoding="UTF-8"?>
<svg width="100px" height="80px" viewBox="0 0 100 80" version="1.1" xmlns="http://www.w3.org/2000/svg" xmlns:xlink="http://www.w3.org/1999/xlink">
    <!-- Generator: Sketch 48.2 (47327) - http://www.bohemiancoding.com/sketch -->
    <title>Utility and Purpose</title>
    <desc>Created with Sketch.</desc>
    <defs></defs>
    <g id="COMMODITY-WEB-Copy" stroke="none" stroke-width="1" fill="none" fill-rule="evenodd" transform="translate(-735.000000, -1990.000000)">
        <g id="//BODY" transform="translate(-4.000000, 840.000000)">
            <g id="SECTION-2" transform="translate(139.000000, 691.000000)">
                <g id="box5" transform="translate(600.000000, 459.000000)">
                    <g id="Utility-and-Purpose">
                        <rect id="Rectangle" fill="#FFFFFF" x="0" y="0" width="100" height="80"></rect>
                        <g id="Group" stroke-width="1">
                            <g id="open-cardboard-box" opacity="0.400000006" transform="translate(13.000000, 18.000000)" fill="#5AADAA" fill-rule="nonzero">
                                <path d="M7.13448444,20.4467117 C7.29612023,20.5021671 7.40467637,20.654179 7.40467637,20.8250633 L7.40467637,35.0766132 C7.40467637,35.5056333 7.65991674,35.8913453 8.05003267,36.0542674 C24.5818343,42.960557 33.1443961,46.5373993 33.1685696,46.5472173 C33.2618499,46.5831166 33.3602857,46.6 33.5000009,46.6 C33.5955052,46.6 33.6901629,46.5863649 33.783099,46.5601865 C33.8155869,46.5510353 42.2046174,43.0490512 58.9501906,36.0542345 C59.3401082,35.8913952 59.5953253,35.5056191 59.5953253,35.0766132 L59.5953253,20.8247749 C59.5953253,20.6538906 59.7038815,20.5018787 59.8655173,20.4464234 L64.8918434,18.7219484 C65.2074488,18.6136634 65.4536041,18.3581173 65.5529583,18.0344916 C65.6524239,17.710178 65.5921209,17.3569124 65.3912402,17.0850719 C65.1327611,16.7360012 65.1327611,16.7360012 64.9212745,16.4503933 C64.2868017,15.5935542 64.2868017,15.5935542 62.3833425,13.0229927 C59.9424133,9.72660849 59.3767768,8.96278447 59.3418448,8.90999514 C59.3275555,8.88417586 59.2485828,8.80531983 59.1390829,8.73344883 C59.0512389,8.67579187 58.9501021,8.6279242 58.8484463,8.59499846 L33.7821698,1.43949285 C33.5974697,1.38684682 33.4025597,1.3868389 33.2181311,1.4394075 L8.16652935,8.5904874 C8.05829969,8.62205541 7.93313928,8.68424812 7.81337616,8.7743699 C7.73381429,8.83424023 7.66728228,8.90061158 7.61356897,8.97390429 C7.57908088,9.02097535 6.53669478,10.4291781 4.61166908,13.0293402 C3.85787786,14.0474852 3.85787786,14.0474852 3.43910306,14.6131173 C3.09011598,15.0844833 3.09011598,15.0844833 2.54726772,15.8176844 C1.88666019,16.7099279 1.88666019,16.7099279 1.706492,16.9532681 L1.60904312,17.0848841 C1.40790959,17.356871 1.3475642,17.7101299 1.44696051,18.0345097 C1.54636036,18.3584302 1.79243586,18.6139117 2.10814884,18.7222335 L7.13448444,20.4467117 Z M6.60467637,21.110715 L1.84852801,19.478935 C1.28990299,19.2872694 0.856484689,18.8372841 0.682111944,18.2690446 C0.508379935,17.7020706 0.613735275,17.0853257 0.965954229,16.6090305 L1.06354287,16.4772256 C1.24370637,16.2338918 1.24370637,16.2338918 1.90431264,15.34165 C2.44715929,14.6084511 2.44715929,14.6084511 2.79613125,14.1371055 C3.2149146,13.5714619 3.2149146,13.5714619 3.96870407,12.5533192 C5.88185131,9.96920152 6.93510524,8.54631696 6.96827191,8.50104944 C7.06958128,8.36281113 7.19172985,8.24095752 7.33235388,8.13513789 C7.5300348,7.98638294 7.74238762,7.88086398 7.94472999,7.82185239 L32.9986882,0.670092996 C33.326618,0.576621485 33.6734331,0.576635574 34.001616,0.670179288 L59.0807183,7.82957419 C59.2626239,7.88808025 59.4290946,7.96687019 59.5780578,8.06464317 C59.7889015,8.20303178 59.9588442,8.37272357 60.0083251,8.47171176 C60.0156383,8.481175 60.019403,8.48625887 63.0262668,12.5469167 C64.9297265,15.1174789 64.9297265,15.1174789 65.5642033,15.9743233 C65.7756877,16.2599283 65.7756877,16.2599283 66.0343992,16.6093132 C66.3863417,17.0855764 66.4916182,17.7023045 66.3177624,18.2691714 C66.1434321,18.8370166 65.7099558,19.28703 65.1514643,19.4786498 L60.3953253,21.1104266 L60.3953253,35.0766132 C60.3953253,35.8273595 59.9471156,36.5048556 59.2585169,36.7924315 L34.236932,47.2441481 C34.1707506,47.2752838 34.0896773,47.3049611 34.0000033,47.3302206 C33.837913,47.3758784 33.6704566,47.4 33.5000009,47.4 C33.2654892,47.4 33.0699429,47.3664604 32.8751426,47.2914335 C32.8397077,47.2771263 24.6495647,43.8558547 7.74169598,36.7924601 C7.05294413,36.5048203 6.60467637,35.8274106 6.60467637,35.0766132 L6.60467637,21.110715 Z M7.41717728,20.5220347 L2.10963701,18.7010786 C1.79741627,18.5939549 1.55541384,18.3426908 1.4581748,18.025812 C1.36145022,17.7101513 1.42019063,17.3666147 1.61655323,17.1010795 L1.71401899,16.9694406 C1.89410177,16.7262159 1.89410177,16.7262159 2.55477451,15.8338844 C3.09755143,15.1007797 3.09755143,15.1007797 3.44651558,14.6294448 C3.8654139,14.0636459 3.8654139,14.0636459 4.61950983,13.0450895 C6.55413487,10.4319617 7.58675788,9.03694428 7.62113732,8.99002152 C7.67459666,8.91707537 7.74087633,8.85171892 7.81748264,8.79407266 C7.92979605,8.70955679 8.06078608,8.64292511 8.16775182,8.61172706 L33.2193208,1.46065751 C33.402932,1.40832194 33.5971408,1.40834 33.7809878,1.4607429 L58.8483433,8.61659817 C58.9497248,8.64954869 59.0495135,8.69708372 59.1356342,8.75360955 C59.2550285,8.83197479 59.3424527,8.91997053 59.3651351,8.97343758 C59.3717139,8.98228842 61.2642036,11.537965 62.3759,13.0392696 C64.6317261,16.0856911 64.6317261,16.0856911 65.3839297,17.1015271 C65.5798806,17.3668704 65.6385151,17.7102908 65.5417531,18.0257889 C65.4445615,18.3423705 65.2024828,18.5937043 64.8903629,18.7007934 L59.582832,20.5217463 L59.582832,35.0766132 C59.582832,35.4948496 59.3329067,35.8726136 58.9482848,36.0332412 L33.903292,46.4954496 C33.8332287,46.5267544 33.7779201,46.5386024 33.5000047,46.5785713 C33.3522161,46.5785713 33.2536925,46.559017 33.1058908,46.4994117 L8.05194177,36.0332724 C7.66715623,35.8725764 7.41717728,35.4948955 7.41717728,35.0766132 L7.41717728,20.5220347 Z M58.6900561,9.39820152 C58.6771811,9.40300409 50.3010108,7.01362272 33.561545,2.23005741 C33.534624,2.22238397 25.1439656,4.60581704 8.38956987,9.38035661 C8.23073389,9.51160216 7.20876426,10.8922274 5.26247481,13.5211105 C4.50837713,14.5396693 4.50837713,14.5396693 4.08948736,15.1054566 C3.74050811,15.576812 3.74050811,15.576812 3.19772956,16.3099189 C2.53705557,17.2022521 2.53705557,17.2022521 2.35696797,17.4454832 L2.25964207,17.5769331 C2.21433702,17.6381978 2.20064818,17.7182554 2.22302338,17.791277 C2.24529141,17.8638432 2.2999555,17.9205993 2.36925782,17.9443771 L7.94698534,19.8580314 C8.10862114,19.9134868 8.21717728,20.0654986 8.21717728,20.2363829 L8.21717728,35.0766132 C8.21717728,35.1730875 8.2741001,35.2590894 8.36027414,35.2950778 L33.4096063,45.7593228 C33.5157108,45.7611858 41.9258265,42.2730937 58.6399532,35.2950464 C58.7259041,35.2591511 58.782832,35.1731041 58.782832,35.0766132 L58.782832,20.2360945 C58.782832,20.0652102 58.8913882,19.9131984 59.053024,19.857743 L64.6307421,17.944092 C64.6999647,17.9203415 64.7547302,17.8634823 64.776949,17.791109 C64.7993302,17.7181339 64.785661,17.6380738 64.740696,17.5771848 C63.9888011,16.5617661 63.9888011,16.5617661 61.7329758,13.5153456 C60.6326787,12.0294354 58.729152,9.45885421 58.6900561,9.39820152 Z" id="Path" stroke="#5AADAA" stroke-width="0.2"></path>
                                <path d="M33.3346946,18.1498022 C33.4600604,17.9724936 33.6925693,17.9352894 33.8635027,18.0351455 L33.6458006,17.7067378 L27.4649056,26.4072793 C26.8316859,27.2596321 25.7491801,27.6016291 24.7673185,27.2545649 L7.77784852,20.6149867 L7.76285329,20.6619941 L24.7756935,27.3098331 C25.74809,27.6535515 26.821121,27.3154681 27.4590563,26.4598922 L33.3346946,18.1498022 Z M39.7447918,26.9500921 C40.1689724,27.5137799 40.8745349,27.737037 41.5014106,27.5209887 L59.0349762,20.7473365 L59.0207198,20.7015711 L41.5246135,27.4602675 C40.8746852,27.6846083 40.161392,27.4589052 39.7276842,26.881371 L37.6224606,23.7056026 L39.7447918,26.9500921 Z M28.10946,26.9257233 C27.2589185,28.0707899 25.8168796,28.5263744 24.509079,28.0640987 L7.13061007,21.2870189 C6.92687272,21.2150027 6.81716492,20.9941921 6.88283697,20.7883222 L7.1410765,19.9787885 C7.20968955,19.763699 7.44260278,19.6479781 7.65546412,19.7232194 L25.0339331,26.5002993 C25.6817669,26.7292927 26.3969264,26.5033518 26.817723,25.9370856 L33.5178773,16.2184573 C33.6805027,15.9895337 34.0222149,15.9950484 34.1773685,16.2291005 L40.380697,26.4198475 C40.5938514,26.7031055 40.9447001,26.8141225 41.2486382,26.7095451 L59.1295365,19.8003017 C59.3456169,19.7159485 59.5879081,19.8324853 59.6568966,20.0539504 L59.9096689,20.865394 C59.9721333,21.0659157 59.8688762,21.2805972 59.67323,21.3569734 L41.7773858,28.271711 C40.8045201,28.6075228 39.736513,28.2695796 39.0904516,27.4096 L33.6484733,19.0917322 L28.10946,26.9257233 Z" id="Path-4" stroke="#5AADAA" stroke-width="0.2"></path>
                                <path d="M33.954496,18 L33.754496,18 L33.6,46.3502579 L33.8,46.3502579 L33.954496,18 Z M34.2,47.1502579 L33.2,47.1502579 C32.9790861,47.1502579 32.8,46.9711718 32.8,46.7502579 L32.954496,17.6 C32.954496,17.3790861 33.1335821,17.2 33.354496,17.2 L34.354496,17.2 C34.5754099,17.2 34.754496,17.3790861 34.754496,17.6 L34.6,46.7502579 C34.6,46.9711718 34.4209139,47.1502579 34.2,47.1502579 Z" id="Path-5" stroke="#5AADAA" stroke-width="0.2"></path>
                                <path d="M59.4957082,8.85650489 L59.8649621,8.74337828 L59.8295681,8.7253747 L59.486696,8.83039864 L59.4957082,8.85650489 Z M34.1532619,16.5901953 C34.1733922,16.5919309 34.1936231,16.592139 34.2137798,16.5908187 L34.1829901,16.5810894 L34.1532619,16.5901953 Z M8.17874683,8.36397019 L8.14338966,8.38141094 L8.50904722,8.49695561 L8.51836561,8.47128683 L8.17874683,8.36397019 Z M59.6306207,7.97847036 C59.8366181,7.91535988 60.0555917,8.02674347 60.1258957,8.23039808 L60.3781043,8.96098814 C60.4519914,9.17502179 60.3336495,9.40765947 60.1171501,9.47397465 L34.2982907,17.3824603 C34.22079,17.4061992 34.137906,17.4058333 34.060618,17.3814109 L7.8794774,9.1083937 C7.6625213,9.03983742 7.54636761,8.80436212 7.62400875,8.59048888 L7.88792102,7.86350611 C7.96106649,7.66201682 8.18004122,7.55400241 8.38443487,7.61858906 L34.1894693,15.77276 L59.6306207,7.97847036 Z" id="Path-6"></path>
                            </g>
                            <g id="tools" transform="translate(51.000000, 41.000000)">
                                <path d="M0,24.2246408 L1.66028574,30.3396275 L7.77495312,32 L15.747446,24.0270907 L21.4322525,29.7120454 C22.4623134,30.7421601 23.832012,31.3095407 25.2886637,31.3095407 C26.7454642,31.3095407 28.1150141,30.7421601 29.145075,29.7120454 C31.2716379,27.5855201 31.2716379,24.1251968 29.145075,21.9986715 L25.5187553,18.3721624 C26.9059931,17.9183471 28.1778879,17.1440516 29.2396087,16.0822754 C31.702242,13.6195135 32.6037311,10.0167877 31.5919527,6.67998904 L31.0522483,4.89965951 L25.8097883,10.1425419 L22.6915131,9.30700446 L21.8561679,6.18856636 L27.0986279,0.945981224 L25.3186886,0.406100048 C24.4302797,0.136605397 23.5078326,0 22.576616,0 C20.0607703,0 17.6954948,0.979723798 15.9167447,2.75856687 C13.7500495,4.92522657 12.7885107,7.94481528 13.28184,10.9418099 L12.6171311,11.6064048 L5.84533544,4.83440405 L4.49154113,3.02003465 L2.44762088,1.71076334 L1.81323417,2.34518318 L1.77949336,2.37892576 L1.14510665,3.01319695 L2.45445822,5.05722395 L4.2688815,6.41108897 L11.0408258,13.183387 L0,24.2246408 Z" id="Path" fill="#FFFFFF"></path>
                                <path d="M0,24.2246408 L1.66028574,30.3396275 L7.77495312,32 L15.747446,24.0270907 L21.4322525,29.7120454 C22.4623134,30.7421601 23.832012,31.3095407 25.2886637,31.3095407 C26.7454642,31.3095407 28.1150141,30.7421601 29.145075,29.7120454 C31.2716379,27.5855201 31.2716379,24.1251968 29.145075,21.9986715 L25.5187553,18.3721624 C26.9059931,17.9183471 28.1778879,17.1440516 29.2396087,16.0822754 C31.702242,13.6195135 32.6037311,10.0167877 31.5919527,6.67998904 L31.0522483,4.89965951 L25.8097883,10.1425419 L22.6915131,9.30700446 L21.8561679,6.18856636 L27.0986279,0.945981224 L25.3186886,0.406100048 C24.4302797,0.136605397 23.5078326,0 22.576616,0 C20.0607703,0 17.6954948,0.979723798 15.9167447,2.75856687 C13.7500495,4.92522657 12.7885107,7.94481528 13.28184,10.9418099 L12.6171311,11.6064048 L5.84533544,4.83440405 L4.49154113,3.02003465 L2.44762088,1.71076334 L1.81323417,2.34518318 L1.77949336,2.37892576 L1.14510665,3.01319695 L2.45445822,5.05722395 L4.2688815,6.41108897 L11.0408258,13.183387 L0,24.2246408 Z M19.3694553,5.52248498 L20.8709957,11.1279143 L26.4762808,12.6296818 L29.7695029,9.33613902 C29.7928391,11.2462362 29.0544058,13.1144154 27.6631548,14.5058878 C26.3059418,15.863023 24.5008827,16.6105622 22.5803319,16.6105622 C22.0288852,16.6105622 21.4775871,16.5473878 20.9415987,16.4228227 L20.3385746,16.2826498 L7.1123252,29.5097386 L3.47723586,28.5227312 L2.49027997,24.887452 L15.7169753,11.6603632 L15.5768097,11.0573076 C15.0091614,8.61639655 15.7255963,6.10354102 17.4936445,4.33554908 C18.8713695,2.95790075 20.7150745,2.20545623 22.6616369,2.23057735 L19.3694553,5.52248498 Z M27.5687697,23.5753564 C28.8259493,24.8326017 28.8259493,26.8782638 27.5687697,28.1355091 C26.9598001,28.7445106 26.1500206,29.0800039 25.2888124,29.0800039 C24.4276042,29.0800039 23.6178247,28.7446592 23.0088551,28.1355091 L17.3240486,22.4505544 L21.0575363,18.7170204 C21.5605271,18.7989242 22.0705038,18.8402477 22.5804806,18.8402477 C22.6632719,18.8402477 22.74532,18.8363829 22.8276655,18.8343019 L27.5687697,23.5753564 Z M6.83422362,24.9552344 C7.2866775,25.4078606 7.2866775,26.1417244 6.83422362,26.5942019 C6.60784805,26.8204406 6.31131537,26.93356 6.01478269,26.9337087 C5.71810137,26.9337087 5.42156869,26.8204406 5.19534175,26.5942019 C4.74288788,26.1417244 4.74288788,25.4080092 5.19534175,24.9552344 C5.42156869,24.7291443 5.71839864,24.6158763 6.01493132,24.6160249 C6.31146401,24.6160249 6.60799669,24.728847 6.83422362,24.9552344 Z" id="Shape" fill="#5AADAA" fill-rule="nonzero"></path>
                            </g>
                        </g>
                    </g>
                </g>
            </g>
        </g>
    </g>
</svg>