<?xml version="1.0" encoding="UTF-8"?>
<svg width="21px" height="18px" viewBox="0 0 21 18" version="1.1" xmlns="http://www.w3.org/2000/svg" xmlns:xlink="http://www.w3.org/1999/xlink">
    <!-- Generator: Sketch 48.2 (47327) - http://www.bohemiancoding.com/sketch -->
    <title>twitter - FontAwesome</title>
    <desc>Created with Sketch.</desc>
    <defs></defs>
    <g id="COMMODITY/News-centre/WEB" stroke="none" stroke-width="1" fill="none" fill-rule="evenodd" transform="translate(-707.000000, -938.000000)">
        <g id="NEWS" transform="translate(135.000000, 480.000000)" fill="#5AADAA">
            <g id="news2" transform="translate(540.000000, 265.000000)">
                <g id="Group-8" transform="translate(30.000000, 89.000000)">
                    <g id="Group-23">
                        <path d="M22.2113821,106.021173 C21.6471049,106.872194 20.9417585,107.630134 20.1338162,108.241805 C20.1466407,108.427966 20.1466407,108.614126 20.1466407,108.800287 C20.1466407,114.478189 15.9786843,121.020408 8.36094259,121.020408 C6.01406256,121.020408 3.83390079,120.315657 2,119.092315 C2.33343651,119.132207 2.65404853,119.145504 3.00030952,119.145504 C4.93680616,119.145504 6.71940902,118.467347 8.14292642,117.310491 C6.32185011,117.270599 4.79573687,116.03396 4.26993314,114.33192 C4.52642276,114.371811 4.78291238,114.398406 5.05222649,114.398406 C5.42413644,114.398406 5.79604639,114.345217 6.14230737,114.252136 C4.24428418,113.853221 2.82076679,112.124585 2.82076679,110.036926 L2.82076679,109.983737 C3.37221947,110.30287 4.01344352,110.502328 4.69314102,110.528922 C3.57741117,109.757685 2.84641575,108.441263 2.84641575,106.951977 C2.84641575,106.154145 3.05160745,105.4228 3.41069291,104.784534 C5.4497854,107.390784 8.51483637,109.092825 11.9517973,109.278986 C11.8876749,108.959853 11.8492014,108.627423 11.8492014,108.294994 C11.8492014,105.928093 13.6959267,104 15.9915088,104 C17.1841855,104 18.261442,104.518591 19.0180863,105.356314 C19.9542735,105.170153 20.8519871,104.811129 21.6471049,104.319133 C21.3393174,105.316422 20.6852689,106.154145 19.8260286,106.686033 C20.6596199,106.592953 21.4675622,106.353603 22.2113821,106.021173 Z" id="twitter---FontAwesome"></path>
                    </g>
                </g>
            </g>
        </g>
    </g>
</svg>