<svg width="98" height="136" viewBox="0 0 98 136" version="1.1" xmlns="http://www.w3.org/2000/svg" xmlns:xlink="http://www.w3.org/1999/xlink">
<title>Group 5</title>
<desc>Created using Figma</desc>
<g id="Canvas" transform="translate(-16867 6557)">
<g id="Group 5" opacity="0.302989">
<g id="Page 1 Copy 3" opacity="0.205163">
<g id="Fill 1">
<use xlink:href="#path0_fill" transform="matrix(0.669131 0.743145 -0.743145 0.669131 16908.4 -6484.73)" fill="#99D0BF"/>
</g>
<g id="Fill 2">
<use xlink:href="#path1_fill" transform="matrix(0.669131 0.743145 -0.743145 0.669131 16949.6 -6521.9)" fill="#67F2CE"/>
</g>
<g id="Fill 3">
<use xlink:href="#path2_fill" transform="matrix(0.669131 0.743145 -0.743145 0.669131 16981.7 -6486.23)" fill="#C3FFED"/>
</g>
</g>
<g id="Page 1 Copy 4" opacity="0.205163">
<g id="Fill 1">
<use xlink:href="#path0_fill" transform="matrix(0.857167 0.515038 -0.515038 0.857167 16881.5 -6533.24)" fill="#99D0BF"/>
</g>
<g id="Fill 2">
<use xlink:href="#path1_fill" transform="matrix(0.857167 0.515038 -0.515038 0.857167 16910.1 -6580.85)" fill="#67F2CE"/>
</g>
<g id="Fill 3">
<use xlink:href="#path2_fill" transform="matrix(0.857167 0.515038 -0.515038 0.857167 16951.3 -6556.13)" fill="#C3FFED"/>
</g>
</g>
</g>
</g>
<defs>
<path id="path0_fill" fill-rule="evenodd" d="M 0 27.8084L 96.2551 27.8118L 48.1231 0L 0 27.8084Z"/>
<path id="path1_fill" fill-rule="evenodd" d="M 48.1241 -3.97904e-13L 0 83.3544L 48.1227 55.5458L 48.1241 -3.97904e-13Z"/>
<path id="path2_fill" fill-rule="evenodd" d="M 0.132232 0L 0.130779 55.5458L 48.2646 83.3544L 0.132232 0Z"/>
</defs>
</svg>
