<?xml version="1.0" encoding="UTF-8"?>
<svg width="93px" height="144px" viewBox="0 0 93 144" version="1.1" xmlns="http://www.w3.org/2000/svg" xmlns:xlink="http://www.w3.org/1999/xlink">
    <!-- Generator: Sketch 48.2 (47327) - http://www.bohemiancoding.com/sketch -->
    <title>Group 6</title>
    <desc>Created with Sketch.</desc>
    <defs></defs>
    <g id="COMMODITY-WEB-Copy" stroke="none" stroke-width="1" fill="none" fill-rule="evenodd" transform="translate(-413.000000, -4372.000000)">
        <g id="//BODY" transform="translate(-4.000000, 840.000000)">
            <g id="SECTION-4" transform="translate(139.000000, 3175.000000)">
                <g id="BOXES" transform="translate(1.000000, 351.000000)">
                    <g id="box1">
                        <g id="rectangle">
                            <g id="Group-6" transform="translate(276.000000, -16.000000)">
                                <g id="Page-1-Copy-3" transform="translate(84.036489, 121.480575) rotate(48.000000) translate(-84.036489, -121.480575) translate(35.536489, 78.980575)">
                                    <polygon id="Fill-1" fill="#FCFCFC" opacity="0.862488678" points="0.72249367 84.0931159 96.9775556 84.0965548 48.8455934 56.2847466"></polygon>
                                    <polygon id="Fill-2" fill="#F3F3F3" opacity="0.670289855" points="48.8470465 0.738945316 0.722932442 84.0933692 48.8455934 56.2847466"></polygon>
                                    <polygon id="Fill-3" fill="#F9F9F9" points="48.8470465 0.738945316 48.8455934 56.2847466 96.9793948 84.0933692"></polygon>
                                </g>
                                <g id="Page-1-Copy-4" transform="translate(63.036489, 59.480575) rotate(26.000000) translate(-63.036489, -59.480575) translate(14.536489, 16.980575)">
                                    <polygon id="Fill-1" fill="#FFFCFC" points="0.72249367 84.0931159 96.9775556 84.0965548 48.8455934 56.2847466"></polygon>
                                    <polygon id="Fill-2" fill="#FCFCFC" points="48.8470465 0.738945316 0.722932442 84.0933692 48.8455934 56.2847466"></polygon>
                                    <polygon id="Fill-3" fill="#F9F9F9" points="48.8470465 0.738945316 48.8455934 56.2847466 96.9793948 84.0933692"></polygon>
                                </g>
                            </g>
                        </g>
                    </g>
                </g>
            </g>
        </g>
    </g>
</svg>