<svg width="397" height="251" viewBox="0 0 397 251" version="1.1" xmlns="http://www.w3.org/2000/svg" xmlns:xlink="http://www.w3.org/1999/xlink">
<title>LEFT</title>
<desc>Created using Figma</desc>
<g id="Canvas" transform="translate(-732 2591)">
<g id="BG timeline/WE/LEFT">
<g id="BG timeline">
<g id="BG">
<g id="Page 1 Copy 2">
<g id="Fill 1">
<use xlink:href="#path0_fill" transform="translate(965.896 -2535.15)" fill="#D0C6BA"/>
</g>
<g id="Fill 3">
<use xlink:href="#path1_fill" transform="translate(1013.89 -2590.7)" fill="#EADBCA"/>
</g>
</g>
<g id="Page 1 Copy">
<g id="Fill 1">
<use xlink:href="#path0_fill" transform="translate(1061.89 -2368.75)" fill="#F3F3F3"/>
</g>
<g id="Fill 2">
<use xlink:href="#path2_fill" transform="translate(1061.89 -2424.29)" fill="#F6F6F6"/>
</g>
</g>
<g id="Page 1 Copy 2">
<g id="Fill 1">
<use xlink:href="#path0_fill" transform="translate(1013.78 -2452.08)" fill="#F3F3F3"/>
</g>
<g id="Fill 2">
<use xlink:href="#path2_fill" transform="translate(1013.78 -2507.63)" fill="#CDB093"/>
</g>
<g id="Fill 3">
<use xlink:href="#path1_fill" transform="translate(1061.77 -2507.63)" fill="#D2BFA7"/>
</g>
</g>
<g id="Page 1 Copy 2">
<g id="Fill 1">
<use xlink:href="#path0_fill" transform="matrix(0.5 -0.866025 0.866025 0.5 1037.79 -2354.83)" fill="#F1F1F1"/>
</g>
<g id="Fill 2">
<use xlink:href="#path2_fill" transform="matrix(0.5 -0.866025 0.866025 0.5 989.685 -2382.6)" fill="#F9F9F9"/>
</g>
<g id="Fill 3">
<use xlink:href="#path1_fill" transform="matrix(0.5 -0.866025 0.866025 0.5 1013.68 -2424.16)" fill="#FDFDFD"/>
</g>
</g>
<g id="Page 1 Copy 3">
<g id="Fill 1">
<use xlink:href="#path0_fill" transform="matrix(0.5 -0.866025 0.866025 0.5 989.743 -2438.01)" fill="#D0C6BA"/>
</g>
<g id="Fill 2">
<use xlink:href="#path2_fill" transform="matrix(0.5 -0.866025 0.866025 0.5 941.639 -2465.78)" fill="#F1EAE3"/>
</g>
<g id="Fill 3">
<use xlink:href="#path1_fill" transform="matrix(0.5 -0.866025 0.866025 0.5 965.635 -2507.34)" fill="#EADBCA"/>
</g>
</g>
<g id="Page 1 Copy 2">
<g id="Fill 1">
<use xlink:href="#path0_fill" transform="translate(917.896 -2452.02)" fill="#FCFCFC"/>
</g>
<g id="Fill 3">
<use xlink:href="#path1_fill" transform="translate(965.888 -2507.56)" fill="#EFEFEF"/>
</g>
</g>
<g id="Page 1 Copy 2">
<g id="Fill 1">
<use xlink:href="#path0_fill" transform="translate(965.776 -2368.95)" fill="#F3F3F3"/>
</g>
<g id="Fill 2">
<use xlink:href="#path2_fill" transform="translate(965.776 -2424.49)" fill="#EFEFEF"/>
</g>
<g id="Fill 3">
<use xlink:href="#path1_fill" transform="translate(1013.77 -2424.49)" fill="#FCFCFC"/>
</g>
</g>
<g id="Page 1 Copy 3">
<g id="Fill 1">
<use xlink:href="#path0_fill" transform="matrix(0.5 -0.866025 0.866025 0.5 941.743 -2354.87)" fill="#FCFCFC"/>
</g>
<g id="Fill 2">
<use xlink:href="#path2_fill" transform="matrix(0.5 -0.866025 0.866025 0.5 893.639 -2382.64)" fill="#F3F3F3"/>
</g>
<g id="Fill 3">
<use xlink:href="#path1_fill" transform="matrix(0.5 -0.866025 0.866025 0.5 917.635 -2424.21)" fill="#F3F3F3"/>
</g>
</g>
<g id="Page 1 Copy 2" opacity="0.428952">
<g id="Fill 1">
<use xlink:href="#path0_fill" transform="translate(1061.78 -2535.22)" fill="#908272"/>
</g>
<g id="Fill 2">
<use xlink:href="#path2_fill" transform="translate(1061.78 -2590.77)" fill="#D0C6BA"/>
</g>
</g>
<g id="Page 1 Copy 2">
<g id="Fill 2">
<use xlink:href="#path2_fill" transform="matrix(0.5 -0.866025 0.866025 0.5 1037.68 -2465.74)" fill="#D0C6BA"/>
</g>
<g id="Fill 3">
<use xlink:href="#path1_fill" transform="matrix(0.5 -0.866025 0.866025 0.5 1061.68 -2507.3)" fill="#E6D7CA"/>
</g>
</g>
<g id="Page 1 Copy 3" opacity="0.339334">
<g id="Fill 1">
<use xlink:href="#path0_fill" transform="matrix(0.5 -0.866025 0.866025 0.5 1037.74 -2521.15)" fill="#D7BEA6"/>
</g>
<g id="Fill 2">
<use xlink:href="#path2_fill" transform="matrix(0.5 -0.866025 0.866025 0.5 989.639 -2548.92)" fill="#B6A48D"/>
</g>
<g id="Fill 3">
<use xlink:href="#path1_fill" transform="matrix(0.5 -0.866025 0.866025 0.5 1013.63 -2590.48)" fill="#D0C6BA"/>
</g>
</g>
<g id="Page 1 Copy 2">
<g id="Fill 1">
<use xlink:href="#path0_fill" transform="translate(780.832 -2534.61)" fill="#EFEFEF"/>
</g>
<g id="Fill 2">
<use xlink:href="#path2_fill" transform="translate(780.832 -2590.16)" fill="#FDFDFD"/>
</g>
<g id="Fill 3">
<use xlink:href="#path1_fill" transform="translate(828.824 -2590.16)" fill="#F9F3EC"/>
</g>
</g>
<g id="Page 1 Copy 3">
<g id="Fill 1">
<use xlink:href="#path0_fill" transform="matrix(0.5 -0.866025 0.866025 0.5 756.298 -2519.67)" fill="#F1EAE3"/>
</g>
<g id="Fill 2">
<use xlink:href="#path2_fill" transform="matrix(0.5 -0.866025 0.866025 0.5 708.195 -2547.44)" fill="#F9F9F9"/>
</g>
<g id="Fill 3">
<use xlink:href="#path1_fill" transform="matrix(0.5 -0.866025 0.866025 0.5 732.191 -2589.01)" fill="#FCFCFC"/>
</g>
</g>
<g id="Page 1 Copy 2">
<g id="Fill 1">
<use xlink:href="#path0_fill" transform="translate(826.522 -2453.74)" fill="#EFEFEF"/>
</g>
<g id="Fill 2">
<use xlink:href="#path2_fill" transform="translate(826.523 -2509.29)" fill="#FDFDFD"/>
</g>
<g id="Fill 3">
<use xlink:href="#path1_fill" transform="translate(874.515 -2509.29)" fill="#F9F3EC"/>
</g>
</g>
<g id="Page 1 Copy 3">
<g id="Fill 1">
<use xlink:href="#path0_fill" transform="matrix(0.5 -0.866025 0.866025 0.5 897.943 -2437.42)" fill="#F1EAE3"/>
</g>
<g id="Fill 2">
<use xlink:href="#path2_fill" transform="matrix(0.5 -0.866025 0.866025 0.5 849.839 -2465.2)" fill="#F9F9F9"/>
</g>
<g id="Fill 3">
<use xlink:href="#path1_fill" transform="matrix(0.5 -0.866025 0.866025 0.5 873.835 -2506.76)" fill="#FCFCFC"/>
</g>
</g>
</g>
</g>
</g>
</g>
<defs>
<path id="path0_fill" fill-rule="evenodd" d="M 0 27.8084L 96.2551 27.8118L 48.1231 0L 0 27.8084Z"/>
<path id="path1_fill" fill-rule="evenodd" d="M 0.132232 0L 0.130779 55.5458L 48.2646 83.3544L 0.132232 0Z"/>
<path id="path2_fill" fill-rule="evenodd" d="M 48.1241 -3.97904e-13L 0 83.3544L 48.1227 55.5458L 48.1241 -3.97904e-13Z"/>
</defs>
</svg>
