<?xml version="1.0" encoding="UTF-8"?>
<svg width="68px" height="56px" viewBox="0 0 68 56" version="1.1" xmlns="http://www.w3.org/2000/svg" xmlns:xlink="http://www.w3.org/1999/xlink">
    <!-- Generator: Sketch 48.2 (47327) - http://www.bohemiancoding.com/sketch -->
    <title>BUSINESS ENQUIRIES</title>
    <desc>Created with Sketch.</desc>
    <defs></defs>
    <g id="COMMODITY/Contact-us-form/WEB" stroke="none" stroke-width="1" fill="none" fill-rule="evenodd" transform="translate(-685.000000, -417.000000)">
        <g id="//CONTACT-SECTION" transform="translate(235.000000, 416.000000)">
            <g id="CONTACT">
                <g id="BUSINESS-ENQUIRIES" transform="translate(351.000000, 1.000000)">
                    <g transform="translate(99.000000, 0.000000)" id="Group-3">
                        <g>
                            <g id="briefcase-2" transform="translate(28.585714, 12.566667)" fill="#5AADAA" fill-rule="nonzero">
                                <path d="M37.4434032,15.8962963 C36.9094604,15.8962963 36.5535496,16.2501438 36.5535496,16.7808011 L36.5535496,31.179743 C36.5535496,31.7104763 36.1975622,32.0642478 35.6636959,32.0642478 L3.62789425,32.0642478 C3.09395148,32.0642478 2.73804061,31.7104003 2.73804061,31.179743 L2.73804061,19.6808011 C2.73804061,19.1500678 2.38205327,18.7962963 1.84818697,18.7962963 C1.31432067,18.7962963 0.958333333,19.1501438 0.958333333,19.6808011 L0.958333333,31.179743 C0.958333333,32.6834619 2.11515836,33.8333333 3.62797073,33.8333333 L35.6636959,33.8333333 C37.1765083,33.8333333 38.3333333,32.6834619 38.3333333,31.179743 L38.3333333,16.7808011 C38.3333333,16.2500678 37.977346,15.8962963 37.4434032,15.8962963 Z" id="Shape"></path>
                                <path d="M36.6126964,6.5787037 L2.6789703,6.5787037 C1.16086922,6.5787037 0,7.67827323 0,9.11621097 L0,14.5295937 C0,15.7137008 0.892964518,16.7287328 2.05391048,16.9824908 L16.0738985,19.9429038 L16.0738985,22.6495588 C16.0738985,23.1570748 16.4311304,23.4953704 16.966863,23.4953704 L22.3248036,23.4953704 C22.860613,23.4953704 23.2177681,23.1570021 23.2177681,22.6495588 L23.2177681,19.9429038 L37.2377562,16.9824908 C38.3987021,16.7287328 39.2916667,15.7137008 39.2916667,14.529521 L39.2916667,9.11613828 C39.2916667,7.67827323 38.1307974,6.5787037 36.6126964,6.5787037 Z M21.4318391,21.8037473 L17.8599043,21.8037473 L17.8599043,18.4204285 L21.4318391,18.4204285 L21.4318391,21.8037473 Z M37.5056609,14.529521 C37.5056609,14.9524268 37.2377562,15.290795 36.7912739,15.3753326 L23.2177681,18.2512081 L23.2177681,17.5745443 C23.2177681,17.0670283 22.8605363,16.7287328 22.3248036,16.7287328 L16.966863,16.7287328 C16.4310536,16.7287328 16.0738985,17.067101 16.0738985,17.5745443 L16.0738985,18.2512081 L2.50039274,15.3754053 C2.05391048,15.290795 1.78600578,14.9524995 1.78600578,14.5295937 L1.78600578,9.11621097 C1.78600578,8.60869498 2.14323763,8.27039945 2.6789703,8.27039945 L36.6126964,8.27039945 C37.1485058,8.27039945 37.5056609,8.60876767 37.5056609,9.11621097 L37.5056609,14.529521 Z" id="Shape"></path>
                                <path d="M24.138156,0 L15.1536651,0 C13.6262924,0 12.4583333,0.977403531 12.4583333,2.2555814 L12.4583333,6.874087 C12.4583333,7.3252162 12.8177469,7.62592593 13.3567515,7.62592593 C13.8957561,7.62592593 14.2551697,7.32515159 14.2551697,6.874087 L14.2551697,2.2555814 C14.2551697,1.8044522 14.6145833,1.50374247 15.1535879,1.50374247 L24.1380787,1.50374247 C24.6771605,1.50374247 25.0364969,1.80451681 25.0364969,2.2555814 L25.0364969,6.874087 C25.0364969,7.3252162 25.3959105,7.62592593 25.9349151,7.62592593 C26.4739969,7.62592593 26.8333333,7.32515159 26.8333333,6.874087 L26.8333333,2.2555814 C26.8334878,0.977403531 25.6655287,0 24.138156,0 Z" id="Shape"></path>
                            </g>
                            <g id="cellphone" transform="translate(21.488621, 27.812302) rotate(-17.000000) translate(-21.488621, -27.812302) translate(6.702906, 3.162302)" stroke="#5AADAA">
                                <path d="M25.0219732,49.3 C25.0219732,49.3 29.5714286,49.3 29.5714286,44.8183686 L29.5714286,4.48163144 C29.5714286,0 25.0219732,0 25.0219732,0 L4.54945542,0 C4.54945542,0 0,0 0,4.48163144 L0,44.8183686 C0,49.3 4.54945542,49.3 4.54945542,49.3 L25.0219732,49.3 Z" id="Path" stroke-width="1.6" fill="#FBF9F7"></path>
                                <path d="M15.0739093,46.5095173 C13.8182826,46.5095173 12.7992132,45.5070839 12.7992132,44.272094 C12.7992132,43.0369796 13.8182826,42.0346708 15.0739093,42.0346708 C16.3295359,42.0346708 17.3486686,43.0370419 17.3486686,44.272094 C17.3486686,45.5071462 16.3295992,46.5095173 15.0739093,46.5095173 Z" id="Path" stroke-width="1.4"></path>
                                <path d="M9.09891083,2.73191717 C9.09891083,2.45448018 9.32414017,2.23742323 9.60164246,2.23742323 L19.9676344,2.23742323 C20.2451367,2.23742323 20.472581,2.45896199 20.472581,2.73191717 L20.472581,2.86394407 C20.472581,3.14362197 20.2473517,3.35843801 19.9699127,3.35843801 L9.60164246,3.35843801 C9.32641841,3.35843801 9.09891083,3.13689924 9.09891083,2.86394407 L9.09891083,2.73191717 Z" id="Path"></path>
                                <path d="M3.33375821,6.01666667 L26.2376704,6.01666667 L26.2376704,38.1394751 L3.33375821,38.1394751 L3.33375821,6.01666667 Z" id="Path" stroke-width="1.5" stroke-linecap="round" stroke-linejoin="round"></path>
                            </g>
                        </g>
                    </g>
                </g>
            </g>
        </g>
    </g>
</svg>