<?xml version="1.0" encoding="UTF-8"?>
<svg width="61px" height="58px" viewBox="0 0 61 58" version="1.1" xmlns="http://www.w3.org/2000/svg" xmlns:xlink="http://www.w3.org/1999/xlink">
    <!-- Generator: Sketch 48.2 (47327) - http://www.bohemiancoding.com/sketch -->
    <title>GENERAL ENQUIRIES</title>
    <desc>Created with Sketch.</desc>
    <defs></defs>
    <g id="COMMODITY/Contact-us-form/WEB" stroke="none" stroke-width="1" fill="none" fill-rule="evenodd" transform="translate(-334.000000, -417.000000)">
        <g id="//CONTACT-SECTION" transform="translate(235.000000, 416.000000)">
            <g id="CONTACT">
                <g id="GENERAL-ENQUIRIES" transform="translate(1.000000, 0.000000)">
                    <g transform="translate(97.000000, 0.000000)" id="email">
                        <g transform="translate(0.738383, 0.580179)">
                            <path d="M60.8148142,47.800642 C60.8148142,47.800642 60.8148142,31.8002542 60.8148142,26.4715157 C60.8148142,26.251847 60.5384567,25.9754895 60.2691854,25.769993 L54.6924338,21.7238364 L54.6924338,17.2525146 C54.6924338,16.8131771 54.3239572,16.5155614 53.9554806,16.5155614 L47.5992592,16.5155614 L44.3609168,14.1558939 C44.141248,14.0070861 43.7727714,14.0070861 43.5460166,14.1558939 L40.3076742,16.5155614 L33.9514528,16.5155614 C33.5121153,16.5155614 33.2144996,16.884038 33.2144996,17.2525146 L33.2144996,21.6742338 L27.5668871,25.777079 C27.2338409,25.9825756 27.0212583,26.251847 27.0212583,26.4786018 C27.0212583,31.8427708 27.0212583,47.9494499 27.0212583,47.9494499 C27.0212583,48.3675291 27.3543044,48.6580587 27.7015228,48.6864031 C27.7156949,48.6864031 38.5054457,48.6864031 60.0707749,48.6864031 C60.5455428,48.679317 60.8148142,48.3108404 60.8148142,47.800642 Z M59.4117687,27.7966143 L59.4117687,46.4755435 L47.2166104,36.7109136 L59.4117687,27.7966143 Z M58.8661399,26.4998601 L54.6924338,29.539792 L54.6924338,23.4315838 L58.8661399,26.4998601 Z M43.9215793,15.5518534 L45.2183335,16.5084753 L42.617739,16.5084753 L43.9215793,15.5518534 Z M53.2185274,17.9894678 L53.2185274,30.6168775 L43.9215793,37.3911781 L34.6246312,30.6168775 L34.6246312,17.9894678 L53.2185274,17.9894678 Z M28.4313899,27.7966143 L40.6265481,36.7109136 L28.4313899,46.5322322 L28.4313899,27.7966143 Z M33.2215857,29.5964807 L28.9415882,26.4786018 L33.2215857,23.367809 L33.2215857,29.5964807 Z M29.7564884,47.2762715 L41.8099249,37.5754164 L43.4751557,38.7942236 C43.7940297,39.0351506 44.0349567,39.0351506 44.3609168,38.7942236 L46.0261476,37.5754164 L58.1504449,47.2762715 L29.7564884,47.2762715 Z" id="Shape" stroke="#5AADAA" stroke-width="0.4" fill="#5AADAA" fill-rule="nonzero"></path>
                            <g id="cellphone" transform="translate(22.434051, 29.514259) rotate(-17.000000) translate(-22.434051, -29.514259) translate(7.434051, 4.014259)" stroke="#5AADAA">
                                <path d="M25.3846104,51 C25.3846104,51 30,51 30,46.3638295 L30,4.63617045 C30,0 25.3846104,0 25.3846104,0 L4.61538955,0 C4.61538955,0 0,0 0,4.63617045 L0,46.3638295 C0,51 4.61538955,51 4.61538955,51 L25.3846104,51 Z" id="Path" stroke-width="1.6" fill="#FBF9F7"></path>
                                <path d="M15.2923717,48.1132937 C14.0185476,48.1132937 12.984709,47.0762937 12.984709,45.798718 C12.984709,44.5210134 14.0185476,43.4841422 15.2923717,43.4841422 C16.5661959,43.4841422 17.6000986,44.5210778 17.6000986,45.798718 C17.6000986,47.0763581 16.5662601,48.1132937 15.2923717,48.1132937 Z" id="Path" stroke-width="1.4"></path>
                                <path d="M9.23077911,2.82612121 C9.23077911,2.53911742 9.45927264,2.31457576 9.7407967,2.31457576 L20.2570204,2.31457576 C20.5385445,2.31457576 20.7692851,2.54375379 20.7692851,2.82612121 L20.7692851,2.96270076 C20.7692851,3.25202273 20.5407916,3.47424621 20.2593317,3.47424621 L9.7407967,3.47424621 C9.4615839,3.47424621 9.23077911,3.24506818 9.23077911,2.96270076 L9.23077911,2.82612121 Z" id="Path"></path>
                                <path d="M3.39294311,6.25 L26.6070569,6.25 L26.6070569,39.4287674 L3.39294311,39.4287674 L3.39294311,6.25 Z" id="Path" stroke-width="1.5" stroke-linecap="round" stroke-linejoin="round"></path>
                            </g>
                            <rect id="Rectangle-path" fill="#5AADAA" fill-rule="nonzero" x="36" y="21.6033729" width="12.9385299" height="1.40304552" rx="0.701522759"></rect>
                            <rect id="Rectangle-path" fill="#5AADAA" fill-rule="nonzero" x="37" y="26.1030391" width="11.9385299" height="1.40304552" rx="0.701522759"></rect>
                            <rect id="Rectangle-path" fill="#5AADAA" fill-rule="nonzero" x="38" y="30.6027053" width="10.9385299" height="1.40304552" rx="0.701522759"></rect>
                        </g>
                    </g>
                </g>
            </g>
        </g>
    </g>
</svg>