<?xml version="1.0" encoding="UTF-8"?>
<svg width="69px" height="58px" viewBox="0 0 69 58" version="1.1" xmlns="http://www.w3.org/2000/svg" xmlns:xlink="http://www.w3.org/1999/xlink">
    <!-- Generator: Sketch 48.2 (47327) - http://www.bohemiancoding.com/sketch -->
    <title>media enquiries</title>
    <desc>Created with Sketch.</desc>
    <defs></defs>
    <g id="COMMODITY/Contact-us-form/WEB" stroke="none" stroke-width="1" fill="none" fill-rule="evenodd" transform="translate(-1039.000000, -417.000000)">
        <g id="//CONTACT-SECTION" transform="translate(235.000000, 416.000000)">
            <g id="CONTACT">
                <g id="MEDIA-ENQUIRIES" transform="translate(701.000000, 1.000000)">
                    <g id="media-enquiries" transform="translate(103.000000, 0.000000)">
                        <rect id="Rectangle" x="0" y="0" width="68" height="58"></rect>
                        <g id="Group-2" stroke-width="1" fill-rule="evenodd" stroke="#5AADAA">
                            <g id="internet" transform="translate(33.000000, 13.000000)" fill="#5AADAA" fill-rule="nonzero" stroke-width="0.4">
                                <path d="M30.5875862,29.0994828 C33.3296552,26.0092241 35,21.9468103 35,17.5 C35,12.8733621 33.192069,8.6637069 30.2496552,5.5312069 C30.2496552,5.5312069 30.2496552,5.53060345 30.2496552,5.53060345 C30.2472414,5.52698276 30.2436207,5.52577586 30.2418103,5.52275862 C27.1768966,2.26474138 22.8827586,0.179224138 18.1064655,0.0156896552 L18.1058621,0.0150862069 L17.7649138,0.00603448276 C17.6768103,0.00301724138 17.5887069,0 17.5,0 C17.4112931,0 17.3231897,0.00301724138 17.2350862,0.00603448276 L16.8953448,0.0150862069 L16.8947414,0.0156896552 C12.1184483,0.179224138 7.82431034,2.26474138 4.75939655,5.52275862 C4.75698276,5.52577586 4.75336207,5.52698276 4.75155172,5.53060345 C4.75155172,5.53060345 4.75155172,5.5312069 4.75094828,5.53181034 C1.80793103,8.6637069 0,12.8733621 0,17.5 C0,21.9468103 1.67034483,26.0092241 4.41241379,29.0994828 C4.41603448,29.1049138 4.41603448,29.1109483 4.42025862,29.1163793 C4.43112069,29.1314655 4.44681034,29.1387069 4.45827586,29.1525862 C7.53948276,32.597069 11.9603448,34.8159483 16.8941379,34.9849138 L16.8947414,34.9855172 L17.2344828,34.994569 C17.3231897,34.9969828 17.4112931,35 17.5,35 C17.5887069,35 17.6768103,34.9969828 17.7649138,34.9939655 L18.1046552,34.9849138 L18.1052586,34.9843103 C23.0444828,34.8147414 27.4701724,32.5916379 30.5513793,29.1399138 C30.5592241,29.1296552 30.5718966,29.1266379 30.5791379,29.1157759 C30.5839655,29.1109483 30.5839655,29.1049138 30.5875862,29.0994828 Z M1.22198276,18.1034483 L8.46517241,18.1034483 C8.53336207,20.6614655 9.03301724,23.147069 9.9225,25.4757759 C8.2062931,26.0967241 6.56551724,26.9294828 5.02793103,27.9686207 C2.76681034,25.2790517 1.35956897,21.8508621 1.22198276,18.1034483 Z M5.35741379,6.65181034 C6.8587931,7.62818966 8.45732759,8.41025862 10.1246552,8.99439655 C9.10362069,11.4727586 8.5387931,14.1448276 8.46517241,16.8965517 L1.22198276,16.8965517 C1.3662069,12.9699138 2.9037931,9.39448276 5.35741379,6.65181034 Z M33.7780172,16.8965517 L26.5348276,16.8965517 C26.4612069,14.1448276 25.8963793,11.4727586 24.8753448,8.99439655 C26.5426724,8.41025862 28.1412069,7.62818966 29.6425862,6.65181034 C32.0962069,9.39448276 33.6337931,12.9699138 33.7780172,16.8965517 Z M16.8965517,9.02939655 C15.1519828,8.97991379 13.4393966,8.71982759 11.7847414,8.25517241 C13.007931,5.74603448 14.735,3.4812931 16.8965517,1.59551724 L16.8965517,9.02939655 Z M16.8965517,10.2362931 L16.8965517,16.8965517 L9.67206897,16.8965517 C9.7462931,14.2727586 10.2966379,11.7280172 11.2808621,9.36853448 C13.0948276,9.89413793 14.9781897,10.185 16.8965517,10.2362931 Z M18.1034483,10.2362931 C20.0218103,10.185 21.9051724,9.89474138 23.7197414,9.36853448 C24.7039655,11.7280172 25.2543103,14.2727586 25.3285345,16.8965517 L18.1034483,16.8965517 L18.1034483,10.2362931 Z M18.1034483,9.02939655 L18.1034483,1.59551724 C20.265,3.4812931 21.992069,5.74603448 23.2152586,8.25517241 C21.5606034,8.71982759 19.8480172,8.97991379 18.1034483,9.02939655 Z M24.3847414,7.88827586 C23.2255172,5.45939655 21.6167241,3.24655172 19.6247414,1.34991379 C23.1585345,1.81215517 26.3381034,3.41008621 28.7868966,5.76594828 C27.3965517,6.64818966 25.9217241,7.35784483 24.3847414,7.88827586 Z M10.6152586,7.88827586 C9.07827586,7.35784483 7.60344828,6.64818966 6.2137069,5.76594828 C8.66189655,3.41008621 11.842069,1.81215517 15.3758621,1.34991379 C13.3832759,3.24655172 11.7744828,5.45939655 10.6152586,7.88827586 Z M9.67206897,18.1034483 L16.8965517,18.1034483 L16.8965517,24.1608621 C14.9009483,24.2139655 12.9457759,24.5253448 11.0666379,25.0907759 C10.2175862,22.8851724 9.74025862,20.5287069 9.67206897,18.1034483 Z M16.8965517,25.3677586 L16.8965517,33.4044828 C14.582931,31.3859483 12.7689655,28.9335345 11.5355172,26.2131897 C13.2656034,25.7032759 15.0626724,25.4196552 16.8965517,25.3677586 Z M18.1034483,33.4044828 L18.1034483,25.3677586 C19.9373276,25.4190517 21.7343966,25.7032759 23.4644828,26.2125862 C22.2310345,28.9335345 20.417069,31.3859483 18.1034483,33.4044828 Z M18.1034483,24.1608621 L18.1034483,18.1034483 L25.327931,18.1034483 C25.2597414,20.5287069 24.7824138,22.8851724 23.9327586,25.0913793 C22.0542241,24.5253448 20.0990517,24.2139655 18.1034483,24.1608621 Z M26.5348276,18.1034483 L33.7780172,18.1034483 C33.640431,21.8508621 32.2337931,25.2790517 29.972069,27.9686207 C28.4344828,26.9294828 26.7937069,26.0967241 25.0775,25.4757759 C25.9675862,23.147069 26.4666379,20.6614655 26.5348276,18.1034483 Z M5.84801724,28.8725862 C7.27577586,27.9239655 8.79586207,27.1612069 10.3841379,26.5909483 C11.5578448,29.2219828 13.2426724,31.6194828 15.3752586,33.6500862 C11.6634483,33.1643103 8.34146552,31.4263793 5.84801724,28.8725862 Z M19.6247414,33.6500862 C21.7573276,31.6200862 23.4421552,29.2225862 24.6158621,26.5909483 C26.2041379,27.1612069 27.7236207,27.9239655 29.1519828,28.8725862 C26.6585345,31.4263793 23.3365517,33.1643103 19.6247414,33.6500862 Z" id="Shape"></path>
                            </g>
                            <g id="cellphone" transform="translate(21.800050, 28.771347) rotate(-17.000000) translate(-21.800050, -28.771347) translate(6.800050, 3.271347)">
                                <path d="M25.3846104,51 C25.3846104,51 30,51 30,46.3638295 L30,4.63617045 C30,0 25.3846104,0 25.3846104,0 L4.61538955,0 C4.61538955,0 0,0 0,4.63617045 L0,46.3638295 C0,51 4.61538955,51 4.61538955,51 L25.3846104,51 Z" id="Path" stroke-width="1.6" fill="#FBF9F7"></path>
                                <path d="M15.2923717,48.1132937 C14.0185476,48.1132937 12.984709,47.0762937 12.984709,45.798718 C12.984709,44.5210134 14.0185476,43.4841422 15.2923717,43.4841422 C16.5661959,43.4841422 17.6000986,44.5210778 17.6000986,45.798718 C17.6000986,47.0763581 16.5662601,48.1132937 15.2923717,48.1132937 Z" id="Path" stroke-width="1.4"></path>
                                <path d="M9.23077911,2.82612121 C9.23077911,2.53911742 9.45927264,2.31457576 9.7407967,2.31457576 L20.2570204,2.31457576 C20.5385445,2.31457576 20.7692851,2.54375379 20.7692851,2.82612121 L20.7692851,2.96270076 C20.7692851,3.25202273 20.5407916,3.47424621 20.2593317,3.47424621 L9.7407967,3.47424621 C9.4615839,3.47424621 9.23077911,3.24506818 9.23077911,2.96270076 L9.23077911,2.82612121 Z" id="Path"></path>
                                <path d="M3.39294311,6.25 L26.6070569,6.25 L26.6070569,39.4287674 L3.39294311,39.4287674 L3.39294311,6.25 Z" id="Path" stroke-width="1.5" stroke-linecap="round" stroke-linejoin="round"></path>
                            </g>
                        </g>
                    </g>
                </g>
            </g>
        </g>
    </g>
</svg>