<?xml version="1.0" encoding="UTF-8"?>
<svg width="124px" height="42px" viewBox="0 0 124 42" version="1.1" xmlns="http://www.w3.org/2000/svg" xmlns:xlink="http://www.w3.org/1999/xlink">
    <!-- Generator: Sketch 48.2 (47327) - http://www.bohemiancoding.com/sketch -->
    <title>thank you</title>
    <desc>Created with Sketch.</desc>
    <defs>
        <rect id="path-1" x="4" y="3" width="26" height="34" rx="2"></rect>
    </defs>
    <g id="COMMODITY/Contact-us-form-Thank-you/WEB" stroke="none" stroke-width="1" fill="none" fill-rule="evenodd" transform="translate(-665.000000, -678.000000)">
        <g id="//CONTACT-SECTION" transform="translate(235.000000, 415.000000)">
            <g id="THANK-YOU-" transform="translate(300.000000, 212.000000)">
                <g id="thank-you" transform="translate(130.000000, 44.000000)">
                    <rect id="Rectangle-2" x="0" y="0" width="130" height="55"></rect>
                    <g id="Group-7" stroke-width="1" fill-rule="evenodd">
                        <path d="M39.7935559,39.756354 C39.7935559,39.756354 39.7935559,23.7559662 39.7935559,18.4272277 C39.7935559,18.2075589 39.5171985,17.9312015 39.2479271,17.7257049 L33.6711755,13.6795484 L26.5780009,8.47127336 L23.3396585,6.11160589 C23.1199898,5.96279804 22.7515132,5.96279804 22.5247583,6.11160589 L19.2864159,8.47127336 L12.1932413,13.6299458 L6.54562881,17.732791 C6.21258265,17.9382876 6,18.2075589 6,18.4343138 C6,23.7984827 6,39.9051618 6,39.9051618 C6,40.323241 6.33304616,40.6137707 6.68026449,40.642115 C6.69443667,40.642115 17.4841874,40.642115 39.0495166,40.642115 C39.5242846,40.6350289 39.7935559,40.2665523 39.7935559,39.756354 Z M38.3905104,19.7523262 L38.3905104,38.4312554 L26.1953522,28.6666255 L38.3905104,19.7523262 Z M7.41013161,19.7523262 L19.6801604,28.7263753 L7.37618085,38.7082956 L7.41013161,19.7523262 Z M22.8967675,29.4467689 L7.92032998,18.4343138 L22.8354033,7.56268985 L37.8744977,18.5933427 L22.8967675,29.4467689 Z M8.73523015,39.2319834 L20.7886666,29.5311283 L22.4538974,30.7499355 C22.7727714,30.9908625 23.0136984,30.9908625 23.3396585,30.7499355 L25.0048893,29.5311283 L37.1291867,39.2319834 L8.73523015,39.2319834 Z" id="Shape" stroke="#5AADAA" stroke-width="0.4" fill="#5AADAA" fill-rule="nonzero" transform="translate(22.896778, 23.321058) rotate(24.000000) translate(-22.896778, -23.321058) "></path>
                        <g id="Group-6" transform="translate(77.000000, 2.000000)">
                            <g id="Group-4" transform="translate(26.564027, 26.677841) rotate(-15.000000) translate(-26.564027, -26.677841) translate(5.064027, 5.677841)" fill="#5AADAA">
                                <rect id="Rectangle-Copy" transform="translate(21.571828, 20.763687) rotate(52.000000) translate(-21.571828, -20.763687) " x="8.57182788" y="3.76368692" width="26" height="34" rx="2"></rect>
                            </g>
                            <g id="Group-5" transform="translate(6.000000, 7.000000)">
                                <g id="Rectangle" transform="translate(17.000000, 20.000000) rotate(12.000000) translate(-17.000000, -20.000000) ">
                                    <use fill="#FFFFFF" fill-rule="evenodd" xlink:href="#path-1"></use>
                                    <rect stroke="#5AADAA" stroke-width="1.7" x="4.85" y="3.85" width="24.3" height="32.3" rx="2"></rect>
                                </g>
                                <g id="Group-3" transform="translate(17.102933, 20.186677) rotate(12.000000) translate(-17.102933, -20.186677) translate(7.102933, 13.186677)" fill="#5AADAA" fill-rule="nonzero">
                                    <path d="M1.40311062,-2.48689958e-13 L18.2984772,-2.49800181e-13 C18.6859176,-2.49871352e-13 19,0.314082438 19,0.701522759 L19,0.701522759 C19,1.08896308 18.6859176,1.40304552 18.2984772,1.40304552 L1.40311062,1.40304552 C1.0156703,1.40304552 0.701587866,1.08896308 0.701587866,0.701522759 L0.701587866,0.701522759 C0.701587866,0.314082438 1.0156703,-2.48618786e-13 1.40311062,-2.48689958e-13 Z" id="Rectangle-path"></path>
                                    <path d="M1.40311062,4 L14.6387948,4 C15.0262351,4 15.3403176,4.31408244 15.3403176,4.70152276 L15.3403176,4.70152276 C15.3403176,5.08896308 15.0262351,5.40304552 14.6387948,5.40304552 L1.40311062,5.40304552 C1.0156703,5.40304552 0.701587866,5.08896308 0.701587866,4.70152276 L0.701587866,4.70152276 C0.701587866,4.31408244 1.0156703,4 1.40311062,4 Z" id="Rectangle-path"></path>
                                    <path d="M1.40311062,12 L15.5537154,12 C15.9411557,12 16.2552382,12.3140824 16.2552382,12.7015228 L16.2552382,12.7015228 C16.2552382,13.0889631 15.9411557,13.4030455 15.5537154,13.4030455 L1.40311062,13.4030455 C1.0156703,13.4030455 0.701587866,13.0889631 0.701587866,12.7015228 L0.701587866,12.7015228 C0.701587866,12.3140824 1.0156703,12 1.40311062,12 Z" id="Rectangle-path-Copy-2"></path>
                                    <rect id="Rectangle-path-Copy" x="0.701587866" y="8" width="10.0078864" height="1.40304552" rx="0.701522759"></rect>
                                </g>
                            </g>
                        </g>
                        <path d="M44.7015228,28 L66.2370072,28 C66.6244475,28 66.9385299,28.3140824 66.9385299,28.7015228 L66.9385299,28.7015228 C66.9385299,29.0889631 66.6244475,29.4030455 66.2370072,29.4030455 L44.7015228,29.4030455 C44.3140824,29.4030455 44,29.0889631 44,28.7015228 L44,28.7015228 C44,28.3140824 44.3140824,28 44.7015228,28 Z" id="Rectangle-path" fill="#5AADAA" fill-rule="nonzero"></path>
                        <path d="M41.7015228,32.4996662 L58.2370072,32.4996662 C58.6244475,32.4996662 58.9385299,32.8137486 58.9385299,33.2011889 L58.9385299,33.2011889 C58.9385299,33.5886293 58.6244475,33.9027117 58.2370072,33.9027117 L41.7015228,33.9027117 C41.3140824,33.9027117 41,33.5886293 41,33.2011889 L41,33.2011889 C41,32.8137486 41.3140824,32.4996662 41.7015228,32.4996662 Z" id="Rectangle-path" fill="#5AADAA" fill-rule="nonzero"></path>
                        <rect id="Rectangle-path" fill="#5AADAA" fill-rule="nonzero" x="38" y="36.9993324" width="10.9385299" height="1.40304552" rx="0.701522759"></rect>
                    </g>
                </g>
            </g>
        </g>
    </g>
</svg>