<?xml version="1.0" encoding="UTF-8"?>
<svg width="865px" height="916px" viewBox="0 0 865 916" version="1.1" xmlns="http://www.w3.org/2000/svg" xmlns:xlink="http://www.w3.org/1999/xlink">
    <!-- Generator: Sketch 48.2 (47327) - http://www.bohemiancoding.com/sketch -->
    <title>BG</title>
    <desc>Created with Sketch.</desc>
    <defs></defs>
    <g id="BG/header" stroke="none" stroke-width="1" fill="none" fill-rule="evenodd" transform="translate(1.000000, 2.000000)">
        <g id="BG" transform="translate(430.956708, 436.960330) rotate(-5.000000) translate(-430.956708, -436.960330) translate(4.456708, -72.539670)">
            <g id="Page-1-Copy" transform="translate(295.055473, 245.545221) rotate(-55.000000) translate(-295.055473, -245.545221) translate(246.555473, 203.045221)">
                <polygon id="Fill-1" fill="#CDB093" opacity="0.684216486" points="0.00452597296 84.2559473 96.2595879 84.2593862 48.1276257 56.4475781"></polygon>
                <polygon id="Fill-2" fill="#D0C6BA" points="48.1290788 0.901776741 0.00496474429 84.2562006 48.1276257 56.4475781"></polygon>
                <polygon id="Fill-3" fill="#EADBCA" points="48.1290788 0.901776741 48.1276257 56.4475781 96.2614271 84.2562006"></polygon>
            </g>
            <g id="Page-1-Copy-2" opacity="0.592561141" transform="translate(199.192824, 237.154497) rotate(-55.000000) translate(-199.192824, -237.154497) translate(150.692824, 194.654497)">
                <polygon id="Fill-1" fill="#CDB093" opacity="0.789175725" points="0.00452597296 84.2559473 96.2595879 84.2593862 48.1276257 56.4475781"></polygon>
                <polygon id="Fill-2" fill="#B59E88" opacity="0.569633152" points="48.1290788 0.901776741 0.00496474429 84.2562006 48.1276257 56.4475781"></polygon>
                <polygon id="Fill-3" fill="#EADBCA" points="48.1290788 0.901776741 48.1276257 56.4475781 96.2614271 84.2562006"></polygon>
            </g>
            <g id="Page-1-Copy-3" opacity="0.331408514" transform="translate(147.707547, 274.759756) rotate(-115.000000) translate(-147.707547, -274.759756) translate(99.207547, 232.259756)">
                <polygon id="Fill-1" fill="#92CEBC" points="0.72249367 84.0931159 96.9775556 84.0965548 48.8455934 56.2847466"></polygon>
                <polygon id="Fill-2" fill="#81C3B2" points="48.8470465 0.738945316 0.722932442 84.0933692 48.8455934 56.2847466"></polygon>
                <polygon id="Fill-3" fill="#A3D9C9" points="48.8470465 0.738945316 48.8455934 56.2847466 96.9793948 84.0933692"></polygon>
            </g>
            <g id="Page-1-Copy-3" opacity="0.218070652" transform="translate(65.711961, 101.204734) rotate(-115.000000) translate(-65.711961, -101.204734) translate(17.211961, 58.704734)">
                <polygon id="Fill-1" fill="#74C0AD" points="0.72249367 84.0931159 96.9775556 84.0965548 48.8455934 56.2847466"></polygon>
                <polygon id="Fill-2" fill="#80E1C6" points="48.8470465 0.738945316 0.722932442 84.0933692 48.8455934 56.2847466"></polygon>
                <polygon id="Fill-3" fill="#C3F1E5" points="48.8470465 0.738945316 48.8455934 56.2847466 96.9793948 84.0933692"></polygon>
            </g>
            <g id="Page-1-Copy-3" opacity="0.430140399" transform="translate(107.291574, 188.159526) rotate(-115.000000) translate(-107.291574, -188.159526) translate(58.791574, 145.659526)">
                <polygon id="Fill-1" fill="#9FDDCA" points="0.72249367 84.0931159 96.9775556 84.0965548 48.8455934 56.2847466"></polygon>
                <polygon id="Fill-2" fill="#96D1C2" opacity="0.731317935" points="48.8470465 0.738945316 0.722932442 84.0933692 48.8455934 56.2847466"></polygon>
                <polygon id="Fill-3" fill="#C2E9DF" points="48.8470465 0.738945316 48.8455934 56.2847466 96.9793948 84.0933692"></polygon>
            </g>
            <g id="Group-21" opacity="0.667912138" transform="translate(201.776591, 196.455596) rotate(-115.000000) translate(-201.776591, -196.455596) translate(153.276591, 153.955596)">
                <polygon id="Fill-2" fill="#B59E88" opacity="0.603317482" points="48.7630534 1.53575134 0.638939341 84.8901752 48.7616003 57.0815526"></polygon>
                <polygon id="Fill-1" fill="#E5C8AB" opacity="0.561537591" points="0.535898385 83.5427597 96.7909603 83.5461986 48.6589981 55.7343905"></polygon>
                <polygon id="Fill-3" fill="#D0C6BA" opacity="0.745187953" points="48.6285473 0.970208711 48.6270942 56.51601 96.7608956 84.3246326"></polygon>
            </g>
            <g id="Group-20" transform="translate(335.538303, 332.695867) rotate(-25.000000) translate(-335.538303, -332.695867) translate(272.538303, 272.195867)">
                <polygon id="Fill-1" fill="#DFCEBB" transform="translate(76.845307, 84.670592) rotate(-30.000000) translate(-76.845307, -84.670592) " points="28.7177759 98.5730568 124.972838 98.5764957 76.8408756 70.7646875"></polygon>
                <polygon id="Fill-2" fill="#B49D82" opacity="0.636096014" transform="translate(42.117128, 72.649692) rotate(-30.000000) translate(-42.117128, -72.649692) " points="66.1791854 30.9724803 18.0550713 114.326904 66.1777323 86.5182817"></polygon>
                <polygon id="Fill-3" fill="#D0C6BA" transform="translate(83.796770, 48.585940) rotate(-30.000000) translate(-83.796770, -48.585940) " points="59.7313224 6.90872805 59.7298693 62.4545294 107.863671 90.263152"></polygon>
            </g>
            <g id="Page-1-Copy-2" transform="translate(283.679887, 369.942941) rotate(-115.000000) translate(-283.679887, -369.942941) translate(235.179887, 327.442941)">
                <polygon id="Fill-1" fill="#A59480" opacity="0.403589221" points="0.00452597296 84.2559473 96.2595879 84.2593862 48.1276257 56.4475781"></polygon>
                <polygon id="Fill-2" fill="#BFAC96" opacity="0.671818388" points="48.1290788 0.901776741 0.00496474429 84.2562006 48.1276257 56.4475781"></polygon>
                <polygon id="Fill-3" fill="#EEE1D3" points="48.1290788 0.901776741 48.1276257 56.4475781 96.2614271 84.2562006"></polygon>
            </g>
            <g id="Page-1-Copy-2" opacity="0.706634964" transform="translate(431.205376, 340.898539) rotate(-55.000000) translate(-431.205376, -340.898539) translate(382.705376, 298.398539)">
                <polygon id="Fill-1" fill="#7D7061" points="0.00452597296 84.2559473 96.2595879 84.2593862 48.1276257 56.4475781"></polygon>
                <polygon id="Fill-2" fill="#A59480" points="48.1290788 0.901776741 0.00496474429 84.2562006 48.1276257 56.4475781"></polygon>
                <polygon id="Fill-3" fill="#BFAC96" points="48.1290788 0.901776741 48.1276257 56.4475781 96.2614271 84.2562006"></polygon>
            </g>
            <g id="Page-1-Copy-2" opacity="0.482733243" transform="translate(475.121086, 386.681434) rotate(-115.000000) translate(-475.121086, -386.681434) translate(426.621086, 344.181434)">
                <polygon id="Fill-1" fill="#52A8A3" points="0.00452597296 84.2559473 96.2595879 84.2593862 48.1276257 56.4475781"></polygon>
                <polygon id="Fill-2" fill="#477261" points="48.1290788 0.901776741 0.00496474429 84.2562006 48.1276257 56.4475781"></polygon>
                <polygon id="Fill-3" fill="#70917C" points="48.1290788 0.901776741 48.1276257 56.4475781 96.2614271 84.2562006"></polygon>
            </g>
            <g id="Page-1-Copy-3" transform="translate(379.424478, 378.327230) rotate(-115.000000) translate(-379.424478, -378.327230) translate(330.924478, 335.827230)">
                <polygon id="Fill-1" fill="#7D7061" opacity="0.797950634" points="0.00452597296 84.2559473 96.2595879 84.2593862 48.1276257 56.4475781"></polygon>
                <polygon id="Fill-2" fill="#A0B1AA" points="48.1290788 0.901776741 0.00496474429 84.2562006 48.1276257 56.4475781"></polygon>
                <polygon id="Fill-3" fill="#A59480" opacity="0.619904891" points="48.1290788 0.901776741 48.1276257 56.4475781 96.2614271 84.2562006"></polygon>
            </g>
            <g id="Group-19" opacity="0.66796875" transform="translate(376.109656, 419.701415) rotate(-25.000000) translate(-376.109656, -419.701415) translate(313.109656, 359.201415)">
                <polygon id="Fill-1" fill="#225754" transform="translate(76.845307, 84.670592) rotate(-30.000000) translate(-76.845307, -84.670592) " points="28.7177759 98.5730568 124.972838 98.5764957 76.8408756 70.7646875"></polygon>
                <polygon id="Fill-2" fill="#337779" transform="translate(42.117128, 72.649692) rotate(-30.000000) translate(-42.117128, -72.649692) " points="66.1791854 30.9724803 18.0550713 114.326904 66.1777323 86.5182817"></polygon>
                <polygon id="Fill-3" fill="#225754" transform="translate(83.796770, 48.585940) rotate(-30.000000) translate(-83.796770, -48.585940) " points="59.7313224 6.90872805 59.7298693 62.4545294 107.863671 90.263152"></polygon>
            </g>
            <g id="Page-1-Copy-2" opacity="0.81080163" transform="translate(324.251241, 456.948488) rotate(-115.000000) translate(-324.251241, -456.948488) translate(275.751241, 414.448488)">
                <polygon id="Fill-1" fill="#2F5A55" opacity="0.782325634" points="0.00452597296 84.2559473 96.2595879 84.2593862 48.1276257 56.4475781"></polygon>
                <polygon id="Fill-2" fill="#4F9A97" points="48.1290788 0.901776741 0.00496474429 84.2562006 48.1276257 56.4475781"></polygon>
                <polygon id="Fill-3" fill="#A7BBB3" points="48.1290788 0.901776741 48.1276257 56.4475781 96.2614271 84.2562006"></polygon>
            </g>
            <g id="Page-1-Copy-2" opacity="0.78294837" transform="translate(280.758283, 411.053170) rotate(-55.000000) translate(-280.758283, -411.053170) translate(232.258283, 368.553170)">
                <polygon id="Fill-1" fill="#D2BFA7" points="0.00452597296 84.2559473 96.2595879 84.2593862 48.1276257 56.4475781"></polygon>
                <polygon id="Fill-2" fill="#E6D7CA" points="48.1290788 0.901776741 0.00496474429 84.2562006 48.1276257 56.4475781"></polygon>
                <polygon id="Fill-3" fill="#EADFD0" points="48.1290788 0.901776741 48.1276257 56.4475781 96.2614271 84.2562006"></polygon>
            </g>
            <g id="Page-1-Copy-2" opacity="0.441179801" transform="translate(228.742018, 448.523030) rotate(-115.000000) translate(-228.742018, -448.523030) translate(180.242018, 406.023030)">
                <polygon id="Fill-1" fill="#A59480" opacity="0.668761322" points="0.00452597296 84.2559473 96.2595879 84.2593862 48.1276257 56.4475781"></polygon>
                <polygon id="Fill-2" fill="#BFAC96" opacity="0.49439538" points="48.1290788 0.901776741 0.00496474429 84.2562006 48.1276257 56.4475781"></polygon>
                <polygon id="Fill-3" fill="#F6F1EB" points="48.1290788 0.901776741 48.1276257 56.4475781 96.2614271 84.2562006"></polygon>
            </g>
            <g id="Page-1-Copy-2" opacity="0.673290308" transform="translate(321.329636, 498.058718) rotate(-55.000000) translate(-321.329636, -498.058718) translate(272.829636, 455.558718)">
                <polygon id="Fill-1" fill="#326A69" points="0.00452597296 84.2559473 96.2595879 84.2593862 48.1276257 56.4475781"></polygon>
                <polygon id="Fill-2" fill="#53A9A4" points="48.1290788 0.901776741 0.00496474429 84.2562006 48.1276257 56.4475781"></polygon>
                <polygon id="Fill-3" fill="#316968" points="48.1290788 0.901776741 48.1276257 56.4475781 96.2614271 84.2562006"></polygon>
            </g>
            <g id="Page-1-Copy-2" opacity="0.706748188" transform="translate(269.313371, 535.528578) rotate(-115.000000) translate(-269.313371, -535.528578) translate(220.813371, 493.028578)">
                <polygon id="Fill-1" fill="#77D0C0" points="0.00452597296 84.2559473 96.2595879 84.2593862 48.1276257 56.4475781"></polygon>
                <polygon id="Fill-2" fill="#6FCCBA" opacity="0.728543931" points="48.1290788 0.901776741 0.00496474429 84.2562006 48.1276257 56.4475781"></polygon>
                <polygon id="Fill-3" fill="#78E6D1" opacity="0.719712409" points="48.1290788 0.901776741 48.1276257 56.4475781 96.2614271 84.2562006"></polygon>
            </g>
            <g id="Page-1-Copy-2" opacity="0.677932518" transform="translate(471.776729, 427.904086) rotate(-55.000000) translate(-471.776729, -427.904086) translate(423.276729, 385.404086)">
                <polygon id="Fill-1" fill="#2F6457" points="0.00452597296 84.2559473 96.2595879 84.2593862 48.1276257 56.4475781"></polygon>
                <polygon id="Fill-2" fill="#357C7C" points="48.1290788 0.901776741 0.00496474429 84.2562006 48.1276257 56.4475781"></polygon>
                <polygon id="Fill-3" fill="#266165" points="48.1290788 0.901776741 48.1276257 56.4475781 96.2614271 84.2562006"></polygon>
            </g>
            <g id="Page-1-Copy-2" opacity="0.600486866" transform="translate(515.692439, 473.686982) rotate(-115.000000) translate(-515.692439, -473.686982) translate(467.192439, 431.186982)">
                <polygon id="Fill-1" fill="#87C2B4" points="0.00452597296 84.2559473 96.2595879 84.2593862 48.1276257 56.4475781"></polygon>
                <polygon id="Fill-2" fill="#266165" points="48.1290788 0.901776741 0.00496474429 84.2562006 48.1276257 56.4475781"></polygon>
                <polygon id="Fill-3" fill="#357C7C" points="48.1290788 0.901776741 48.1276257 56.4475781 96.2614271 84.2562006"></polygon>
            </g>
            <g id="Page-1-Copy-2" transform="translate(590.222209, 452.389685) rotate(-55.000000) translate(-590.222209, -452.389685) translate(541.722209, 437.889685)" fill="#FDFDFD">
                <polygon id="Fill-1" points="0.00452597296 28.2559473 96.2595879 28.2593862 48.1276257 0.447578051"></polygon>
            </g>
            <g id="Page-1-Copy-3" opacity="0.853487319" transform="translate(419.995831, 465.332778) rotate(-115.000000) translate(-419.995831, -465.332778) translate(371.495831, 422.832778)">
                <polygon id="Fill-1" fill="#408B8E" points="0.00452597296 84.2559473 96.2595879 84.2593862 48.1276257 56.4475781"></polygon>
                <polygon id="Fill-2" fill="#2F6457" opacity="0.780853714" points="48.1290788 0.901776741 0.00496474429 84.2562006 48.1276257 56.4475781"></polygon>
                <polygon id="Fill-3" fill="#224F4C" opacity="0.847712862" points="48.1290788 0.901776741 48.1276257 56.4475781 96.2614271 84.2562006"></polygon>
            </g>
            <g id="Group-18" opacity="0.85546875" transform="translate(416.258391, 505.800654) rotate(-25.000000) translate(-416.258391, -505.800654) translate(353.258391, 445.300654)">
                <polygon id="Fill-1" fill="#27666D" transform="translate(76.845307, 84.670592) rotate(-30.000000) translate(-76.845307, -84.670592) " points="28.7177759 98.5730568 124.972838 98.5764957 76.8408756 70.7646875"></polygon>
                <polygon id="Fill-2" fill="#2F6D73" transform="translate(42.117128, 72.649692) rotate(-30.000000) translate(-42.117128, -72.649692) " points="66.1791854 30.9724803 18.0550713 114.326904 66.1777323 86.5182817"></polygon>
                <polygon id="Fill-3" fill="#276364" transform="translate(83.796770, 48.585940) rotate(-30.000000) translate(-83.796770, -48.585940) " points="59.7313224 6.90872805 59.7298693 62.4545294 107.863671 90.263152"></polygon>
            </g>
            <g id="Page-1-Copy-2" transform="translate(364.399975, 543.047728) rotate(-115.000000) translate(-364.399975, -543.047728) translate(315.899975, 500.547728)">
                <polygon id="Fill-1" fill="#2B676F" points="0.00452597296 84.2559473 96.2595879 84.2593862 48.1276257 56.4475781"></polygon>
                <polygon id="Fill-2" fill="#408B8E" points="48.1290788 0.901776741 0.00496474429 84.2562006 48.1276257 56.4475781"></polygon>
                <polygon id="Fill-3" fill="#3B8488" points="48.1290788 0.901776741 48.1276257 56.4475781 96.2614271 84.2562006"></polygon>
            </g>
            <g id="Page-1-Copy-2" opacity="0.766474185" transform="translate(511.925464, 514.003326) rotate(-55.000000) translate(-511.925464, -514.003326) translate(463.425464, 471.503326)">
                <polygon id="Fill-1" fill="#66AF9E" points="0.00452597296 84.2559473 96.2595879 84.2593862 48.1276257 56.4475781"></polygon>
                <polygon id="Fill-2" fill="#337778" points="48.1290788 0.901776741 0.00496474429 84.2562006 48.1276257 56.4475781"></polygon>
                <polygon id="Fill-3" fill="#42918D" points="48.1290788 0.901776741 48.1276257 56.4475781 96.2614271 84.2562006"></polygon>
            </g>
            <g id="Page-1-Copy-3" opacity="0.82642663" transform="translate(460.144566, 551.432018) rotate(-115.000000) translate(-460.144566, -551.432018) translate(411.644566, 508.932018)">
                <polygon id="Fill-1" fill="#266165" opacity="0.91576087" points="0.00452597296 84.2559473 96.2595879 84.2593862 48.1276257 56.4475781"></polygon>
                <polygon id="Fill-2" fill="#357C7C" points="48.1290788 0.901776741 0.00496474429 84.2562006 48.1276257 56.4475781"></polygon>
                <polygon id="Fill-3" fill="#35797C" points="48.1290788 0.901776741 48.1276257 56.4475781 96.2614271 84.2562006"></polygon>
            </g>
            <g id="Page-1-Copy-3" opacity="0.804800725" transform="translate(500.715919, 638.437565) rotate(-115.000000) translate(-500.715919, -638.437565) translate(452.215919, 595.937565)">
                <polygon id="Fill-1" fill="#28656B" points="0.00452597296 84.2559473 96.2595879 84.2593862 48.1276257 56.4475781"></polygon>
                <polygon id="Fill-2" fill="#28676E" points="48.1290788 0.901776741 0.00496474429 84.2562006 48.1276257 56.4475781"></polygon>
                <polygon id="Fill-3" fill="#347D84" points="48.1290788 0.901776741 48.1276257 56.4475781 96.2614271 84.2562006"></polygon>
            </g>
            <g id="Page-1-Copy-2" opacity="0.517663043" transform="translate(243.108534, 282.937393) rotate(-115.000000) translate(-243.108534, -282.937393) translate(194.608534, 240.437393)">
                <polygon id="Fill-1" fill="#CDB093" points="0.00452597296 84.2559473 96.2595879 84.2593862 48.1276257 56.4475781"></polygon>
                <polygon id="Fill-2" fill="#B59E88" points="48.1290788 0.901776741 0.00496474429 84.2562006 48.1276257 56.4475781"></polygon>
                <polygon id="Fill-3" fill="#D0C6BA" points="48.1290788 0.901776741 48.1276257 56.4475781 96.2614271 84.2562006"></polygon>
            </g>
            <g id="Page-1-Copy" opacity="0.484148551" transform="translate(472.730838, 281.943364) rotate(-55.000000) translate(-472.730838, -281.943364) translate(448.230838, 239.443364)" fill="#EADBCA">
                <polygon id="Fill-2" points="48.1290788 0.901776741 0.00496474429 84.2562006 48.1276257 56.4475781"></polygon>
            </g>
            <g id="Page-1-Copy-2" opacity="0.768002717" transform="translate(390.634022, 253.892991) rotate(-55.000000) translate(-390.634022, -253.892991) translate(342.134022, 211.392991)">
                <polygon id="Fill-1" fill="#A59480" points="0.00452597296 84.2559473 96.2595879 84.2593862 48.1276257 56.4475781"></polygon>
                <polygon id="Fill-2" fill="#D0C6BA" points="48.1290788 0.901776741 0.00496474429 84.2562006 48.1276257 56.4475781"></polygon>
                <polygon id="Fill-3" fill="#CDB093" points="48.1290788 0.901776741 48.1276257 56.4475781 96.2614271 84.2562006"></polygon>
            </g>
            <g id="Page-1-Copy-2" opacity="0.699105525" transform="translate(434.549733, 299.675887) rotate(-115.000000) translate(-434.549733, -299.675887) translate(386.049733, 257.175887)">
                <polygon id="Fill-1" fill="#D0C6BA" points="0.00452597296 84.2559473 96.2595879 84.2593862 48.1276257 56.4475781"></polygon>
                <polygon id="Fill-2" fill="#A59480" points="48.1290788 0.901776741 0.00496474429 84.2562006 48.1276257 56.4475781"></polygon>
                <polygon id="Fill-3" fill="#EADBCA" points="48.1290788 0.901776741 48.1276257 56.4475781 96.2614271 84.2562006"></polygon>
            </g>
            <g id="Page-1-Copy-3" transform="translate(338.853124, 291.321683) rotate(-115.000000) translate(-338.853124, -291.321683) translate(290.353124, 248.821683)">
                <polygon id="Fill-1" fill="#CDB093" opacity="0.679008152" points="0.00452597296 84.2559473 96.2595879 84.2593862 48.1276257 56.4475781"></polygon>
                <polygon id="Fill-2" fill="#EADBCA" points="48.1290788 0.901776741 0.00496474429 84.2562006 48.1276257 56.4475781"></polygon>
                <polygon id="Fill-3" fill="#D0C6BA" points="48.1290788 0.901776741 48.1276257 56.4475781 96.2614271 84.2562006"></polygon>
            </g>
            <g id="Page-1-Copy-2" transform="translate(306.253713, 663.147623) rotate(-55.000000) translate(-306.253713, -663.147623) translate(257.253713, 620.647623)">
                <polygon id="Fill-2" fill="#64C9B7" opacity="0.624773551" points="49.1517921 0.480068494 0.904388865 84.1828749 49.1276257 56.4475781"></polygon>
                <polygon id="Fill-3" fill="#388188" opacity="0.589560688" points="49.1290788 0.901776741 49.1276257 56.4475781 97.2614271 84.2562006"></polygon>
                <polygon id="Fill-1" fill="#5C9896" opacity="0.644927536" points="0.907741953 84.1656056 97.0775722 84.1686152 49.1230997 56"></polygon>
            </g>
            <g id="Page-1-Copy-2" transform="translate(233.445534, 670.763967) rotate(-55.000000) translate(-233.445534, -670.763967) translate(184.945534, 656.263967)" fill="#A3D9C9" opacity="0.412194293">
                <polygon id="Fill-1" points="0.407741953 28.2995802 96.5775722 28.3025898 48.6230997 0.133974596"></polygon>
            </g>
            <g id="Page-1-Copy-2" transform="translate(265.583138, 577.276182) rotate(-55.000000) translate(-265.583138, -577.276182) translate(216.583138, 534.776182)">
                <polygon id="Fill-2" fill="#92D8CB" opacity="0.437330163" points="49.1517921 0.480068494 0.904388865 84.1828749 49.1276257 56.4475781"></polygon>
                <polygon id="Fill-3" fill="#BEEBE4" points="49.1290788 0.901776741 49.1276257 56.4475781 97.2614271 84.2562006"></polygon>
                <polygon id="Fill-1" fill="#B1E2DF" points="0.907741953 84.1656056 97.0775722 84.1686152 49.1230997 56"></polygon>
            </g>
            <g id="Page-1-Copy-2" transform="translate(254.524236, 700.207907) rotate(-115.000000) translate(-254.524236, -700.207907) translate(206.024236, 657.707907)">
                <polygon id="Fill-1" fill="#AFE4D2" points="0.00452597296 84.2559473 96.2595879 84.2593862 48.1276257 56.4475781"></polygon>
                <polygon id="Fill-2" fill="#BBEAD6" opacity="0.658344656" points="48.1290788 0.901776741 0.00496474429 84.2562006 48.1276257 56.4475781"></polygon>
                <polygon id="Fill-3" fill="#B1F5E3" opacity="0.547044837" points="48.1290788 0.901776741 48.1276257 56.4475781 96.2614271 84.2562006"></polygon>
            </g>
            <g id="Page-1-Copy" transform="translate(497.912374, 679.554229) rotate(-55.000000) translate(-497.912374, -679.554229) translate(449.412374, 637.054229)">
                <polygon id="Fill-1" fill="#419091" points="0.00452597296 84.2559473 96.2595879 84.2593862 48.1276257 56.4475781"></polygon>
                <polygon id="Fill-2" fill="#69B6B3" points="48.1290788 0.901776741 0.00496474429 84.2562006 48.1276257 56.4475781"></polygon>
                <polygon id="Fill-3" fill="#58A9A4" points="48.1290788 0.901776741 48.1276257 56.4475781 96.2614271 84.2562006"></polygon>
            </g>
            <g id="Page-1-Copy-2" transform="translate(402.049724, 671.163505) rotate(-55.000000) translate(-402.049724, -671.163505) translate(353.549724, 628.663505)">
                <polygon id="Fill-1" fill="#5C9896" points="0.00452597296 84.2559473 96.2595879 84.2593862 48.1276257 56.4475781"></polygon>
                <polygon id="Fill-2" fill="#3D7A81" points="48.1290788 0.901776741 0.00496474429 84.2562006 48.1276257 56.4475781"></polygon>
                <polygon id="Fill-3" fill="#699B9E" points="48.1290788 0.901776741 48.1276257 56.4475781 96.2614271 84.2562006"></polygon>
            </g>
            <g id="Page-1-Copy-2" transform="translate(445.965435, 716.946401) rotate(-115.000000) translate(-445.965435, -716.946401) translate(397.465435, 674.446401)">
                <polygon id="Fill-1" fill="#58A8A3" points="0.00452597296 84.2559473 96.2595879 84.2593862 48.1276257 56.4475781"></polygon>
                <polygon id="Fill-2" fill="#67B0AC" points="48.1290788 0.901776741 0.00496474429 84.2562006 48.1276257 56.4475781"></polygon>
                <polygon id="Fill-3" fill="#569493" points="48.1290788 0.901776741 48.1276257 56.4475781 96.2614271 84.2562006"></polygon>
            </g>
            <g id="Page-1-Copy-3" transform="translate(350.268826, 708.592197) rotate(-115.000000) translate(-350.268826, -708.592197) translate(301.768826, 666.092197)">
                <polygon id="Fill-1" fill="#4B8F93" points="0.00452597296 84.2559473 96.2595879 84.2593862 48.1276257 56.4475781"></polygon>
                <polygon id="Fill-2" fill="#99CDC4" points="48.1290788 0.901776741 0.00496474429 84.2562006 48.1276257 56.4475781"></polygon>
                <polygon id="Fill-3" fill="#7EC6B5" points="48.1290788 0.901776741 48.1276257 56.4475781 96.2614271 84.2562006"></polygon>
            </g>
            <g id="Page-1-Copy-2" transform="translate(347.111854, 749.743595) rotate(-55.000000) translate(-347.111854, -749.743595) translate(298.611854, 707.243595)">
                <polygon id="Fill-1" fill="#B1F5E3" points="0.00452597296 84.2559473 96.2595879 84.2593862 48.1276257 56.4475781"></polygon>
                <polygon id="Fill-2" fill="#98DDC9" opacity="0.615149457" points="48.1290788 0.901776741 0.00496474429 84.2562006 48.1276257 56.4475781"></polygon>
                <polygon id="Fill-3" fill="#7FC6B6" points="48.1290788 0.901776741 48.1276257 56.4475781 96.2614271 84.2562006"></polygon>
            </g>
            <g id="Page-1-Copy-2" transform="translate(251.477163, 741.376643) rotate(-55.000000) translate(-251.477163, -741.376643) translate(202.977163, 698.876643)">
                <polygon id="Fill-1" fill="#B1F5E3" opacity="0.428555254" points="0.00452597296 84.2559473 96.2595879 84.2593862 48.1276257 56.4475781"></polygon>
                <polygon id="Fill-3" fill="#7FC6B6" opacity="0.402060688" points="48.1290788 0.901776741 48.1276257 56.4475781 96.2614271 84.2562006"></polygon>
            </g>
            <g id="Page-1-Copy-2" transform="translate(295.095589, 787.213455) rotate(-115.000000) translate(-295.095589, -787.213455) translate(246.595589, 744.713455)">
                <polygon id="Fill-1" fill="#ACE5D6" opacity="0.60229846" points="0.00452597296 84.2559473 96.2595879 84.2593862 48.1276257 56.4475781"></polygon>
                <polygon id="Fill-3" fill="#8CCFBC" opacity="0.315443841" points="48.1290788 0.901776741 48.1276257 56.4475781 96.2614271 84.2562006"></polygon>
            </g>
            <g id="Page-1-Copy-3" transform="translate(390.840179, 795.597744) rotate(-115.000000) translate(-390.840179, -795.597744) translate(342.340179, 753.097744)">
                <polygon id="Fill-1" fill="#A4E6D4" points="0.00452597296 84.2559473 96.2595879 84.2593862 48.1276257 56.4475781"></polygon>
                <polygon id="Fill-2" fill="#9ED7C8" opacity="0.479619565" points="48.1290788 0.901776741 0.00496474429 84.2562006 48.1276257 56.4475781"></polygon>
                <polygon id="Fill-3" fill="#A3D9C9" opacity="0.770437047" points="48.1290788 0.901776741 48.1276257 56.4475781 96.2614271 84.2562006"></polygon>
            </g>
            <g id="Page-1-Copy-3" transform="translate(214.773378, 616.571262) rotate(-115.000000) translate(-214.773378, -616.571262) translate(166.273378, 574.071262)">
                <polygon id="Fill-1" fill="#A4E6D4" opacity="0.404381793" points="0.00452597296 84.2559473 96.2595879 84.2593862 48.1276257 56.4475781"></polygon>
                <polygon id="Fill-2" fill="#9ED7C8" opacity="0.19678442" points="48.1290788 0.901776741 0.00496474429 84.2562006 48.1276257 56.4475781"></polygon>
                <polygon id="Fill-3" fill="#A3D9C9" opacity="0.293251812" points="48.1290788 0.901776741 48.1276257 56.4475781 96.2614271 84.2562006"></polygon>
            </g>
            <g id="Page-1-Copy" opacity="0.83740942" transform="translate(457.341020, 592.548681) rotate(-55.000000) translate(-457.341020, -592.548681) translate(408.841020, 550.048681)">
                <polygon id="Fill-1" fill="#4B95A3" points="0.00452597296 84.2559473 96.2595879 84.2593862 48.1276257 56.4475781"></polygon>
                <polygon id="Fill-2" fill="#428895" points="48.1290788 0.901776741 0.00496474429 84.2562006 48.1276257 56.4475781"></polygon>
                <polygon id="Fill-3" fill="#2D6D76" points="48.1290788 0.901776741 48.1276257 56.4475781 96.2614271 84.2562006"></polygon>
            </g>
            <g id="Page-1-Copy-2" transform="translate(361.478371, 584.157958) rotate(-55.000000) translate(-361.478371, -584.157958) translate(312.978371, 541.657958)">
                <polygon id="Fill-1" fill="#2C6D72" points="0.00452597296 84.2559473 96.2595879 84.2593862 48.1276257 56.4475781"></polygon>
                <polygon id="Fill-2" fill="#28656A" opacity="0.762398098" points="48.1290788 0.901776741 0.00496474429 84.2562006 48.1276257 56.4475781"></polygon>
                <polygon id="Fill-3" fill="#307781" points="48.1290788 0.901776741 48.1276257 56.4475781 96.2614271 84.2562006"></polygon>
            </g>
            <g id="Page-1-Copy-2" transform="translate(405.394082, 629.940853) rotate(-115.000000) translate(-405.394082, -629.940853) translate(356.894082, 587.440853)">
                <polygon id="Fill-1" fill="#33767F" points="0.00452597296 84.2559473 96.2595879 84.2593862 48.1276257 56.4475781"></polygon>
                <polygon id="Fill-2" fill="#418089" points="48.1290788 0.901776741 0.00496474429 84.2562006 48.1276257 56.4475781"></polygon>
                <polygon id="Fill-3" fill="#48898F" points="48.1290788 0.901776741 48.1276257 56.4475781 96.2614271 84.2562006"></polygon>
            </g>
            <g id="Page-1-Copy-3" opacity="0.903419384" transform="translate(309.697473, 621.586649) rotate(-115.000000) translate(-309.697473, -621.586649) translate(261.197473, 579.086649)">
                <polygon id="Fill-1" fill="#53A9A4" points="0.00452597296 84.2559473 96.2595879 84.2593862 48.1276257 56.4475781"></polygon>
                <polygon id="Fill-2" fill="#438D96" opacity="0.709692029" points="48.1290788 0.901776741 0.00496474429 84.2562006 48.1276257 56.4475781"></polygon>
                <polygon id="Fill-3" fill="#589495" opacity="0.961956522" points="48.1290788 0.901776741 48.1276257 56.4475781 96.2614271 84.2562006"></polygon>
            </g>
            <g id="Page-1-Copy-6" transform="translate(298.249325, 204.246554) rotate(-115.000000) translate(-298.249325, -204.246554) translate(249.749325, 161.746554)">
                <polygon id="Fill-1" fill="#E5C8AB" opacity="0.349977355" points="0.00452597296 84.2559473 96.2595879 84.2593862 48.1276257 56.4475781"></polygon>
                <polygon id="Fill-2" fill="#CDB093" opacity="0.583050272" points="48.1290788 0.901776741 0.00496474429 84.2562006 48.1276257 56.4475781"></polygon>
            </g>
            <g id="Page-1-Copy" opacity="0.729619565" transform="translate(442.373216, 758.644877) scale(-1, 1) rotate(55.000000) translate(-442.373216, -758.644877) translate(393.873216, 716.144877)">
                <polygon id="Fill-1" fill="#66A6A5" points="0.00452597296 84.2559473 96.2595879 84.2593862 48.1276257 56.4475781"></polygon>
                <polygon id="Fill-2" fill="#699B9E" points="48.1290788 0.901776741 0.00496474429 84.2562006 48.1276257 56.4475781"></polygon>
                <polygon id="Fill-3" fill="#3D7A81" points="48.1290788 0.901776741 48.1276257 56.4475781 96.2614271 84.2562006"></polygon>
            </g>
            <g id="Page-1-Copy-2" transform="translate(537.871459, 768.099739) scale(-1, 1) rotate(55.000000) translate(-537.871459, -768.099739) translate(489.371459, 725.599739)">
                <polygon id="Fill-1" fill="#5C9896" points="0.00452597296 84.2559473 96.2595879 84.2593862 48.1276257 56.4475781"></polygon>
                <polygon id="Fill-2" fill="#699B9E" points="48.1290788 0.901776741 0.00496474429 84.2562006 48.1276257 56.4475781"></polygon>
                <polygon id="Fill-3" fill="#4B8F93" points="48.1290788 0.901776741 48.1276257 56.4475781 96.2614271 84.2562006"></polygon>
            </g>
            <g id="Page-1-Copy-2" transform="translate(555.290999, 706.404992) scale(-1, 1) rotate(-5.000000) translate(-555.290999, -706.404992) translate(506.790999, 663.904992)">
                <polygon id="Fill-1" fill="#33767F" points="0.00452597296 84.2559473 96.2595879 84.2593862 48.1276257 56.4475781"></polygon>
                <polygon id="Fill-2" fill="#428895" points="48.1290788 0.901776741 0.00496474429 84.2562006 48.1276257 56.4475781"></polygon>
                <polygon id="Fill-3" fill="#2D6D76" points="48.1290788 0.901776741 48.1276257 56.4475781 96.2614271 84.2562006"></polygon>
            </g>
            <g id="Page-1-Copy" transform="translate(632.892371, 922.519354) scale(-1, 1) rotate(55.000000) translate(-632.892371, -922.519354) translate(608.392371, 880.019354)" fill="#ACE5D6" opacity="0.440500453">
                <polygon id="Fill-2" points="48.1290788 0.901776741 0.00496474429 84.2562006 48.1276257 56.4475781"></polygon>
            </g>
            <g id="Page-1-Copy-2" opacity="0.682914402" transform="translate(578.454878, 854.967375) scale(-1, 1) rotate(55.000000) translate(-578.454878, -854.967375) translate(529.954878, 812.467375)">
                <polygon id="Fill-1" fill="#C1CFCA" points="0.00452597296 84.2559473 96.2595879 84.2593862 48.1276257 56.4475781"></polygon>
                <polygon id="Fill-2" fill="#699B9E" opacity="0.774003623" points="48.1290788 0.901776741 0.00496474429 84.2562006 48.1276257 56.4475781"></polygon>
                <polygon id="Fill-3" fill="#4B8F93" points="48.1290788 0.901776741 48.1276257 56.4475781 96.2614271 84.2562006"></polygon>
            </g>
            <g id="Page-1-Copy-2" opacity="0.799365942" transform="translate(636.496785, 880.575972) scale(-1, 1) rotate(-5.000000) translate(-636.496785, -880.575972) translate(587.996785, 838.075972)">
                <polygon id="Fill-1" fill="#CCD5A9" opacity="0.46654212" points="0.00452597296 84.2559473 96.2595879 84.2593862 48.1276257 56.4475781"></polygon>
                <polygon id="Fill-2" fill="#D0C6BA" points="48.1290788 0.901776741 0.00496474429 84.2562006 48.1276257 56.4475781"></polygon>
                <polygon id="Fill-3" fill="#DAD9CB" opacity="0.778702446" points="48.1290788 0.901776741 48.1276257 56.4475781 96.2614271 84.2562006"></polygon>
            </g>
            <g id="Page-1-Copy-3" opacity="0.706012228" transform="translate(595.916233, 793.507881) scale(-1, 1) rotate(-5.000000) translate(-595.916233, -793.507881) translate(547.416233, 751.007881)">
                <polygon id="Fill-1" fill="#5D8776" points="0.00452597296 84.2559473 96.2595879 84.2593862 48.1276257 56.4475781"></polygon>
                <polygon id="Fill-2" fill="#A7BBB3" points="48.1290788 0.901776741 0.00496474429 84.2562006 48.1276257 56.4475781"></polygon>
                <polygon id="Fill-3" fill="#38868E" points="48.1290788 0.901776741 48.1276257 56.4475781 96.2614271 84.2562006"></polygon>
            </g>
            <g id="Group-17" opacity="0.625396286" transform="translate(633.661513, 776.242163) scale(-1, 1) rotate(85.000000) translate(-633.661513, -776.242163) translate(570.661513, 715.742163)">
                <polygon id="Fill-1" fill="#BBCAC0" opacity="0.784759964" transform="translate(76.845307, 84.670592) rotate(-30.000000) translate(-76.845307, -84.670592) " points="28.7177759 98.5730568 124.972838 98.5764957 76.8408756 70.7646875"></polygon>
                <polygon id="Fill-2" fill="#DBDAD5" opacity="0.884737319" transform="translate(42.117128, 72.649692) rotate(-30.000000) translate(-42.117128, -72.649692) " points="66.1791854 30.9724803 18.0550713 114.326904 66.1777323 86.5182817"></polygon>
                <polygon id="Fill-3" fill="#A7BBB3" transform="translate(83.796770, 48.585940) rotate(-30.000000) translate(-83.796770, -48.585940) " points="59.7313224 6.90872805 59.7298693 62.4545294 107.863671 90.263152"></polygon>
            </g>
            <g id="Page-1-Copy-2" opacity="0.801573822" transform="translate(650.925690, 714.771943) scale(-1, 1) rotate(-5.000000) translate(-650.925690, -714.771943) translate(602.425690, 672.271943)">
                <polygon id="Fill-1" fill="#C9CBC9" opacity="0.846127717" points="0.00452597296 84.2559473 96.2595879 84.2593862 48.1276257 56.4475781"></polygon>
                <polygon id="Fill-2" fill="#D6DCD8" opacity="0.664685236" points="48.1290788 0.901776741 0.00496474429 84.2562006 48.1276257 56.4475781"></polygon>
                <polygon id="Fill-3" fill="#D0DBD3" points="48.1290788 0.901776741 48.1276257 56.4475781 96.2614271 84.2562006"></polygon>
            </g>
            <g id="Page-1-Copy-2" transform="translate(592.922731, 689.599055) scale(-1, 1) rotate(55.000000) translate(-592.922731, -689.599055) translate(544.422731, 647.099055)">
                <polygon id="Fill-1" fill="#C5D2C9" points="0.00452597296 84.2559473 96.2595879 84.2593862 48.1276257 56.4475781"></polygon>
                <polygon id="Fill-2" fill="#B7BFBC" points="48.1290788 0.901776741 0.00496474429 84.2562006 48.1276257 56.4475781"></polygon>
                <polygon id="Fill-3" fill="#A0B1AA" points="48.1290788 0.901776741 48.1276257 56.4475781 96.2614271 84.2562006"></polygon>
            </g>
            <g id="Page-1-Copy-2" transform="translate(610.342272, 627.904308) scale(-1, 1) rotate(-5.000000) translate(-610.342272, -627.904308) translate(561.842272, 585.404308)">
                <polygon id="Fill-1" fill="#A0B1AA" points="0.00452597296 84.2559473 96.2595879 84.2593862 48.1276257 56.4475781"></polygon>
                <polygon id="Fill-2" fill="#A7BBB3" opacity="0.441349638" points="48.1290788 0.901776741 0.00496474429 84.2562006 48.1276257 56.4475781"></polygon>
                <polygon id="Fill-3" fill="#BBCAC0" opacity="0.860337409" points="48.1290788 0.901776741 48.1276257 56.4475781 96.2614271 84.2562006"></polygon>
            </g>
            <g id="Page-1-Copy-2" opacity="0.689990942" transform="translate(688.557422, 697.966006) scale(-1, 1) rotate(55.000000) translate(-688.557422, -697.966006) translate(640.057422, 655.466006)">
                <polygon id="Fill-1" fill="#BFAC96" points="0.00452597296 84.2559473 96.2595879 84.2593862 48.1276257 56.4475781"></polygon>
                <polygon id="Fill-2" fill="#EADBCA" points="48.1290788 0.901776741 0.00496474429 84.2562006 48.1276257 56.4475781"></polygon>
                <polygon id="Fill-3" fill="#EBEFDF" points="48.1290788 0.901776741 48.1276257 56.4475781 96.2614271 84.2562006"></polygon>
            </g>
            <g id="Page-1-Copy-2" opacity="0.684273098" transform="translate(703.536602, 664.164710) scale(-1, 1) rotate(-5.000000) translate(-703.536602, -664.164710) translate(655.036602, 649.664710)" fill="#DFCEBB">
                <polygon id="Fill-1" points="0.00452597296 28.2559473 96.2595879 28.2593862 48.1276257 0.447578051"></polygon>
            </g>
            <g id="Page-1-Copy-2" opacity="0.602694746" transform="translate(674.089569, 863.334326) scale(-1, 1) rotate(55.000000) translate(-674.089569, -863.334326) translate(625.589569, 820.834326)">
                <polygon id="Fill-1" fill="#F1E6D8" points="0.00452597296 84.2559473 96.2595879 84.2593862 48.1276257 56.4475781"></polygon>
                <polygon id="Fill-2" fill="#B8A692" points="48.1290788 0.901776741 0.00496474429 84.2562006 48.1276257 56.4475781"></polygon>
                <polygon id="Fill-3" fill="#BFAC96" points="48.1290788 0.901776741 48.1276257 56.4475781 96.2614271 84.2562006"></polygon>
            </g>
            <g id="Page-1-Copy-2" transform="translate(732.131476, 888.942923) scale(-1, 1) rotate(-5.000000) translate(-732.131476, -888.942923) translate(683.631476, 846.442923)">
                <polygon id="Fill-1" fill="#E2D0BB" points="0.00452597296 84.2559473 96.2595879 84.2593862 48.1276257 56.4475781"></polygon>
                <polygon id="Fill-2" fill="#D2BFA7" points="48.1290788 0.901776741 0.00496474429 84.2562006 48.1276257 56.4475781"></polygon>
                <polygon id="Fill-3" fill="#EADFD0" points="48.1290788 0.901776741 48.1276257 56.4475781 96.2614271 84.2562006"></polygon>
            </g>
            <g id="Page-1-Copy-2" opacity="0.285609149" transform="translate(714.672988, 950.201962) scale(-1, 1) rotate(55.000000) translate(-714.672988, -950.201962) translate(666.172988, 907.701962)">
                <polygon id="Fill-1" fill="#B1F5E3" points="0.00452597296 84.2559473 96.2595879 84.2593862 48.1276257 56.4475781"></polygon>
                <polygon id="Fill-2" fill="#A3D9C9" points="48.1290788 0.901776741 0.00496474429 84.2562006 48.1276257 56.4475781"></polygon>
                <polygon id="Fill-3" fill="#7FC6B6" points="48.1290788 0.901776741 48.1276257 56.4475781 96.2614271 84.2562006"></polygon>
            </g>
            <g id="Page-1-Copy-2" transform="translate(748.806222, 973.718821) scale(-1, 1) rotate(-5.000000) translate(-748.806222, -973.718821) translate(724.306222, 931.218821)" fill="#8CCFBC" opacity="0.325124547">
                <polygon id="Fill-3" points="0.129078796 0.901776741 0.1276257 56.4475781 48.2614271 84.2562006"></polygon>
            </g>
            <g id="Page-1-Copy-2" transform="translate(700.068499, 968.629863) scale(-1, 1) rotate(-5.000000) translate(-700.068499, -968.629863) translate(675.568499, 926.129863)" fill="#9FD8C9" opacity="0.199445199">
                <polygon id="Fill-2" points="48.1290788 0.901776741 0.00496474429 84.2562006 48.1276257 56.4475781"></polygon>
            </g>
            <g id="Page-1-Copy-3" transform="translate(691.550924, 801.874832) scale(-1, 1) rotate(-5.000000) translate(-691.550924, -801.874832) translate(643.050924, 759.374832)">
                <polygon id="Fill-1" fill="#EADFD0" points="0.00452597296 84.2559473 96.2595879 84.2593862 48.1276257 56.4475781"></polygon>
                <polygon id="Fill-2" fill="#E6D7CA" points="48.1290788 0.901776741 0.00496474429 84.2562006 48.1276257 56.4475781"></polygon>
                <polygon id="Fill-3" fill="#D0CEBA" points="48.1290788 0.901776741 48.1276257 56.4475781 96.2614271 84.2562006"></polygon>
            </g>
            <g id="Page-1-Copy-2" opacity="0.590919384" transform="translate(728.144646, 784.746486) scale(-1, 1) rotate(55.000000) translate(-728.144646, -784.746486) translate(679.644646, 742.246486)">
                <polygon id="Fill-1" fill="#D2BFA7" points="0.00452597296 84.2559473 96.2595879 84.2593862 48.1276257 56.4475781"></polygon>
                <polygon id="Fill-2" fill="#A59480" points="48.1290788 0.901776741 0.00496474429 84.2562006 48.1276257 56.4475781"></polygon>
                <polygon id="Fill-3" fill="#DFCDBD" points="48.1290788 0.901776741 48.1276257 56.4475781 96.2614271 84.2562006"></polygon>
            </g>
            <g id="Page-1-Copy-2" opacity="0.851392663" transform="translate(745.564187, 723.051739) scale(-1, 1) rotate(-5.000000) translate(-745.564187, -723.051739) translate(697.064187, 680.551739)">
                <polygon id="Fill-1" fill="#D2C9A7" points="0.00452597296 84.2559473 96.2595879 84.2593862 48.1276257 56.4475781"></polygon>
                <polygon id="Fill-2" fill="#EADFD0" points="48.1290788 0.901776741 0.00496474429 84.2562006 48.1276257 56.4475781"></polygon>
                <polygon id="Fill-3" fill="#E6D7CA" points="48.1290788 0.901776741 48.1276257 56.4475781 96.2614271 84.2562006"></polygon>
            </g>
            <g id="Page-1-Copy-2" transform="translate(768.728065, 871.614122) scale(-1, 1) rotate(55.000000) translate(-768.728065, -871.614122) translate(720.228065, 829.114122)">
                <polygon id="Fill-2" fill="#E1CCBA" points="48.1290788 0.901776741 0.00496474429 84.2562006 48.1276257 56.4475781"></polygon>
                <polygon id="Fill-3" fill="#E6D7CA" points="48.1290788 0.901776741 48.1276257 56.4475781 96.2614271 84.2562006"></polygon>
            </g>
            <g id="Page-1-Copy-3" transform="translate(786.189420, 810.154628) scale(-1, 1) rotate(-5.000000) translate(-786.189420, -810.154628) translate(737.689420, 767.654628)">
                <polygon id="Fill-1" fill="#E6D7CA" points="0.00452597296 84.2559473 96.2595879 84.2593862 48.1276257 56.4475781"></polygon>
                <polygon id="Fill-3" fill="#D0C6BA" points="48.1290788 0.901776741 48.1276257 56.4475781 96.2614271 84.2562006"></polygon>
            </g>
            <g id="Page-1-Copy" opacity="0.699558424" transform="translate(523.491845, 933.812052) scale(-1, 1) rotate(55.000000) translate(-523.491845, -933.812052) translate(474.991845, 891.312052)">
                <polygon id="Fill-2" fill="#AFE4D2" opacity="0.699615036" points="48.1290788 0.901776741 0.00496474429 84.2562006 48.1276257 56.4475781"></polygon>
                <polygon id="Fill-3" fill="#A0DFCF" opacity="0.310575181" points="48.1290788 0.901776741 48.1276257 56.4475781 96.2614271 84.2562006"></polygon>
            </g>
            <g id="Page-1-Copy-2" transform="translate(482.907343, 845.604229) scale(-1, 1) rotate(55.000000) translate(-482.907343, -845.604229) translate(434.407343, 803.104229)">
                <polygon id="Fill-1" fill="#A7E5D5" opacity="0.622282609" points="0.00452597296 84.2559473 96.2595879 84.2593862 48.1276257 56.4475781"></polygon>
                <polygon id="Fill-2" fill="#ACE5D6" points="48.1290788 0.901776741 0.00496474429 84.2562006 48.1276257 56.4475781"></polygon>
                <polygon id="Fill-3" fill="#9FD8C9" opacity="0.60620471" points="48.1290788 0.901776741 48.1276257 56.4475781 96.2614271 84.2562006"></polygon>
            </g>
            <g id="Page-1-Copy-2" transform="translate(540.862094, 872.209020) scale(-1, 1) rotate(-5.000000) translate(-540.862094, -872.209020) translate(492.362094, 829.709020)">
                <polygon id="Fill-1" fill="#96CEC3" opacity="0.664911685" points="0.00452597296 84.2559473 96.2595879 84.2593862 48.1276257 56.4475781"></polygon>
                <polygon id="Fill-2" fill="#B1E2CF" points="48.1290788 0.901776741 0.00496474429 84.2562006 48.1276257 56.4475781"></polygon>
                <polygon id="Fill-3" fill="#A3D9C9" opacity="0.522588315" points="48.1290788 0.901776741 48.1276257 56.4475781 96.2614271 84.2562006"></polygon>
            </g>
            <g id="Page-1-Copy-2" opacity="0.218523551" transform="translate(468.314192, 863.854262) scale(-1, 1) rotate(-5.000000) translate(-468.314192, -863.854262) translate(443.814192, 821.354262)" fill="#B1E2CF">
                <polygon id="Fill-2" points="48.1290788 0.901776741 0.00496474429 84.2562006 48.1276257 56.4475781"></polygon>
            </g>
            <g id="Page-1-Copy-3" opacity="0.699388587" transform="translate(500.368698, 784.144735) scale(-1, 1) rotate(-5.000000) translate(-500.368698, -784.144735) translate(451.868698, 741.644735)">
                <polygon id="Fill-1" fill="#67B0AC" points="0.00452597296 84.2559473 96.2595879 84.2593862 48.1276257 56.4475781"></polygon>
                <polygon id="Fill-2" fill="#58A8A3" points="48.1290788 0.901776741 0.00496474429 84.2562006 48.1276257 56.4475781"></polygon>
                <polygon id="Fill-3" fill="#569493" points="48.1290788 0.901776741 48.1276257 56.4475781 96.2614271 84.2562006"></polygon>
            </g>
            <g id="Page-1-Copy-2" opacity="0.42895154" transform="translate(783.195918, 706.245802) scale(-1, 1) rotate(55.000000) translate(-783.195918, -706.245802) translate(734.695918, 663.745802)">
                <polygon id="Fill-2" fill="#D0C6BA" points="48.1290788 0.901776741 0.00496474429 84.2562006 48.1276257 56.4475781"></polygon>
                <polygon id="Fill-3" fill="#BFAC96" points="48.1290788 0.901776741 48.1276257 56.4475781 96.2614271 84.2562006"></polygon>
            </g>
            <g id="Page-1-Copy-3" opacity="0.339334239" transform="translate(800.657274, 644.786308) scale(-1, 1) rotate(-5.000000) translate(-800.657274, -644.786308) translate(752.157274, 602.286308)">
                <polygon id="Fill-1" fill="#D7BEA6" points="0.00452597296 84.2559473 96.2595879 84.2593862 48.1276257 56.4475781"></polygon>
                <polygon id="Fill-3" fill="#D0C6BA" points="48.1290788 0.901776741 48.1276257 56.4475781 96.2614271 84.2562006"></polygon>
            </g>
            <g id="Page-1-Copy-2" opacity="0.942991395" transform="translate(552.339312, 602.731420) scale(-1, 1) rotate(55.000000) translate(-552.339312, -602.731420) translate(503.839312, 560.231420)">
                <polygon id="Fill-1" fill="#419091" opacity="0.75537817" points="0.00452597296 84.2559473 96.2595879 84.2593862 48.1276257 56.4475781"></polygon>
                <polygon id="Fill-2" fill="#58A9A4" points="48.1290788 0.901776741 0.00496474429 84.2562006 48.1276257 56.4475781"></polygon>
                <polygon id="Fill-3" fill="#69B6B3" points="48.1290788 0.901776741 48.1276257 56.4475781 96.2614271 84.2562006"></polygon>
            </g>
            <g id="Page-1-Copy-3" transform="translate(568.804473, 541.184770) scale(-1, 1) rotate(-5.000000) translate(-568.804473, -541.184770) translate(520.304473, 498.684770)">
                <polygon id="Fill-1" fill="#98D7C6" points="0.00452597296 84.2559473 96.2595879 84.2593862 48.1276257 56.4475781"></polygon>
                <polygon id="Fill-2" fill="#96CEC3" opacity="0.603713768" points="48.1290788 0.901776741 0.00496474429 84.2562006 48.1276257 56.4475781"></polygon>
                <polygon id="Fill-3" fill="#99CAB7" points="48.1290788 0.901776741 48.1276257 56.4475781 96.2614271 84.2562006"></polygon>
            </g>
            <g id="Page-1-Copy-2" opacity="0.459635417" transform="translate(606.394390, 524.143580) scale(-1, 1) rotate(55.000000) translate(-606.394390, -524.143580) translate(557.894390, 481.643580)">
                <polygon id="Fill-1" fill="#B1E2CF" points="0.00452597296 84.2559473 96.2595879 84.2593862 48.1276257 56.4475781"></polygon>
                <polygon id="Fill-2" fill="#98D5C5" points="48.1290788 0.901776741 0.00496474429 84.2562006 48.1276257 56.4475781"></polygon>
                <polygon id="Fill-3" fill="#B2E3CE" points="48.1290788 0.901776741 48.1276257 56.4475781 96.2614271 84.2562006"></polygon>
            </g>
            <g id="Page-1-Copy-2" opacity="0.262115036" transform="translate(661.358506, 446.639090) scale(-1, 1) rotate(55.000000) translate(-661.358506, -446.639090) translate(612.858506, 404.139090)">
                <polygon id="Fill-2" fill="#98D5C5" points="48.1290788 0.901776741 0.00496474429 84.2562006 48.1276257 56.4475781"></polygon>
                <polygon id="Fill-3" fill="#B2E3CE" points="48.1290788 0.901776741 48.1276257 56.4475781 96.2614271 84.2562006"></polygon>
            </g>
            <g id="Page-1-Copy-3" opacity="0.271399457" transform="translate(623.855745, 462.684085) scale(-1, 1) rotate(-5.000000) translate(-623.855745, -462.684085) translate(575.355745, 420.184085)">
                <polygon id="Fill-1" fill="#7FCDBD" points="0.00452597296 84.2559473 96.2595879 84.2593862 48.1276257 56.4475781"></polygon>
                <polygon id="Fill-2" fill="#97D7C6" points="48.1290788 0.901776741 0.00496474429 84.2562006 48.1276257 56.4475781"></polygon>
                <polygon id="Fill-3" fill="#B0E0D0" points="48.1290788 0.901776741 48.1276257 56.4475781 96.2614271 84.2562006"></polygon>
            </g>
            <g id="Page-1-Copy-3" transform="translate(638.236443, 298.311960) scale(-1, 1) rotate(-5.000000) translate(-638.236443, -298.311960) translate(589.736443, 255.811960)">
                <polygon id="Fill-1" fill="#B4EDE1" opacity="0.522475091" points="0.00452597296 84.2559473 96.2595879 84.2593862 48.1276257 56.4475781"></polygon>
                <polygon id="Fill-2" fill="#97D7C6" opacity="0.445652174" points="48.1290788 0.901776741 0.00496474429 84.2562006 48.1276257 56.4475781"></polygon>
                <polygon id="Fill-3" fill="#C7E8DD" opacity="0.700803895" points="48.1290788 0.901776741 48.1276257 56.4475781 96.2614271 84.2562006"></polygon>
            </g>
            <g id="Page-1-Copy-3" opacity="0.929461051" transform="translate(89.420320, 249.292951) scale(-1, 1) rotate(-5.000000) translate(-89.420320, -249.292951) translate(64.920320, 206.792951)" fill="#E5F3ED">
                <polygon id="Fill-2" opacity="0.407155797" points="48.1290788 0.901776741 0.00496474429 84.2562006 48.1276257 56.4475781"></polygon>
            </g>
            <g id="Page-1-Copy-3" transform="translate(583.272326, 375.816450) scale(-1, 1) rotate(-5.000000) translate(-583.272326, -375.816450) translate(534.772326, 333.316450)">
                <polygon id="Fill-1" fill="#7CD8C5" opacity="0.462522645" points="0.00452597296 84.2559473 96.2595879 84.2593862 48.1276257 56.4475781"></polygon>
                <polygon id="Fill-2" fill="#ACDACE" opacity="0.405570652" points="48.1290788 0.901776741 0.00496474429 84.2562006 48.1276257 56.4475781"></polygon>
                <polygon id="Fill-3" fill="#B0E0D0" opacity="0.618829257" points="48.1290788 0.901776741 48.1276257 56.4475781 96.2614271 84.2562006"></polygon>
            </g>
            <g id="Page-1-Copy-2" opacity="0.518625453" transform="translate(566.807166, 437.363100) scale(-1, 1) rotate(55.000000) translate(-566.807166, -437.363100) translate(518.307166, 394.863100)">
                <polygon id="Fill-1" fill="#87BFB0" points="0.00452597296 84.2559473 96.2595879 84.2593862 48.1276257 56.4475781"></polygon>
                <polygon id="Fill-2" fill="#7FCDBD" points="48.1290788 0.901776741 0.00496474429 84.2562006 48.1276257 56.4475781"></polygon>
                <polygon id="Fill-3" fill="#97D7C6" points="48.1290788 0.901776741 48.1276257 56.4475781 96.2614271 84.2562006"></polygon>
            </g>
            <g id="Page-1-Copy-2" opacity="0.617753623" transform="translate(621.171621, 359.438723) scale(-1, 1) rotate(55.000000) translate(-621.171621, -359.438723) translate(572.671621, 316.938723)">
                <polygon id="Fill-1" fill="#97D6C5" opacity="0.546535326" points="0.504525973 84.1219727 96.7595879 84.1254116 48.6276257 56.3136035"></polygon>
                <polygon id="Fill-2" fill="#8ED1C4" opacity="0.340466486" points="48.6290788 0.767802145 0.504964744 84.1222261 48.6276257 56.3136035"></polygon>
                <polygon id="Fill-3" fill="#97D7C6" opacity="0.497622283" points="48.6290788 0.767802145 48.6276257 56.3136035 96.7614271 84.1222261"></polygon>
            </g>
            <g id="Page-1-Copy-2" opacity="0.331974638" transform="translate(580.588202, 272.571087) scale(-1, 1) rotate(55.000000) translate(-580.588202, -272.571087) translate(532.088202, 230.071087)">
                <polygon id="Fill-1" fill="#9FDFCE" points="0.504525973 84.1219727 96.7595879 84.1254116 48.6276257 56.3136035"></polygon>
                <polygon id="Fill-2" fill="#7FCDBD" points="48.6290788 0.767802145 0.504964744 84.1222261 48.6276257 56.3136035"></polygon>
                <polygon id="Fill-3" fill="#9CD7C7" points="48.6290788 0.767802145 48.6276257 56.3136035 96.7614271 84.1222261"></polygon>
            </g>
            <g id="Page-1-Copy-2" opacity="0.356148098" transform="translate(662.489960, 300.784278) scale(-1, 1) rotate(55.000000) translate(-662.489960, -300.784278) translate(637.489960, 258.784278)" fill="#9BDFCD">
                <polygon id="Fill-3" points="0.9951042 0.133827549 0.993651104 55.6796289 49.1274525 83.4882515"></polygon>
            </g>
            <g id="Page-1-Copy-2" opacity="0.23754529" transform="translate(103.006770, 229.404479) scale(-1, 1) rotate(55.000000) translate(-103.006770, -229.404479) translate(54.506770, 186.904479)">
                <polygon id="Fill-1" fill="#78E6D1" opacity="0.729846014" points="0.286558276 84.0931159 96.5416202 84.0965548 48.409658 56.2847466"></polygon>
                <polygon id="Fill-2" fill="#46C28D" opacity="0.684046649" points="48.4111111 0.738945316 0.286997047 84.0933692 48.409658 56.2847466"></polygon>
                <polygon id="Fill-3" fill="#71CEB5" opacity="0.68212183" points="48.4111111 0.738945316 48.409658 56.2847466 96.5434594 84.0933692"></polygon>
            </g>
            <g id="Page-1-Copy-2" transform="translate(44.169939, 72.260105) scale(-1, 1) rotate(55.000000) translate(-44.169939, -72.260105) translate(-4.330061, 57.760105)" fill="#DBF3ED" opacity="0.521908967">
                <polygon id="Fill-1" points="0.286558276 28.0931159 96.5416202 28.0965548 48.409658 0.284746625"></polygon>
            </g>
            <g id="Page-1-Copy-2" opacity="0.461390399" transform="translate(157.525930, 150.742142) scale(-1, 1) rotate(55.000000) translate(-157.525930, -150.742142) translate(109.025930, 108.242142)">
                <polygon id="Fill-1" fill="#DBEFE9" points="0.286558276 84.0931159 96.5416202 84.0965548 48.409658 56.2847466"></polygon>
                <polygon id="Fill-2" fill="#D5EBE6" points="48.4111111 0.738945316 0.286997047 84.0933692 48.409658 56.2847466"></polygon>
                <polygon id="Fill-3" fill="#E1F3ED" points="48.4111111 0.738945316 48.409658 56.2847466 96.5434594 84.0933692"></polygon>
            </g>
            <g id="Page-1-Copy-2" opacity="0.329483696" transform="translate(116.868373, 64.566917) scale(-1, 1) rotate(55.000000) translate(-116.868373, -64.566917) translate(68.368373, 22.066917)">
                <polygon id="Fill-1" fill="#ABD9C8" points="0.286558276 84.0931159 96.5416202 84.0965548 48.409658 56.2847466"></polygon>
                <polygon id="Fill-2" fill="#7FCDBD" points="48.4111111 0.738945316 0.286997047 84.0933692 48.409658 56.2847466"></polygon>
                <polygon id="Fill-3" fill="#C4F0E4" points="48.4111111 0.738945316 48.409658 56.2847466 96.5434594 84.0933692"></polygon>
            </g>
            <g id="Page-1-Copy-2" opacity="0.435688406" transform="translate(62.900451, 142.158562) scale(-1, 1) rotate(55.000000) translate(-62.900451, -142.158562) translate(14.400451, 99.658562)">
                <polygon id="Fill-1" fill="#97D7C6" opacity="0.405174366" points="0.286558276 84.0931159 96.5416202 84.0965548 48.409658 56.2847466"></polygon>
                <polygon id="Fill-2" fill="#DBFBF4" points="48.4111111 0.738945316 0.286997047 84.0933692 48.409658 56.2847466"></polygon>
            </g>
        </g>
    </g>
</svg>