<?xml version="1.0" encoding="UTF-8"?>
<svg width="376px" height="251px" viewBox="0 0 376 251" version="1.1" xmlns="http://www.w3.org/2000/svg" xmlns:xlink="http://www.w3.org/1999/xlink">
    <!-- Generator: Sketch 48.2 (47327) - http://www.bohemiancoding.com/sketch -->
    <title>BG timeline/WE/LEFT@x2</title>
    <desc>Created with Sketch.</desc>
    <defs></defs>
    <g id="COMMODITY-WEB-Copy" stroke="none" stroke-width="1" fill="none" fill-rule="evenodd" transform="translate(-1064.000000, -4015.000000)">
        <g id="//BODY" transform="translate(-4.000000, 840.000000)">
            <g id="SECTION-3" transform="translate(0.000000, 1490.000000)">
                <g id="BG">
                    <g id="BG-timeline" transform="translate(1069.000000, 1685.000000)">
                        <g transform="translate(246.500000, 73.500000) scale(-1, 1) translate(-246.500000, -73.500000) translate(-52.000000, -204.000000)" id="BG">
                            <g transform="translate(298.653309, 277.213592) rotate(-305.000000) translate(-298.653309, -277.213592) translate(134.653309, 28.213592)">
                                <g id="Page-1-Copy-2" transform="translate(118.247191, 259.745118) scale(-1, 1) rotate(55.000000) translate(-118.247191, -259.745118) translate(69.747191, 217.245118)">
                                    <polygon id="Fill-1" fill="#D0C6BA" points="0.00452597296 84.2559473 96.2595879 84.2593862 48.1276257 56.4475781"></polygon>
                                    <polygon id="Fill-3" fill="#EADBCA" points="48.1290788 0.901776741 48.1276257 56.4475781 96.2614271 84.2562006"></polygon>
                                </g>
                                <g id="Page-1-Copy" transform="translate(199.502268, 433.824381) scale(-1, 1) rotate(55.000000) translate(-199.502268, -433.824381) translate(151.002268, 391.324381)">
                                    <polygon id="Fill-1" fill="#F3F3F3" points="0.00452597296 84.2559473 96.2595879 84.2593862 48.1276257 56.4475781"></polygon>
                                    <polygon id="Fill-2" fill="#F6F6F6" points="48.1290788 0.901776741 0.00496474429 84.2562006 48.1276257 56.4475781"></polygon>
                                </g>
                                <g id="Page-1-Copy-2" transform="translate(158.830609, 346.612753) scale(-1, 1) rotate(55.000000) translate(-158.830609, -346.612753) translate(110.330609, 304.112753)">
                                    <polygon id="Fill-1" fill="#F3F3F3" points="0.00452597296 84.2559473 96.2595879 84.2593862 48.1276257 56.4475781"></polygon>
                                    <polygon id="Fill-2" fill="#CDB093" points="48.1290788 0.901776741 0.00496474429 84.2562006 48.1276257 56.4475781"></polygon>
                                    <polygon id="Fill-3" fill="#D2BFA7" points="48.1290788 0.901776741 48.1276257 56.4475781 96.2614271 84.2562006"></polygon>
                                </g>
                                <g id="Page-1-Copy-2" transform="translate(216.872516, 372.221350) scale(-1, 1) rotate(-5.000000) translate(-216.872516, -372.221350) translate(168.372516, 329.721350)">
                                    <polygon id="Fill-1" fill="#F1F1F1" points="0.00452597296 84.2559473 96.2595879 84.2593862 48.1276257 56.4475781"></polygon>
                                    <polygon id="Fill-2" fill="#F9F9F9" points="48.1290788 0.901776741 0.00496474429 84.2562006 48.1276257 56.4475781"></polygon>
                                    <polygon id="Fill-3" fill="#FDFDFD" points="48.1290788 0.901776741 48.1276257 56.4475781 96.2614271 84.2562006"></polygon>
                                </g>
                                <g id="Page-1-Copy-3" transform="translate(176.291965, 285.153259) scale(-1, 1) rotate(-5.000000) translate(-176.291965, -285.153259) translate(127.791965, 242.653259)">
                                    <polygon id="Fill-1" fill="#D0C6BA" points="0.00452597296 84.2559473 96.2595879 84.2593862 48.1276257 56.4475781"></polygon>
                                    <polygon id="Fill-2" fill="#F1EAE3" points="48.1290788 0.901776741 0.00496474429 84.2562006 48.1276257 56.4475781"></polygon>
                                    <polygon id="Fill-3" fill="#EADBCA" points="48.1290788 0.901776741 48.1276257 56.4475781 96.2614271 84.2562006"></polygon>
                                </g>
                                <g id="Page-1-Copy-2" transform="translate(213.881882, 268.112069) scale(-1, 1) rotate(55.000000) translate(-213.881882, -268.112069) translate(165.381882, 225.612069)">
                                    <polygon id="Fill-1" fill="#FCFCFC" points="0.00452597296 84.2559473 96.2595879 84.2593862 48.1276257 56.4475781"></polygon>
                                    <polygon id="Fill-3" fill="#EFEFEF" points="48.1290788 0.901776741 48.1276257 56.4475781 96.2614271 84.2562006"></polygon>
                                </g>
                                <g id="Page-1-Copy-2" transform="translate(254.465301, 354.979705) scale(-1, 1) rotate(55.000000) translate(-254.465301, -354.979705) translate(205.965301, 312.479705)">
                                    <polygon id="Fill-1" fill="#F3F3F3" points="0.00452597296 84.2559473 96.2595879 84.2593862 48.1276257 56.4475781"></polygon>
                                    <polygon id="Fill-2" fill="#EFEFEF" points="48.1290788 0.901776741 0.00496474429 84.2562006 48.1276257 56.4475781"></polygon>
                                    <polygon id="Fill-3" fill="#FCFCFC" points="48.1290788 0.901776741 48.1276257 56.4475781 96.2614271 84.2562006"></polygon>
                                </g>
                                <g id="Page-1-Copy-3" transform="translate(271.926656, 293.520210) scale(-1, 1) rotate(-5.000000) translate(-271.926656, -293.520210) translate(223.426656, 251.020210)">
                                    <polygon id="Fill-1" fill="#FCFCFC" points="0.00452597296 84.2559473 96.2595879 84.2593862 48.1276257 56.4475781"></polygon>
                                    <polygon id="Fill-2" fill="#F3F3F3" points="48.1290788 0.901776741 0.00496474429 84.2562006 48.1276257 56.4475781"></polygon>
                                    <polygon id="Fill-3" fill="#F3F3F3" points="48.1290788 0.901776741 48.1276257 56.4475781 96.2614271 84.2562006"></polygon>
                                </g>
                                <g id="Page-1-Copy-2" opacity="0.42895154" transform="translate(63.195918, 338.245802) scale(-1, 1) rotate(55.000000) translate(-63.195918, -338.245802) translate(14.695918, 295.745802)">
                                    <polygon id="Fill-1" fill="#908272" points="0.00452597296 84.2559473 96.2595879 84.2593862 48.1276257 56.4475781"></polygon>
                                    <polygon id="Fill-2" fill="#D0C6BA" points="48.1290788 0.901776741 0.00496474429 84.2562006 48.1276257 56.4475781"></polygon>
                                </g>
                                <g id="Page-1-Copy-2" transform="translate(121.237825, 363.854399) scale(-1, 1) rotate(-5.000000) translate(-121.237825, -363.854399) translate(72.737825, 321.354399)">
                                    <polygon id="Fill-2" fill="#D0C6BA" points="48.1290788 0.901776741 0.00496474429 84.2562006 48.1276257 56.4475781"></polygon>
                                    <polygon id="Fill-3" fill="#E6D7CA" points="48.1290788 0.901776741 48.1276257 56.4475781 96.2614271 84.2562006"></polygon>
                                </g>
                                <g id="Page-1-Copy-3" opacity="0.339334239" transform="translate(80.657274, 276.786308) scale(-1, 1) rotate(-5.000000) translate(-80.657274, -276.786308) translate(32.157274, 234.286308)">
                                    <polygon id="Fill-1" fill="#D7BEA6" points="0.00452597296 84.2559473 96.2595879 84.2593862 48.1276257 56.4475781"></polygon>
                                    <polygon id="Fill-2" fill="#B6A48D" points="48.1290788 0.901776741 0.00496474429 84.2562006 48.1276257 56.4475781"></polygon>
                                    <polygon id="Fill-3" fill="#D0C6BA" points="48.1290788 0.901776741 48.1276257 56.4475781 96.2614271 84.2562006"></polygon>
                                </g>
                                <g id="Page-1-Copy-2" transform="translate(224.838216, 108.459450) scale(-1, 1) rotate(55.000000) translate(-224.838216, -108.459450) translate(176.338216, 65.959450)">
                                    <polygon id="Fill-1" fill="#EFEFEF" points="0.00452597296 84.2559473 96.2595879 84.2593862 48.1276257 56.4475781"></polygon>
                                    <polygon id="Fill-2" fill="#FDFDFD" points="48.1290788 0.901776741 0.00496474429 84.2562006 48.1276257 56.4475781"></polygon>
                                    <polygon id="Fill-3" fill="#F9F3EC" points="48.1290788 0.901776741 48.1276257 56.4475781 96.2614271 84.2562006"></polygon>
                                </g>
                                <g id="Page-1-Copy-3" transform="translate(243.295766, 47.087112) scale(-1, 1) rotate(-5.000000) translate(-243.295766, -47.087112) translate(194.795766, 4.587112)">
                                    <polygon id="Fill-1" fill="#F1EAE3" points="0.00452597296 84.2559473 96.2595879 84.2593862 48.1276257 56.4475781"></polygon>
                                    <polygon id="Fill-2" fill="#F9F9F9" points="48.1290788 0.901776741 0.00496474429 84.2562006 48.1276257 56.4475781"></polygon>
                                    <polygon id="Fill-3" fill="#FCFCFC" points="48.1290788 0.901776741 48.1276257 56.4475781 96.2614271 84.2562006"></polygon>
                                </g>
                                <g id="Page-1-Copy-2" transform="translate(264.877165, 192.272762) scale(-1, 1) rotate(55.000000) translate(-264.877165, -192.272762) translate(216.377165, 149.772762)">
                                    <polygon id="Fill-1" fill="#EFEFEF" points="0.00452597296 84.2559473 96.2595879 84.2593862 48.1276257 56.4475781"></polygon>
                                    <polygon id="Fill-2" fill="#FDFDFD" points="48.1290788 0.901776741 0.00496474429 84.2562006 48.1276257 56.4475781"></polygon>
                                    <polygon id="Fill-3" fill="#F9F3EC" points="48.1290788 0.901776741 48.1276257 56.4475781 96.2614271 84.2562006"></polygon>
                                </g>
                                <g id="Page-1-Copy-3" transform="translate(229.424491, 210.289779) scale(-1, 1) rotate(-5.000000) translate(-229.424491, -210.289779) translate(180.924491, 167.789779)">
                                    <polygon id="Fill-1" fill="#F1EAE3" points="0.00452597296 84.2559473 96.2595879 84.2593862 48.1276257 56.4475781"></polygon>
                                    <polygon id="Fill-2" fill="#F9F9F9" points="48.1290788 0.901776741 0.00496474429 84.2562006 48.1276257 56.4475781"></polygon>
                                    <polygon id="Fill-3" fill="#FCFCFC" points="48.1290788 0.901776741 48.1276257 56.4475781 96.2614271 84.2562006"></polygon>
                                </g>
                            </g>
                        </g>
                    </g>
                </g>
            </g>
        </g>
    </g>
</svg>