<?xml version="1.0" encoding="UTF-8"?>
<svg width="282px" height="659px" viewBox="0 0 282 659" version="1.1" xmlns="http://www.w3.org/2000/svg" xmlns:xlink="http://www.w3.org/1999/xlink">
    <!-- Generator: Sketch 48.2 (47327) - http://www.bohemiancoding.com/sketch -->
    <title>BG timeline/WEB/RIGHT@x2</title>
    <desc>Created with Sketch.</desc>
    <defs></defs>
    <g id="COMMODITY-WEB-Copy" stroke="none" stroke-width="1" fill="none" fill-rule="evenodd" transform="translate(0.000000, -3201.000000)">
        <g id="//BODY" transform="translate(-4.000000, 840.000000)">
            <g id="SECTION-3" transform="translate(0.000000, 1490.000000)">
                <g id="BG">
                    <g id="BG-timeline" transform="translate(0.000000, 866.000000)">
                        <g id="BG" transform="translate(57.564502, 339.861875) rotate(-305.000000) translate(-57.564502, -339.861875) translate(-284.435498, 104.361875)">
                            <g id="Page-1-Copy" transform="translate(255.055473, 127.545221) rotate(-55.000000) translate(-255.055473, -127.545221) translate(206.555473, 85.045221)">
                                <polygon id="Fill-1" fill="#CDB093" opacity="0.684216486" points="0.00452597296 84.2559473 96.2595879 84.2593862 48.1276257 56.4475781"></polygon>
                                <polygon id="Fill-2" fill="#D0C6BA" points="48.1290788 0.901776741 0.00496474429 84.2562006 48.1276257 56.4475781"></polygon>
                                <polygon id="Fill-3" fill="#EADBCA" points="48.1290788 0.901776741 48.1276257 56.4475781 96.2614271 84.2562006"></polygon>
                            </g>
                            <g id="Page-1-Copy-2" opacity="0.592561141" transform="translate(159.192824, 119.154497) rotate(-55.000000) translate(-159.192824, -119.154497) translate(110.692824, 76.654497)">
                                <polygon id="Fill-1" fill="#CDB093" opacity="0.789175725" points="0.00452597296 84.2559473 96.2595879 84.2593862 48.1276257 56.4475781"></polygon>
                                <polygon id="Fill-2" fill="#B59E88" opacity="0.569633152" points="48.1290788 0.901776741 0.00496474429 84.2562006 48.1276257 56.4475781"></polygon>
                                <polygon id="Fill-3" fill="#EADBCA" points="48.1290788 0.901776741 48.1276257 56.4475781 96.2614271 84.2562006"></polygon>
                            </g>
                            <g id="Page-1-Copy-3" opacity="0.331408514" transform="translate(107.874993, 157.027161) rotate(-115.000000) translate(-107.874993, -157.027161) translate(59.374993, 114.527161)">
                                <polygon id="Fill-1" fill="#92CEBC" points="0.72249367 84.0931159 96.9775556 84.0965548 48.8455934 56.2847466"></polygon>
                                <polygon id="Fill-3" fill="#A3D9C9" points="48.8470465 0.738945316 48.8455934 56.2847466 96.9793948 84.0933692"></polygon>
                            </g>
                            <g id="Group-21" opacity="0.667912138" transform="translate(161.677985, 78.464195) rotate(-115.000000) translate(-161.677985, -78.464195) translate(113.177985, 35.964195)">
                                <polygon id="Fill-2" fill="#B59E88" opacity="0.603317482" points="48.7630534 1.53575134 0.638939341 84.8901752 48.7616003 57.0815526"></polygon>
                                <polygon id="Fill-1" fill="#E5C8AB" opacity="0.561537591" points="0.535898385 83.5427597 96.7909603 83.5461986 48.6589981 55.7343905"></polygon>
                                <polygon id="Fill-3" fill="#D0C6BA" opacity="0.745187953" points="48.6285473 0.970208711 48.6270942 56.51601 96.7608956 84.3246326"></polygon>
                            </g>
                            <g id="Group-20" transform="translate(295.538303, 214.695867) rotate(-25.000000) translate(-295.538303, -214.695867) translate(232.538303, 154.195867)">
                                <polygon id="Fill-1" fill="#DFCEBB" transform="translate(76.845307, 84.670592) rotate(-30.000000) translate(-76.845307, -84.670592) " points="28.7177759 98.5730568 124.972838 98.5764957 76.8408756 70.7646875"></polygon>
                                <polygon id="Fill-2" fill="#B49D82" transform="translate(42.117128, 72.649692) rotate(-30.000000) translate(-42.117128, -72.649692) " points="66.1791854 30.9724803 18.0550713 114.326904 66.1777323 86.5182817"></polygon>
                                <polygon id="Fill-3" fill="#D0C6BA" transform="translate(83.796770, 48.585940) rotate(-30.000000) translate(-83.796770, -48.585940) " points="59.7313224 6.90872805 59.7298693 62.4545294 107.863671 90.263152"></polygon>
                            </g>
                            <g id="Page-1-Copy-2" transform="translate(243.679887, 251.942941) rotate(-115.000000) translate(-243.679887, -251.942941) translate(195.179887, 209.442941)">
                                <polygon id="Fill-1" fill="#A59480" opacity="0.403589221" points="0.00452597296 84.2559473 96.2595879 84.2593862 48.1276257 56.4475781"></polygon>
                                <polygon id="Fill-3" fill="#EEE1D3" points="48.1290788 0.901776741 48.1276257 56.4475781 96.2614271 84.2562006"></polygon>
                            </g>
                            <g id="Page-1-Copy-2" opacity="0.706634964" transform="translate(391.205376, 222.898539) rotate(-55.000000) translate(-391.205376, -222.898539) translate(342.705376, 180.398539)">
                                <polygon id="Fill-1" fill="#7D7061" points="0.00452597296 84.2559473 96.2595879 84.2593862 48.1276257 56.4475781"></polygon>
                                <polygon id="Fill-2" fill="#A59480" points="48.1290788 0.901776741 0.00496474429 84.2562006 48.1276257 56.4475781"></polygon>
                                <polygon id="Fill-3" fill="#BFAC96" points="48.1290788 0.901776741 48.1276257 56.4475781 96.2614271 84.2562006"></polygon>
                            </g>
                            <g id="Page-1-Copy-2" opacity="0.482733243" transform="translate(435.121086, 268.681434) rotate(-115.000000) translate(-435.121086, -268.681434) translate(386.621086, 226.181434)">
                                <polygon id="Fill-1" fill="#52A8A3" points="0.00452597296 84.2559473 96.2595879 84.2593862 48.1276257 56.4475781"></polygon>
                                <polygon id="Fill-2" fill="#477261" points="48.1290788 0.901776741 0.00496474429 84.2562006 48.1276257 56.4475781"></polygon>
                                <polygon id="Fill-3" fill="#70917C" points="48.1290788 0.901776741 48.1276257 56.4475781 96.2614271 84.2562006"></polygon>
                            </g>
                            <g id="Page-1-Copy-3" transform="translate(339.424478, 260.327230) rotate(-115.000000) translate(-339.424478, -260.327230) translate(290.924478, 217.827230)">
                                <polygon id="Fill-1" fill="#7D7061" opacity="0.797950634" points="0.00452597296 84.2559473 96.2595879 84.2593862 48.1276257 56.4475781"></polygon>
                                <polygon id="Fill-2" fill="#A0B1AA" points="48.1290788 0.901776741 0.00496474429 84.2562006 48.1276257 56.4475781"></polygon>
                                <polygon id="Fill-3" fill="#A59480" opacity="0.619904891" points="48.1290788 0.901776741 48.1276257 56.4475781 96.2614271 84.2562006"></polygon>
                            </g>
                            <g id="Group-19" opacity="0.66796875" transform="translate(348.797965, 295.784759) rotate(-25.000000) translate(-348.797965, -295.784759) translate(299.797965, 235.284759)" fill="#225754">
                                <polygon id="Fill-1" transform="translate(48.845307, 84.670592) rotate(-30.000000) translate(-48.845307, -84.670592) " points="0.717775897 98.5730568 96.9728378 98.5764957 48.8408756 70.7646875"></polygon>
                                <polygon id="Fill-3" transform="translate(55.796770, 48.585940) rotate(-30.000000) translate(-55.796770, -48.585940) " points="31.7313224 6.90872805 31.7298693 62.4545294 79.8636706 90.263152"></polygon>
                            </g>
                            <g id="Page-1-Copy-2" opacity="0.677932518" transform="translate(431.776729, 309.904086) rotate(-55.000000) translate(-431.776729, -309.904086) translate(383.276729, 267.404086)">
                                <polygon id="Fill-1" fill="#2F6457" points="0.00452597296 84.2559473 96.2595879 84.2593862 48.1276257 56.4475781"></polygon>
                                <polygon id="Fill-2" fill="#357C7C" points="48.1290788 0.901776741 0.00496474429 84.2562006 48.1276257 56.4475781"></polygon>
                                <polygon id="Fill-3" fill="#266165" points="48.1290788 0.901776741 48.1276257 56.4475781 96.2614271 84.2562006"></polygon>
                            </g>
                            <g id="Page-1-Copy-2" opacity="0.600486866" transform="translate(475.692439, 355.686982) rotate(-115.000000) translate(-475.692439, -355.686982) translate(427.192439, 313.186982)">
                                <polygon id="Fill-1" fill="#87C2B4" points="0.00452597296 84.2559473 96.2595879 84.2593862 48.1276257 56.4475781"></polygon>
                                <polygon id="Fill-2" fill="#266165" points="48.1290788 0.901776741 0.00496474429 84.2562006 48.1276257 56.4475781"></polygon>
                                <polygon id="Fill-3" fill="#357C7C" points="48.1290788 0.901776741 48.1276257 56.4475781 96.2614271 84.2562006"></polygon>
                            </g>
                            <g id="Page-1-Copy-2" transform="translate(550.222209, 334.389685) rotate(-55.000000) translate(-550.222209, -334.389685) translate(501.722209, 319.889685)" fill="#FDFDFD">
                                <polygon id="Fill-1" points="0.00452597296 28.2559473 96.2595879 28.2593862 48.1276257 0.447578051"></polygon>
                            </g>
                            <g id="Page-1-Copy-3" opacity="0.853487319" transform="translate(379.995831, 347.332778) rotate(-115.000000) translate(-379.995831, -347.332778) translate(331.495831, 304.832778)">
                                <polygon id="Fill-1" fill="#408B8E" points="0.00452597296 84.2559473 96.2595879 84.2593862 48.1276257 56.4475781"></polygon>
                                <polygon id="Fill-3" fill="#224F4C" opacity="0.847712862" points="48.1290788 0.901776741 48.1276257 56.4475781 96.2614271 84.2562006"></polygon>
                            </g>
                            <g id="Page-1-Copy-2" opacity="0.766474185" transform="translate(471.925464, 396.003326) rotate(-55.000000) translate(-471.925464, -396.003326) translate(423.425464, 353.503326)">
                                <polygon id="Fill-1" fill="#66AF9E" points="0.00452597296 84.2559473 96.2595879 84.2593862 48.1276257 56.4475781"></polygon>
                                <polygon id="Fill-3" fill="#42918D" points="48.1290788 0.901776741 48.1276257 56.4475781 96.2614271 84.2562006"></polygon>
                            </g>
                            <g id="Page-1-Copy-2" opacity="0.517663043" transform="translate(203.108534, 164.937393) rotate(-115.000000) translate(-203.108534, -164.937393) translate(154.608534, 122.437393)">
                                <polygon id="Fill-1" fill="#CDB093" points="0.00452597296 84.2559473 96.2595879 84.2593862 48.1276257 56.4475781"></polygon>
                                <polygon id="Fill-2" fill="#B59E88" points="48.1290788 0.901776741 0.00496474429 84.2562006 48.1276257 56.4475781"></polygon>
                                <polygon id="Fill-3" fill="#D0C6BA" points="48.1290788 0.901776741 48.1276257 56.4475781 96.2614271 84.2562006"></polygon>
                            </g>
                            <g id="Page-1-Copy" opacity="0.484148551" transform="translate(432.730838, 163.943364) rotate(-55.000000) translate(-432.730838, -163.943364) translate(408.230838, 121.443364)" fill="#EADBCA">
                                <polygon id="Fill-2" points="48.1290788 0.901776741 0.00496474429 84.2562006 48.1276257 56.4475781"></polygon>
                            </g>
                            <g id="Page-1-Copy-2" opacity="0.768002717" transform="translate(350.634022, 135.892991) rotate(-55.000000) translate(-350.634022, -135.892991) translate(302.134022, 93.392991)">
                                <polygon id="Fill-1" fill="#A59480" points="0.00452597296 84.2559473 96.2595879 84.2593862 48.1276257 56.4475781"></polygon>
                                <polygon id="Fill-2" fill="#D0C6BA" points="48.1290788 0.901776741 0.00496474429 84.2562006 48.1276257 56.4475781"></polygon>
                                <polygon id="Fill-3" fill="#CDB093" points="48.1290788 0.901776741 48.1276257 56.4475781 96.2614271 84.2562006"></polygon>
                            </g>
                            <g id="Page-1-Copy-2" opacity="0.699105525" transform="translate(394.549733, 181.675887) rotate(-115.000000) translate(-394.549733, -181.675887) translate(346.049733, 139.175887)">
                                <polygon id="Fill-1" fill="#D0C6BA" points="0.00452597296 84.2559473 96.2595879 84.2593862 48.1276257 56.4475781"></polygon>
                                <polygon id="Fill-2" fill="#A59480" points="48.1290788 0.901776741 0.00496474429 84.2562006 48.1276257 56.4475781"></polygon>
                                <polygon id="Fill-3" fill="#EADBCA" points="48.1290788 0.901776741 48.1276257 56.4475781 96.2614271 84.2562006"></polygon>
                            </g>
                            <g id="Page-1-Copy-3" transform="translate(298.853124, 173.321683) rotate(-115.000000) translate(-298.853124, -173.321683) translate(250.353124, 130.821683)">
                                <polygon id="Fill-1" fill="#CDB093" opacity="0.679008152" points="0.00452597296 84.2559473 96.2595879 84.2593862 48.1276257 56.4475781"></polygon>
                                <polygon id="Fill-2" fill="#EADBCA" points="48.1290788 0.901776741 0.00496474429 84.2562006 48.1276257 56.4475781"></polygon>
                                <polygon id="Fill-3" fill="#D0C6BA" points="48.1290788 0.901776741 48.1276257 56.4475781 96.2614271 84.2562006"></polygon>
                            </g>
                            <g id="Page-1-Copy-6" transform="translate(268.392164, 107.997941) rotate(-115.000000) translate(-268.392164, -107.997941) translate(243.892164, 65.497941)" fill="#CDB093" opacity="0.583050272">
                                <polygon id="Fill-2" points="48.1290788 0.901776741 0.00496474429 84.2562006 48.1276257 56.4475781"></polygon>
                            </g>
                            <g id="Page-1-Copy-3" transform="translate(528.804473, 423.184770) scale(-1, 1) rotate(-5.000000) translate(-528.804473, -423.184770) translate(480.304473, 380.684770)">
                                <polygon id="Fill-2" fill="#96CEC3" opacity="0.603713768" points="48.1290788 0.901776741 0.00496474429 84.2562006 48.1276257 56.4475781"></polygon>
                                <polygon id="Fill-3" fill="#99CAB7" points="48.1290788 0.901776741 48.1276257 56.4475781 96.2614271 84.2562006"></polygon>
                            </g>
                            <g id="Page-1-Copy-2" opacity="0.459635417" transform="translate(566.394390, 406.143580) scale(-1, 1) rotate(55.000000) translate(-566.394390, -406.143580) translate(517.894390, 363.643580)">
                                <polygon id="Fill-1" fill="#B1E2CF" points="0.00452597296 84.2559473 96.2595879 84.2593862 48.1276257 56.4475781"></polygon>
                                <polygon id="Fill-2" fill="#98D5C5" points="48.1290788 0.901776741 0.00496474429 84.2562006 48.1276257 56.4475781"></polygon>
                                <polygon id="Fill-3" fill="#B2E3CE" points="48.1290788 0.901776741 48.1276257 56.4475781 96.2614271 84.2562006"></polygon>
                            </g>
                            <g id="Page-1-Copy-2" opacity="0.262115036" transform="translate(621.358506, 328.639090) scale(-1, 1) rotate(55.000000) translate(-621.358506, -328.639090) translate(572.858506, 286.139090)">
                                <polygon id="Fill-2" fill="#98D5C5" points="48.1290788 0.901776741 0.00496474429 84.2562006 48.1276257 56.4475781"></polygon>
                                <polygon id="Fill-3" fill="#B2E3CE" points="48.1290788 0.901776741 48.1276257 56.4475781 96.2614271 84.2562006"></polygon>
                            </g>
                            <g id="Page-1-Copy-3" opacity="0.271399457" transform="translate(583.855745, 344.684085) scale(-1, 1) rotate(-5.000000) translate(-583.855745, -344.684085) translate(535.355745, 302.184085)">
                                <polygon id="Fill-1" fill="#7FCDBD" points="0.00452597296 84.2559473 96.2595879 84.2593862 48.1276257 56.4475781"></polygon>
                                <polygon id="Fill-2" fill="#97D7C6" points="48.1290788 0.901776741 0.00496474429 84.2562006 48.1276257 56.4475781"></polygon>
                                <polygon id="Fill-3" fill="#B0E0D0" points="48.1290788 0.901776741 48.1276257 56.4475781 96.2614271 84.2562006"></polygon>
                            </g>
                            <g id="Page-1-Copy-3" transform="translate(598.236443, 180.311960) scale(-1, 1) rotate(-5.000000) translate(-598.236443, -180.311960) translate(549.736443, 137.811960)">
                                <polygon id="Fill-1" fill="#B4EDE1" opacity="0.522475091" points="0.00452597296 84.2559473 96.2595879 84.2593862 48.1276257 56.4475781"></polygon>
                                <polygon id="Fill-2" fill="#97D7C6" opacity="0.445652174" points="48.1290788 0.901776741 0.00496474429 84.2562006 48.1276257 56.4475781"></polygon>
                                <polygon id="Fill-3" fill="#C7E8DD" opacity="0.700803895" points="48.1290788 0.901776741 48.1276257 56.4475781 96.2614271 84.2562006"></polygon>
                            </g>
                            <g id="Page-1-Copy-3" opacity="0.929461051" transform="translate(49.420320, 131.292951) scale(-1, 1) rotate(-5.000000) translate(-49.420320, -131.292951) translate(24.920320, 88.792951)" fill="#E5F3ED">
                                <polygon id="Fill-2" opacity="0.407155797" points="48.1290788 0.901776741 0.00496474429 84.2562006 48.1276257 56.4475781"></polygon>
                            </g>
                            <g id="Page-1-Copy-3" transform="translate(543.272326, 257.816450) scale(-1, 1) rotate(-5.000000) translate(-543.272326, -257.816450) translate(494.772326, 215.316450)">
                                <polygon id="Fill-1" fill="#7CD8C5" opacity="0.462522645" points="0.00452597296 84.2559473 96.2595879 84.2593862 48.1276257 56.4475781"></polygon>
                                <polygon id="Fill-2" fill="#ACDACE" opacity="0.405570652" points="48.1290788 0.901776741 0.00496474429 84.2562006 48.1276257 56.4475781"></polygon>
                                <polygon id="Fill-3" fill="#B0E0D0" opacity="0.618829257" points="48.1290788 0.901776741 48.1276257 56.4475781 96.2614271 84.2562006"></polygon>
                            </g>
                            <g id="Page-1-Copy-2" opacity="0.518625453" transform="translate(526.807166, 319.363100) scale(-1, 1) rotate(55.000000) translate(-526.807166, -319.363100) translate(478.307166, 276.863100)">
                                <polygon id="Fill-1" fill="#87BFB0" points="0.00452597296 84.2559473 96.2595879 84.2593862 48.1276257 56.4475781"></polygon>
                                <polygon id="Fill-2" fill="#7FCDBD" points="48.1290788 0.901776741 0.00496474429 84.2562006 48.1276257 56.4475781"></polygon>
                                <polygon id="Fill-3" fill="#97D7C6" points="48.1290788 0.901776741 48.1276257 56.4475781 96.2614271 84.2562006"></polygon>
                            </g>
                            <g id="Page-1-Copy-2" opacity="0.617753623" transform="translate(581.171621, 241.438723) scale(-1, 1) rotate(55.000000) translate(-581.171621, -241.438723) translate(532.671621, 198.938723)">
                                <polygon id="Fill-1" fill="#97D6C5" opacity="0.546535326" points="0.504525973 84.1219727 96.7595879 84.1254116 48.6276257 56.3136035"></polygon>
                                <polygon id="Fill-2" fill="#8ED1C4" opacity="0.340466486" points="48.6290788 0.767802145 0.504964744 84.1222261 48.6276257 56.3136035"></polygon>
                                <polygon id="Fill-3" fill="#97D7C6" opacity="0.497622283" points="48.6290788 0.767802145 48.6276257 56.3136035 96.7614271 84.1222261"></polygon>
                            </g>
                            <g id="Page-1-Copy-2" opacity="0.331974638" transform="translate(540.588202, 154.571087) scale(-1, 1) rotate(55.000000) translate(-540.588202, -154.571087) translate(492.088202, 112.071087)">
                                <polygon id="Fill-1" fill="#9FDFCE" points="0.504525973 84.1219727 96.7595879 84.1254116 48.6276257 56.3136035"></polygon>
                                <polygon id="Fill-2" fill="#7FCDBD" points="48.6290788 0.767802145 0.504964744 84.1222261 48.6276257 56.3136035"></polygon>
                                <polygon id="Fill-3" fill="#9CD7C7" points="48.6290788 0.767802145 48.6276257 56.3136035 96.7614271 84.1222261"></polygon>
                            </g>
                            <g id="Page-1-Copy-2" opacity="0.356148098" transform="translate(622.489960, 182.784278) scale(-1, 1) rotate(55.000000) translate(-622.489960, -182.784278) translate(597.489960, 140.784278)" fill="#9BDFCD">
                                <polygon id="Fill-3" points="0.9951042 0.133827549 0.993651104 55.6796289 49.1274525 83.4882515"></polygon>
                            </g>
                            <g id="Page-1-Copy-2" opacity="0.23754529" transform="translate(63.483870, 111.026197) scale(-1, 1) rotate(55.000000) translate(-63.483870, -111.026197) translate(14.983870, 68.526197)">
                                <polygon id="Fill-1" fill="#78E6D1" opacity="0.729846014" points="0.286558276 84.0931159 96.5416202 84.0965548 48.409658 56.2847466"></polygon>
                                <polygon id="Fill-2" fill="#46C28D" opacity="0.684046649" points="48.4111111 0.738945316 0.286997047 84.0933692 48.409658 56.2847466"></polygon>
                            </g>
                            <g id="Page-1-Copy-2" opacity="0.461390399" transform="translate(140.475205, 48.498498) scale(-1, 1) rotate(55.000000) translate(-140.475205, -48.498498) translate(91.975205, 33.998498)" fill="#DBEFE9">
                                <polygon id="Fill-1" points="0.286558276 28.0931159 96.5416202 28.0965548 48.409658 0.284746625"></polygon>
                            </g>
                        </g>
                    </g>
                </g>
            </g>
        </g>
    </g>
</svg>