<?xml version="1.0" encoding="UTF-8"?>
<svg width="196px" height="450px" viewBox="0 0 196 450" version="1.1" xmlns="http://www.w3.org/2000/svg" xmlns:xlink="http://www.w3.org/1999/xlink">
    <!-- Generator: Sketch 48.2 (47327) - http://www.bohemiancoding.com/sketch -->
    <title>BG/header Copy</title>
    <desc>Created with Sketch.</desc>
    <defs></defs>
    <g id="COMMODITY/Wallets/WEB" stroke="none" stroke-width="1" fill="none" fill-rule="evenodd" transform="translate(0.000000, -88.000000)">
        <g id="//HEADER" transform="translate(-44.000000, -221.000000)">
            <g id="BG/header-Copy" transform="translate(0.000000, 307.000000)">
                <g transform="translate(64.710581, 229.285898) rotate(60.000000) translate(-64.710581, -229.285898) translate(-183.289419, -17.714102)" id="BG/header">
                    <g transform="translate(-0.000000, 0.000000)">
                        <g id="BG" transform="translate(248.018621, 246.907663) rotate(-5.000000) translate(-248.018621, -246.907663) translate(19.018621, 19.907663)">
                            <g id="Page-1-Copy" transform="translate(45.501969, 118.424806) rotate(-55.000000) translate(-45.501969, -118.424806) translate(-2.998031, 103.924806)" fill="#CDB093" opacity="0.684216486">
                                <polygon id="Fill-1" points="0.00452597297 28.2559473 96.2595879 28.2593862 48.1276257 0.447578051"></polygon>
                            </g>
                            <g id="Group-20" transform="translate(117.538303, 111.695867) rotate(-25.000000) translate(-117.538303, -111.695867) translate(54.538303, 51.195867)">
                                <polygon id="Fill-1" fill="#DFCEBB" transform="translate(76.845307, 84.670592) rotate(-30.000000) translate(-76.845307, -84.670592) " points="28.7177759 98.5730568 124.972838 98.5764957 76.8408756 70.7646875"></polygon>
                                <polygon id="Fill-2" fill="#B49D82" opacity="0.636096014" transform="translate(42.117128, 72.649692) rotate(-30.000000) translate(-42.117128, -72.649692) " points="66.1791854 30.9724803 18.0550713 114.326904 66.1777323 86.5182817"></polygon>
                                <polygon id="Fill-3" fill="#D0C6BA" transform="translate(83.796770, 48.585940) rotate(-30.000000) translate(-83.796770, -48.585940) " points="59.7313224 6.90872805 59.7298693 62.4545294 107.863671 90.263152"></polygon>
                            </g>
                            <g id="Page-1-Copy-2" transform="translate(65.679887, 148.942941) rotate(-115.000000) translate(-65.679887, -148.942941) translate(17.179887, 106.442941)">
                                <polygon id="Fill-1" fill="#A59480" opacity="0.403589221" points="0.00452597296 84.2559473 96.2595879 84.2593862 48.1276257 56.4475781"></polygon>
                                <polygon id="Fill-2" fill="#BFAC96" opacity="0.671818388" points="48.1290788 0.901776741 0.00496474429 84.2562006 48.1276257 56.4475781"></polygon>
                                <polygon id="Fill-3" fill="#EEE1D3" points="48.1290788 0.901776741 48.1276257 56.4475781 96.2614271 84.2562006"></polygon>
                            </g>
                            <g id="Page-1-Copy-2" opacity="0.706634964" transform="translate(213.205376, 119.898539) rotate(-55.000000) translate(-213.205376, -119.898539) translate(164.705376, 77.398539)">
                                <polygon id="Fill-1" fill="#7D7061" points="0.00452597296 84.2559473 96.2595879 84.2593862 48.1276257 56.4475781"></polygon>
                                <polygon id="Fill-2" fill="#A59480" points="48.1290788 0.901776741 0.00496474429 84.2562006 48.1276257 56.4475781"></polygon>
                                <polygon id="Fill-3" fill="#BFAC96" points="48.1290788 0.901776741 48.1276257 56.4475781 96.2614271 84.2562006"></polygon>
                            </g>
                            <g id="Page-1-Copy-2" opacity="0.482733243" transform="translate(257.121086, 165.681434) rotate(-115.000000) translate(-257.121086, -165.681434) translate(208.621086, 123.181434)">
                                <polygon id="Fill-1" fill="#52A8A3" points="0.00452597296 84.2559473 96.2595879 84.2593862 48.1276257 56.4475781"></polygon>
                                <polygon id="Fill-2" fill="#477261" points="48.1290788 0.901776741 0.00496474429 84.2562006 48.1276257 56.4475781"></polygon>
                                <polygon id="Fill-3" fill="#70917C" points="48.1290788 0.901776741 48.1276257 56.4475781 96.2614271 84.2562006"></polygon>
                            </g>
                            <g id="Page-1-Copy-3" transform="translate(161.424478, 157.327230) rotate(-115.000000) translate(-161.424478, -157.327230) translate(112.924478, 114.827230)">
                                <polygon id="Fill-1" fill="#7D7061" opacity="0.797950634" points="0.00452597296 84.2559473 96.2595879 84.2593862 48.1276257 56.4475781"></polygon>
                                <polygon id="Fill-2" fill="#A0B1AA" points="48.1290788 0.901776741 0.00496474429 84.2562006 48.1276257 56.4475781"></polygon>
                                <polygon id="Fill-3" fill="#A59480" opacity="0.619904891" points="48.1290788 0.901776741 48.1276257 56.4475781 96.2614271 84.2562006"></polygon>
                            </g>
                            <g id="Group-19" opacity="0.66796875" transform="translate(158.109656, 198.701415) rotate(-25.000000) translate(-158.109656, -198.701415) translate(95.109656, 138.201415)">
                                <polygon id="Fill-1" fill="#225754" transform="translate(76.845307, 84.670592) rotate(-30.000000) translate(-76.845307, -84.670592) " points="28.7177759 98.5730568 124.972838 98.5764957 76.8408756 70.7646875"></polygon>
                                <polygon id="Fill-2" fill="#337779" transform="translate(42.117128, 72.649692) rotate(-30.000000) translate(-42.117128, -72.649692) " points="66.1791854 30.9724803 18.0550713 114.326904 66.1777323 86.5182817"></polygon>
                                <polygon id="Fill-3" fill="#225754" transform="translate(83.796770, 48.585940) rotate(-30.000000) translate(-83.796770, -48.585940) " points="59.7313224 6.90872805 59.7298693 62.4545294 107.863671 90.263152"></polygon>
                            </g>
                            <g id="Page-1-Copy-2" opacity="0.81080163" transform="translate(106.251241, 235.948488) rotate(-115.000000) translate(-106.251241, -235.948488) translate(57.751241, 193.448488)">
                                <polygon id="Fill-1" fill="#2F5A55" opacity="0.782325634" points="0.00452597296 84.2559473 96.2595879 84.2593862 48.1276257 56.4475781"></polygon>
                                <polygon id="Fill-3" fill="#A7BBB3" points="48.1290788 0.901776741 48.1276257 56.4475781 96.2614271 84.2562006"></polygon>
                            </g>
                            <g id="Page-1-Copy-2" opacity="0.78294837" transform="translate(62.758283, 190.053170) rotate(-55.000000) translate(-62.758283, -190.053170) translate(14.258283, 147.553170)">
                                <polygon id="Fill-1" fill="#D2BFA7" points="0.00452597296 84.2559473 96.2595879 84.2593862 48.1276257 56.4475781"></polygon>
                                <polygon id="Fill-3" fill="#EADFD0" points="48.1290788 0.901776741 48.1276257 56.4475781 96.2614271 84.2562006"></polygon>
                            </g>
                            <g id="Page-1-Copy-2" opacity="0.677932518" transform="translate(253.776729, 206.904086) rotate(-55.000000) translate(-253.776729, -206.904086) translate(205.276729, 164.404086)">
                                <polygon id="Fill-1" fill="#2F6457" points="0.00452597296 84.2559473 96.2595879 84.2593862 48.1276257 56.4475781"></polygon>
                                <polygon id="Fill-2" fill="#357C7C" points="48.1290788 0.901776741 0.00496474429 84.2562006 48.1276257 56.4475781"></polygon>
                                <polygon id="Fill-3" fill="#266165" points="48.1290788 0.901776741 48.1276257 56.4475781 96.2614271 84.2562006"></polygon>
                            </g>
                            <g id="Page-1-Copy-2" opacity="0.600486866" transform="translate(297.692439, 252.686982) rotate(-115.000000) translate(-297.692439, -252.686982) translate(249.192439, 210.186982)">
                                <polygon id="Fill-1" fill="#87C2B4" points="0.00452597296 84.2559473 96.2595879 84.2593862 48.1276257 56.4475781"></polygon>
                                <polygon id="Fill-2" fill="#266165" points="48.1290788 0.901776741 0.00496474429 84.2562006 48.1276257 56.4475781"></polygon>
                                <polygon id="Fill-3" fill="#357C7C" points="48.1290788 0.901776741 48.1276257 56.4475781 96.2614271 84.2562006"></polygon>
                            </g>
                            <g id="Page-1-Copy-2" transform="translate(372.222209, 231.389685) rotate(-55.000000) translate(-372.222209, -231.389685) translate(323.722209, 216.889685)" fill="#FDFDFD">
                                <polygon id="Fill-1" points="0.00452597296 28.2559473 96.2595879 28.2593862 48.1276257 0.447578051"></polygon>
                            </g>
                            <g id="Page-1-Copy-3" opacity="0.853487319" transform="translate(201.995831, 244.332778) rotate(-115.000000) translate(-201.995831, -244.332778) translate(153.495831, 201.832778)">
                                <polygon id="Fill-1" fill="#408B8E" points="0.00452597296 84.2559473 96.2595879 84.2593862 48.1276257 56.4475781"></polygon>
                                <polygon id="Fill-2" fill="#2F6457" opacity="0.780853714" points="48.1290788 0.901776741 0.00496474429 84.2562006 48.1276257 56.4475781"></polygon>
                                <polygon id="Fill-3" fill="#224F4C" opacity="0.847712862" points="48.1290788 0.901776741 48.1276257 56.4475781 96.2614271 84.2562006"></polygon>
                            </g>
                            <g id="Group-18" opacity="0.85546875" transform="translate(210.946700, 278.883999) rotate(-25.000000) translate(-210.946700, -278.883999) translate(161.946700, 218.383999)">
                                <polygon id="Fill-1" fill="#27666D" transform="translate(48.845307, 84.670592) rotate(-30.000000) translate(-48.845307, -84.670592) " points="0.717775897 98.5730568 96.9728378 98.5764957 48.8408756 70.7646875"></polygon>
                                <polygon id="Fill-3" fill="#276364" transform="translate(55.796770, 48.585940) rotate(-30.000000) translate(-55.796770, -48.585940) " points="31.7313224 6.90872805 31.7298693 62.4545294 79.8636706 90.263152"></polygon>
                            </g>
                            <g id="Page-1-Copy-2" opacity="0.766474185" transform="translate(293.925464, 293.003326) rotate(-55.000000) translate(-293.925464, -293.003326) translate(245.425464, 250.503326)">
                                <polygon id="Fill-1" fill="#66AF9E" points="0.00452597296 84.2559473 96.2595879 84.2593862 48.1276257 56.4475781"></polygon>
                                <polygon id="Fill-2" fill="#337778" points="48.1290788 0.901776741 0.00496474429 84.2562006 48.1276257 56.4475781"></polygon>
                                <polygon id="Fill-3" fill="#42918D" points="48.1290788 0.901776741 48.1276257 56.4475781 96.2614271 84.2562006"></polygon>
                            </g>
                            <g id="Page-1-Copy-3" opacity="0.82642663" transform="translate(242.144566, 330.432018) rotate(-115.000000) translate(-242.144566, -330.432018) translate(193.644566, 287.932018)">
                                <polygon id="Fill-1" fill="#266165" opacity="0.91576087" points="0.00452597296 84.2559473 96.2595879 84.2593862 48.1276257 56.4475781"></polygon>
                                <polygon id="Fill-3" fill="#35797C" points="48.1290788 0.901776741 48.1276257 56.4475781 96.2614271 84.2562006"></polygon>
                            </g>
                            <g id="Page-1-Copy-2" opacity="0.768002717" transform="translate(195.570280, 48.953131) rotate(-55.000000) translate(-195.570280, -48.953131) translate(147.070280, 34.453131)" fill="#A59480">
                                <polygon id="Fill-1" points="0.00452597296 28.2559473 96.2595879 28.2593862 48.1276257 0.447578051"></polygon>
                            </g>
                            <g id="Page-1-Copy-2" opacity="0.699105525" transform="translate(216.549733, 78.675887) rotate(-115.000000) translate(-216.549733, -78.675887) translate(168.049733, 36.175887)">
                                <polygon id="Fill-1" fill="#D0C6BA" points="0.00452597296 84.2559473 96.2595879 84.2593862 48.1276257 56.4475781"></polygon>
                                <polygon id="Fill-2" fill="#A59480" points="48.1290788 0.901776741 0.00496474429 84.2562006 48.1276257 56.4475781"></polygon>
                                <polygon id="Fill-3" fill="#EADBCA" points="48.1290788 0.901776741 48.1276257 56.4475781 96.2614271 84.2562006"></polygon>
                            </g>
                            <g id="Page-1-Copy-3" transform="translate(130.995963, 92.073070) rotate(-115.000000) translate(-130.995963, -92.073070) translate(106.495963, 49.573070)" fill="#EADBCA">
                                <polygon id="Fill-2" points="48.1290788 0.901776741 0.00496474429 84.2562006 48.1276257 56.4475781"></polygon>
                            </g>
                            <g id="Page-1-Copy-2" transform="translate(392.342272, 406.904308) scale(-1, 1) rotate(-5.000000) translate(-392.342272, -406.904308) translate(343.842272, 364.404308)">
                                <polygon id="Fill-2" fill="#A7BBB3" opacity="0.441349638" points="48.1290788 0.901776741 0.00496474429 84.2562006 48.1276257 56.4475781"></polygon>
                                <polygon id="Fill-3" fill="#BBCAC0" opacity="0.860337409" points="48.1290788 0.901776741 48.1276257 56.4475781 96.2614271 84.2562006"></polygon>
                            </g>
                            <g id="Page-1-Copy-2" opacity="0.942991395" transform="translate(334.339312, 381.731420) scale(-1, 1) rotate(55.000000) translate(-334.339312, -381.731420) translate(285.839312, 339.231420)">
                                <polygon id="Fill-1" fill="#419091" opacity="0.75537817" points="0.00452597296 84.2559473 96.2595879 84.2593862 48.1276257 56.4475781"></polygon>
                                <polygon id="Fill-2" fill="#58A9A4" points="48.1290788 0.901776741 0.00496474429 84.2562006 48.1276257 56.4475781"></polygon>
                            </g>
                            <g id="Page-1-Copy-3" transform="translate(350.804473, 320.184770) scale(-1, 1) rotate(-5.000000) translate(-350.804473, -320.184770) translate(302.304473, 277.684770)">
                                <polygon id="Fill-1" fill="#98D7C6" points="0.00452597296 84.2559473 96.2595879 84.2593862 48.1276257 56.4475781"></polygon>
                                <polygon id="Fill-2" fill="#96CEC3" opacity="0.603713768" points="48.1290788 0.901776741 0.00496474429 84.2562006 48.1276257 56.4475781"></polygon>
                                <polygon id="Fill-3" fill="#99CAB7" points="48.1290788 0.901776741 48.1276257 56.4475781 96.2614271 84.2562006"></polygon>
                            </g>
                            <g id="Page-1-Copy-2" opacity="0.459635417" transform="translate(388.394390, 303.143580) scale(-1, 1) rotate(55.000000) translate(-388.394390, -303.143580) translate(339.894390, 260.643580)">
                                <polygon id="Fill-2" fill="#98D5C5" points="48.1290788 0.901776741 0.00496474429 84.2562006 48.1276257 56.4475781"></polygon>
                                <polygon id="Fill-3" fill="#B2E3CE" points="48.1290788 0.901776741 48.1276257 56.4475781 96.2614271 84.2562006"></polygon>
                            </g>
                            <g id="Page-1-Copy-3" opacity="0.271399457" transform="translate(405.855745, 241.684085) scale(-1, 1) rotate(-5.000000) translate(-405.855745, -241.684085) translate(357.355745, 199.184085)">
                                <polygon id="Fill-1" fill="#7FCDBD" points="0.00452597296 84.2559473 96.2595879 84.2593862 48.1276257 56.4475781"></polygon>
                                <polygon id="Fill-3" fill="#B0E0D0" points="48.1290788 0.901776741 48.1276257 56.4475781 96.2614271 84.2562006"></polygon>
                            </g>
                            <g id="Page-1-Copy-3" transform="translate(365.272326, 154.816450) scale(-1, 1) rotate(-5.000000) translate(-365.272326, -154.816450) translate(316.772326, 112.316450)">
                                <polygon id="Fill-1" fill="#7CD8C5" opacity="0.462522645" points="0.00452597296 84.2559473 96.2595879 84.2593862 48.1276257 56.4475781"></polygon>
                                <polygon id="Fill-2" fill="#ACDACE" opacity="0.405570652" points="48.1290788 0.901776741 0.00496474429 84.2562006 48.1276257 56.4475781"></polygon>
                                <polygon id="Fill-3" fill="#B0E0D0" opacity="0.618829257" points="48.1290788 0.901776741 48.1276257 56.4475781 96.2614271 84.2562006"></polygon>
                            </g>
                            <g id="Page-1-Copy-2" opacity="0.518625453" transform="translate(348.807166, 216.363100) scale(-1, 1) rotate(55.000000) translate(-348.807166, -216.363100) translate(300.307166, 173.863100)">
                                <polygon id="Fill-1" fill="#87BFB0" points="0.00452597296 84.2559473 96.2595879 84.2593862 48.1276257 56.4475781"></polygon>
                                <polygon id="Fill-2" fill="#7FCDBD" points="48.1290788 0.901776741 0.00496474429 84.2562006 48.1276257 56.4475781"></polygon>
                                <polygon id="Fill-3" fill="#97D7C6" points="48.1290788 0.901776741 48.1276257 56.4475781 96.2614271 84.2562006"></polygon>
                            </g>
                            <g id="Page-1-Copy-2" opacity="0.617753623" transform="translate(389.979363, 157.279220) scale(-1, 1) rotate(55.000000) translate(-389.979363, -157.279220) translate(365.479363, 114.779220)" fill="#97D7C6">
                                <polygon id="Fill-3" opacity="0.497622283" points="0.629078796 0.767802145 0.6276257 56.3136035 48.7614271 84.1222261"></polygon>
                            </g>
                            <g id="Page-1-Copy-2" opacity="0.617753623" transform="translate(306.633948, 130.103397) scale(-1, 1) rotate(55.000000) translate(-306.633948, -130.103397) translate(258.133948, 87.603397)">
                                <polygon id="Fill-1" fill="#97D6C5" opacity="0.546535326" points="0.504525973 84.1219727 96.7595879 84.1254116 48.6276257 56.3136035"></polygon>
                                <polygon id="Fill-2" fill="#8ED1C4" opacity="0.340466486" points="48.6290788 0.767802145 0.504964744 84.1222261 48.6276257 56.3136035"></polygon>
                                <polygon id="Fill-3" fill="#97D7C6" opacity="0.497622283" points="48.6290788 0.767802145 48.6276257 56.3136035 96.7614271 84.1222261"></polygon>
                            </g>
                        </g>
                    </g>
                </g>
            </g>
        </g>
    </g>
</svg>