<?xml version="1.0" encoding="UTF-8"?>
<svg width="18px" height="20px" viewBox="0 0 18 20" version="1.1" xmlns="http://www.w3.org/2000/svg" xmlns:xlink="http://www.w3.org/1999/xlink">
    <!-- Generator: Sketch 48.2 (47327) - http://www.bohemiancoding.com/sketch -->
    <title>android-logo</title>
    <desc>Created with Sketch.</desc>
    <defs></defs>
    <g id="COMMODITY/Wallets/WEB" stroke="none" stroke-width="1" fill="none" fill-rule="evenodd" transform="translate(-185.000000, -744.000000)">
        <g id="wallest" transform="translate(135.000000, 498.000000)" fill="#5AADAA" fill-rule="nonzero">
            <g id="ONLINE-WALLET" transform="translate(0.000000, 5.000000)">
                <g id="Group-4" transform="translate(50.000000, 241.000000)">
                    <g id="android-logo" transform="translate(8.833333, 10.000000) scale(-1, 1) translate(-8.833333, -10.000000) translate(0.333333, 0.000000)">
                        <path d="M1.27583601,6.5 L1.22327029,6.5 C0.549421533,6.5 0,7.03178925 0,7.68026015 L0,12.8189168 C0,13.4699353 0.549421533,14 1.22327029,14 L1.27672971,14 C1.95057847,14 2.5,13.4682108 2.5,12.8189168 L2.5,7.68022095 C2.4991063,7.03178925 1.94883169,6.5 1.27583601,6.5 Z" id="Shape"></path>
                        <path d="M3,14.8269844 C3,15.4395566 3.49078343,15.9384557 4.09130896,15.9384557 L5.25750124,15.9384557 L5.25750124,18.7870032 C5.25750124,19.4559695 5.79252852,20 6.44494791,20 L6.49597425,20 C7.15095679,20 7.68511654,19.4551248 7.68511654,18.7870032 L7.68511654,15.9384557 L9.31488346,15.9384557 L9.31488346,18.7870032 C9.31488346,19.4559695 9.85160636,20 10.5040258,20 L10.554224,20 C11.2091671,20 11.7424988,19.4551248 11.7424988,18.7870032 L11.7424988,15.9384557 L12.9095191,15.9384557 C13.5091771,15.9384557 14,15.4395566 14,14.8269844 L14,6.5 L3,6.5 L3,14.8269844 Z" id="Shape"></path>
                        <path d="M11.2204585,1.68095752 L12.1405229,0.295152135 C12.1996646,0.207746263 12.1734621,0.0882367921 12.0830654,0.0313293399 C11.9935304,-0.0263807022 11.871017,-0.00245587677 11.8126978,0.0873959835 L10.8588718,1.52105102 C10.1432966,1.23498501 9.34406144,1.0742377 8.50001958,1.0742377 C7.65515522,1.0742377 6.85760421,1.23498501 6.14034488,1.52105102 L5.188203,0.0873959835 C5.12992298,-0.00245587677 5.00654796,-0.0263807022 4.91615127,0.0313293399 C4.82575458,0.0881985735 4.79955208,0.207746263 4.85869376,0.295152135 L5.77958063,1.68095752 C4.11942275,2.47487189 3,3.97116716 3,5.68756318 C3,5.79308466 3.00677583,5.89696273 3.01605834,6 L13.9848033,6 C13.9940858,5.89696273 14,5.79308466 14,5.68756318 C14.0000392,3.97116716 12.8797547,2.47487189 11.2204585,1.68095752 Z M5.95700567,4.16241289 C5.66552727,4.16241289 5.42896055,3.93321612 5.42896055,3.64799093 C5.42896055,3.36276573 5.66552727,3.13437155 5.95700567,3.13437155 C6.25016824,3.13437155 6.48505079,3.36272751 6.48505079,3.64799093 C6.48505079,3.93325434 6.24848407,4.16241289 5.95700567,4.16241289 Z M11.042211,4.16241289 C10.7507326,4.16241289 10.5141659,3.93321612 10.5141659,3.64799093 C10.5141659,3.36276573 10.7507326,3.13437155 11.042211,3.13437155 C11.3345119,3.13437155 11.5693944,3.36272751 11.5693944,3.64799093 C11.5693944,3.93321612 11.3345119,4.16241289 11.042211,4.16241289 Z" id="Shape"></path>
                        <path d="M15.775836,6.5 L15.7250171,6.5 C15.0511683,6.5 14.5,7.03178925 14.5,7.68026015 L14.5,12.8189168 C14.5,13.4699353 15.052062,14 15.7250171,14 L15.7767297,14 C16.4514315,14 17,13.4682108 17,12.8189168 L17,7.68022095 C17,7.03178925 16.4496848,6.5 15.775836,6.5 Z" id="Shape"></path>
                    </g>
                </g>
            </g>
        </g>
    </g>
</svg>