<?xml version="1.0" encoding="UTF-8"?>
<svg width="17px" height="20px" viewBox="0 0 17 20" version="1.1" xmlns="http://www.w3.org/2000/svg" xmlns:xlink="http://www.w3.org/1999/xlink">
    <!-- Generator: Sketch 48.2 (47327) - http://www.bohemiancoding.com/sketch -->
    <title>icon</title>
    <desc>Created with Sketch.</desc>
    <defs></defs>
    <g id="COMMODITY/Wallets/WEB" stroke="none" stroke-width="1" fill="none" fill-rule="evenodd" transform="translate(-237.000000, -744.000000)">
        <g id="wallest" transform="translate(135.000000, 498.000000)" fill="#5AADAA" fill-rule="nonzero">
            <g id="ONLINE-WALLET" transform="translate(0.000000, 5.000000)">
                <g id="Group-4" transform="translate(50.000000, 241.000000)">
                    <g id="icon" transform="translate(52.000000, 0.000000)">
                        <path d="M11.9730435,0 C12.0191304,0 12.0652174,0 12.113913,0 C12.2269565,1.39652174 11.693913,2.44 11.046087,3.19565217 C10.4104348,3.94608696 9.54,4.67391304 8.13217391,4.56347826 C8.03826087,3.18695652 8.57217391,2.22086957 9.21913043,1.46695652 C9.81913043,0.764347826 10.9191304,0.139130435 11.9730435,0 Z" id="Shape"></path>
                        <path d="M16.2347826,14.5356522 C16.2347826,14.5495652 16.2347826,14.5617391 16.2347826,14.5747826 C15.8391304,15.7730435 15.2747826,16.8 14.586087,17.7530435 C13.9573913,18.6182609 13.1869565,19.7826087 11.8113043,19.7826087 C10.6226087,19.7826087 9.83304348,19.0182609 8.61478261,18.9973913 C7.32608696,18.9765217 6.6173913,19.6365217 5.43913043,19.8026087 C5.30434783,19.8026087 5.16956522,19.8026087 5.0373913,19.8026087 C4.17217391,19.6773913 3.47391304,18.9921739 2.96521739,18.3747826 C1.46521739,16.5504348 0.306086957,14.193913 0.0904347826,11.1782609 C0.0904347826,10.8826087 0.0904347826,10.5878261 0.0904347826,10.2921739 C0.18173913,8.13391304 1.23043478,6.37913043 2.62434783,5.52869565 C3.36,5.07652174 4.37130435,4.69130435 5.4973913,4.86347826 C5.98,4.93826087 6.47304348,5.10347826 6.90521739,5.26695652 C7.31478261,5.42434783 7.82695652,5.70347826 8.31217391,5.68869565 C8.64086957,5.67913043 8.96782609,5.50782609 9.29913043,5.38695652 C10.2695652,5.03652174 11.2208696,4.63478261 12.4747826,4.82347826 C13.9817391,5.05130435 15.0513043,5.72086957 15.7121739,6.75391304 C14.4373913,7.56521739 13.4295652,8.78782609 13.6017391,10.8756522 C13.7547826,12.7721739 14.8573913,13.8817391 16.2347826,14.5356522 Z" id="Shape"></path>
                    </g>
                </g>
            </g>
        </g>
    </g>
</svg>