<?xml version="1.0" encoding="UTF-8"?>
<svg width="67px" height="58px" viewBox="0 0 67 58" version="1.1" xmlns="http://www.w3.org/2000/svg" xmlns:xlink="http://www.w3.org/1999/xlink">
    <!-- Generator: Sketch 48.2 (47327) - http://www.bohemiancoding.com/sketch -->
    <title>hardware wallet</title>
    <desc>Created with Sketch.</desc>
    <defs></defs>
    <g id="COMMODITY/Wallets/WEB" stroke="none" stroke-width="1" fill="none" fill-rule="evenodd" transform="translate(-837.000000, -499.000000)">
        <g id="wallest" transform="translate(135.000000, 498.000000)">
            <g id="HARDWARE-WALLET" transform="translate(600.000000, 2.000000)">
                <g id="hardware-wallet" transform="translate(103.000000, 0.000000)">
                    <rect id="Rectangle" x="0" y="0" width="65" height="59"></rect>
                    <g id="Group-5" stroke-width="1" fill-rule="evenodd">
                        <g id="cloud" stroke="#5AADAA" stroke-linecap="round" stroke-linejoin="round" stroke-width="2">
                            <path d="M55.224,17.6466971 C54.6509167,7.83934412 46.6136667,0 36.9254167,0 C31.0429167,0 25.34675,2.90188676 21.81725,7.63665882 C21.736,7.59416029 21.6504167,7.56473824 21.5680833,7.52550882 C21.3535833,7.42089706 21.1358333,7.32173382 20.91375,7.23237794 C20.79025,7.18334118 20.66675,7.13866324 20.5421667,7.095075 C20.32225,7.01770588 20.0990833,6.94905441 19.8715833,6.88694118 C19.747,6.85316029 19.6235,6.81828971 19.4978333,6.78995735 C19.2540833,6.73438235 19.0049167,6.69188382 18.7535833,6.65374412 C18.6441667,6.63739853 18.5369167,6.61560441 18.4264167,6.60361765 C18.06675,6.56329853 17.70275,6.53823529 17.3333333,6.53823529 C11.95675,6.53823529 7.58333333,10.9373779 7.58333333,16.3455882 C7.58333333,16.4839809 7.592,16.6201941 7.60066667,16.7564074 L7.60066667,16.7607662 C3.09508333,19.2322191 0,24.4083221 0,29.5898735 C0,37.3082603 6.24216667,43.5882353 13.9154167,43.5882353 L40.46575,43.5882353 C40.5784167,43.5882353 40.69,43.5816971 40.8026667,43.5729794 L40.8698333,43.5642618 L41.015,43.5729794 C41.1255,43.5816971 41.236,43.5882353 41.34975,43.5882353 L51.9696667,43.5882353 C59.1543333,43.5882353 65,37.7081824 65,30.4812529 C65,24.4998574 60.8540833,19.1352353 55.224,17.6466971 Z" id="Path"></path>
                        </g>
                        <g id="inclined-pendrive" transform="translate(8.000000, 17.000000)">
                            <path d="M38.741515,8.81086363 L30.1895835,0.258433881 C29.8449368,-0.086144627 29.286408,-0.086144627 28.9416731,0.258433881 L22.32721,6.87328235 L21.8969752,6.44302248 C21.731446,6.27757185 21.5070639,6.18456654 21.2730642,6.18456654 C21.0390644,6.18456654 20.8146823,6.27757185 20.6491531,6.44302248 L1.39367489,25.6997108 C0.494911205,26.5985268 0,27.7934775 0,29.0645795 C0,30.3355933 0.494911205,31.5306321 1.39367489,32.4294482 L1.89414492,32.9299474 L6.0719049,37.1079507 L6.57237492,37.6084499 C7.50007975,38.5361206 8.71851955,39 9.93704758,39 C11.1555756,39 12.3741036,38.5362088 13.3017202,37.6084499 L32.5571985,18.3517616 C32.9017569,18.0071831 32.9017569,17.4484453 32.5571985,17.1038668 L32.1269637,16.6736952 L38.741515,10.0588467 C39.0861617,9.71417994 39.0861617,9.15544214 38.741515,8.81086363 Z" id="Path" fill="#FFFFFF"></path>
                            <path d="M39.4486377,10.7659376 L33.5123484,16.7024936 C33.9871198,17.4321297 33.9044458,18.4186905 33.2643275,19.0588462 L14.0088813,38.3155025 C12.9163904,39.4081609 11.4543858,40 9.93704758,40 C8.41983266,40 6.95790364,39.4081519 5.86524754,38.3155361 L0.686547515,33.1365344 C-0.399710745,32.0502128 -1,30.600841 -1,29.0645795 C-1,27.5282598 -0.399732024,26.0789674 0.686545895,24.9926262 L19.9422143,5.73574781 C20.2952482,5.38288148 20.7739047,5.18456654 21.2730642,5.18456654 C21.6396414,5.18456654 21.9951609,5.2915232 22.2980618,5.4881775 L28.2347268,-0.448833315 C28.9699644,-1.18373731 30.1614805,-1.18373731 30.8967109,-0.448652302 L39.4485971,8.10373218 C40.183801,8.83879063 40.183801,10.0307315 39.4486377,10.7659376 Z M37.9512973,9.4348546 L29.5656283,1.04869711 L22.32721,8.28753711 L21.6200827,7.58036854 L21.2730644,7.23333 L2.10080227,26.406797 C1.38957744,27.1180632 1,28.0586625 1,29.0645795 C1,30.0704432 1.3896022,31.0111205 2.10080227,31.722362 L6.77903227,36.4008646 L7.27946867,36.9013301 C7.99286381,37.6146989 8.94459925,38 9.93704758,38 C10.9296023,38 11.8813437,37.6147223 12.5945912,36.9013654 L31.7669288,17.7278229 L30.7127141,16.673763 L37.9512973,9.4348546 Z" id="Path" fill="#5AADAA" fill-rule="nonzero"></path>
                            <path d="M30.2293645,11.7706912 C30.3822676,11.9235115 30.5826154,12 30.7829631,12 C30.9833109,12 31.1836586,11.9235115 31.3365618,11.7706912 L32.770704,10.3365127 C33.076432,10.0307937 33.076432,9.535067 32.770704,9.22934798 C32.4648977,8.92355067 31.969313,8.92355067 31.6634284,9.22934798 L30.2292862,10.6634481 C29.9235582,10.9692454 29.9235582,11.4649721 30.2293645,11.7706912 Z" id="Shape" fill="#5AADAA" fill-rule="nonzero"></path>
                            <path d="M28.6634762,6.22934798 L27.2293012,7.66344811 C26.9235663,7.96916713 26.9235663,8.46489385 27.2293012,8.77069116 C27.3822079,8.92358982 27.5825602,9 27.7829125,9 C27.9832648,9 28.1836171,8.92358982 28.3365238,8.77069116 L29.7706988,7.33651274 C30.0764337,7.03079372 30.0764337,6.535067 29.7706988,6.22934798 C29.4648855,5.92355067 28.9692895,5.92355067 28.6634762,6.22934798 Z" id="Shape" fill="#5AADAA" fill-rule="nonzero"></path>
                            <path d="M20.728017,13.2650937 L18.8785414,15.1146512 L18.8586273,15.0947372 C18.5050617,14.7412638 17.9319886,14.7412638 17.5785136,15.0947372 C17.2250385,15.4482106 17.2250385,16.0213716 17.5785136,16.3749355 L17.5985182,16.3948495 L9.26510629,24.728132 C8.91163124,25.0816054 8.91163124,25.6547664 9.26510629,26.0083303 L12.9916656,29.7348723 C13.1684484,29.9115638 13.4000855,30 13.6317225,30 C13.8633595,30 14.0950871,29.9115638 14.2717794,29.7348723 L22.6051007,21.4015898 L22.6250148,21.4215038 C22.9785804,21.7750677 23.551744,21.7750677 23.9052191,21.4215038 C24.2586941,21.0680304 24.2586941,20.4948694 23.9052191,20.1413055 L23.8852145,20.1213915 L25.7348711,18.271834 C25.9045934,18.1021125 26,17.8719248 26,17.6317801 C26,17.3916355 25.9045934,17.1614478 25.7348711,16.9917262 L22.0082212,13.2651843 C21.6546557,12.9116203 21.081673,12.9116203 20.728017,13.2650937 Z M13.6317225,27.8146201 L11.1852769,25.3681859 L18.8785414,17.6749573 L21.324987,20.1213915 L13.6317225,27.8146201 Z M23.81461,17.6317801 L22.6051912,18.8412837 L20.1587456,16.3948495 L21.3681643,15.1853459 L23.81461,17.6317801 Z" id="Shape" fill="#5AADAA" fill-rule="nonzero"></path>
                            <path d="M21.9169886,6.61419652 L32.2862087,16.8556461" id="Path-2" stroke="#5AADAA" stroke-width="2"></path>
                        </g>
                    </g>
                </g>
            </g>
        </g>
    </g>
</svg>