<?xml version="1.0" encoding="UTF-8"?>
<svg width="17px" height="20px" viewBox="0 0 17 20" version="1.1" xmlns="http://www.w3.org/2000/svg" xmlns:xlink="http://www.w3.org/1999/xlink">
    <!-- Generator: Sketch 48.2 (47327) - http://www.bohemiancoding.com/sketch -->
    <title>linux-logo</title>
    <desc>Created with Sketch.</desc>
    <defs></defs>
    <g id="COMMODITY/Wallets/WEB" stroke="none" stroke-width="1" fill="none" fill-rule="evenodd" transform="translate(-339.000000, -746.000000)">
        <g id="wallest" transform="translate(135.000000, 498.000000)" fill="#5AADAA" fill-rule="nonzero">
            <g id="ONLINE-WALLET" transform="translate(0.000000, 5.000000)">
                <g id="Group-4" transform="translate(50.000000, 241.000000)">
                    <g id="linux-logo" transform="translate(154.000000, 2.000000)">
                        <path d="M16.8361833,16.7346891 C16.7546599,16.6417594 16.6392693,16.5507438 16.4906365,16.4614469 C16.4681755,16.4468766 16.4069255,16.411486 16.3069646,16.3559782 C16.2067302,16.3001188 16.1267693,16.2518376 16.0670037,16.2108219 C16.0076287,16.1698844 15.9295427,16.0993376 15.8327849,15.9989079 C15.7362615,15.8986735 15.6600896,15.7925407 15.6041912,15.6810173 C15.548449,15.5696501 15.4945427,15.4191423 15.4424333,15.2294548 C15.3902849,15.0397673 15.3608708,14.8297673 15.3532537,14.5992594 C15.249113,14.6881657 15.191613,14.8647673 15.1804021,15.1289079 C15.1691912,15.3928141 15.2250896,15.6621501 15.3477849,15.9372673 C15.470363,16.2125016 15.6544255,16.3906657 15.899738,16.4726579 C16.1375505,16.554611 16.3289568,16.6417204 16.4741521,16.7346501 C16.6189177,16.8276969 16.7120818,16.9334391 16.7530193,17.0524235 C16.7939177,17.1716813 16.7249333,17.2998454 16.546613,17.4372673 C16.3680193,17.5749626 16.0818474,17.7105094 15.687863,17.8447673 C15.1451287,18.0304313 14.7602849,18.1885954 14.5334099,18.3185173 C14.3066912,18.4487126 13.9741521,18.6960173 13.535363,19.0601579 C13.237824,19.3055485 12.9219255,19.4376579 12.587199,19.4562516 C12.252863,19.4749626 11.9812615,19.3522673 11.7732537,19.088361 C11.5649724,18.8244938 11.497863,18.4510173 11.5723162,17.9674626 C11.7136052,17.0381657 11.7101287,16.3132048 11.5614958,15.7928141 C11.4425115,15.3838688 11.4163005,15.0232048 11.483449,14.7109391 C11.5502849,14.398986 11.6542693,14.2169157 11.7957146,14.1647673 C11.936574,14.1125016 12.0892693,14.2241423 12.252863,14.4991032 C12.2674333,14.5362516 12.3011052,14.6087516 12.3529802,14.7166032 C12.4049724,14.8243376 12.4476287,14.9008219 12.4814177,14.9451969 C12.5148552,14.9898454 12.5650115,15.0474626 12.6319646,15.1182048 C12.6988005,15.1890251 12.7829021,15.2390251 12.8830193,15.2689469 C12.9832927,15.2986344 13.1002849,15.3171891 13.2343474,15.3245719 C13.4871208,15.3319157 13.7136833,15.2799235 13.9146208,15.1684391 C14.1152849,15.0569548 14.2660662,14.9323844 14.3663005,14.7948454 C14.4665349,14.6571501 14.5670818,14.5253532 14.6673552,14.3988688 C14.7675896,14.2722673 14.8550505,14.2016813 14.9295037,14.1867204 C15.0111833,14.1721501 15.0856365,14.0903141 15.1525896,13.9414079 C15.2194646,13.7927751 15.264074,13.586486 15.2864177,13.3226188 C15.3088787,13.0585954 15.2901677,12.7444548 15.2307927,12.3803141 C15.1191912,11.7332048 14.897824,11.0232438 14.5670818,10.2500407 C14.2361052,9.47672038 13.8664568,8.87078288 13.4574333,8.43207194 C12.7214177,7.65148601 12.227199,6.84109538 11.9741521,6.00086101 C11.7141521,5.11617351 11.6027849,4.32058757 11.6398162,3.61422038 C11.6770818,3.10859538 11.5673552,2.56023601 11.310949,1.96910319 C11.0545818,1.37804851 10.7142302,0.92636882 10.2904412,0.614103195 C10.022824,0.413439132 9.69184741,0.25918132 9.29801928,0.151290695 C8.90395678,0.0434000698 8.50977709,-0.00663899275 8.11571459,0.000704757251 C7.63255053,0.000704757251 7.24579272,0.0787125698 6.95594897,0.234923507 C6.36114428,0.554689132 5.96719897,0.943126632 5.77376147,1.40039226 C5.58032397,1.85757976 5.49126147,2.42078288 5.50602709,3.08996257 C5.53590991,4.56211101 5.59524584,5.71453288 5.68454272,6.54718913 C5.58036303,6.93386882 5.11950366,7.65867351 4.30157397,8.72187663 C4.15278491,8.87066569 4.00778491,9.07136882 3.86649584,9.32414226 C3.72528491,9.57699382 3.61372241,9.80382976 3.53196459,10.0044157 C3.45008959,10.2050798 3.34048022,10.4950407 3.20294116,10.8742985 C3.06532397,11.2534001 2.96692553,11.5211735 2.90739428,11.6771891 C2.85536303,11.8112516 2.77352709,11.967111 2.66208178,12.145861 C2.55051928,12.3241423 2.46110522,12.4990251 2.39434741,12.6697282 C2.32758959,12.8407048 2.29032397,13.033986 2.28290209,13.2496501 C2.27548022,13.4132438 2.28290209,13.5545719 2.30524584,13.6734001 C2.33489428,13.852111 2.39079272,13.907736 2.47247241,13.8409001 C2.80719897,13.5880876 3.22727709,13.7367594 3.73278491,14.287111 C4.08965991,14.6737126 4.71798022,15.5734001 5.61758959,16.9860954 C5.69192553,17.1124235 5.76622241,17.2480876 5.84055834,17.3934391 C5.91508959,17.5382048 5.98551928,17.7313298 6.05251147,17.9730485 C6.11942553,18.2150016 6.14735522,18.4322673 6.13614428,18.6256657 C6.12489428,18.8191032 6.03950366,18.9975798 5.87962084,19.1609001 C5.71973803,19.3244157 5.47993334,19.4284391 5.16028491,19.4730485 C4.98919116,19.4953532 4.78305834,19.4806657 4.54130053,19.4284001 C4.29965991,19.3763688 3.99294116,19.2909391 3.62126147,19.1719938 C3.24950366,19.0531657 2.97446459,18.9712126 2.79598803,18.9265641 C2.53590991,18.8669548 2.16602709,18.7911344 1.68637866,18.6979704 C1.20676928,18.6049235 0.892550532,18.5362126 0.743878657,18.4915641 C0.491105219,18.4247282 0.353605219,18.3282048 0.331339594,18.2016423 C0.308995844,18.0975016 0.361027094,17.9191813 0.487472407,17.6665251 C0.613995844,17.4137126 0.677081782,17.2313688 0.677081782,17.1200407 C0.684425532,17.0380876 0.680753657,16.9565641 0.665831782,16.8746501 C0.651066157,16.7928141 0.634347407,16.7295719 0.615714594,16.6849626 C0.597120844,16.6404313 0.565519282,16.5734782 0.520870844,16.4841423 C0.476222407,16.3950016 0.446534907,16.3278923 0.431652094,16.2835173 C0.297902094,15.9710954 0.279269282,15.7589469 0.375909907,15.6476188 C0.442745844,15.5509391 0.602628657,15.5137907 0.855402094,15.5362126 C1.23458178,15.5734001 1.54309741,15.5175016 1.78106616,15.3687516 C2.17501147,15.1234391 2.29411303,14.7293766 2.13790209,14.186486 C2.13790209,14.4392594 2.09325366,14.6286735 2.00403491,14.7552751 C1.91481616,14.8816032 1.75860522,15.0117985 1.53563647,15.1457438 C1.40930834,15.2200798 1.18614428,15.264611 0.866534907,15.2797282 C0.546886469,15.2945719 0.334894282,15.3466813 0.230831782,15.435861 C0.156534907,15.5028141 0.117550532,15.6032048 0.113800532,15.7370329 C0.110128657,15.8711344 0.126964594,16.0065251 0.164073969,16.1442204 C0.201183344,16.2817594 0.238409907,16.439611 0.275519282,16.6181266 C0.312745844,16.7966813 0.327511469,16.9455094 0.320167719,17.0643376 C0.312745844,17.1460173 0.245636469,17.3487907 0.119308344,17.6719157 C-0.00701978076,17.9954313 -0.0330354058,18.2426969 0.0413005317,18.4135563 C0.0785270942,18.4955094 0.141613032,18.5680876 0.230870844,18.6311735 C0.320050532,18.6943766 0.444581782,18.7482829 0.604425532,18.7930876 C0.764152094,18.837736 0.911066157,18.8730094 1.04497241,18.8989469 C1.17872241,18.9247282 1.36458178,18.9584001 1.60247241,18.9990641 C1.84040209,19.0398063 2.02997241,19.0753923 2.17126147,19.1049235 C2.64712084,19.2017204 3.18981616,19.3615641 3.79954272,19.5845329 C4.40919116,19.8076579 4.82176928,19.922736 5.03739428,19.9301188 C5.24559741,19.9374626 5.44442553,19.8948454 5.63407397,19.8017985 C5.82364428,19.7090251 5.98532397,19.6030094 6.11919116,19.4840251 C6.25294116,19.3650407 6.45184741,19.2534391 6.71571459,19.1494548 C6.97977709,19.0453141 7.27528491,18.9895719 7.60247241,18.982111 C7.75114428,18.9747673 7.96676928,18.9653923 8.24926928,18.9542985 C8.53180834,18.9430485 8.74364428,18.9375798 8.88493334,18.9375798 C9.52430834,18.9375798 10.0075505,18.9411735 10.3346599,18.9486344 C10.5577458,18.9562516 10.7324724,18.9914469 10.8589177,19.0546891 C10.9852458,19.1177751 11.067199,19.1903532 11.1042302,19.2719938 C11.1413787,19.353986 11.2030193,19.4485954 11.2885662,19.556486 C11.3738787,19.6642204 11.483488,19.7516423 11.6171599,19.8184782 C11.8995818,19.9524235 12.2305974,20.0062907 12.6098552,19.980236 C12.9889568,19.9542985 13.2418865,19.8817204 13.3681755,19.7627751 C13.5763396,19.562111 13.8569255,19.3240641 14.2100896,19.0490641 C14.5632927,18.7741032 14.8814568,18.5658219 15.1637615,18.4245329 C15.2231365,18.3945719 15.3235271,18.3463298 15.4648162,18.2793376 C15.605949,18.2123844 15.7248162,18.1548844 15.8214568,18.1063688 C15.9181365,18.0580094 16.035363,17.9966032 16.1726287,17.9223063 C16.3102849,17.8478532 16.4218083,17.7791423 16.5073552,17.7159001 C16.592863,17.6526579 16.6800505,17.5803532 16.7693474,17.4984001 C16.8585271,17.4167204 16.9161443,17.3349235 16.9423552,17.2531266 C16.9680193,17.1713298 16.9776287,17.0876579 16.9701677,17.0021891 C16.9625505,16.9168766 16.9181365,16.8278532 16.8361833,16.7346891 Z M10.8586443,5.95574382 C10.8808318,5.94097819 10.8958318,5.93535319 10.9031755,5.93902507 C10.9106755,5.94277507 10.9255193,5.95769694 10.9477068,5.98367351 C10.9701677,6.00968913 10.990363,6.03394694 11.0091912,6.05625163 C11.0276677,6.07836101 11.0536052,6.10824382 11.0870037,6.14535319 C11.1204021,6.18257976 11.1557146,6.21226726 11.1927458,6.23457194 C11.2376287,6.26425944 11.2913787,6.28484538 11.3546208,6.29593913 C11.417863,6.30703288 11.4662224,6.32562663 11.4998162,6.35160319 C11.5334099,6.37757976 11.5575896,6.42031413 11.5721599,6.47988444 C11.5868474,6.56175944 11.5744255,6.63593913 11.5335271,6.70285319 C11.4923552,6.76984538 11.4386052,6.79965007 11.3715349,6.79215007 C11.2377068,6.76238444 11.0926677,6.64535319 10.9366521,6.44086101 C10.7807146,6.23640788 10.7545427,6.07472819 10.8586443,5.95574382 Z M9.47563647,1.62320476 C9.51266772,1.57488444 9.53501147,1.53586101 9.54235522,1.50617351 C9.55719897,1.46140788 9.55907397,1.41500163 9.54798022,1.36668132 C9.53688647,1.31836101 9.54051928,1.27004069 9.55907397,1.22172038 C9.57778491,1.17340007 9.62055834,1.14550944 9.68751147,1.13808757 C9.75438647,1.13808757 9.84364428,1.19390788 9.95516772,1.30539226 C9.97735522,1.32031413 10.0126677,1.34261882 10.0607537,1.37230632 C10.1091521,1.40207194 10.1425896,1.42804851 10.1611443,1.45031413 C10.179738,1.47250163 10.1889568,1.49129069 10.1889568,1.50605632 C10.174113,1.54316569 10.1407146,1.56941569 10.0888396,1.58418132 C10.0370037,1.59894694 9.98094897,1.60652507 9.92161303,1.60652507 C9.86227709,1.60652507 9.82856616,1.61019694 9.82126147,1.61761882 C9.76176928,1.63996257 9.70602709,1.67336101 9.65387866,1.71793132 C9.60188647,1.76257976 9.56098803,1.79601726 9.53130053,1.81832194 C9.50133959,1.84058757 9.47169116,1.84058757 9.44200366,1.81832194 C9.41231616,1.77367351 9.40110522,1.74207194 9.40860522,1.72355632 C9.41614428,1.70504069 9.43848803,1.67152507 9.47563647,1.62320476 Z M4.07790209,9.97090007 C4.12977709,9.91148601 4.16708178,9.86316569 4.18934741,9.82593913 C4.21165209,9.78871257 4.23204272,9.73851726 4.25067553,9.67539226 C4.26926928,9.61211101 4.28598803,9.56558757 4.30087084,9.53590007 C4.31583178,9.50601726 4.33817553,9.49492351 4.36786303,9.50234538 C4.38262866,9.49867351 4.39372241,9.50601726 4.40141772,9.52465007 C4.40876147,9.54324382 4.41251147,9.55257976 4.41251147,9.55257976 L4.41251147,9.58605632 C4.41251147,9.59730632 4.41059741,9.61207194 4.40688647,9.63070476 C4.40313647,9.64945476 4.39751147,9.66613444 4.39016772,9.68090007 C4.38262866,9.69586101 4.37524584,9.71820476 4.36786303,9.74785319 C4.36044116,9.77754069 4.35309741,9.80359538 4.34551928,9.82586101 C4.31583178,9.90039226 4.26926928,9.96715007 4.20618334,10.0266813 C4.14294116,10.0861344 4.09641772,10.1121891 4.06669116,10.1047282 C4.02208178,10.0899626 4.02590991,10.0451579 4.07790209,9.97090007 Z M11.3713005,16.8519157 C11.3564568,17.0897282 11.3062224,17.4244548 11.2206755,17.8557048 C11.1351287,18.2867985 11.0811443,18.5731266 11.0587615,18.7142985 C10.9026287,18.7066813 10.813488,18.6490641 10.7911443,18.5412907 C10.7689568,18.4334001 10.7911443,18.2941423 10.8580974,18.1230485 C11.021613,17.6246891 11.1068865,17.282736 11.1145037,17.0970329 C11.1296208,16.7549626 11.0923162,16.5616423 11.0032537,16.517111 C10.9211443,16.4576579 10.7948552,16.5692594 10.6238787,16.8515641 C10.2964958,17.3869548 9.63864428,17.7101579 8.64985522,17.8219548 C7.75782397,17.9409391 7.14071459,17.807111 6.79860522,17.4202751 C6.72426928,17.3682438 6.64993334,17.3590251 6.57563647,17.3925798 C6.50130053,17.4257438 6.45298022,17.4612907 6.43067553,17.4981657 C6.42333178,17.5131657 6.43067553,17.5353532 6.45301928,17.5651579 C6.47532397,17.5950016 6.51063647,17.6394548 6.55895678,17.698986 C6.60727709,17.7587126 6.64630053,17.8179704 6.67598803,17.8776969 C6.96606616,18.3831266 6.94008959,18.7250798 6.59798022,18.9035563 C6.59798022,18.5617594 6.57196459,18.299611 6.51997241,18.1175407 C6.46790209,17.9353532 6.36391772,17.7346891 6.20770678,17.5151969 C6.05165209,17.2959391 5.94383959,17.1304313 5.88442553,17.018986 C6.10739428,16.9967985 6.27657397,16.9112126 6.39184741,16.7624626 C6.50708178,16.6137907 6.55907397,16.4539469 6.54798022,16.2829704 C6.53680834,16.1118766 6.47180834,15.9705485 6.35282397,15.8590641 C6.28590991,15.7922282 5.94008959,15.5077751 5.31559741,15.0059001 C4.69114428,14.5040641 4.30446459,14.1676188 4.15583178,13.9966423 C4.12594897,13.9668376 4.03684741,13.8925016 3.88809741,13.7735173 C3.73930834,13.6545719 3.64633959,13.5505485 3.60923022,13.4612516 C3.26715991,12.7106657 3.23005053,12.0932438 3.49766772,11.6101969 L3.54223803,11.5544548 C3.57934741,11.547111 3.58309741,11.6139079 3.55333178,11.7552751 C3.50876147,11.9635173 3.49395678,12.1715251 3.50876147,12.3798063 C3.53844897,12.8483219 3.67231616,13.1976579 3.91020678,13.4279704 C4.06641772,13.5843766 4.17415209,13.5731657 4.23368334,13.3946501 C4.27833178,13.3350407 4.29872241,13.1157829 4.29497241,12.7364079 C4.29141772,12.3574235 4.29692553,12.1009001 4.31180834,11.9669548 C4.37133959,11.5432048 4.54794116,11.0189079 4.84157397,10.3946501 C5.13520678,9.77004069 5.36766772,9.43543132 5.53864428,9.39086101 C5.40477709,9.17523601 5.36204272,8.94101726 5.41040209,8.68820476 C5.45864428,8.43539226 5.53684741,8.21965007 5.64458178,8.04132976 C5.75227709,7.86293132 5.86208178,7.65668132 5.97348803,7.42242351 C6.08505053,7.18820476 6.14079272,6.97812663 6.14079272,6.79226726 C6.14079272,6.74031413 6.14462084,6.70308757 6.15204272,6.68078288 C6.17430834,6.61386882 6.26727709,6.69562663 6.43083178,6.92605632 C6.74309741,7.38711101 6.97731616,7.65855632 7.13348803,7.74031413 C7.29704272,7.82941569 7.47911303,7.82574382 7.67989428,7.72906413 C7.88059741,7.63242351 8.12778491,7.47254069 8.42153491,7.24957194 C8.71508959,7.02660319 8.96602709,6.86297038 9.17426928,6.75898601 C9.19673022,6.75144694 9.23192553,6.73472819 9.28044116,6.70871257 C9.32852709,6.68285319 9.36571459,6.66414226 9.39165209,6.65289226 C9.41747241,6.64179851 9.45102709,6.62511882 9.49204272,6.60277507 C9.53266772,6.58047038 9.56423022,6.56187663 9.58657397,6.54695476 C9.60887866,6.53199382 9.63122241,6.51527507 9.65340991,6.49668132 C9.67555834,6.47800944 9.69040209,6.45957194 9.69805834,6.44093913 C9.70551928,6.42234538 9.70926928,6.40566569 9.70926928,6.39074382 C9.69430834,6.32379069 9.66278491,6.28285319 9.61434741,6.26808757 C9.56598803,6.25324382 9.50102709,6.26246257 9.41919116,6.29601726 C9.33739428,6.32949382 9.24622241,6.37414226 9.14594897,6.42984538 C9.04571459,6.48558757 8.93423022,6.54879069 8.81149584,6.61945476 C8.68887866,6.69011882 8.56430834,6.75507976 8.43798022,6.81465007 C8.31165209,6.87418132 8.17774584,6.92621257 8.03645678,6.97086101 C7.89520678,7.01539226 7.76137866,7.04152507 7.63501147,7.04894694 C7.32274584,7.05640788 7.07376147,6.97476726 6.88790209,6.80363444 C6.76895678,6.69199382 6.70583178,6.62140788 6.69829272,6.59168132 C6.69079272,6.56203288 6.72430834,6.55461101 6.79860522,6.56937663 C7.20024584,6.62144694 7.49383959,6.62879069 7.67973803,6.59168132 C7.87301928,6.56203288 8.13321459,6.47644694 8.46040209,6.33515788 C8.52739428,6.30547038 8.69633959,6.23289226 8.96798022,6.11765788 C9.23919116,6.00257976 9.44934741,5.92261882 9.59801928,5.87797038 C9.68743334,5.85562663 9.74880053,5.82035319 9.78223803,5.77203288 C9.81551928,5.72371257 9.82676928,5.67906413 9.81551928,5.63812663 C9.80446459,5.59730632 9.78024584,5.56574382 9.74321459,5.54343913 C9.66122241,5.49879069 9.58692553,5.52859538 9.52024584,5.63265788 C9.48294116,5.69957194 9.40473803,5.76472819 9.28587084,5.82785319 C9.16704272,5.89113444 9.05719897,5.93937663 8.95688647,5.97281413 C8.85653491,6.00621257 8.72829272,6.04527507 8.57208178,6.08984538 C8.41587084,6.13449382 8.33051928,6.16050944 8.31555834,6.16793132 C7.90669116,6.29425944 7.52751147,6.35007976 7.17801928,6.33515788 C7.01442553,6.32781413 6.88251147,6.30355632 6.78219897,6.26265788 C6.68180834,6.22187663 6.61294116,6.17355632 6.57587084,6.11769694 C6.53864428,6.06203288 6.47923022,5.99136882 6.39743334,5.90582194 C6.31555834,5.82027507 6.22258959,5.74781413 6.11856616,5.68824382 C6.04423022,5.65113444 6.01630053,5.58422038 6.03493334,5.48757976 C6.05352709,5.39093913 6.11114428,5.29047038 6.20778491,5.18640788 C6.21520678,5.17890788 6.29145678,5.13254069 6.43637866,5.04699382 C6.58133959,4.96144694 6.68360522,4.87406413 6.74317553,4.78484538 C6.80993334,4.68078288 6.92524584,4.57289226 7.08880053,4.46132976 C7.09622241,4.43164226 7.10184741,4.34988444 7.10551928,4.21605632 C7.10919116,4.08230632 7.07391772,3.93730632 6.99958178,3.78117351 C6.92524584,3.62496257 6.82477709,3.54699382 6.69840991,3.54699382 C6.51993334,3.53957194 6.39356616,3.59156413 6.31923022,3.70312663 C6.24489428,3.81453288 6.21153491,3.95215007 6.21891772,4.11570476 C6.22645678,4.25691569 6.26176928,4.38136882 6.32485522,4.48925944 C6.38809741,4.59715007 6.44575366,4.65109538 6.49778491,4.65109538 C6.57950366,4.64355632 6.60551928,4.67320476 6.57579272,4.74019694 C6.53122241,4.82207194 6.47165209,4.87422038 6.39735522,4.89640788 C6.34516772,4.91117351 6.28751147,4.86105632 6.22442553,4.74582194 C6.16118334,4.63058757 6.11290209,4.49125163 6.07946459,4.32761882 C6.04606616,4.16406413 6.03294116,4.02652507 6.04048022,3.91488444 C6.05524584,3.68441569 6.11653491,3.46320476 6.22442553,3.25129069 C6.33231616,3.03941569 6.48657397,2.93715007 6.68723803,2.94449382 C6.89544116,2.95203288 7.06286303,3.07851726 7.18919116,3.32379069 C7.31571459,3.56910319 7.37512866,3.90382976 7.36770678,4.32757976 C7.39005053,4.37965007 7.44762866,4.39824382 7.54063647,4.38332194 C7.63340991,4.36840007 7.75618334,4.36648601 7.90856616,4.37769694 C8.06087084,4.38879069 8.17051928,4.42777507 8.23747241,4.49472819 C8.24501147,4.49472819 8.24872241,4.43886882 8.24872241,4.32742351 C8.11485522,3.39074382 8.44567553,2.89257976 9.24130053,2.83304851 C9.36001147,2.85539226 9.46040209,2.88332194 9.54208178,2.91668132 C9.62415209,2.95007976 9.71118334,3.00597819 9.80423022,3.08398601 C9.89739428,3.16199382 9.97516772,3.27535319 10.0384099,3.42414226 C10.1016521,3.57300944 10.1518865,3.75886882 10.1890349,3.98183757 L10.1890349,4.39441569 C10.1890349,4.63230632 10.1405193,4.76617351 10.0438787,4.79593913 C9.88786303,4.84793132 9.77649584,4.84613444 9.70965991,4.79031413 C9.64266772,4.73445476 9.64993334,4.63605632 9.73184741,4.49476726 C9.80614428,4.30890788 9.79130053,4.09312663 9.68715991,3.84781413 C9.58317553,3.60254069 9.39344897,3.49097819 9.11848803,3.51332194 C8.93255053,3.52078288 8.79872241,3.62117351 8.71692553,3.81441569 C8.63512866,4.00773601 8.60548022,4.19734538 8.62778491,4.38324382 C8.65008959,4.56910319 8.69087084,4.66574382 8.75051928,4.67312663 C8.79505053,4.68066569 8.92719897,4.74007976 9.14649584,4.85164226 C9.36610522,4.96316569 9.53145678,5.03004069 9.64282397,5.05234538 C9.93278491,5.11172038 10.0979802,5.20468913 10.1390349,5.33113444 C10.1799333,5.45765788 10.1632146,5.64160319 10.0889177,5.88320476 C10.0144646,6.12496257 9.99223803,6.32367351 10.022199,6.47988444 C10.0518865,6.64363444 10.1077458,6.79215007 10.1895818,6.92597819 C10.2713787,7.05992351 10.3585271,7.18250163 10.451574,7.29410319 C10.5444646,7.40539226 10.6539568,7.61375163 10.7806755,7.91851726 C10.9068865,8.22343913 11.0221208,8.60629069 11.1261052,9.06726726 C11.133449,9.07468913 11.1612615,9.10070476 11.209699,9.14535319 C11.2580583,9.18992351 11.3062224,9.24566569 11.354738,9.31257976 C11.4032537,9.37953288 11.4607537,9.47058757 11.5277068,9.58582194 C11.5945818,9.70113444 11.6672771,9.87027507 11.745324,10.0934001 C11.8231365,10.3163688 11.8958708,10.5730485 11.9626677,10.8628532 C12.0445037,11.2050798 12.087238,11.6025016 12.090988,12.0563298 C12.0947771,12.5097673 12.1244255,12.8201969 12.1802849,12.9875407 C12.2361833,13.1550407 12.3792302,13.2237516 12.6096599,13.1939469 C12.8996208,13.1791032 13.0857146,13.0229704 13.1671208,12.7255485 C13.4125505,11.8630485 13.2120427,10.8294548 12.5650505,9.62515788 C12.3196208,9.15672038 12.107863,8.84812663 11.9292693,8.69949382 C12.1894255,8.84816569 12.457199,9.12687663 12.7324333,9.53593913 C13.0075505,9.94492351 13.1821208,10.3279313 13.2564568,10.6845719 C13.2636833,10.7218766 13.2842693,10.8204313 13.3176677,10.9801188 C13.3510662,11.1400016 13.3697771,11.2330485 13.3732927,11.258986 C13.3768865,11.2850407 13.3920037,11.3612516 13.417824,11.4876188 C13.4439958,11.6140251 13.4568474,11.695861 13.4568474,11.7330094 C13.4568474,11.7703141 13.4604412,11.8427751 13.4680583,11.9505094 C13.4756755,12.0582438 13.4736833,12.1419157 13.4624333,12.2014079 C13.4512224,12.2610173 13.4402458,12.3409782 13.4290349,12.4411344 C13.417824,12.541486 13.3993474,12.6381657 13.3732927,12.7312126 C13.3476287,12.8241032 13.3196599,12.9265251 13.2898552,13.0378923 C13.6986443,13.2163298 13.9031755,13.3723454 13.9031755,13.5062907 C13.7471599,13.3798454 13.5239177,13.2962907 13.2338396,13.2557829 C12.9437224,13.2147282 12.6745427,13.2537516 12.425363,13.372736 C12.1761833,13.4917204 12.047863,13.6886344 12.040363,13.9635954 C11.7727458,13.9635954 11.5830583,14.0304313 11.4716912,14.1645329 C11.3081755,14.3576969 11.2227849,14.6196891 11.215324,14.9507048 C11.207863,15.2814079 11.2355193,15.6421891 11.2987224,16.0322673 C11.362238,16.4225798 11.3863005,16.6956657 11.3713005,16.8519157 Z M6.69860522,3.92597819 C6.67626147,3.91863444 6.65770678,3.89617351 6.64294116,3.85906413 C6.64294116,3.79230632 6.67630053,3.76609538 6.74325366,3.78105632 C6.78790209,3.79582194 6.83075366,3.85164226 6.87153491,3.94828288 C6.91243334,4.04492351 6.92173022,4.15648601 6.89946459,4.28289226 C6.89946459,4.30519694 6.88837084,4.31644694 6.86590991,4.31625163 C6.78403491,4.31625163 6.75434741,4.24195476 6.77669116,4.09328288 C6.79891772,3.98175944 6.77290209,3.92597819 6.69860522,3.92597819 Z M9.58712084,4.10453288 L9.56493334,4.13793132 C9.50555834,4.17504069 9.47606616,4.18250163 9.47606616,4.16027507 C9.44610522,3.95941569 9.37923022,3.84418132 9.27524584,3.81441569 L9.23059741,3.79215007 C9.17844897,3.74750163 9.20438647,3.72148601 9.30837084,3.71406413 C9.33067553,3.70660319 9.36411303,3.71769694 9.40876147,3.74746257 C9.45340991,3.77726726 9.49430834,3.82375163 9.53149584,3.88695476 C9.56852709,3.95023601 9.58712084,4.02261882 9.58712084,4.10453288 Z" id="Shape"></path>
                        <path d="M6.66666667,5.03886684 C6.66666667,5.13821873 6.69559179,5.17959362 6.75307971,5.16316535 C6.79897343,5.16316535 6.84758454,5.08450091 6.89945652,4.92734586 C6.95120773,4.7705385 7.04039855,4.68370339 7.16666667,4.66692743 L7.16666667,4.66666667 L6.9942029,4.66666667 C6.7759058,4.71629915 6.66666667,4.8403369 6.66666667,5.03886684 Z" id="Shape"></path>
                        <path d="M8,4.82262132 C8.10099499,4.76062603 8.18951819,4.80744765 8.26525116,4.96211072 C8.340878,5.11655702 8.39909739,5.1838631 8.43953784,5.16294511 C8.49993317,5.10138335 8.51516468,5.00828204 8.48486087,4.88461661 C8.40408611,4.61636777 8.24253658,4.59577493 8,4.82262132 Z" id="Shape"></path>
                    </g>
                </g>
            </g>
        </g>
    </g>
</svg>