<?xml version="1.0" encoding="UTF-8"?>
<svg width="67px" height="53px" viewBox="0 0 67 53" version="1.1" xmlns="http://www.w3.org/2000/svg" xmlns:xlink="http://www.w3.org/1999/xlink">
    <!-- Generator: Sketch 48.2 (47327) - http://www.bohemiancoding.com/sketch -->
    <title>online wallet</title>
    <desc>Created with Sketch.</desc>
    <defs>
        <rect id="path-1" x="15" y="16" width="36" height="36" rx="3"></rect>
    </defs>
    <g id="COMMODITY/Wallets/WEB" stroke="none" stroke-width="1" fill="none" fill-rule="evenodd" transform="translate(-237.000000, -502.000000)">
        <g id="wallest" transform="translate(135.000000, 498.000000)">
            <g id="ONLINE-WALLET" transform="translate(0.000000, 5.000000)">
                <g id="online-wallet" transform="translate(103.000000, 0.000000)">
                    <g>
                        <rect id="Rectangle" x="0" y="0" width="65" height="52"></rect>
                        <g id="Group-5" stroke-width="1" fill-rule="evenodd">
                            <g id="icon" stroke="#5AADAA" stroke-linecap="round" stroke-linejoin="round" stroke-width="2">
                                <g id="cloud">
                                    <path d="M55.224,17.6466971 C54.6509167,7.83934412 46.6136667,0 36.9254167,0 C31.0429167,0 25.34675,2.90188676 21.81725,7.63665882 C21.736,7.59416029 21.6504167,7.56473824 21.5680833,7.52550882 C21.3535833,7.42089706 21.1358333,7.32173382 20.91375,7.23237794 C20.79025,7.18334118 20.66675,7.13866324 20.5421667,7.095075 C20.32225,7.01770588 20.0990833,6.94905441 19.8715833,6.88694118 C19.747,6.85316029 19.6235,6.81828971 19.4978333,6.78995735 C19.2540833,6.73438235 19.0049167,6.69188382 18.7535833,6.65374412 C18.6441667,6.63739853 18.5369167,6.61560441 18.4264167,6.60361765 C18.06675,6.56329853 17.70275,6.53823529 17.3333333,6.53823529 C11.95675,6.53823529 7.58333333,10.9373779 7.58333333,16.3455882 C7.58333333,16.4839809 7.592,16.6201941 7.60066667,16.7564074 L7.60066667,16.7607662 C3.09508333,19.2322191 0,24.4083221 0,29.5898735 C0,37.3082603 6.24216667,43.5882353 13.9154167,43.5882353 L40.46575,43.5882353 C40.5784167,43.5882353 40.69,43.5816971 40.8026667,43.5729794 L40.8698333,43.5642618 L41.015,43.5729794 C41.1255,43.5816971 41.236,43.5882353 41.34975,43.5882353 L51.9696667,43.5882353 C59.1543333,43.5882353 65,37.7081824 65,30.4812529 C65,24.4998574 60.8540833,19.1352353 55.224,17.6466971 Z" id="Path"></path>
                                </g>
                            </g>
                            <g id="Rectangle-3">
                                <use fill="#FFFFFF" fill-rule="evenodd" xlink:href="#path-1"></use>
                                <rect stroke="#5AADAA" stroke-width="1.7" x="15.85" y="16.85" width="34.3" height="34.3" rx="3"></rect>
                            </g>
                            <circle id="Oval" stroke="#5AADAA" cx="19.5" cy="20.5" r="1"></circle>
                            <circle id="Oval" stroke="#5AADAA" cx="23.5" cy="20.5" r="1"></circle>
                            <circle id="Oval" stroke="#5AADAA" cx="27.5" cy="20.5" r="1"></circle>
                            <path d="M19.091,24.540315 L20.1347561,24.540315 L21.0059905,27.8699831 L21.0232426,27.8699831 L21.8599727,24.540315 L22.8519723,24.540315 L23.654198,27.8699831 L23.6714502,27.8699831 L24.5771889,24.540315 L25.5778146,24.540315 L24.1803891,29 L23.1711373,29 L22.3430334,25.6875841 L22.3257812,25.6875841 L21.5063033,29 L20.4711733,29 L19.091,24.540315 Z M25.8020927,24.540315 L26.8458488,24.540315 L27.7170832,27.8699831 L27.7343354,27.8699831 L28.5710654,24.540315 L29.563065,24.540315 L30.3652907,27.8699831 L30.3825429,27.8699831 L31.2882816,24.540315 L32.2889073,24.540315 L30.8914818,29 L29.8822301,29 L29.0541261,25.6875841 L29.0368739,25.6875841 L28.217396,29 L27.182266,29 L25.8020927,24.540315 Z M32.5131854,24.540315 L33.5569415,24.540315 L34.4281759,27.8699831 L34.4454281,27.8699831 L35.2821581,24.540315 L36.2741577,24.540315 L37.0763834,27.8699831 L37.0936356,27.8699831 L37.9993744,24.540315 L39,24.540315 L37.6025745,29 L36.5933228,29 L35.7652188,25.6875841 L35.7479666,25.6875841 L34.9284887,29 L33.8933588,29 L32.5131854,24.540315 Z" id="www" fill="#5AADAA"></path>
                            <path d="M23.5715036,32.4692852 L45.5,32.4692852" id="Path-3" stroke="#5AADAA" stroke-width="1.7" stroke-linecap="round" stroke-linejoin="round"></path>
                            <path d="M23.5715036,42.4692852 L45.5,42.4692852" id="Path-3" stroke="#5AADAA" stroke-width="1.7" stroke-linecap="round" stroke-linejoin="round"></path>
                            <path d="M31.3755338,37.4692852 L45.5,37.4692852" id="Path-3" stroke="#5AADAA" stroke-width="1.7" stroke-linecap="round" stroke-linejoin="round"></path>
                        </g>
                    </g>
                </g>
            </g>
        </g>
    </g>
</svg>