<?xml version="1.0" encoding="UTF-8"?>
<svg width="67px" height="61px" viewBox="0 0 67 61" version="1.1" xmlns="http://www.w3.org/2000/svg" xmlns:xlink="http://www.w3.org/1999/xlink">
    <!-- Generator: Sketch 48.2 (47327) - http://www.bohemiancoding.com/sketch -->
    <title>paper wallet</title>
    <desc>Created with Sketch.</desc>
    <defs></defs>
    <g id="COMMODITY/Wallets/WEB" stroke="none" stroke-width="1" fill="none" fill-rule="evenodd" transform="translate(-1137.000000, -500.000000)">
        <g id="wallest" transform="translate(135.000000, 498.000000)">
            <g id="PAPER-WALLET" transform="translate(900.000000, 3.000000)">
                <g id="paper-wallet" transform="translate(103.000000, 0.000000)">
                    <rect id="Rectangle" x="0" y="0" width="65" height="59"></rect>
                    <g id="Group-5" stroke-width="1" fill-rule="evenodd" stroke="#5AADAA">
                        <g id="cloud" stroke-linecap="round" stroke-linejoin="round" stroke-width="2">
                            <path d="M55.224,17.6466971 C54.6509167,7.83934412 46.6136667,0 36.9254167,0 C31.0429167,0 25.34675,2.90188676 21.81725,7.63665882 C21.736,7.59416029 21.6504167,7.56473824 21.5680833,7.52550882 C21.3535833,7.42089706 21.1358333,7.32173382 20.91375,7.23237794 C20.79025,7.18334118 20.66675,7.13866324 20.5421667,7.095075 C20.32225,7.01770588 20.0990833,6.94905441 19.8715833,6.88694118 C19.747,6.85316029 19.6235,6.81828971 19.4978333,6.78995735 C19.2540833,6.73438235 19.0049167,6.69188382 18.7535833,6.65374412 C18.6441667,6.63739853 18.5369167,6.61560441 18.4264167,6.60361765 C18.06675,6.56329853 17.70275,6.53823529 17.3333333,6.53823529 C11.95675,6.53823529 7.58333333,10.9373779 7.58333333,16.3455882 C7.58333333,16.4839809 7.592,16.6201941 7.60066667,16.7564074 L7.60066667,16.7607662 C3.09508333,19.2322191 0,24.4083221 0,29.5898735 C0,37.3082603 6.24216667,43.5882353 13.9154167,43.5882353 L40.46575,43.5882353 C40.5784167,43.5882353 40.69,43.5816971 40.8026667,43.5729794 L40.8698333,43.5642618 L41.015,43.5729794 C41.1255,43.5816971 41.236,43.5882353 41.34975,43.5882353 L51.9696667,43.5882353 C59.1543333,43.5882353 65,37.7081824 65,30.4812529 C65,24.4998574 60.8540833,19.1352353 55.224,17.6466971 Z" id="Path"></path>
                        </g>
                        <g id="text-document-outlined-symbol" transform="translate(18.000000, 21.000000)">
                            <path d="M20.5263158,0 L19.7368834,0 L3.15789474,0 C1.42101135,0 0,1.26662987 0,2.81481481 L0,35.1851852 C0,36.7332965 1.42101135,38 3.15789474,38 L26.8421053,38 C28.5789061,38 30,36.7332965 30,35.1851852 L30,10.5555924 L30,9.85192544 L20.5263158,0 Z" id="Path" stroke-width="1.7" fill="#FFFFFF"></path>
                            <path d="M4,15 L25.9284964,15" id="Path-3" stroke-width="1.7" stroke-linecap="round" stroke-linejoin="round"></path>
                            <path d="M4,25 L25.9284964,25" id="Path-3" stroke-width="1.7" stroke-linecap="round" stroke-linejoin="round"></path>
                            <path d="M3.80403014,20 L17.9284964,20" id="Path-3" stroke-width="1.7" stroke-linecap="round" stroke-linejoin="round"></path>
                            <path d="M3.80403014,30 L17.9284964,30" id="Path-3" stroke-width="1.7" stroke-linecap="round" stroke-linejoin="round"></path>
                            <path d="M19.5263158,3.11114791 L26.9474097,10.8519254 L21.1052632,10.8519254 C20.3158308,10.8519254 19.5263158,10.1482585 19.5263158,9.44451803 L19.5263158,3.11114791 Z" id="Path" stroke-width="1.5"></path>
                        </g>
                    </g>
                </g>
            </g>
        </g>
    </g>
</svg>