<?xml version="1.0" encoding="UTF-8"?>
<svg width="66px" height="55px" viewBox="0 0 66 55" version="1.1" xmlns="http://www.w3.org/2000/svg" xmlns:xlink="http://www.w3.org/1999/xlink">
    <!-- Generator: Sketch 48.2 (47327) - http://www.bohemiancoding.com/sketch -->
    <title>software walle</title>
    <desc>Created with Sketch.</desc>
    <defs></defs>
    <g id="COMMODITY/Wallets/WEB" stroke="none" stroke-width="1" fill="none" fill-rule="evenodd" transform="translate(-538.000000, -498.000000)">
        <g id="wallest" transform="translate(135.000000, 498.000000)">
            <g id="SOFTWARE-WALLET" transform="translate(300.000000, 0.000000)">
                <g id="software-walle" transform="translate(102.000000, 0.000000)">
                    <rect id="Rectangle" x="0" y="0" width="67" height="56"></rect>
                    <g id="Group-5" stroke-width="1" fill-rule="evenodd" transform="translate(0.985294, 0.000000)">
                        <g id="cloud" fill="#5AADAA" fill-rule="nonzero">
                            <path d="M66.0147059,30.3956925 C66.0147059,37.9053943 59.8151715,44.0162272 52.190701,44.0162272 L41.7269596,44.0162272 C41.5966405,44.0162272 41.470751,44.0101888 41.3380692,43.9997611 C41.1106594,44.0102415 40.9849578,44.0162272 40.8559596,44.0162272 L14.6960723,44.0162272 C6.59038276,44.0162272 0,37.5194399 0,29.5350503 C0,24.3948925 2.9945701,19.2631734 7.47285105,16.6002518 C7.55302739,10.9141359 12.2706614,6.3127789 18.0637255,6.3127789 C18.4470247,6.3127789 18.8371344,6.33650815 19.246993,6.38153784 C19.3269291,6.39003507 19.3904117,6.39944763 19.4978809,6.41716633 C19.9211416,6.481365 20.1718909,6.52556839 20.4130962,6.57946224 C20.5019598,6.59909497 20.5856841,6.62006544 20.6998215,6.65037186 C21.0766257,6.75109804 21.3181542,6.8243956 21.5507565,6.90458663 C21.7052583,6.95755751 21.8309331,7.00282535 21.9592714,7.05277119 C22.0332948,7.0819569 22.1076133,7.11238362 22.1823518,7.14404698 C25.8775829,2.68499626 31.5395813,0 37.36769,0 C47.1803649,0 55.4008717,7.5831199 56.3278359,17.2653546 C61.981473,19.0526011 66.0147059,24.4456908 66.0147059,30.3956925 Z M41.1950373,43.991344 L41.2541005,43.0275631 L41.3809193,43.9850492 L41.2823577,43.9964826 L41.1950373,43.991344 Z M54.4135602,18.0600305 C53.8771537,9.06459375 46.3547469,1.93103448 37.36769,1.93103448 C31.9002379,1.93103448 26.5738315,4.57499715 23.2716623,8.91589293 C22.9823526,9.29620755 22.4539714,9.414249 22.0250332,9.19439246 C21.9009592,9.14277769 21.8604857,9.12561663 21.8042982,9.09933787 C21.5970663,9.0002994 21.4066973,8.91638352 21.227883,8.84587031 C21.1326633,8.80882138 21.0309282,8.77217659 20.8983786,8.72673049 C20.7100039,8.66178842 20.5133676,8.60211447 20.3067958,8.54684568 C20.0952073,8.49050017 20.0354412,8.47553054 19.9773684,8.46269754 C19.7882013,8.42043317 19.5817206,8.38403366 19.3175133,8.3447425 C19.0995672,8.30967091 19.0652189,8.30457809 19.0309688,8.30093107 C18.6869594,8.26314121 18.3692092,8.24381339 18.0637255,8.24381339 C13.3116703,8.24381339 9.44240196,12.0577211 9.44240196,16.7474645 C9.44240196,16.8316243 9.44600165,16.9058406 9.45948039,17.1441174 C9.45948039,17.500832 9.26343699,17.8253214 8.94804351,17.994852 C4.80879556,20.2197849 1.97058824,24.9017181 1.97058824,29.5350503 C1.97058824,36.4555322 7.68135195,42.0851927 14.6960723,42.0851927 L40.8559596,42.0851927 C40.926352,42.0851927 41.0049594,42.0814496 41.0611027,42.078494 L41.3131636,42.0637821 C41.5784278,42.0814786 41.6558599,42.0851927 41.7269596,42.0851927 L52.190701,42.0851927 C58.72425,42.0851927 64.0441176,36.8414405 64.0441176,30.3956925 C64.0441176,25.0840806 60.2850764,20.2687735 55.1453282,18.9371509 C54.7335948,18.8304777 54.4384038,18.4766524 54.4135602,18.0600305 Z" id="Path"></path>
                        </g>
                        <g id="laptop" transform="translate(9.852941, 21.241379)">
                            <path d="M45.1863841,23.3326656 C46.3729529,23.3326656 47.3279382,24.2865179 47.2936274,25.4245243 L47.2936274,27.5490056 C47.2936274,30.4614539 44.8977648,32.8275862 41.9410764,32.8275862 L5.35255096,32.8275862 C2.39586262,32.8275862 0,30.4614539 0,27.5490056 L0,25.4245243 C0,24.2702673 0.949382645,23.3326656 2.12578794,23.3326656 L3.28239686,23.3326656 L3.28239686,3.90499356 C3.28239686,1.75259671 5.05701488,0 7.2441017,0 L39.9568026,0 C42.0416434,0 43.7725108,1.57802731 44.0013002,3.65076563 C44.0082992,3.69143801 44.0127959,3.73305517 44.0174546,3.79028829 C44.0206599,3.86752565 44.0206599,3.86752565 44.0205028,3.90499356 L44.0205028,23.3326656 L45.1863841,23.3326656 Z M42.0696258,4.02756762 L42.0521442,3.92738131 C42.0553222,3.96106602 42.0599693,3.98942085 42.0696258,4.02756762 Z M42.0499146,3.91460354 C41.9354517,2.76575101 41.0290557,1.93103448 39.9568026,1.93103448 L7.2441017,1.93103448 C6.14879165,1.93103448 5.2529851,2.81572494 5.2529851,3.90499356 L5.2529851,25.2637001 L2.12578794,25.2637001 C2.04115942,25.2637001 1.97058824,25.3333956 1.97058824,25.4245243 L1.97058824,27.5490056 C1.97058824,29.3983257 3.48763939,30.8965517 5.35255096,30.8965517 L41.9410764,30.8965517 C43.805988,30.8965517 45.3230392,29.3983257 45.3230392,27.5490056 L45.3234585,25.396359 C45.3256521,25.3227029 45.2665792,25.2637001 45.1863841,25.2637001 L42.0499146,25.2637001 L42.0499146,3.91460354 Z" id="Path" stroke="#5AADAA" stroke-width="1.2" fill="#5AADAA" fill-rule="nonzero"></path>
                            <path d="M45.1863841,24.2981829 L43.0352087,24.2981829 L43.0352087,3.90499356 C43.0352087,3.86836457 43.0352087,3.83173558 43.0259364,3.7951066 C42.8683072,2.18343111 41.5423672,0.965517241 39.9568026,0.965517241 L7.2441017,0.965517241 C5.60290326,0.965517241 4.26769098,2.28416082 4.26769098,3.90499356 L4.26769098,24.2981829 L2.12578794,24.2981829 C1.49527103,24.2981829 0.985294118,24.8018314 0.985294118,25.4245243 L0.985294118,27.5490056 C0.985294118,29.9298898 2.941751,31.862069 5.35255096,31.862069 L41.9410764,31.862069 C44.3518764,31.862069 46.3083333,29.9298898 46.3083333,27.5490056 L46.3083333,25.4245243 C46.3268779,24.8018314 45.816901,24.2981829 45.1863841,24.2981829 Z" id="Path" fill="#FFFFFF"></path>
                            <rect id="Rectangle-4" stroke="#5AADAA" x="9.36764706" y="5.32758621" width="29.5441176" height="17.3448276" rx="2"></rect>
                            <ellipse id="Oval-2" fill="#5AADAA" cx="11.8235294" cy="7.72413793" rx="1" ry="1"></ellipse>
                            <ellipse id="Oval-2" fill="#5AADAA" cx="14.7794118" cy="7.72413793" rx="1" ry="1"></ellipse>
                            <ellipse id="Oval-2" fill="#5AADAA" cx="17.7352941" cy="7.72413793" rx="1" ry="1"></ellipse>
                            <path d="M38.2766227,25.1034483 L27.6986353,25.1034483 C27.0660029,25.1034483 26.5543148,25.5108916 26.5543148,26.0146397 L26.5450114,26.1850251 L20.7303745,26.1776171 L20.7303745,26.0146397 C20.7303745,25.5108916 20.2186865,25.1034483 19.586054,25.1034483 L9.02667347,25.1034483 C8.39404098,25.1034483 7.88235294,25.5108916 7.88235294,26.0146397 C7.88235294,26.5183879 8.39404098,26.9258312 9.02667347,26.9258312 L18.6557121,26.9258312 C19.0185454,27.5555164 19.8186395,28 20.739678,28 L26.5450114,28 C27.4753533,28 28.2754473,27.5555164 28.6289772,26.9258312 L38.2673193,26.9258312 C38.8999518,26.9258312 39.4116398,26.5183879 39.4116398,26.0146397 C39.4209432,25.5108916 38.9092552,25.1034483 38.2766227,25.1034483 Z" id="Shape" fill="#5AADAA" fill-rule="nonzero"></path>
                            <path d="M35.7850012,7.16787193 L37.018859,8.42813714" id="Path-4" stroke="#5AADAA" stroke-linecap="round" stroke-linejoin="round"></path>
                            <path d="M37.0504445,7.14357576 L35.7951886,8.43794946" id="Path-5" stroke="#5AADAA" stroke-linecap="round" stroke-linejoin="round"></path>
                        </g>
                    </g>
                </g>
            </g>
        </g>
    </g>
</svg>