<?xml version="1.0" encoding="UTF-8"?>
<svg width="27px" height="27px" viewBox="0 0 27 27" version="1.1" xmlns="http://www.w3.org/2000/svg" xmlns:xlink="http://www.w3.org/1999/xlink">
    <!-- Generator: Sketch 48.2 (47327) - http://www.bohemiancoding.com/sketch -->
    <title>Btn_icon / Social / Facebook</title>
    <desc>Created with Sketch.</desc>
    <defs></defs>
    <g id="COMMODITY-WEB-Copy" stroke="none" stroke-width="1" fill="none" fill-rule="evenodd" transform="translate(-1081.000000, -6480.000000)">
        <g id="//FOOTER" transform="translate(120.000000, 6398.000000)">
            <g id="SOCIAL-MEDIA" transform="translate(961.000000, 82.000000)">
                <g id="Btn_icon-/-Social-/-Facebook">
                    <rect id="Base_buttons" fill="#5AADAA" x="0" y="0" width="27" height="27" rx="2"></rect>
                    <path d="M15.7198212,10.7239483 C15.4850969,10.6554038 15.2151639,10.6097074 14.9687034,10.6097074 C14.6635618,10.6097074 14.0063338,10.8039168 14.0063338,11.1809115 L14.0063338,12.0834139 L15.5672504,12.0834139 L15.5672504,13.6028167 L14.0063338,13.6028167 L14.0063338,17.7954545 L12.4336811,17.7954545 L12.4336811,13.6028167 L11.6590909,13.6028167 L11.6590909,12.0834139 L12.4336811,12.0834139 L12.4336811,11.3180005 C12.4336811,10.1641683 12.9735469,9.20454545 14.2762668,9.20454545 C14.7222429,9.20454545 15.5203055,9.22739362 15.9545455,9.37590667 L15.7198212,10.7239483 Z" id="Facebook-Icon" fill="#FFFFFF"></path>
                </g>
            </g>
        </g>
    </g>
</svg>