<?xml version="1.0" encoding="UTF-8"?>
<svg width="27px" height="27px" viewBox="0 0 27 27" version="1.1" xmlns="http://www.w3.org/2000/svg" xmlns:xlink="http://www.w3.org/1999/xlink">
    <!-- Generator: Sketch 48.2 (47327) - http://www.bohemiancoding.com/sketch -->
    <title>Btn_icon / Social / google</title>
    <desc>Created with Sketch.</desc>
    <defs></defs>
    <g id="COMMODITY-WEB-Copy" stroke="none" stroke-width="1" fill="none" fill-rule="evenodd" transform="translate(-1159.000000, -6480.000000)">
        <g id="//FOOTER" transform="translate(120.000000, 6398.000000)">
            <g id="SOCIAL-MEDIA" transform="translate(961.000000, 82.000000)">
                <g id="Btn_icon-/-Social-/-google" transform="translate(78.000000, 0.000000)">
                    <rect id="Base_buttons" fill="#5AADAA" x="0" y="0" width="27" height="27" rx="2"></rect>
                    <path d="M18.4602273,13.4488636 L18.4602273,11.6590909 L17.1818182,11.6590909 L17.1818182,13.4488636 L15.3409091,13.4488636 L15.3409091,14.7272727 L17.1818182,14.7272727 L17.1818182,16.5681818 L18.4602273,16.5681818 L18.4602273,14.7272727 L20.25,14.7272727 L20.25,13.4488636 L18.4602273,13.4488636 L18.4602273,13.4488636 L18.4602273,13.4488636 Z M10.7947069,13.0169892 L10.7947069,14.5966472 C10.7947069,14.5966472 12.3486753,14.5945936 12.9814116,14.5945936 C12.6387729,15.6186464 12.1059929,16.1763051 10.7947069,16.1763051 C9.46768262,16.1763051 8.43195733,15.1154463 8.43195733,13.8068182 C8.43195733,12.49819 9.46768262,11.4373312 10.7947069,11.4373312 C11.4963234,11.4373312 11.9494507,11.6805196 12.3650944,12.0194747 C12.6978016,11.6913797 12.6700092,11.6446218 13.5164743,10.856333 C12.7979181,10.2113587 11.8428867,9.81818182 10.7947069,9.81818182 C8.56086734,9.81818182 6.75,11.6039457 6.75,13.8068182 C6.75,16.0096512 8.56086734,17.7954545 10.7947069,17.7954545 C14.1336725,17.7954545 14.9497823,14.9283753 14.6792274,13.0169892 L10.7947069,13.0169892 L10.7947069,13.0169892 L10.7947069,13.0169892 Z" id="icon" fill="#FFFFFF"></path>
                </g>
            </g>
        </g>
    </g>
</svg>