<?xml version="1.0" encoding="UTF-8"?>
<svg width="27px" height="27px" viewBox="0 0 27 27" version="1.1" xmlns="http://www.w3.org/2000/svg" xmlns:xlink="http://www.w3.org/1999/xlink">
    <!-- Generator: Sketch 48.2 (47327) - http://www.bohemiancoding.com/sketch -->
    <title>Btn_icon / Social / Twitter</title>
    <desc>Created with Sketch.</desc>
    <defs></defs>
    <g id="COMMODITY-WEB-Copy" stroke="none" stroke-width="1" fill="none" fill-rule="evenodd" transform="translate(-1120.000000, -6480.000000)">
        <g id="//FOOTER" transform="translate(120.000000, 6398.000000)">
            <g id="SOCIAL-MEDIA" transform="translate(961.000000, 82.000000)">
                <g id="Btn_icon-/-Social-/-Twitter" transform="translate(39.000000, 0.000000)">
                    <rect id="Base_buttons" fill="#5AADAA" x="0" y="0" width="27" height="27" rx="2"></rect>
                    <path d="M17.4463062,11.9603303 C17.40819,12.6876311 17.1969069,13.4058567 16.8732044,14.0603097 C15.9172713,15.9550071 14.0795279,17.0047354 11.9668922,16.8940169 C10.9740689,16.8419852 10.0079155,16.5019471 9.20454545,15.9273407 C9.34247392,15.9461454 9.49194685,15.9655551 9.63048034,15.9728153 C10.4616813,16.0163767 11.2727693,15.7810561 11.9458798,15.306981 C11.1730061,15.2549003 10.5075646,14.6990985 10.3038522,13.9475479 C10.4180867,13.976687 10.5329263,13.9942816 10.6483709,14.0003318 C10.8099933,14.0088021 10.9728257,13.9941834 11.1368682,13.9564759 C10.2916536,13.7385376 9.69603474,12.9548718 9.7645001,12.0902475 L9.76571014,12.0671586 C10.012428,12.2190025 10.2852598,12.3143342 10.5848107,12.3416091 C10.0834607,11.9680496 9.81295074,11.3866406 9.84501677,10.7747844 C9.86195731,10.4515396 9.95970906,10.1325299 10.1358519,9.86393322 C11.0110561,11.0558411 12.3485453,11.8205058 13.8104563,11.9781545 C13.7830831,11.8378059 13.7787989,11.6986674 13.7860591,11.5601339 C13.8393008,10.5442217 14.7019137,9.76752159 15.7178259,9.82076329 C16.2142376,9.84677912 16.6882145,10.0799902 17.0151876,10.4675634 C17.4350232,10.4085329 17.8354,10.2790256 18.2041685,10.089981 C18.0438543,10.4983212 17.7358823,10.8526183 17.3434198,11.0519974 C17.7146575,11.0367246 18.0664364,10.9509751 18.4090909,10.8184427 C18.1472967,11.17516 17.8186558,11.4820692 17.4474672,11.7172917 C17.4547765,11.7987079 17.4505414,11.8795191 17.4463062,11.9603303 L17.4463062,11.9603303 Z" id="icon" fill="#FFFFFF"></path>
                </g>
            </g>
        </g>
    </g>
</svg>